M48
; DRILL file KiCad 10.0.4 date 2026-07-17T14:11:07
; FORMAT={-:-/ absolute / metric / decimal}
; #@! TF.CreationDate,2026-07-17T14:11:07+02:00
; #@! TF.GenerationSoftware,Kicad,Pcbnew,10.0.4
; #@! TF.FileFunction,Plated,1,2,PTH
FMAT,2
METRIC
; #@! TA.AperFunction,Plated,PTH,ViaDrill
T1C0.300
; #@! TA.AperFunction,Plated,PTH,ComponentDrill
T2C0.700
; #@! TA.AperFunction,Plated,PTH,ComponentDrill
T3C0.900
; #@! TA.AperFunction,Plated,PTH,ComponentDrill
T4C1.000
; #@! TA.AperFunction,Plated,PTH,ComponentDrill
T5C1.020
; #@! TA.AperFunction,Plated,PTH,ComponentDrill
T6C1.090
; #@! TA.AperFunction,Plated,PTH,ComponentDrill
T7C1.500
; #@! TA.AperFunction,Plated,PTH,ComponentDrill
T8C1.850
; #@! TA.AperFunction,Plated,PTH,ComponentDrill
T9C3.200
%
G90
G05
T1
X89.0Y-67.0
X89.0Y-68.5
X93.0Y-126.0
X93.5Y-75.0
X93.5Y-80.0
X96.0Y-115.5
X97.0Y-99.5
X97.0Y-100.5
X97.0Y-101.5
X97.5Y-64.0
X97.5Y-66.5
X98.5Y-81.0
X100.0Y-63.85
X100.0Y-70.5
X100.0Y-89.0
X102.0Y-99.5
X103.352Y-100.5
X104.5Y-101.5
X105.0Y-53.5
X105.0Y-70.5
X105.0Y-73.0
X105.5Y-120.0
X106.5Y-51.5
X106.5Y-61.0
X107.0Y-58.0
X108.0Y-89.0
X109.0Y-50.0
X109.0Y-73.0
X109.0Y-77.5
X109.0Y-107.5
X112.0Y-52.0
X114.5Y-121.0
X115.5Y-82.5
X115.5Y-85.0
X116.136Y-63.85
X116.5Y-53.5
X117.0Y-64.6
X117.0Y-65.5
X117.5Y-63.226
X118.5Y-62.5
X119.0Y-50.0
X122.5Y-100.0
X122.75Y-90.0
X124.0Y-92.0
X124.5Y-88.0
X125.5Y-63.0
X125.5Y-98.5
X126.5Y-80.5
X127.5Y-88.0
X127.5Y-92.0
X128.0Y-63.0
X128.0Y-97.5
X131.0Y-73.5
X131.5Y-90.0
X139.5Y-74.5
X139.5Y-76.9
X139.5Y-77.8
X139.5Y-78.7
X139.5Y-79.6
X139.5Y-80.5
X139.5Y-85.5
X139.5Y-107.0
X140.0Y-48.0
X140.0Y-53.0
X140.0Y-94.5
X140.5Y-67.0
X141.0Y-104.0
X141.5Y-106.5
X142.5Y-43.0
X142.5Y-90.5
X143.0Y-75.5
X144.5Y-81.5
X146.5Y-74.5
X146.5Y-101.0
X147.0Y-94.0
X147.0Y-97.65
X147.5Y-45.5
X149.0Y-88.0
X149.5Y-86.0
X149.5Y-120.5
X150.0Y-95.85
X150.0Y-98.0
X154.0Y-76.0
X154.5Y-113.5
X155.0Y-53.0
X155.0Y-115.5
X158.095Y-108.0
X159.365Y-106.5
X160.5Y-126.0
X160.635Y-105.0
X163.0Y-68.0
X163.5Y-105.0
X163.5Y-106.5
X163.5Y-108.0
X165.0Y-49.5
X165.0Y-113.5
X167.0Y-69.0
X167.5Y-118.0
X168.5Y-85.0
X168.5Y-94.0
X170.5Y-65.5
T2
X119.0Y-72.62
X119.0Y-77.5
T3
X103.0Y-82.0
X105.5Y-82.0
T4
X113.0Y-123.46
X113.0Y-126.0
X143.88Y-39.0
X146.42Y-39.0
X147.5Y-123.46
X147.5Y-126.0
X148.96Y-39.0
X151.5Y-39.0
T5
X172.96Y-46.14
X172.96Y-48.68
X172.96Y-51.22
X172.96Y-53.76
X172.96Y-56.3
X172.96Y-58.84
X172.96Y-61.38
X172.96Y-63.92
X172.96Y-66.46
X172.96Y-69.0
X175.5Y-46.14
X175.5Y-48.68
X175.5Y-51.22
X175.5Y-53.76
X175.5Y-56.3
X175.5Y-58.84
X175.5Y-61.38
X175.5Y-63.92
X175.5Y-66.46
X175.5Y-69.0
T6
X90.936Y-46.5
X92.321Y-43.66
X93.706Y-46.5
X95.091Y-43.66
X96.476Y-46.5
X97.861Y-43.66
X99.246Y-46.5
X100.631Y-43.66
X102.016Y-46.5
X103.401Y-43.66
X104.786Y-46.5
X106.171Y-43.66
X107.556Y-46.5
X108.941Y-43.66
X110.326Y-46.5
T7
X87.38Y-129.0
X92.46Y-129.0
X97.54Y-129.0
X102.62Y-129.0
X122.5Y-114.5
X137.5Y-114.5
X157.88Y-129.0
X162.96Y-129.0
X168.04Y-129.0
X173.12Y-129.0
T8
X125.24Y-128.5
X129.94Y-128.5
X134.64Y-128.5
T9
X83.981Y-45.08
X117.281Y-45.08
M30
