%TF.GenerationSoftware,KiCad,Pcbnew,10.0.4*%
%TF.CreationDate,2026-07-17T14:18:18+02:00*%
%TF.ProjectId,KommModul_Joystick,4b6f6d6d-4d6f-4647-956c-5f4a6f797374,rev?*%
%TF.SameCoordinates,Original*%
%TF.FileFunction,Copper,L2,Bot*%
%TF.FilePolarity,Positive*%
%FSLAX46Y46*%
G04 Gerber Fmt 4.6, Leading zero omitted, Abs format (unit mm)*
G04 Created by KiCad (PCBNEW 10.0.4) date 2026-07-17 14:18:18*
%MOMM*%
%LPD*%
G01*
G04 APERTURE LIST*
%TA.AperFunction,ComponentPad*%
%ADD10R,1.600000X1.600000*%
%TD*%
%TA.AperFunction,ComponentPad*%
%ADD11C,1.600000*%
%TD*%
%TA.AperFunction,ComponentPad*%
%ADD12C,2.250000*%
%TD*%
%TA.AperFunction,ComponentPad*%
%ADD13R,1.300000X1.300000*%
%TD*%
%TA.AperFunction,ComponentPad*%
%ADD14C,1.300000*%
%TD*%
%TA.AperFunction,ComponentPad*%
%ADD15R,1.650000X1.650000*%
%TD*%
%TA.AperFunction,ComponentPad*%
%ADD16C,1.650000*%
%TD*%
%TA.AperFunction,ComponentPad*%
%ADD17R,2.250000X2.250000*%
%TD*%
%TA.AperFunction,ComponentPad*%
%ADD18R,2.750000X2.750000*%
%TD*%
%TA.AperFunction,ComponentPad*%
%ADD19C,2.750000*%
%TD*%
%TA.AperFunction,ComponentPad*%
%ADD20R,1.500000X1.500000*%
%TD*%
%TA.AperFunction,ComponentPad*%
%ADD21C,1.500000*%
%TD*%
%TA.AperFunction,ComponentPad*%
%ADD22R,1.700000X1.700000*%
%TD*%
%TA.AperFunction,ComponentPad*%
%ADD23C,1.700000*%
%TD*%
%TA.AperFunction,ComponentPad*%
%ADD24C,4.800000*%
%TD*%
%TA.AperFunction,ViaPad*%
%ADD25C,0.700000*%
%TD*%
%TA.AperFunction,Conductor*%
%ADD26C,0.200000*%
%TD*%
%TA.AperFunction,Conductor*%
%ADD27C,0.500000*%
%TD*%
%TA.AperFunction,Conductor*%
%ADD28C,0.300000*%
%TD*%
%TA.AperFunction,Conductor*%
%ADD29C,0.600000*%
%TD*%
G04 APERTURE END LIST*
D10*
%TO.P,J1,1,1_1*%
%TO.N,GND*%
X143880000Y-39000000D03*
D11*
%TO.P,J1,2,2_2*%
%TO.N,/VCC_3_3V*%
X146420000Y-39000000D03*
%TO.P,J1,3,3_3*%
%TO.N,/Display_SDA*%
X148960000Y-39000000D03*
%TO.P,J1,4,4_4*%
%TO.N,/Display_SCL*%
X151500000Y-39000000D03*
%TD*%
D12*
%TO.P,J4,1*%
%TO.N,/RS485_B_Mtr_B*%
X173120000Y-129000000D03*
%TO.P,J4,2*%
%TO.N,/RS485_A_Mtr_B*%
X168040000Y-129000000D03*
%TO.P,J4,3*%
%TO.N,GND*%
X162960000Y-129000000D03*
%TO.P,J4,4*%
%TO.N,Net-(J4-Pad4)*%
X157880000Y-129000000D03*
%TD*%
D10*
%TO.P,D5,1,+_1*%
%TO.N,Net-(D5-+)*%
X113000000Y-126000000D03*
D11*
%TO.P,D5,2,-_2*%
%TO.N,GND*%
X113000000Y-123460000D03*
%TD*%
D13*
%TO.P,Y1,1,1_1*%
%TO.N,Net-(U1-PF0)*%
X119000000Y-72620000D03*
D14*
%TO.P,Y1,2,2_2*%
%TO.N,Net-(U1-PF1)*%
X119000000Y-77500000D03*
%TD*%
D15*
%TO.P,J5,1,1_1*%
%TO.N,/VCC_3_3V*%
X175500000Y-69000000D03*
D16*
%TO.P,J5,2,2_2*%
X172960000Y-69000000D03*
%TO.P,J5,3,3_3*%
%TO.N,GND*%
X175500000Y-66460000D03*
%TO.P,J5,4,4_4*%
X172960000Y-66460000D03*
%TO.P,J5,5,5_5*%
X175500000Y-63920000D03*
%TO.P,J5,6,6_6*%
X172960000Y-63920000D03*
%TO.P,J5,7,7_7*%
%TO.N,/SWDIO*%
X175500000Y-61380000D03*
%TO.P,J5,8,8_8*%
%TO.N,GND*%
X172960000Y-61380000D03*
%TO.P,J5,9,9_9*%
%TO.N,/SWCLK*%
X175500000Y-58840000D03*
%TO.P,J5,10,10_10*%
%TO.N,GND*%
X172960000Y-58840000D03*
%TO.P,J5,11,11_11*%
%TO.N,unconnected-(J5-Pad11)*%
X175500000Y-56300000D03*
%TO.P,J5,12,12_12*%
%TO.N,GND*%
X172960000Y-56300000D03*
%TO.P,J5,13,13_13*%
%TO.N,/SWO*%
X175500000Y-53760000D03*
%TO.P,J5,14,14_14*%
%TO.N,GND*%
X172960000Y-53760000D03*
%TO.P,J5,15,15_15*%
%TO.N,/NRST*%
X175500000Y-51220000D03*
%TO.P,J5,16,16_16*%
%TO.N,GND*%
X172960000Y-51220000D03*
%TO.P,J5,17,17_17*%
%TO.N,unconnected-(J5-Pad17)*%
X175500000Y-48680000D03*
%TO.P,J5,18,18_18*%
%TO.N,GND*%
X172960000Y-48680000D03*
%TO.P,J5,19,19_19*%
%TO.N,unconnected-(J5-Pad19)*%
X175500000Y-46140000D03*
%TO.P,J5,20,20_20*%
%TO.N,GND*%
X172960000Y-46140000D03*
%TD*%
D17*
%TO.P,J6,1,1_1*%
%TO.N,Net-(J6-Pad1)*%
X122500000Y-114500000D03*
D12*
%TO.P,J6,2,2_2*%
%TO.N,/VCC_5V*%
X137500000Y-114500000D03*
%TD*%
D18*
%TO.P,SW3,1,1_1*%
%TO.N,Net-(J4-Pad4)*%
X134640000Y-128500000D03*
D19*
%TO.P,SW3,2,2_2*%
%TO.N,Net-(J6-Pad1)*%
X129940000Y-128500000D03*
%TO.P,SW3,3,3_3*%
%TO.N,Net-(J3-Pad4)*%
X125240000Y-128500000D03*
%TD*%
D12*
%TO.P,J3,1*%
%TO.N,/RS485_B_Mtr_A*%
X102620000Y-129000000D03*
%TO.P,J3,2*%
%TO.N,/RS485_A_Mtr_A*%
X97540000Y-129000000D03*
%TO.P,J3,3*%
%TO.N,GND*%
X92460000Y-129000000D03*
%TO.P,J3,4*%
%TO.N,Net-(J3-Pad4)*%
X87380000Y-129000000D03*
%TD*%
D20*
%TO.P,C11,1,1_1*%
%TO.N,/VCC_5V*%
X105500000Y-82000000D03*
D21*
%TO.P,C11,2,2_2*%
%TO.N,GND*%
X103000000Y-82000000D03*
%TD*%
D10*
%TO.P,D6,1,+_1*%
%TO.N,Net-(D6-+)*%
X147500000Y-126000000D03*
D11*
%TO.P,D6,2,-_2*%
%TO.N,GND*%
X147500000Y-123460000D03*
%TD*%
D22*
%TO.P,J2,1,1_1*%
%TO.N,Net-(J2-Pad1)*%
X90936038Y-46500000D03*
D23*
%TO.P,J2,2,2_2*%
%TO.N,Net-(J2-Pad2)*%
X93706038Y-46500000D03*
%TO.P,J2,3,3_3*%
%TO.N,unconnected-(J2-Pad3)*%
X96476038Y-46500000D03*
%TO.P,J2,4,4_4*%
%TO.N,GND*%
X99246038Y-46500000D03*
%TO.P,J2,5,5_5*%
%TO.N,unconnected-(J2-Pad5)*%
X102016038Y-46500000D03*
%TO.P,J2,6,6_6*%
%TO.N,unconnected-(J2-Pad6)*%
X104786038Y-46500000D03*
%TO.P,J2,7,7_7*%
%TO.N,/VCC_5V*%
X107556038Y-46500000D03*
%TO.P,J2,8,8_8*%
%TO.N,/VCC_3_3V*%
X110326038Y-46500000D03*
%TO.P,J2,9,9_9*%
%TO.N,Net-(J2-Pad9)*%
X92321038Y-43660000D03*
%TO.P,J2,10,10_10*%
%TO.N,/JS_Taster2*%
X95091038Y-43660000D03*
%TO.P,J2,11,11_11*%
%TO.N,unconnected-(J2-Pad11)*%
X97861038Y-43660000D03*
%TO.P,J2,12,12_12*%
%TO.N,unconnected-(J2-Pad12)*%
X100631038Y-43660000D03*
%TO.P,J2,13,13_13*%
%TO.N,/JS_Taster1*%
X103401038Y-43660000D03*
%TO.P,J2,14,14_14*%
%TO.N,unconnected-(J2-Pad14)*%
X106171038Y-43660000D03*
%TO.P,J2,15,15_15*%
%TO.N,unconnected-(J2-Pad15)*%
X108941038Y-43660000D03*
D24*
%TO.P,J2,S1,SHIELD_S1*%
%TO.N,GND*%
X117281038Y-45080000D03*
%TO.P,J2,S2,SHIELD_S2*%
X83981038Y-45080000D03*
%TD*%
D25*
%TO.N,GND*%
X106500000Y-61000000D03*
X165000000Y-49500000D03*
X114500000Y-121000000D03*
X128000000Y-97500000D03*
X97500000Y-64000000D03*
X140500000Y-67000000D03*
X107000000Y-58000000D03*
X128000000Y-63000000D03*
X168500000Y-85000000D03*
X140000000Y-53000000D03*
X124500000Y-88000000D03*
X89000000Y-68500000D03*
X115500000Y-82500000D03*
X96000000Y-115500000D03*
X170500000Y-65500000D03*
X149500000Y-120500000D03*
X163000000Y-68000000D03*
X139500000Y-85500000D03*
X142500000Y-90500000D03*
X160500000Y-126000000D03*
X168500000Y-94000000D03*
X98500000Y-81000000D03*
X149500000Y-86000000D03*
X115500000Y-85000000D03*
X89000000Y-67000000D03*
X167500000Y-118000000D03*
X142500000Y-43000000D03*
X109000000Y-73000000D03*
X106500000Y-51500000D03*
X105500000Y-120000000D03*
X125500000Y-63000000D03*
X97500000Y-66500000D03*
X125500000Y-98500000D03*
X93500000Y-75000000D03*
X146500000Y-101000000D03*
X100000000Y-89000000D03*
X109000000Y-77500000D03*
X116500000Y-53500000D03*
X155000000Y-115500000D03*
X93500000Y-80000000D03*
X140000000Y-48000000D03*
X93000000Y-126000000D03*
%TO.N,/VCC_3_3V*%
X141500000Y-106500000D03*
X143000000Y-75500000D03*
X147000000Y-94000000D03*
X167000000Y-69000000D03*
X122750000Y-90000000D03*
X147000000Y-97650000D03*
X147500000Y-45500000D03*
X141000000Y-104000000D03*
X140000000Y-94500000D03*
X131500000Y-90000000D03*
X139500000Y-107000000D03*
X109000000Y-107500000D03*
X112000000Y-52000000D03*
X154500000Y-113500000D03*
X165000000Y-113500000D03*
X149000000Y-88000000D03*
X127500000Y-88000000D03*
X131000000Y-73500000D03*
%TO.N,/UART_DE_Mtr_B*%
X159365000Y-106500000D03*
X163500000Y-106500000D03*
%TO.N,/NRST*%
X154000000Y-76000000D03*
X144500000Y-81500000D03*
X155000000Y-53000000D03*
X126500000Y-80500000D03*
%TO.N,/UART_DE_Mtr_A*%
X102000000Y-99500000D03*
X97000000Y-99500000D03*
%TO.N,/VCC_5V*%
X122500000Y-100000000D03*
X105000000Y-73000000D03*
X108000000Y-89000000D03*
X119000000Y-50000000D03*
X109000000Y-50000000D03*
%TO.N,/UART_TX_Mtr_A*%
X127500000Y-92000000D03*
X124000000Y-92000000D03*
%TO.N,/JS_Taster1*%
X117000000Y-64599997D03*
X139500000Y-79599997D03*
%TO.N,/UART_NRE_Mtr_A*%
X97000000Y-100500000D03*
X103352224Y-100500000D03*
%TO.N,/JS_Z_axis*%
X139500000Y-77799991D03*
X105000000Y-70500000D03*
X105000000Y-53500000D03*
X117500000Y-63225846D03*
%TO.N,/JS_X_axis*%
X117000000Y-65500000D03*
X139500000Y-80500000D03*
%TO.N,/JS_Y_axis*%
X100000000Y-70500000D03*
X139500000Y-78699994D03*
X116136398Y-63850000D03*
X100000000Y-63850000D03*
%TO.N,/SWDIO*%
X139500000Y-74500000D03*
X146500000Y-74500000D03*
%TO.N,/UART_RX_Mtr_A*%
X97000000Y-101500000D03*
X104500000Y-101500000D03*
%TO.N,/JS_Taster2*%
X139500000Y-76899988D03*
X118500000Y-62500000D03*
%TO.N,/UART_TX_Mtr_B*%
X163500000Y-108000000D03*
X158095000Y-108000000D03*
X150000000Y-98000000D03*
X150000000Y-95850000D03*
%TO.N,/UART_NRE_Mtr_B*%
X163500000Y-105000000D03*
X160635000Y-105000000D03*
%TD*%
%TO.N,GND*%
D26*
X172960000Y-46140000D02*
X172960000Y-66460000D01*
X172000000Y-65500000D02*
X170500000Y-65500000D01*
X175500000Y-63920000D02*
X175500000Y-66460000D01*
X172960000Y-66460000D02*
X172000000Y-65500000D01*
X172960000Y-66460000D02*
X175500000Y-66460000D01*
%TO.N,/VCC_3_3V*%
D27*
X141500000Y-106500000D02*
X152000000Y-106500000D01*
X122750000Y-90000000D02*
X131500000Y-90000000D01*
X154500000Y-113500000D02*
X165000000Y-113500000D01*
X109000000Y-107500000D02*
X139000000Y-107500000D01*
X151500000Y-49500000D02*
X147500000Y-45500000D01*
D28*
X149000000Y-88000000D02*
X127500000Y-88000000D01*
D27*
X110500000Y-85000000D02*
X110500000Y-53500000D01*
X140000000Y-94500000D02*
X120000000Y-94500000D01*
X167000000Y-91500000D02*
X167000000Y-69000000D01*
D29*
X147000000Y-97650000D02*
X147000000Y-94000000D01*
D28*
X143000000Y-75500000D02*
X133000000Y-75500000D01*
D27*
X141000000Y-104000000D02*
X148000000Y-104000000D01*
X151500000Y-100500000D02*
X151500000Y-90000000D01*
X152000000Y-106500000D02*
X167000000Y-91500000D01*
X120000000Y-94500000D02*
X110500000Y-85000000D01*
X139000000Y-107500000D02*
X139500000Y-107000000D01*
X148000000Y-104000000D02*
X151500000Y-100500000D01*
D28*
X133000000Y-75500000D02*
X131000000Y-73500000D01*
D27*
X110500000Y-53500000D02*
X112000000Y-52000000D01*
X151500000Y-90000000D02*
X151500000Y-49500000D01*
%TO.N,/UART_DE_Mtr_B*%
D26*
X163500000Y-106500000D02*
X159365000Y-106500000D01*
%TO.N,/NRST*%
X127500000Y-81500000D02*
X126500000Y-80500000D01*
X144500000Y-81500000D02*
X127500000Y-81500000D01*
X155000000Y-53000000D02*
X155000000Y-75000000D01*
X155000000Y-75000000D02*
X154000000Y-76000000D01*
%TO.N,/UART_DE_Mtr_A*%
X97000000Y-99500000D02*
X102000000Y-99500000D01*
%TO.N,/VCC_5V*%
D27*
X111500000Y-89000000D02*
X122500000Y-100000000D01*
X105000000Y-73000000D02*
X109000000Y-69000000D01*
X119000000Y-50000000D02*
X109000000Y-50000000D01*
X109000000Y-69000000D02*
X109000000Y-50000000D01*
X108000000Y-89000000D02*
X111500000Y-89000000D01*
%TO.N,/UART_TX_Mtr_A*%
D26*
X124000000Y-92000000D02*
X127500000Y-92000000D01*
%TO.N,/JS_Taster1*%
X117900000Y-64900000D02*
X132599997Y-79599997D01*
X117000000Y-64599997D02*
X117300003Y-64900000D01*
X117300003Y-64900000D02*
X117900000Y-64900000D01*
X132599997Y-79599997D02*
X139500000Y-79599997D01*
%TO.N,/UART_NRE_Mtr_A*%
X97000000Y-100500000D02*
X103352224Y-100500000D01*
%TO.N,/JS_Z_axis*%
X139299991Y-78000000D02*
X139500000Y-77799991D01*
X133000000Y-78000000D02*
X139299991Y-78000000D01*
X117500000Y-63225846D02*
X118225846Y-63225846D01*
X105000000Y-70500000D02*
X105000000Y-53500000D01*
X118225846Y-63225846D02*
X133000000Y-78000000D01*
%TO.N,/JS_X_axis*%
X117500000Y-65500000D02*
X132500000Y-80500000D01*
X132500000Y-80500000D02*
X139500000Y-80500000D01*
X117000000Y-65500000D02*
X117500000Y-65500000D01*
%TO.N,/JS_Y_axis*%
X117204915Y-63850000D02*
X117854915Y-64500000D01*
X117854915Y-64500000D02*
X118393199Y-64500000D01*
X116136398Y-63850000D02*
X117204915Y-63850000D01*
X118393199Y-64500000D02*
X132593193Y-78699994D01*
X132593193Y-78699994D02*
X139500000Y-78699994D01*
X100000000Y-70500000D02*
X100000000Y-63850000D01*
%TO.N,/SWDIO*%
X146500000Y-74500000D02*
X139500000Y-74500000D01*
%TO.N,/UART_RX_Mtr_A*%
X97000000Y-101500000D02*
X104500000Y-101500000D01*
%TO.N,/JS_Taster2*%
X132899988Y-76899988D02*
X139500000Y-76899988D01*
X118500000Y-62500000D02*
X132899988Y-76899988D01*
%TO.N,/UART_TX_Mtr_B*%
X150000000Y-98000000D02*
X150000000Y-95850000D01*
X163500000Y-108000000D02*
X158095000Y-108000000D01*
%TO.N,/UART_NRE_Mtr_B*%
X163500000Y-105000000D02*
X160635000Y-105000000D01*
%TD*%
%TA.AperFunction,Conductor*%
%TO.N,GND*%
G36*
X175024755Y-66656853D02*
G01*
X175091898Y-66773147D01*
X175186853Y-66868102D01*
X175303147Y-66935245D01*
X175366885Y-66952323D01*
X174740982Y-67578226D01*
X174736388Y-67600096D01*
X174686545Y-67650655D01*
X174629677Y-67665384D01*
X174629728Y-67666320D01*
X174626350Y-67666500D01*
X174565803Y-67673009D01*
X174565795Y-67673011D01*
X174428797Y-67724110D01*
X174428792Y-67724112D01*
X174311738Y-67811738D01*
X174224112Y-67928792D01*
X174224110Y-67928797D01*
X174170526Y-68072459D01*
X174127979Y-68129295D01*
X174061459Y-68154105D01*
X173992085Y-68139013D01*
X173963376Y-68117521D01*
X173828722Y-67982867D01*
X173828719Y-67982865D01*
X173828717Y-67982863D01*
X173735845Y-67915388D01*
X173658908Y-67859490D01*
X173624553Y-67841985D01*
X173572939Y-67793236D01*
X173555874Y-67724321D01*
X173578776Y-67657120D01*
X173624557Y-67617451D01*
X173658646Y-67600082D01*
X173658656Y-67600076D01*
X173706269Y-67565482D01*
X173706269Y-67565480D01*
X173093113Y-66952323D01*
X173156853Y-66935245D01*
X173273147Y-66868102D01*
X173368102Y-66773147D01*
X173435245Y-66656853D01*
X173452323Y-66593112D01*
X174065480Y-67206269D01*
X174065482Y-67206269D01*
X174100076Y-67158656D01*
X174100082Y-67158645D01*
X174117733Y-67124005D01*
X174166481Y-67072390D01*
X174235396Y-67055324D01*
X174302598Y-67078225D01*
X174342267Y-67124005D01*
X174359918Y-67158647D01*
X174394517Y-67206269D01*
X174394518Y-67206269D01*
X175007675Y-66593111D01*
X175024755Y-66656853D01*
G37*
%TD.AperFunction*%
%TA.AperFunction,Conductor*%
G36*
X175024755Y-64116853D02*
G01*
X175091898Y-64233147D01*
X175186853Y-64328102D01*
X175303147Y-64395245D01*
X175366885Y-64412323D01*
X174753729Y-65025479D01*
X174753729Y-65025481D01*
X174801352Y-65060081D01*
X174835995Y-65077733D01*
X174887610Y-65126481D01*
X174904676Y-65195396D01*
X174881775Y-65262598D01*
X174835996Y-65302266D01*
X174801354Y-65319917D01*
X174801351Y-65319919D01*
X174753729Y-65354517D01*
X174753729Y-65354519D01*
X175366886Y-65967676D01*
X175303147Y-65984755D01*
X175186853Y-66051898D01*
X175091898Y-66146853D01*
X175024755Y-66263147D01*
X175007676Y-66326886D01*
X174394519Y-65713729D01*
X174394517Y-65713729D01*
X174359919Y-65761351D01*
X174359917Y-65761354D01*
X174342266Y-65795996D01*
X174293517Y-65847611D01*
X174224602Y-65864676D01*
X174157401Y-65841775D01*
X174117733Y-65795995D01*
X174100081Y-65761352D01*
X174065481Y-65713729D01*
X174065479Y-65713729D01*
X173452323Y-66326885D01*
X173435245Y-66263147D01*
X173368102Y-66146853D01*
X173273147Y-66051898D01*
X173156853Y-65984755D01*
X173093112Y-65967676D01*
X173706269Y-65354518D01*
X173706269Y-65354517D01*
X173658647Y-65319918D01*
X173624005Y-65302267D01*
X173572390Y-65253519D01*
X173555324Y-65184604D01*
X173578225Y-65117402D01*
X173624005Y-65077733D01*
X173658645Y-65060082D01*
X173658656Y-65060076D01*
X173706269Y-65025482D01*
X173706269Y-65025480D01*
X173093113Y-64412323D01*
X173156853Y-64395245D01*
X173273147Y-64328102D01*
X173368102Y-64233147D01*
X173435245Y-64116853D01*
X173452323Y-64053112D01*
X174065480Y-64666269D01*
X174065482Y-64666269D01*
X174100076Y-64618656D01*
X174100082Y-64618645D01*
X174117733Y-64584005D01*
X174166481Y-64532390D01*
X174235396Y-64515324D01*
X174302598Y-64538225D01*
X174342267Y-64584005D01*
X174359918Y-64618647D01*
X174394517Y-64666269D01*
X174394518Y-64666269D01*
X175007675Y-64053111D01*
X175024755Y-64116853D01*
G37*
%TD.AperFunction*%
%TA.AperFunction,Conductor*%
G36*
X174065480Y-62126269D02*
G01*
X174065482Y-62126269D01*
X174100076Y-62078656D01*
X174100082Y-62078646D01*
X174117451Y-62044557D01*
X174166199Y-61992941D01*
X174235113Y-61975874D01*
X174302315Y-61998774D01*
X174341985Y-62044553D01*
X174359490Y-62078908D01*
X174393900Y-62126269D01*
X174482863Y-62248717D01*
X174482865Y-62248719D01*
X174482867Y-62248722D01*
X174631277Y-62397132D01*
X174631280Y-62397134D01*
X174631283Y-62397137D01*
X174801094Y-62520511D01*
X174835444Y-62538013D01*
X174887060Y-62586761D01*
X174904126Y-62655676D01*
X174881226Y-62722877D01*
X174835447Y-62762546D01*
X174801350Y-62779919D01*
X174753729Y-62814517D01*
X174753729Y-62814519D01*
X175366886Y-63427676D01*
X175303147Y-63444755D01*
X175186853Y-63511898D01*
X175091898Y-63606853D01*
X175024755Y-63723147D01*
X175007676Y-63786886D01*
X174394519Y-63173729D01*
X174394517Y-63173729D01*
X174359919Y-63221351D01*
X174359917Y-63221354D01*
X174342266Y-63255996D01*
X174293517Y-63307611D01*
X174224602Y-63324676D01*
X174157401Y-63301775D01*
X174117733Y-63255995D01*
X174100081Y-63221352D01*
X174065481Y-63173729D01*
X174065479Y-63173729D01*
X173452323Y-63786885D01*
X173435245Y-63723147D01*
X173368102Y-63606853D01*
X173273147Y-63511898D01*
X173156853Y-63444755D01*
X173093112Y-63427676D01*
X173706269Y-62814518D01*
X173706269Y-62814517D01*
X173658647Y-62779918D01*
X173624005Y-62762267D01*
X173572390Y-62713519D01*
X173555324Y-62644604D01*
X173578225Y-62577402D01*
X173624005Y-62537733D01*
X173658645Y-62520082D01*
X173658656Y-62520076D01*
X173706269Y-62485482D01*
X173706269Y-62485480D01*
X173093113Y-61872323D01*
X173156853Y-61855245D01*
X173273147Y-61788102D01*
X173368102Y-61693147D01*
X173435245Y-61576853D01*
X173452323Y-61513112D01*
X174065480Y-62126269D01*
G37*
%TD.AperFunction*%
%TA.AperFunction,Conductor*%
G36*
X174065480Y-59586269D02*
G01*
X174065482Y-59586269D01*
X174100076Y-59538656D01*
X174100082Y-59538646D01*
X174117451Y-59504557D01*
X174166199Y-59452941D01*
X174235113Y-59435874D01*
X174302315Y-59458774D01*
X174341985Y-59504553D01*
X174359489Y-59538906D01*
X174482863Y-59708717D01*
X174482865Y-59708719D01*
X174482867Y-59708722D01*
X174631277Y-59857132D01*
X174631280Y-59857134D01*
X174631283Y-59857137D01*
X174801094Y-59980511D01*
X174819088Y-59989679D01*
X174834895Y-59997734D01*
X174886510Y-60046482D01*
X174903575Y-60115398D01*
X174880674Y-60182599D01*
X174834895Y-60222266D01*
X174801093Y-60239489D01*
X174631280Y-60362865D01*
X174631277Y-60362867D01*
X174482867Y-60511277D01*
X174482865Y-60511280D01*
X174359489Y-60681093D01*
X174341984Y-60715447D01*
X174293235Y-60767061D01*
X174224320Y-60784125D01*
X174157118Y-60761222D01*
X174117452Y-60715443D01*
X174100083Y-60681355D01*
X174065481Y-60633729D01*
X174065479Y-60633729D01*
X173452323Y-61246885D01*
X173435245Y-61183147D01*
X173368102Y-61066853D01*
X173273147Y-60971898D01*
X173156853Y-60904755D01*
X173093112Y-60887676D01*
X173706269Y-60274518D01*
X173706269Y-60274517D01*
X173658647Y-60239918D01*
X173624005Y-60222267D01*
X173572390Y-60173519D01*
X173555324Y-60104604D01*
X173578225Y-60037402D01*
X173624005Y-59997733D01*
X173658645Y-59980082D01*
X173658656Y-59980076D01*
X173706269Y-59945482D01*
X173706269Y-59945480D01*
X173093113Y-59332323D01*
X173156853Y-59315245D01*
X173273147Y-59248102D01*
X173368102Y-59153147D01*
X173435245Y-59036853D01*
X173452323Y-58973112D01*
X174065480Y-59586269D01*
G37*
%TD.AperFunction*%
%TA.AperFunction,Conductor*%
G36*
X174065480Y-57046269D02*
G01*
X174065482Y-57046269D01*
X174100076Y-56998656D01*
X174100082Y-56998646D01*
X174117451Y-56964557D01*
X174166199Y-56912941D01*
X174235113Y-56895874D01*
X174302315Y-56918774D01*
X174341985Y-56964553D01*
X174359489Y-56998906D01*
X174482863Y-57168717D01*
X174482865Y-57168719D01*
X174482867Y-57168722D01*
X174631277Y-57317132D01*
X174631280Y-57317134D01*
X174631283Y-57317137D01*
X174801094Y-57440511D01*
X174819088Y-57449679D01*
X174834895Y-57457734D01*
X174886510Y-57506482D01*
X174903575Y-57575398D01*
X174880674Y-57642599D01*
X174834895Y-57682266D01*
X174801093Y-57699489D01*
X174631280Y-57822865D01*
X174631277Y-57822867D01*
X174482867Y-57971277D01*
X174482865Y-57971280D01*
X174359489Y-58141093D01*
X174341984Y-58175447D01*
X174293235Y-58227061D01*
X174224320Y-58244125D01*
X174157118Y-58221222D01*
X174117452Y-58175443D01*
X174100083Y-58141355D01*
X174065481Y-58093729D01*
X174065479Y-58093729D01*
X173452323Y-58706885D01*
X173435245Y-58643147D01*
X173368102Y-58526853D01*
X173273147Y-58431898D01*
X173156853Y-58364755D01*
X173093112Y-58347676D01*
X173706269Y-57734518D01*
X173706269Y-57734517D01*
X173658647Y-57699918D01*
X173624005Y-57682267D01*
X173572390Y-57633519D01*
X173555324Y-57564604D01*
X173578225Y-57497402D01*
X173624005Y-57457733D01*
X173658645Y-57440082D01*
X173658656Y-57440076D01*
X173706269Y-57405482D01*
X173706269Y-57405480D01*
X173093113Y-56792323D01*
X173156853Y-56775245D01*
X173273147Y-56708102D01*
X173368102Y-56613147D01*
X173435245Y-56496853D01*
X173452323Y-56433112D01*
X174065480Y-57046269D01*
G37*
%TD.AperFunction*%
%TA.AperFunction,Conductor*%
G36*
X174065480Y-54506269D02*
G01*
X174065482Y-54506269D01*
X174100076Y-54458656D01*
X174100082Y-54458646D01*
X174117451Y-54424557D01*
X174166199Y-54372941D01*
X174235113Y-54355874D01*
X174302315Y-54378774D01*
X174341985Y-54424553D01*
X174359489Y-54458906D01*
X174482863Y-54628717D01*
X174482865Y-54628719D01*
X174482867Y-54628722D01*
X174631277Y-54777132D01*
X174631280Y-54777134D01*
X174631283Y-54777137D01*
X174801094Y-54900511D01*
X174819088Y-54909679D01*
X174834895Y-54917734D01*
X174886510Y-54966482D01*
X174903575Y-55035398D01*
X174880674Y-55102599D01*
X174834895Y-55142266D01*
X174801093Y-55159489D01*
X174631280Y-55282865D01*
X174631277Y-55282867D01*
X174482867Y-55431277D01*
X174482865Y-55431280D01*
X174359489Y-55601093D01*
X174341984Y-55635447D01*
X174293235Y-55687061D01*
X174224320Y-55704125D01*
X174157118Y-55681222D01*
X174117452Y-55635443D01*
X174100083Y-55601355D01*
X174065481Y-55553729D01*
X174065479Y-55553729D01*
X173452323Y-56166885D01*
X173435245Y-56103147D01*
X173368102Y-55986853D01*
X173273147Y-55891898D01*
X173156853Y-55824755D01*
X173093112Y-55807676D01*
X173706269Y-55194518D01*
X173706269Y-55194517D01*
X173658647Y-55159918D01*
X173624005Y-55142267D01*
X173572390Y-55093519D01*
X173555324Y-55024604D01*
X173578225Y-54957402D01*
X173624005Y-54917733D01*
X173658645Y-54900082D01*
X173658656Y-54900076D01*
X173706269Y-54865482D01*
X173706269Y-54865480D01*
X173093113Y-54252323D01*
X173156853Y-54235245D01*
X173273147Y-54168102D01*
X173368102Y-54073147D01*
X173435245Y-53956853D01*
X173452323Y-53893112D01*
X174065480Y-54506269D01*
G37*
%TD.AperFunction*%
%TA.AperFunction,Conductor*%
G36*
X174065480Y-51966269D02*
G01*
X174065482Y-51966269D01*
X174100076Y-51918656D01*
X174100082Y-51918646D01*
X174117451Y-51884557D01*
X174166199Y-51832941D01*
X174235113Y-51815874D01*
X174302315Y-51838774D01*
X174341985Y-51884553D01*
X174359357Y-51918646D01*
X174359489Y-51918906D01*
X174482863Y-52088717D01*
X174482865Y-52088719D01*
X174482867Y-52088722D01*
X174631277Y-52237132D01*
X174631280Y-52237134D01*
X174631283Y-52237137D01*
X174801094Y-52360511D01*
X174819088Y-52369679D01*
X174834895Y-52377734D01*
X174886510Y-52426482D01*
X174903575Y-52495398D01*
X174880674Y-52562599D01*
X174834895Y-52602266D01*
X174801093Y-52619489D01*
X174631280Y-52742865D01*
X174631277Y-52742867D01*
X174482867Y-52891277D01*
X174482865Y-52891280D01*
X174359489Y-53061093D01*
X174341984Y-53095447D01*
X174293235Y-53147061D01*
X174224320Y-53164125D01*
X174157118Y-53141222D01*
X174117452Y-53095443D01*
X174100083Y-53061355D01*
X174065481Y-53013729D01*
X174065479Y-53013729D01*
X173452323Y-53626885D01*
X173435245Y-53563147D01*
X173368102Y-53446853D01*
X173273147Y-53351898D01*
X173156853Y-53284755D01*
X173093112Y-53267676D01*
X173706269Y-52654518D01*
X173706269Y-52654517D01*
X173658647Y-52619918D01*
X173624005Y-52602267D01*
X173572390Y-52553519D01*
X173555324Y-52484604D01*
X173578225Y-52417402D01*
X173624005Y-52377733D01*
X173658645Y-52360082D01*
X173658656Y-52360076D01*
X173706269Y-52325482D01*
X173706269Y-52325480D01*
X173093113Y-51712323D01*
X173156853Y-51695245D01*
X173273147Y-51628102D01*
X173368102Y-51533147D01*
X173435245Y-51416853D01*
X173452323Y-51353112D01*
X174065480Y-51966269D01*
G37*
%TD.AperFunction*%
%TA.AperFunction,Conductor*%
G36*
X174065480Y-49426269D02*
G01*
X174065482Y-49426269D01*
X174100076Y-49378656D01*
X174100082Y-49378646D01*
X174117451Y-49344557D01*
X174166199Y-49292941D01*
X174235113Y-49275874D01*
X174302315Y-49298774D01*
X174341985Y-49344553D01*
X174359490Y-49378908D01*
X174393900Y-49426269D01*
X174482863Y-49548717D01*
X174482865Y-49548719D01*
X174482867Y-49548722D01*
X174631277Y-49697132D01*
X174631280Y-49697134D01*
X174631283Y-49697137D01*
X174801094Y-49820511D01*
X174819088Y-49829679D01*
X174834895Y-49837734D01*
X174886510Y-49886482D01*
X174903575Y-49955398D01*
X174880674Y-50022599D01*
X174834895Y-50062266D01*
X174801093Y-50079489D01*
X174631280Y-50202865D01*
X174631277Y-50202867D01*
X174482867Y-50351277D01*
X174482865Y-50351280D01*
X174359489Y-50521093D01*
X174341984Y-50555447D01*
X174293235Y-50607061D01*
X174224320Y-50624125D01*
X174157118Y-50601222D01*
X174117452Y-50555443D01*
X174100083Y-50521355D01*
X174065481Y-50473729D01*
X174065479Y-50473729D01*
X173452323Y-51086885D01*
X173435245Y-51023147D01*
X173368102Y-50906853D01*
X173273147Y-50811898D01*
X173156853Y-50744755D01*
X173093112Y-50727676D01*
X173706269Y-50114518D01*
X173706269Y-50114517D01*
X173658647Y-50079918D01*
X173624005Y-50062267D01*
X173572390Y-50013519D01*
X173555324Y-49944604D01*
X173578225Y-49877402D01*
X173624005Y-49837733D01*
X173658645Y-49820082D01*
X173658656Y-49820076D01*
X173706269Y-49785482D01*
X173706269Y-49785480D01*
X173093113Y-49172323D01*
X173156853Y-49155245D01*
X173273147Y-49088102D01*
X173368102Y-48993147D01*
X173435245Y-48876853D01*
X173452323Y-48813112D01*
X174065480Y-49426269D01*
G37*
%TD.AperFunction*%
%TA.AperFunction,Conductor*%
G36*
X174065480Y-46886269D02*
G01*
X174065482Y-46886269D01*
X174100076Y-46838656D01*
X174100082Y-46838646D01*
X174117451Y-46804557D01*
X174166199Y-46752941D01*
X174235113Y-46735874D01*
X174302315Y-46758774D01*
X174341985Y-46804553D01*
X174359489Y-46838906D01*
X174482863Y-47008717D01*
X174482865Y-47008719D01*
X174482867Y-47008722D01*
X174631277Y-47157132D01*
X174631280Y-47157134D01*
X174631283Y-47157137D01*
X174801094Y-47280511D01*
X174819088Y-47289679D01*
X174834895Y-47297734D01*
X174886510Y-47346482D01*
X174903575Y-47415398D01*
X174880674Y-47482599D01*
X174834895Y-47522266D01*
X174801093Y-47539489D01*
X174631280Y-47662865D01*
X174631277Y-47662867D01*
X174482867Y-47811277D01*
X174482865Y-47811280D01*
X174359489Y-47981093D01*
X174341984Y-48015447D01*
X174293235Y-48067061D01*
X174224320Y-48084125D01*
X174157118Y-48061222D01*
X174117452Y-48015443D01*
X174100083Y-47981355D01*
X174065481Y-47933729D01*
X174065479Y-47933729D01*
X173452323Y-48546885D01*
X173435245Y-48483147D01*
X173368102Y-48366853D01*
X173273147Y-48271898D01*
X173156853Y-48204755D01*
X173093112Y-48187676D01*
X173706269Y-47574518D01*
X173706269Y-47574517D01*
X173658647Y-47539918D01*
X173624005Y-47522267D01*
X173572390Y-47473519D01*
X173555324Y-47404604D01*
X173578225Y-47337402D01*
X173624005Y-47297733D01*
X173658645Y-47280082D01*
X173658656Y-47280076D01*
X173706269Y-47245482D01*
X173706269Y-47245480D01*
X173093113Y-46632323D01*
X173156853Y-46615245D01*
X173273147Y-46548102D01*
X173368102Y-46453147D01*
X173435245Y-46336853D01*
X173452323Y-46273112D01*
X174065480Y-46886269D01*
G37*
%TD.AperFunction*%
%TA.AperFunction,Conductor*%
G36*
X179442121Y-35520002D02*
G01*
X179488614Y-35573658D01*
X179500000Y-35626000D01*
X179500000Y-133874000D01*
X179479998Y-133942121D01*
X179426342Y-133988614D01*
X179374000Y-134000000D01*
X80626000Y-134000000D01*
X80557879Y-133979998D01*
X80511386Y-133926342D01*
X80500000Y-133874000D01*
X80500000Y-128871441D01*
X85746500Y-128871441D01*
X85746500Y-129128559D01*
X85786704Y-129382399D01*
X85786723Y-129382517D01*
X85866112Y-129626850D01*
X85866176Y-129627046D01*
X85982906Y-129856141D01*
X86134036Y-130064154D01*
X86134038Y-130064156D01*
X86134040Y-130064159D01*
X86315840Y-130245959D01*
X86315843Y-130245961D01*
X86315846Y-130245964D01*
X86523859Y-130397094D01*
X86752954Y-130513824D01*
X86997488Y-130593278D01*
X87251441Y-130633500D01*
X87251444Y-130633500D01*
X87508556Y-130633500D01*
X87508559Y-130633500D01*
X87762512Y-130593278D01*
X88007046Y-130513824D01*
X88236141Y-130397094D01*
X88444154Y-130245964D01*
X88451857Y-130238261D01*
X88506979Y-130183140D01*
X88625959Y-130064159D01*
X88625964Y-130064154D01*
X88777094Y-129856141D01*
X88893824Y-129627046D01*
X88973278Y-129382512D01*
X89013500Y-129128559D01*
X89013500Y-128871482D01*
X90827000Y-128871482D01*
X90827000Y-129128517D01*
X90867210Y-129382399D01*
X90946637Y-129626850D01*
X90946640Y-129626856D01*
X91063333Y-129855878D01*
X91139742Y-129961045D01*
X91139743Y-129961045D01*
X91780764Y-129320024D01*
X91795359Y-129355258D01*
X91877437Y-129478097D01*
X91981903Y-129582563D01*
X92104742Y-129664641D01*
X92139973Y-129679234D01*
X91498953Y-130320255D01*
X91498953Y-130320256D01*
X91604121Y-130396666D01*
X91833143Y-130513359D01*
X91833149Y-130513362D01*
X92077600Y-130592789D01*
X92331482Y-130633000D01*
X92588518Y-130633000D01*
X92842399Y-130592789D01*
X93086850Y-130513362D01*
X93086856Y-130513359D01*
X93315877Y-130396667D01*
X93421046Y-130320256D01*
X92780025Y-129679234D01*
X92815258Y-129664641D01*
X92938097Y-129582563D01*
X93042563Y-129478097D01*
X93124641Y-129355258D01*
X93139235Y-129320025D01*
X93780256Y-129961046D01*
X93856667Y-129855877D01*
X93973359Y-129626856D01*
X93973362Y-129626850D01*
X94052789Y-129382399D01*
X94093000Y-129128517D01*
X94093000Y-128871482D01*
X94092994Y-128871441D01*
X95906500Y-128871441D01*
X95906500Y-129128559D01*
X95946704Y-129382399D01*
X95946723Y-129382517D01*
X96026112Y-129626850D01*
X96026176Y-129627046D01*
X96142906Y-129856141D01*
X96294036Y-130064154D01*
X96294038Y-130064156D01*
X96294040Y-130064159D01*
X96475840Y-130245959D01*
X96475843Y-130245961D01*
X96475846Y-130245964D01*
X96683859Y-130397094D01*
X96912954Y-130513824D01*
X97157488Y-130593278D01*
X97411441Y-130633500D01*
X97411444Y-130633500D01*
X97668556Y-130633500D01*
X97668559Y-130633500D01*
X97922512Y-130593278D01*
X98167046Y-130513824D01*
X98396141Y-130397094D01*
X98604154Y-130245964D01*
X98785964Y-130064154D01*
X98937094Y-129856141D01*
X99053824Y-129627046D01*
X99133278Y-129382512D01*
X99173500Y-129128559D01*
X99173500Y-128871441D01*
X100986500Y-128871441D01*
X100986500Y-129128559D01*
X101026704Y-129382399D01*
X101026723Y-129382517D01*
X101106112Y-129626850D01*
X101106176Y-129627046D01*
X101222906Y-129856141D01*
X101374036Y-130064154D01*
X101374038Y-130064156D01*
X101374040Y-130064159D01*
X101555840Y-130245959D01*
X101555843Y-130245961D01*
X101555846Y-130245964D01*
X101763859Y-130397094D01*
X101992954Y-130513824D01*
X102237488Y-130593278D01*
X102491441Y-130633500D01*
X102491444Y-130633500D01*
X102748556Y-130633500D01*
X102748559Y-130633500D01*
X103002512Y-130593278D01*
X103247046Y-130513824D01*
X103476141Y-130397094D01*
X103684154Y-130245964D01*
X103865964Y-130064154D01*
X104017094Y-129856141D01*
X104133824Y-129627046D01*
X104213278Y-129382512D01*
X104253500Y-129128559D01*
X104253500Y-128871441D01*
X104213278Y-128617488D01*
X104182221Y-128521903D01*
X104146303Y-128411360D01*
X104145262Y-128408158D01*
X104134991Y-128376546D01*
X123356500Y-128376546D01*
X123356500Y-128623453D01*
X123388726Y-128868233D01*
X123388727Y-128868239D01*
X123388728Y-128868241D01*
X123452631Y-129106730D01*
X123547116Y-129334838D01*
X123547117Y-129334839D01*
X123547122Y-129334850D01*
X123670564Y-129548658D01*
X123670566Y-129548660D01*
X123670567Y-129548662D01*
X123715419Y-129607114D01*
X123820864Y-129744533D01*
X123820883Y-129744554D01*
X123995445Y-129919116D01*
X123995466Y-129919135D01*
X124080262Y-129984201D01*
X124191338Y-130069433D01*
X124191339Y-130069434D01*
X124191341Y-130069435D01*
X124405149Y-130192877D01*
X124405153Y-130192878D01*
X124405162Y-130192884D01*
X124633270Y-130287369D01*
X124871759Y-130351272D01*
X124871765Y-130351272D01*
X124871766Y-130351273D01*
X124899849Y-130354970D01*
X125116549Y-130383500D01*
X125116556Y-130383500D01*
X125363444Y-130383500D01*
X125363451Y-130383500D01*
X125608241Y-130351272D01*
X125846730Y-130287369D01*
X126074838Y-130192884D01*
X126288662Y-130069433D01*
X126478650Y-129923649D01*
X126484533Y-129919135D01*
X126484533Y-129919134D01*
X126484542Y-129919128D01*
X126659128Y-129744542D01*
X126809433Y-129548662D01*
X126932884Y-129334838D01*
X127027369Y-129106730D01*
X127091272Y-128868241D01*
X127123500Y-128623451D01*
X127123500Y-128376549D01*
X127123500Y-128376546D01*
X128056500Y-128376546D01*
X128056500Y-128623453D01*
X128088726Y-128868233D01*
X128088727Y-128868239D01*
X128088728Y-128868241D01*
X128152631Y-129106730D01*
X128247116Y-129334838D01*
X128247117Y-129334839D01*
X128247122Y-129334850D01*
X128370564Y-129548658D01*
X128370566Y-129548660D01*
X128370567Y-129548662D01*
X128415419Y-129607114D01*
X128520864Y-129744533D01*
X128520883Y-129744554D01*
X128695445Y-129919116D01*
X128695466Y-129919135D01*
X128780262Y-129984201D01*
X128891338Y-130069433D01*
X128891339Y-130069434D01*
X128891341Y-130069435D01*
X129105149Y-130192877D01*
X129105153Y-130192878D01*
X129105162Y-130192884D01*
X129333270Y-130287369D01*
X129571759Y-130351272D01*
X129571765Y-130351272D01*
X129571766Y-130351273D01*
X129599849Y-130354970D01*
X129816549Y-130383500D01*
X129816556Y-130383500D01*
X130063444Y-130383500D01*
X130063451Y-130383500D01*
X130308241Y-130351272D01*
X130546730Y-130287369D01*
X130774838Y-130192884D01*
X130988662Y-130069433D01*
X131178650Y-129923649D01*
X131184533Y-129919135D01*
X131184533Y-129919134D01*
X131184542Y-129919128D01*
X131359128Y-129744542D01*
X131509433Y-129548662D01*
X131632884Y-129334838D01*
X131727369Y-129106730D01*
X131791272Y-128868241D01*
X131823500Y-128623451D01*
X131823500Y-128376549D01*
X131791272Y-128131759D01*
X131727369Y-127893270D01*
X131632884Y-127665162D01*
X131632878Y-127665153D01*
X131632877Y-127665149D01*
X131509435Y-127451341D01*
X131509433Y-127451338D01*
X131399828Y-127308499D01*
X131359135Y-127255466D01*
X131359116Y-127255445D01*
X131184554Y-127080883D01*
X131184533Y-127080864D01*
X131178650Y-127076350D01*
X132756500Y-127076350D01*
X132756500Y-129923649D01*
X132763009Y-129984196D01*
X132763011Y-129984204D01*
X132814110Y-130121202D01*
X132814112Y-130121207D01*
X132901738Y-130238261D01*
X133018792Y-130325887D01*
X133018794Y-130325888D01*
X133018796Y-130325889D01*
X133077875Y-130347924D01*
X133155795Y-130376988D01*
X133155803Y-130376990D01*
X133216350Y-130383499D01*
X133216355Y-130383499D01*
X133216362Y-130383500D01*
X133216368Y-130383500D01*
X136063632Y-130383500D01*
X136063638Y-130383500D01*
X136063645Y-130383499D01*
X136063649Y-130383499D01*
X136124196Y-130376990D01*
X136124199Y-130376989D01*
X136124201Y-130376989D01*
X136261204Y-130325889D01*
X136378261Y-130238261D01*
X136465889Y-130121204D01*
X136516989Y-129984201D01*
X136519479Y-129961046D01*
X136523499Y-129923649D01*
X136523500Y-129923632D01*
X136523500Y-128871441D01*
X156246500Y-128871441D01*
X156246500Y-129128559D01*
X156286704Y-129382399D01*
X156286723Y-129382517D01*
X156366112Y-129626850D01*
X156366176Y-129627046D01*
X156482906Y-129856141D01*
X156634036Y-130064154D01*
X156634038Y-130064156D01*
X156634040Y-130064159D01*
X156815840Y-130245959D01*
X156815843Y-130245961D01*
X156815846Y-130245964D01*
X157023859Y-130397094D01*
X157252954Y-130513824D01*
X157497488Y-130593278D01*
X157751441Y-130633500D01*
X157751444Y-130633500D01*
X158008556Y-130633500D01*
X158008559Y-130633500D01*
X158262512Y-130593278D01*
X158507046Y-130513824D01*
X158736141Y-130397094D01*
X158944154Y-130245964D01*
X158951857Y-130238261D01*
X159006979Y-130183140D01*
X159125959Y-130064159D01*
X159125964Y-130064154D01*
X159277094Y-129856141D01*
X159393824Y-129627046D01*
X159473278Y-129382512D01*
X159513500Y-129128559D01*
X159513500Y-128871482D01*
X161327000Y-128871482D01*
X161327000Y-129128517D01*
X161367210Y-129382399D01*
X161446637Y-129626850D01*
X161446640Y-129626856D01*
X161563333Y-129855878D01*
X161639742Y-129961045D01*
X161639743Y-129961045D01*
X162280764Y-129320024D01*
X162295359Y-129355258D01*
X162377437Y-129478097D01*
X162481903Y-129582563D01*
X162604742Y-129664641D01*
X162639973Y-129679234D01*
X161998953Y-130320255D01*
X161998953Y-130320256D01*
X162104121Y-130396666D01*
X162333143Y-130513359D01*
X162333149Y-130513362D01*
X162577600Y-130592789D01*
X162831482Y-130633000D01*
X163088518Y-130633000D01*
X163342399Y-130592789D01*
X163586850Y-130513362D01*
X163586856Y-130513359D01*
X163815877Y-130396667D01*
X163921046Y-130320256D01*
X163280025Y-129679234D01*
X163315258Y-129664641D01*
X163438097Y-129582563D01*
X163542563Y-129478097D01*
X163624641Y-129355258D01*
X163639235Y-129320025D01*
X164280256Y-129961046D01*
X164356667Y-129855877D01*
X164473359Y-129626856D01*
X164473362Y-129626850D01*
X164552789Y-129382399D01*
X164593000Y-129128517D01*
X164593000Y-128871482D01*
X164592994Y-128871441D01*
X166406500Y-128871441D01*
X166406500Y-129128559D01*
X166446704Y-129382399D01*
X166446723Y-129382517D01*
X166526112Y-129626850D01*
X166526176Y-129627046D01*
X166642906Y-129856141D01*
X166794036Y-130064154D01*
X166794038Y-130064156D01*
X166794040Y-130064159D01*
X166975840Y-130245959D01*
X166975843Y-130245961D01*
X166975846Y-130245964D01*
X167183859Y-130397094D01*
X167412954Y-130513824D01*
X167657488Y-130593278D01*
X167911441Y-130633500D01*
X167911444Y-130633500D01*
X168168556Y-130633500D01*
X168168559Y-130633500D01*
X168422512Y-130593278D01*
X168667046Y-130513824D01*
X168896141Y-130397094D01*
X169104154Y-130245964D01*
X169285964Y-130064154D01*
X169437094Y-129856141D01*
X169553824Y-129627046D01*
X169633278Y-129382512D01*
X169673500Y-129128559D01*
X169673500Y-128871441D01*
X171486500Y-128871441D01*
X171486500Y-129128559D01*
X171526704Y-129382399D01*
X171526723Y-129382517D01*
X171606112Y-129626850D01*
X171606176Y-129627046D01*
X171722906Y-129856141D01*
X171874036Y-130064154D01*
X171874038Y-130064156D01*
X171874040Y-130064159D01*
X172055840Y-130245959D01*
X172055843Y-130245961D01*
X172055846Y-130245964D01*
X172263859Y-130397094D01*
X172492954Y-130513824D01*
X172737488Y-130593278D01*
X172991441Y-130633500D01*
X172991444Y-130633500D01*
X173248556Y-130633500D01*
X173248559Y-130633500D01*
X173502512Y-130593278D01*
X173747046Y-130513824D01*
X173976141Y-130397094D01*
X174184154Y-130245964D01*
X174365964Y-130064154D01*
X174517094Y-129856141D01*
X174633824Y-129627046D01*
X174713278Y-129382512D01*
X174753500Y-129128559D01*
X174753500Y-128871441D01*
X174713278Y-128617488D01*
X174633824Y-128372954D01*
X174517094Y-128143859D01*
X174365964Y-127935846D01*
X174365961Y-127935843D01*
X174365959Y-127935840D01*
X174184159Y-127754040D01*
X174184156Y-127754038D01*
X174184154Y-127754036D01*
X174027570Y-127640272D01*
X173976144Y-127602908D01*
X173976143Y-127602907D01*
X173976141Y-127602906D01*
X173747046Y-127486176D01*
X173747043Y-127486175D01*
X173747041Y-127486174D01*
X173502517Y-127406723D01*
X173502513Y-127406722D01*
X173502512Y-127406722D01*
X173248559Y-127366500D01*
X172991441Y-127366500D01*
X172737488Y-127406722D01*
X172737482Y-127406723D01*
X172492958Y-127486174D01*
X172492952Y-127486177D01*
X172263855Y-127602908D01*
X172055843Y-127754038D01*
X172055840Y-127754040D01*
X171874040Y-127935840D01*
X171874038Y-127935843D01*
X171722908Y-128143855D01*
X171606177Y-128372952D01*
X171606174Y-128372958D01*
X171526723Y-128617482D01*
X171526722Y-128617487D01*
X171526722Y-128617488D01*
X171486500Y-128871441D01*
X169673500Y-128871441D01*
X169633278Y-128617488D01*
X169553824Y-128372954D01*
X169437094Y-128143859D01*
X169285964Y-127935846D01*
X169285961Y-127935843D01*
X169285959Y-127935840D01*
X169104159Y-127754040D01*
X169104156Y-127754038D01*
X169104154Y-127754036D01*
X168947570Y-127640272D01*
X168896144Y-127602908D01*
X168896143Y-127602907D01*
X168896141Y-127602906D01*
X168667046Y-127486176D01*
X168667043Y-127486175D01*
X168667041Y-127486174D01*
X168422517Y-127406723D01*
X168422513Y-127406722D01*
X168422512Y-127406722D01*
X168168559Y-127366500D01*
X167911441Y-127366500D01*
X167657488Y-127406722D01*
X167657482Y-127406723D01*
X167412958Y-127486174D01*
X167412952Y-127486177D01*
X167183855Y-127602908D01*
X166975843Y-127754038D01*
X166975840Y-127754040D01*
X166794040Y-127935840D01*
X166794038Y-127935843D01*
X166642908Y-128143855D01*
X166526177Y-128372952D01*
X166526174Y-128372958D01*
X166446723Y-128617482D01*
X166446722Y-128617487D01*
X166446722Y-128617488D01*
X166406500Y-128871441D01*
X164592994Y-128871441D01*
X164552789Y-128617600D01*
X164473362Y-128373149D01*
X164473359Y-128373143D01*
X164356666Y-128144121D01*
X164280256Y-128038953D01*
X164280255Y-128038953D01*
X163639234Y-128679973D01*
X163624641Y-128644742D01*
X163542563Y-128521903D01*
X163438097Y-128417437D01*
X163315258Y-128335359D01*
X163280024Y-128320764D01*
X163921045Y-127679743D01*
X163921045Y-127679742D01*
X163815878Y-127603333D01*
X163586856Y-127486640D01*
X163586850Y-127486637D01*
X163342399Y-127407210D01*
X163088518Y-127367000D01*
X162831482Y-127367000D01*
X162577600Y-127407210D01*
X162333149Y-127486637D01*
X162333143Y-127486640D01*
X162104117Y-127603335D01*
X161998953Y-127679741D01*
X161998953Y-127679743D01*
X162639974Y-128320764D01*
X162604742Y-128335359D01*
X162481903Y-128417437D01*
X162377437Y-128521903D01*
X162295359Y-128644742D01*
X162280764Y-128679974D01*
X161639743Y-128038953D01*
X161639741Y-128038953D01*
X161563335Y-128144117D01*
X161446640Y-128373143D01*
X161446637Y-128373149D01*
X161367210Y-128617600D01*
X161327000Y-128871482D01*
X159513500Y-128871482D01*
X159513500Y-128871441D01*
X159473278Y-128617488D01*
X159393824Y-128372954D01*
X159277094Y-128143859D01*
X159125964Y-127935846D01*
X159125961Y-127935843D01*
X159125959Y-127935840D01*
X158944159Y-127754040D01*
X158944156Y-127754038D01*
X158944154Y-127754036D01*
X158787570Y-127640272D01*
X158736144Y-127602908D01*
X158736143Y-127602907D01*
X158736141Y-127602906D01*
X158507046Y-127486176D01*
X158507043Y-127486175D01*
X158507041Y-127486174D01*
X158262517Y-127406723D01*
X158262513Y-127406722D01*
X158262512Y-127406722D01*
X158008559Y-127366500D01*
X157751441Y-127366500D01*
X157497488Y-127406722D01*
X157497482Y-127406723D01*
X157252958Y-127486174D01*
X157252952Y-127486177D01*
X157023855Y-127602908D01*
X156815843Y-127754038D01*
X156815840Y-127754040D01*
X156634040Y-127935840D01*
X156634038Y-127935843D01*
X156482908Y-128143855D01*
X156366177Y-128372952D01*
X156366174Y-128372958D01*
X156286723Y-128617482D01*
X156286722Y-128617487D01*
X156286722Y-128617488D01*
X156246500Y-128871441D01*
X136523500Y-128871441D01*
X136523500Y-127076367D01*
X136523499Y-127076350D01*
X136516990Y-127015803D01*
X136516988Y-127015795D01*
X136487924Y-126937875D01*
X136465889Y-126878796D01*
X136465888Y-126878794D01*
X136465887Y-126878792D01*
X136378261Y-126761738D01*
X136261207Y-126674112D01*
X136261202Y-126674110D01*
X136124204Y-126623011D01*
X136124196Y-126623009D01*
X136063649Y-126616500D01*
X136063638Y-126616500D01*
X133216362Y-126616500D01*
X133216350Y-126616500D01*
X133155803Y-126623009D01*
X133155795Y-126623011D01*
X133018797Y-126674110D01*
X133018792Y-126674112D01*
X132901738Y-126761738D01*
X132814112Y-126878792D01*
X132814110Y-126878797D01*
X132763011Y-127015795D01*
X132763009Y-127015803D01*
X132756500Y-127076350D01*
X131178650Y-127076350D01*
X131047114Y-126975419D01*
X130988662Y-126930567D01*
X130988660Y-126930566D01*
X130988658Y-126930564D01*
X130774850Y-126807122D01*
X130774842Y-126807118D01*
X130774838Y-126807116D01*
X130546730Y-126712631D01*
X130308241Y-126648728D01*
X130308239Y-126648727D01*
X130308233Y-126648726D01*
X130063453Y-126616500D01*
X130063451Y-126616500D01*
X129816549Y-126616500D01*
X129816546Y-126616500D01*
X129571766Y-126648726D01*
X129333270Y-126712631D01*
X129105160Y-126807117D01*
X129105149Y-126807122D01*
X128891341Y-126930564D01*
X128891335Y-126930569D01*
X128695466Y-127080864D01*
X128695445Y-127080883D01*
X128520883Y-127255445D01*
X128520864Y-127255466D01*
X128370569Y-127451335D01*
X128370564Y-127451341D01*
X128247122Y-127665149D01*
X128247117Y-127665160D01*
X128247116Y-127665162D01*
X128210303Y-127754036D01*
X128152631Y-127893270D01*
X128088726Y-128131766D01*
X128056500Y-128376546D01*
X127123500Y-128376546D01*
X127091272Y-128131759D01*
X127027369Y-127893270D01*
X126932884Y-127665162D01*
X126932878Y-127665153D01*
X126932877Y-127665149D01*
X126809435Y-127451341D01*
X126809433Y-127451338D01*
X126699828Y-127308499D01*
X126659135Y-127255466D01*
X126659116Y-127255445D01*
X126484554Y-127080883D01*
X126484533Y-127080864D01*
X126347114Y-126975419D01*
X126288662Y-126930567D01*
X126288660Y-126930566D01*
X126288658Y-126930564D01*
X126074850Y-126807122D01*
X126074842Y-126807118D01*
X126074838Y-126807116D01*
X125846730Y-126712631D01*
X125608241Y-126648728D01*
X125608239Y-126648727D01*
X125608233Y-126648726D01*
X125363453Y-126616500D01*
X125363451Y-126616500D01*
X125116549Y-126616500D01*
X125116546Y-126616500D01*
X124871766Y-126648726D01*
X124633270Y-126712631D01*
X124405160Y-126807117D01*
X124405149Y-126807122D01*
X124191341Y-126930564D01*
X124191335Y-126930569D01*
X123995466Y-127080864D01*
X123995445Y-127080883D01*
X123820883Y-127255445D01*
X123820864Y-127255466D01*
X123670569Y-127451335D01*
X123670564Y-127451341D01*
X123547122Y-127665149D01*
X123547117Y-127665160D01*
X123547116Y-127665162D01*
X123510303Y-127754036D01*
X123452631Y-127893270D01*
X123388726Y-128131766D01*
X123356500Y-128376546D01*
X104134991Y-128376546D01*
X104133824Y-128372954D01*
X104017094Y-128143859D01*
X103865964Y-127935846D01*
X103865961Y-127935843D01*
X103865959Y-127935840D01*
X103684159Y-127754040D01*
X103684156Y-127754038D01*
X103684154Y-127754036D01*
X103527570Y-127640272D01*
X103476144Y-127602908D01*
X103476143Y-127602907D01*
X103476141Y-127602906D01*
X103247046Y-127486176D01*
X103247043Y-127486175D01*
X103247041Y-127486174D01*
X103002517Y-127406723D01*
X103002513Y-127406722D01*
X103002512Y-127406722D01*
X102748559Y-127366500D01*
X102491441Y-127366500D01*
X102237488Y-127406722D01*
X102237482Y-127406723D01*
X101992958Y-127486174D01*
X101992952Y-127486177D01*
X101763855Y-127602908D01*
X101555843Y-127754038D01*
X101555840Y-127754040D01*
X101374040Y-127935840D01*
X101374038Y-127935843D01*
X101222908Y-128143855D01*
X101106177Y-128372952D01*
X101106174Y-128372958D01*
X101026723Y-128617482D01*
X101026722Y-128617487D01*
X101026722Y-128617488D01*
X100986500Y-128871441D01*
X99173500Y-128871441D01*
X99133278Y-128617488D01*
X99053824Y-128372954D01*
X98937094Y-128143859D01*
X98785964Y-127935846D01*
X98785961Y-127935843D01*
X98785959Y-127935840D01*
X98604159Y-127754040D01*
X98604156Y-127754038D01*
X98604154Y-127754036D01*
X98447570Y-127640272D01*
X98396144Y-127602908D01*
X98396143Y-127602907D01*
X98396141Y-127602906D01*
X98167046Y-127486176D01*
X98167043Y-127486175D01*
X98167041Y-127486174D01*
X97922517Y-127406723D01*
X97922513Y-127406722D01*
X97922512Y-127406722D01*
X97668559Y-127366500D01*
X97411441Y-127366500D01*
X97157488Y-127406722D01*
X97157482Y-127406723D01*
X96912958Y-127486174D01*
X96912952Y-127486177D01*
X96683855Y-127602908D01*
X96475843Y-127754038D01*
X96475840Y-127754040D01*
X96294040Y-127935840D01*
X96294038Y-127935843D01*
X96142908Y-128143855D01*
X96026177Y-128372952D01*
X96026174Y-128372958D01*
X95946723Y-128617482D01*
X95946722Y-128617487D01*
X95946722Y-128617488D01*
X95906500Y-128871441D01*
X94092994Y-128871441D01*
X94052789Y-128617600D01*
X93973362Y-128373149D01*
X93973359Y-128373143D01*
X93856666Y-128144121D01*
X93780256Y-128038953D01*
X93780255Y-128038953D01*
X93139234Y-128679973D01*
X93124641Y-128644742D01*
X93042563Y-128521903D01*
X92938097Y-128417437D01*
X92815258Y-128335359D01*
X92780024Y-128320764D01*
X93421045Y-127679743D01*
X93421045Y-127679742D01*
X93315878Y-127603333D01*
X93086856Y-127486640D01*
X93086850Y-127486637D01*
X92842399Y-127407210D01*
X92588518Y-127367000D01*
X92331482Y-127367000D01*
X92077600Y-127407210D01*
X91833149Y-127486637D01*
X91833143Y-127486640D01*
X91604117Y-127603335D01*
X91498953Y-127679741D01*
X91498953Y-127679743D01*
X92139974Y-128320764D01*
X92104742Y-128335359D01*
X91981903Y-128417437D01*
X91877437Y-128521903D01*
X91795359Y-128644742D01*
X91780764Y-128679974D01*
X91139743Y-128038953D01*
X91139741Y-128038953D01*
X91063335Y-128144117D01*
X90946640Y-128373143D01*
X90946637Y-128373149D01*
X90867210Y-128617600D01*
X90827000Y-128871482D01*
X89013500Y-128871482D01*
X89013500Y-128871441D01*
X88973278Y-128617488D01*
X88893824Y-128372954D01*
X88777094Y-128143859D01*
X88625964Y-127935846D01*
X88625961Y-127935843D01*
X88625959Y-127935840D01*
X88444159Y-127754040D01*
X88444156Y-127754038D01*
X88444154Y-127754036D01*
X88287570Y-127640272D01*
X88236144Y-127602908D01*
X88236143Y-127602907D01*
X88236141Y-127602906D01*
X88007046Y-127486176D01*
X88007043Y-127486175D01*
X88007041Y-127486174D01*
X87762517Y-127406723D01*
X87762513Y-127406722D01*
X87762512Y-127406722D01*
X87508559Y-127366500D01*
X87251441Y-127366500D01*
X86997488Y-127406722D01*
X86997482Y-127406723D01*
X86752958Y-127486174D01*
X86752952Y-127486177D01*
X86523855Y-127602908D01*
X86315843Y-127754038D01*
X86315840Y-127754040D01*
X86134040Y-127935840D01*
X86134038Y-127935843D01*
X85982908Y-128143855D01*
X85866177Y-128372952D01*
X85866174Y-128372958D01*
X85786723Y-128617482D01*
X85786722Y-128617487D01*
X85786722Y-128617488D01*
X85746500Y-128871441D01*
X80500000Y-128871441D01*
X80500000Y-125151350D01*
X111691500Y-125151350D01*
X111691500Y-126848649D01*
X111698009Y-126909196D01*
X111698011Y-126909204D01*
X111749110Y-127046202D01*
X111749112Y-127046207D01*
X111836738Y-127163261D01*
X111953792Y-127250887D01*
X111953794Y-127250888D01*
X111953796Y-127250889D01*
X112012875Y-127272924D01*
X112090795Y-127301988D01*
X112090803Y-127301990D01*
X112151350Y-127308499D01*
X112151355Y-127308499D01*
X112151362Y-127308500D01*
X112151368Y-127308500D01*
X113848632Y-127308500D01*
X113848638Y-127308500D01*
X113848645Y-127308499D01*
X113848649Y-127308499D01*
X113909196Y-127301990D01*
X113909199Y-127301989D01*
X113909201Y-127301989D01*
X114046204Y-127250889D01*
X114163261Y-127163261D01*
X114250889Y-127046204D01*
X114301989Y-126909201D01*
X114305259Y-126878792D01*
X114308499Y-126848649D01*
X114308500Y-126848632D01*
X114308500Y-125151367D01*
X114308499Y-125151350D01*
X146191500Y-125151350D01*
X146191500Y-126848649D01*
X146198009Y-126909196D01*
X146198011Y-126909204D01*
X146249110Y-127046202D01*
X146249112Y-127046207D01*
X146336738Y-127163261D01*
X146453792Y-127250887D01*
X146453794Y-127250888D01*
X146453796Y-127250889D01*
X146512875Y-127272924D01*
X146590795Y-127301988D01*
X146590803Y-127301990D01*
X146651350Y-127308499D01*
X146651355Y-127308499D01*
X146651362Y-127308500D01*
X146651368Y-127308500D01*
X148348632Y-127308500D01*
X148348638Y-127308500D01*
X148348645Y-127308499D01*
X148348649Y-127308499D01*
X148409196Y-127301990D01*
X148409199Y-127301989D01*
X148409201Y-127301989D01*
X148546204Y-127250889D01*
X148663261Y-127163261D01*
X148750889Y-127046204D01*
X148801989Y-126909201D01*
X148805259Y-126878792D01*
X148808499Y-126848649D01*
X148808500Y-126848632D01*
X148808500Y-125151367D01*
X148808499Y-125151350D01*
X148801990Y-125090803D01*
X148801988Y-125090795D01*
X148750889Y-124953797D01*
X148750887Y-124953792D01*
X148663261Y-124836738D01*
X148546207Y-124749112D01*
X148546202Y-124749110D01*
X148409204Y-124698011D01*
X148409196Y-124698009D01*
X148348636Y-124691499D01*
X148346595Y-124691390D01*
X148346146Y-124691231D01*
X148345283Y-124691139D01*
X148345304Y-124690934D01*
X148279644Y-124667767D01*
X148236093Y-124611697D01*
X148227735Y-124555683D01*
X148228372Y-124547581D01*
X147624948Y-123944157D01*
X147692993Y-123925925D01*
X147807007Y-123860099D01*
X147900099Y-123767007D01*
X147965925Y-123652993D01*
X147984157Y-123584948D01*
X148587581Y-124188372D01*
X148587582Y-124188372D01*
X148618701Y-124145541D01*
X148712170Y-123962099D01*
X148712173Y-123962093D01*
X148775791Y-123766296D01*
X148808000Y-123562938D01*
X148808000Y-123357061D01*
X148775791Y-123153703D01*
X148712173Y-122957906D01*
X148712170Y-122957900D01*
X148618699Y-122774454D01*
X148587583Y-122731626D01*
X148587582Y-122731626D01*
X147984157Y-123335051D01*
X147965925Y-123267007D01*
X147900099Y-123152993D01*
X147807007Y-123059901D01*
X147692993Y-122994075D01*
X147624947Y-122975841D01*
X148228372Y-122372416D01*
X148185541Y-122341298D01*
X148185540Y-122341297D01*
X148002099Y-122247829D01*
X148002093Y-122247826D01*
X147806294Y-122184208D01*
X147806298Y-122184208D01*
X147602939Y-122152000D01*
X147397061Y-122152000D01*
X147193703Y-122184208D01*
X146997906Y-122247826D01*
X146997900Y-122247829D01*
X146814452Y-122341301D01*
X146771625Y-122372416D01*
X147375051Y-122975842D01*
X147307007Y-122994075D01*
X147192993Y-123059901D01*
X147099901Y-123152993D01*
X147034075Y-123267007D01*
X147015842Y-123335051D01*
X146412416Y-122731625D01*
X146381301Y-122774452D01*
X146287829Y-122957900D01*
X146287826Y-122957906D01*
X146224208Y-123153703D01*
X146192000Y-123357061D01*
X146192000Y-123562938D01*
X146224208Y-123766296D01*
X146287826Y-123962093D01*
X146287829Y-123962099D01*
X146381297Y-124145540D01*
X146381298Y-124145541D01*
X146412416Y-124188372D01*
X147015841Y-123584947D01*
X147034075Y-123652993D01*
X147099901Y-123767007D01*
X147192993Y-123860099D01*
X147307007Y-123925925D01*
X147375051Y-123944157D01*
X146771626Y-124547582D01*
X146772264Y-124555685D01*
X146757668Y-124625165D01*
X146707825Y-124675725D01*
X146654703Y-124691016D01*
X146654717Y-124691139D01*
X146654014Y-124691214D01*
X146653405Y-124691390D01*
X146651362Y-124691499D01*
X146590803Y-124698009D01*
X146590795Y-124698011D01*
X146453797Y-124749110D01*
X146453792Y-124749112D01*
X146336738Y-124836738D01*
X146249112Y-124953792D01*
X146249110Y-124953797D01*
X146198011Y-125090795D01*
X146198009Y-125090803D01*
X146191500Y-125151350D01*
X114308499Y-125151350D01*
X114301990Y-125090803D01*
X114301988Y-125090795D01*
X114250889Y-124953797D01*
X114250887Y-124953792D01*
X114163261Y-124836738D01*
X114046207Y-124749112D01*
X114046202Y-124749110D01*
X113909204Y-124698011D01*
X113909196Y-124698009D01*
X113848636Y-124691499D01*
X113846595Y-124691390D01*
X113846146Y-124691231D01*
X113845283Y-124691139D01*
X113845304Y-124690934D01*
X113779644Y-124667767D01*
X113736093Y-124611697D01*
X113727735Y-124555683D01*
X113728372Y-124547581D01*
X113124948Y-123944157D01*
X113192993Y-123925925D01*
X113307007Y-123860099D01*
X113400099Y-123767007D01*
X113465925Y-123652993D01*
X113484157Y-123584948D01*
X114087581Y-124188372D01*
X114087582Y-124188372D01*
X114118701Y-124145541D01*
X114212170Y-123962099D01*
X114212173Y-123962093D01*
X114275791Y-123766296D01*
X114308000Y-123562938D01*
X114308000Y-123357061D01*
X114275791Y-123153703D01*
X114212173Y-122957906D01*
X114212170Y-122957900D01*
X114118699Y-122774454D01*
X114087583Y-122731626D01*
X114087582Y-122731626D01*
X113484157Y-123335051D01*
X113465925Y-123267007D01*
X113400099Y-123152993D01*
X113307007Y-123059901D01*
X113192993Y-122994075D01*
X113124947Y-122975841D01*
X113728372Y-122372416D01*
X113685541Y-122341298D01*
X113685540Y-122341297D01*
X113502099Y-122247829D01*
X113502093Y-122247826D01*
X113306294Y-122184208D01*
X113306298Y-122184208D01*
X113102939Y-122152000D01*
X112897061Y-122152000D01*
X112693703Y-122184208D01*
X112497906Y-122247826D01*
X112497900Y-122247829D01*
X112314452Y-122341301D01*
X112271625Y-122372416D01*
X112875051Y-122975842D01*
X112807007Y-122994075D01*
X112692993Y-123059901D01*
X112599901Y-123152993D01*
X112534075Y-123267007D01*
X112515842Y-123335051D01*
X111912416Y-122731625D01*
X111881301Y-122774452D01*
X111787829Y-122957900D01*
X111787826Y-122957906D01*
X111724208Y-123153703D01*
X111692000Y-123357061D01*
X111692000Y-123562938D01*
X111724208Y-123766296D01*
X111787826Y-123962093D01*
X111787829Y-123962099D01*
X111881297Y-124145540D01*
X111881298Y-124145541D01*
X111912416Y-124188372D01*
X112515841Y-123584947D01*
X112534075Y-123652993D01*
X112599901Y-123767007D01*
X112692993Y-123860099D01*
X112807007Y-123925925D01*
X112875051Y-123944157D01*
X112271626Y-124547582D01*
X112272264Y-124555685D01*
X112257668Y-124625165D01*
X112207825Y-124675725D01*
X112154703Y-124691016D01*
X112154717Y-124691139D01*
X112154014Y-124691214D01*
X112153405Y-124691390D01*
X112151362Y-124691499D01*
X112090803Y-124698009D01*
X112090795Y-124698011D01*
X111953797Y-124749110D01*
X111953792Y-124749112D01*
X111836738Y-124836738D01*
X111749112Y-124953792D01*
X111749110Y-124953797D01*
X111698011Y-125090795D01*
X111698009Y-125090803D01*
X111691500Y-125151350D01*
X80500000Y-125151350D01*
X80500000Y-113326350D01*
X120866500Y-113326350D01*
X120866500Y-115673649D01*
X120873009Y-115734196D01*
X120873011Y-115734204D01*
X120924110Y-115871202D01*
X120924112Y-115871207D01*
X121011738Y-115988261D01*
X121128792Y-116075887D01*
X121128794Y-116075888D01*
X121128796Y-116075889D01*
X121175412Y-116093276D01*
X121265795Y-116126988D01*
X121265803Y-116126990D01*
X121326350Y-116133499D01*
X121326355Y-116133499D01*
X121326362Y-116133500D01*
X121326368Y-116133500D01*
X123673632Y-116133500D01*
X123673638Y-116133500D01*
X123673645Y-116133499D01*
X123673649Y-116133499D01*
X123734196Y-116126990D01*
X123734199Y-116126989D01*
X123734201Y-116126989D01*
X123871204Y-116075889D01*
X123988261Y-115988261D01*
X124075889Y-115871204D01*
X124126989Y-115734201D01*
X124133500Y-115673638D01*
X124133500Y-114371441D01*
X135866500Y-114371441D01*
X135866500Y-114628559D01*
X135906722Y-114882512D01*
X135906723Y-114882517D01*
X135986174Y-115127041D01*
X135986176Y-115127046D01*
X136102906Y-115356141D01*
X136254036Y-115564154D01*
X136254038Y-115564156D01*
X136254040Y-115564159D01*
X136435840Y-115745959D01*
X136435843Y-115745961D01*
X136435846Y-115745964D01*
X136643859Y-115897094D01*
X136872954Y-116013824D01*
X137117488Y-116093278D01*
X137371441Y-116133500D01*
X137371444Y-116133500D01*
X137628556Y-116133500D01*
X137628559Y-116133500D01*
X137882512Y-116093278D01*
X138127046Y-116013824D01*
X138356141Y-115897094D01*
X138564154Y-115745964D01*
X138745964Y-115564154D01*
X138897094Y-115356141D01*
X139013824Y-115127046D01*
X139093278Y-114882512D01*
X139133500Y-114628559D01*
X139133500Y-114371441D01*
X139093278Y-114117488D01*
X139013824Y-113872954D01*
X138897094Y-113643859D01*
X138745964Y-113435846D01*
X138745962Y-113435843D01*
X138725560Y-113415441D01*
X153641500Y-113415441D01*
X153641500Y-113584558D01*
X153653296Y-113643859D01*
X153674492Y-113750415D01*
X153739207Y-113906652D01*
X153833159Y-114047262D01*
X153952738Y-114166841D01*
X154093348Y-114260793D01*
X154249585Y-114325508D01*
X154415445Y-114358500D01*
X154584555Y-114358500D01*
X154750415Y-114325508D01*
X154838090Y-114289191D01*
X154889034Y-114268091D01*
X154937252Y-114258500D01*
X164562748Y-114258500D01*
X164610966Y-114268091D01*
X164688849Y-114300350D01*
X164749585Y-114325508D01*
X164915445Y-114358500D01*
X165084555Y-114358500D01*
X165250415Y-114325508D01*
X165406652Y-114260793D01*
X165547262Y-114166841D01*
X165666841Y-114047262D01*
X165760793Y-113906652D01*
X165825508Y-113750415D01*
X165858500Y-113584555D01*
X165858500Y-113415445D01*
X165825508Y-113249585D01*
X165760793Y-113093348D01*
X165666841Y-112952738D01*
X165547262Y-112833159D01*
X165406652Y-112739207D01*
X165389033Y-112731909D01*
X165250418Y-112674493D01*
X165250415Y-112674492D01*
X165084558Y-112641500D01*
X165084555Y-112641500D01*
X164915445Y-112641500D01*
X164915441Y-112641500D01*
X164749584Y-112674492D01*
X164749581Y-112674493D01*
X164610966Y-112731909D01*
X164562748Y-112741500D01*
X154937252Y-112741500D01*
X154889034Y-112731909D01*
X154750418Y-112674493D01*
X154750415Y-112674492D01*
X154584558Y-112641500D01*
X154584555Y-112641500D01*
X154415445Y-112641500D01*
X154415441Y-112641500D01*
X154249584Y-112674492D01*
X154249581Y-112674493D01*
X154093347Y-112739207D01*
X153952739Y-112833158D01*
X153952733Y-112833163D01*
X153833163Y-112952733D01*
X153833158Y-112952739D01*
X153739207Y-113093347D01*
X153674493Y-113249581D01*
X153674492Y-113249584D01*
X153641500Y-113415441D01*
X138725560Y-113415441D01*
X138564159Y-113254040D01*
X138564156Y-113254038D01*
X138564154Y-113254036D01*
X138356141Y-113102906D01*
X138127046Y-112986176D01*
X138127043Y-112986175D01*
X138127041Y-112986174D01*
X137882517Y-112906723D01*
X137882513Y-112906722D01*
X137882512Y-112906722D01*
X137628559Y-112866500D01*
X137371441Y-112866500D01*
X137117488Y-112906722D01*
X137117482Y-112906723D01*
X136872958Y-112986174D01*
X136872952Y-112986177D01*
X136643855Y-113102908D01*
X136435843Y-113254038D01*
X136435840Y-113254040D01*
X136254040Y-113435840D01*
X136254038Y-113435843D01*
X136102908Y-113643855D01*
X135986177Y-113872952D01*
X135986174Y-113872958D01*
X135906723Y-114117482D01*
X135906722Y-114117487D01*
X135906722Y-114117488D01*
X135866500Y-114371441D01*
X124133500Y-114371441D01*
X124133500Y-113326362D01*
X124133499Y-113326350D01*
X124126990Y-113265803D01*
X124126988Y-113265795D01*
X124075889Y-113128797D01*
X124075887Y-113128792D01*
X123988261Y-113011738D01*
X123871207Y-112924112D01*
X123871202Y-112924110D01*
X123734204Y-112873011D01*
X123734196Y-112873009D01*
X123673649Y-112866500D01*
X123673638Y-112866500D01*
X121326362Y-112866500D01*
X121326350Y-112866500D01*
X121265803Y-112873009D01*
X121265795Y-112873011D01*
X121128797Y-112924110D01*
X121128792Y-112924112D01*
X121011738Y-113011738D01*
X120924112Y-113128792D01*
X120924110Y-113128797D01*
X120873011Y-113265795D01*
X120873009Y-113265803D01*
X120866500Y-113326350D01*
X80500000Y-113326350D01*
X80500000Y-107415441D01*
X108141500Y-107415441D01*
X108141500Y-107584558D01*
X108174492Y-107750415D01*
X108174493Y-107750418D01*
X108178791Y-107760794D01*
X108239207Y-107906652D01*
X108333159Y-108047262D01*
X108452738Y-108166841D01*
X108593348Y-108260793D01*
X108749585Y-108325508D01*
X108915445Y-108358500D01*
X109084555Y-108358500D01*
X109250415Y-108325508D01*
X109338090Y-108289191D01*
X109389034Y-108268091D01*
X109437252Y-108258500D01*
X139074701Y-108258500D01*
X139074705Y-108258500D01*
X139074706Y-108258500D01*
X139147976Y-108243925D01*
X139221247Y-108229351D01*
X139359284Y-108172174D01*
X139483515Y-108089166D01*
X139657239Y-107915441D01*
X157236500Y-107915441D01*
X157236500Y-108084558D01*
X157269492Y-108250415D01*
X157269493Y-108250418D01*
X157314262Y-108358500D01*
X157334207Y-108406652D01*
X157428159Y-108547262D01*
X157547738Y-108666841D01*
X157688348Y-108760793D01*
X157844585Y-108825508D01*
X158010445Y-108858500D01*
X158179555Y-108858500D01*
X158345415Y-108825508D01*
X158501652Y-108760793D01*
X158642262Y-108666841D01*
X158663698Y-108645405D01*
X158726010Y-108611379D01*
X158752793Y-108608500D01*
X162842207Y-108608500D01*
X162910328Y-108628502D01*
X162931302Y-108645405D01*
X162952738Y-108666841D01*
X163093348Y-108760793D01*
X163249585Y-108825508D01*
X163415445Y-108858500D01*
X163584555Y-108858500D01*
X163750415Y-108825508D01*
X163906652Y-108760793D01*
X164047262Y-108666841D01*
X164166841Y-108547262D01*
X164260793Y-108406652D01*
X164325508Y-108250415D01*
X164358500Y-108084555D01*
X164358500Y-107915445D01*
X164325508Y-107749585D01*
X164260793Y-107593348D01*
X164166841Y-107452738D01*
X164053198Y-107339095D01*
X164019172Y-107276783D01*
X164024237Y-107205968D01*
X164053198Y-107160905D01*
X164105603Y-107108500D01*
X164166841Y-107047262D01*
X164260793Y-106906652D01*
X164325508Y-106750415D01*
X164358500Y-106584555D01*
X164358500Y-106415445D01*
X164325508Y-106249585D01*
X164260793Y-106093348D01*
X164166841Y-105952738D01*
X164053198Y-105839095D01*
X164019172Y-105776783D01*
X164024237Y-105705968D01*
X164053198Y-105660905D01*
X164105603Y-105608500D01*
X164166841Y-105547262D01*
X164260793Y-105406652D01*
X164325508Y-105250415D01*
X164358500Y-105084555D01*
X164358500Y-104915445D01*
X164325508Y-104749585D01*
X164260793Y-104593348D01*
X164166841Y-104452738D01*
X164047262Y-104333159D01*
X163906652Y-104239207D01*
X163750418Y-104174493D01*
X163750415Y-104174492D01*
X163584558Y-104141500D01*
X163584555Y-104141500D01*
X163415445Y-104141500D01*
X163415441Y-104141500D01*
X163249584Y-104174492D01*
X163249581Y-104174493D01*
X163093347Y-104239207D01*
X162952739Y-104333158D01*
X162952733Y-104333163D01*
X162931302Y-104354595D01*
X162868990Y-104388621D01*
X162842207Y-104391500D01*
X161292793Y-104391500D01*
X161224672Y-104371498D01*
X161203698Y-104354595D01*
X161182266Y-104333163D01*
X161182262Y-104333159D01*
X161041652Y-104239207D01*
X160885418Y-104174493D01*
X160885415Y-104174492D01*
X160719558Y-104141500D01*
X160719555Y-104141500D01*
X160550445Y-104141500D01*
X160550441Y-104141500D01*
X160384584Y-104174492D01*
X160384581Y-104174493D01*
X160228347Y-104239207D01*
X160087739Y-104333158D01*
X160087733Y-104333163D01*
X159968163Y-104452733D01*
X159968158Y-104452739D01*
X159874207Y-104593347D01*
X159809493Y-104749581D01*
X159809492Y-104749584D01*
X159776500Y-104915441D01*
X159776500Y-105084558D01*
X159809492Y-105250415D01*
X159874207Y-105406652D01*
X159968159Y-105547262D01*
X159968163Y-105547266D01*
X160037719Y-105616822D01*
X160071745Y-105679134D01*
X160066680Y-105749949D01*
X160024133Y-105806785D01*
X159957613Y-105831596D01*
X159888239Y-105816505D01*
X159878628Y-105810685D01*
X159771652Y-105739207D01*
X159754033Y-105731909D01*
X159615418Y-105674493D01*
X159615415Y-105674492D01*
X159449558Y-105641500D01*
X159449555Y-105641500D01*
X159280445Y-105641500D01*
X159280441Y-105641500D01*
X159114584Y-105674492D01*
X159114581Y-105674493D01*
X158958347Y-105739207D01*
X158817739Y-105833158D01*
X158817733Y-105833163D01*
X158698163Y-105952733D01*
X158698158Y-105952739D01*
X158604207Y-106093347D01*
X158539493Y-106249581D01*
X158539492Y-106249584D01*
X158506500Y-106415441D01*
X158506500Y-106584558D01*
X158524390Y-106674492D01*
X158539492Y-106750415D01*
X158604207Y-106906652D01*
X158698159Y-107047262D01*
X158698163Y-107047266D01*
X158767719Y-107116822D01*
X158801745Y-107179134D01*
X158796680Y-107249949D01*
X158754133Y-107306785D01*
X158687613Y-107331596D01*
X158618239Y-107316505D01*
X158608628Y-107310685D01*
X158501652Y-107239207D01*
X158477850Y-107229348D01*
X158345418Y-107174493D01*
X158345415Y-107174492D01*
X158179558Y-107141500D01*
X158179555Y-107141500D01*
X158010445Y-107141500D01*
X158010441Y-107141500D01*
X157844584Y-107174492D01*
X157844581Y-107174493D01*
X157688347Y-107239207D01*
X157547739Y-107333158D01*
X157547733Y-107333163D01*
X157428163Y-107452733D01*
X157428158Y-107452739D01*
X157334207Y-107593347D01*
X157269493Y-107749581D01*
X157269492Y-107749584D01*
X157236500Y-107915441D01*
X139657239Y-107915441D01*
X139727159Y-107845520D01*
X139734202Y-107840814D01*
X139737192Y-107836509D01*
X139768031Y-107818211D01*
X139906652Y-107760793D01*
X140047262Y-107666841D01*
X140166841Y-107547262D01*
X140260793Y-107406652D01*
X140325508Y-107250415D01*
X140358500Y-107084555D01*
X140358500Y-106915445D01*
X140325508Y-106749585D01*
X140260793Y-106593348D01*
X140166841Y-106452738D01*
X140129544Y-106415441D01*
X140641500Y-106415441D01*
X140641500Y-106584558D01*
X140659390Y-106674492D01*
X140674492Y-106750415D01*
X140739207Y-106906652D01*
X140833159Y-107047262D01*
X140952738Y-107166841D01*
X141093348Y-107260793D01*
X141249585Y-107325508D01*
X141415445Y-107358500D01*
X141584555Y-107358500D01*
X141750415Y-107325508D01*
X141838090Y-107289191D01*
X141889034Y-107268091D01*
X141937252Y-107258500D01*
X152074701Y-107258500D01*
X152074705Y-107258500D01*
X152074706Y-107258500D01*
X152147976Y-107243925D01*
X152221247Y-107229351D01*
X152359284Y-107172174D01*
X152483515Y-107089166D01*
X167589165Y-91983516D01*
X167672173Y-91859285D01*
X167672174Y-91859284D01*
X167729351Y-91721246D01*
X167758500Y-91574706D01*
X167758500Y-69437251D01*
X167768091Y-69389033D01*
X167780413Y-69359284D01*
X167825508Y-69250415D01*
X167858500Y-69084555D01*
X167858500Y-68915445D01*
X167858498Y-68915434D01*
X167858348Y-68914675D01*
X167854444Y-68895051D01*
X171626500Y-68895051D01*
X171626500Y-69104949D01*
X171649541Y-69250418D01*
X171659337Y-69312266D01*
X171691119Y-69410083D01*
X171724197Y-69511886D01*
X171819489Y-69698906D01*
X171942863Y-69868717D01*
X171942865Y-69868719D01*
X171942867Y-69868722D01*
X172091277Y-70017132D01*
X172091280Y-70017134D01*
X172091283Y-70017137D01*
X172261094Y-70140511D01*
X172448114Y-70235803D01*
X172647738Y-70300664D01*
X172855051Y-70333500D01*
X172855053Y-70333500D01*
X173064947Y-70333500D01*
X173064949Y-70333500D01*
X173272262Y-70300664D01*
X173471886Y-70235803D01*
X173658906Y-70140511D01*
X173828717Y-70017137D01*
X173963377Y-69882476D01*
X174025687Y-69848453D01*
X174096503Y-69853517D01*
X174153339Y-69896064D01*
X174170526Y-69927540D01*
X174224110Y-70071202D01*
X174224112Y-70071207D01*
X174311738Y-70188261D01*
X174428792Y-70275887D01*
X174428794Y-70275888D01*
X174428796Y-70275889D01*
X174487875Y-70297924D01*
X174565795Y-70326988D01*
X174565803Y-70326990D01*
X174626350Y-70333499D01*
X174626355Y-70333499D01*
X174626362Y-70333500D01*
X174626368Y-70333500D01*
X176373632Y-70333500D01*
X176373638Y-70333500D01*
X176373645Y-70333499D01*
X176373649Y-70333499D01*
X176434196Y-70326990D01*
X176434199Y-70326989D01*
X176434201Y-70326989D01*
X176571204Y-70275889D01*
X176606344Y-70249584D01*
X176688261Y-70188261D01*
X176775887Y-70071207D01*
X176775887Y-70071206D01*
X176775889Y-70071204D01*
X176826989Y-69934201D01*
X176827706Y-69927540D01*
X176833499Y-69873649D01*
X176833500Y-69873632D01*
X176833500Y-68126367D01*
X176833499Y-68126350D01*
X176826990Y-68065803D01*
X176826988Y-68065795D01*
X176775889Y-67928797D01*
X176775887Y-67928792D01*
X176688261Y-67811738D01*
X176571207Y-67724112D01*
X176571202Y-67724110D01*
X176434204Y-67673011D01*
X176434196Y-67673009D01*
X176373649Y-67666500D01*
X176370272Y-67666320D01*
X176370329Y-67665238D01*
X176306505Y-67646498D01*
X176260012Y-67592842D01*
X176257088Y-67576299D01*
X175633113Y-66952323D01*
X175696853Y-66935245D01*
X175813147Y-66868102D01*
X175908102Y-66773147D01*
X175975245Y-66656853D01*
X175992323Y-66593112D01*
X176605480Y-67206269D01*
X176605482Y-67206269D01*
X176640076Y-67158656D01*
X176640082Y-67158645D01*
X176735338Y-66971695D01*
X176735341Y-66971689D01*
X176800175Y-66772150D01*
X176833000Y-66564905D01*
X176833000Y-66355094D01*
X176800175Y-66147849D01*
X176735341Y-65948310D01*
X176735338Y-65948304D01*
X176640081Y-65761352D01*
X176605481Y-65713729D01*
X176605479Y-65713729D01*
X175992323Y-66326885D01*
X175975245Y-66263147D01*
X175908102Y-66146853D01*
X175813147Y-66051898D01*
X175696853Y-65984755D01*
X175633112Y-65967676D01*
X176246269Y-65354518D01*
X176246269Y-65354517D01*
X176198647Y-65319918D01*
X176164005Y-65302267D01*
X176112390Y-65253519D01*
X176095324Y-65184604D01*
X176118225Y-65117402D01*
X176164005Y-65077733D01*
X176198645Y-65060082D01*
X176198656Y-65060076D01*
X176246269Y-65025482D01*
X176246269Y-65025480D01*
X175633113Y-64412323D01*
X175696853Y-64395245D01*
X175813147Y-64328102D01*
X175908102Y-64233147D01*
X175975245Y-64116853D01*
X175992323Y-64053112D01*
X176605480Y-64666269D01*
X176605482Y-64666269D01*
X176640076Y-64618656D01*
X176640082Y-64618645D01*
X176735338Y-64431695D01*
X176735341Y-64431689D01*
X176800175Y-64232150D01*
X176833000Y-64024905D01*
X176833000Y-63815094D01*
X176800175Y-63607849D01*
X176735341Y-63408310D01*
X176735338Y-63408304D01*
X176640081Y-63221352D01*
X176605481Y-63173729D01*
X176605479Y-63173729D01*
X175992323Y-63786885D01*
X175975245Y-63723147D01*
X175908102Y-63606853D01*
X175813147Y-63511898D01*
X175696853Y-63444755D01*
X175633112Y-63427676D01*
X176246269Y-62814518D01*
X176246269Y-62814517D01*
X176198647Y-62779918D01*
X176164555Y-62762547D01*
X176112940Y-62713798D01*
X176095874Y-62644883D01*
X176118775Y-62577682D01*
X176164555Y-62538013D01*
X176198906Y-62520511D01*
X176368717Y-62397137D01*
X176517137Y-62248717D01*
X176640511Y-62078906D01*
X176735803Y-61891886D01*
X176800664Y-61692262D01*
X176833500Y-61484949D01*
X176833500Y-61275051D01*
X176800664Y-61067738D01*
X176735803Y-60868114D01*
X176640511Y-60681094D01*
X176517137Y-60511283D01*
X176517134Y-60511280D01*
X176517132Y-60511277D01*
X176368722Y-60362867D01*
X176368719Y-60362865D01*
X176368717Y-60362863D01*
X176199498Y-60239919D01*
X176198909Y-60239491D01*
X176198908Y-60239490D01*
X176198906Y-60239489D01*
X176165103Y-60222265D01*
X176113490Y-60173519D01*
X176096424Y-60104604D01*
X176119325Y-60037402D01*
X176165103Y-59997734D01*
X176198906Y-59980511D01*
X176368717Y-59857137D01*
X176517137Y-59708717D01*
X176640511Y-59538906D01*
X176735803Y-59351886D01*
X176800664Y-59152262D01*
X176833500Y-58944949D01*
X176833500Y-58735051D01*
X176800664Y-58527738D01*
X176735803Y-58328114D01*
X176640511Y-58141094D01*
X176517137Y-57971283D01*
X176517134Y-57971280D01*
X176517132Y-57971277D01*
X176368722Y-57822867D01*
X176368719Y-57822865D01*
X176368717Y-57822863D01*
X176199498Y-57699919D01*
X176198909Y-57699491D01*
X176198908Y-57699490D01*
X176198906Y-57699489D01*
X176165103Y-57682265D01*
X176113490Y-57633519D01*
X176096424Y-57564604D01*
X176119325Y-57497402D01*
X176165103Y-57457734D01*
X176198906Y-57440511D01*
X176368717Y-57317137D01*
X176517137Y-57168717D01*
X176640511Y-56998906D01*
X176735803Y-56811886D01*
X176800664Y-56612262D01*
X176833500Y-56404949D01*
X176833500Y-56195051D01*
X176800664Y-55987738D01*
X176735803Y-55788114D01*
X176640511Y-55601094D01*
X176517137Y-55431283D01*
X176517134Y-55431280D01*
X176517132Y-55431277D01*
X176368722Y-55282867D01*
X176368719Y-55282865D01*
X176368717Y-55282863D01*
X176199498Y-55159919D01*
X176198909Y-55159491D01*
X176198908Y-55159490D01*
X176198906Y-55159489D01*
X176165103Y-55142265D01*
X176113490Y-55093519D01*
X176096424Y-55024604D01*
X176119325Y-54957402D01*
X176165103Y-54917734D01*
X176198906Y-54900511D01*
X176368717Y-54777137D01*
X176517137Y-54628717D01*
X176640511Y-54458906D01*
X176735803Y-54271886D01*
X176800664Y-54072262D01*
X176833500Y-53864949D01*
X176833500Y-53655051D01*
X176800664Y-53447738D01*
X176735803Y-53248114D01*
X176640511Y-53061094D01*
X176517137Y-52891283D01*
X176517134Y-52891280D01*
X176517132Y-52891277D01*
X176368722Y-52742867D01*
X176368719Y-52742865D01*
X176368717Y-52742863D01*
X176199498Y-52619919D01*
X176198909Y-52619491D01*
X176198908Y-52619490D01*
X176198906Y-52619489D01*
X176165103Y-52602265D01*
X176113490Y-52553519D01*
X176096424Y-52484604D01*
X176119325Y-52417402D01*
X176165103Y-52377734D01*
X176198906Y-52360511D01*
X176368717Y-52237137D01*
X176517137Y-52088717D01*
X176640511Y-51918906D01*
X176735803Y-51731886D01*
X176800664Y-51532262D01*
X176833500Y-51324949D01*
X176833500Y-51115051D01*
X176800664Y-50907738D01*
X176735803Y-50708114D01*
X176640511Y-50521094D01*
X176517137Y-50351283D01*
X176517134Y-50351280D01*
X176517132Y-50351277D01*
X176368722Y-50202867D01*
X176368719Y-50202865D01*
X176368717Y-50202863D01*
X176199498Y-50079919D01*
X176198909Y-50079491D01*
X176198908Y-50079490D01*
X176198906Y-50079489D01*
X176165103Y-50062265D01*
X176113490Y-50013519D01*
X176096424Y-49944604D01*
X176119325Y-49877402D01*
X176165103Y-49837734D01*
X176198906Y-49820511D01*
X176368717Y-49697137D01*
X176517137Y-49548717D01*
X176640511Y-49378906D01*
X176735803Y-49191886D01*
X176800664Y-48992262D01*
X176833500Y-48784949D01*
X176833500Y-48575051D01*
X176800664Y-48367738D01*
X176735803Y-48168114D01*
X176640511Y-47981094D01*
X176517137Y-47811283D01*
X176517134Y-47811280D01*
X176517132Y-47811277D01*
X176368722Y-47662867D01*
X176368719Y-47662865D01*
X176368717Y-47662863D01*
X176199498Y-47539919D01*
X176198909Y-47539491D01*
X176198908Y-47539490D01*
X176198906Y-47539489D01*
X176165103Y-47522265D01*
X176113490Y-47473519D01*
X176096424Y-47404604D01*
X176119325Y-47337402D01*
X176165103Y-47297734D01*
X176198906Y-47280511D01*
X176368717Y-47157137D01*
X176517137Y-47008717D01*
X176640511Y-46838906D01*
X176735803Y-46651886D01*
X176800664Y-46452262D01*
X176833500Y-46244949D01*
X176833500Y-46035051D01*
X176800664Y-45827738D01*
X176735803Y-45628114D01*
X176640511Y-45441094D01*
X176517137Y-45271283D01*
X176517134Y-45271280D01*
X176517132Y-45271277D01*
X176368722Y-45122867D01*
X176368719Y-45122865D01*
X176368717Y-45122863D01*
X176199498Y-44999919D01*
X176198909Y-44999491D01*
X176198908Y-44999490D01*
X176198906Y-44999489D01*
X176011886Y-44904197D01*
X176011883Y-44904196D01*
X176011881Y-44904195D01*
X175812266Y-44839337D01*
X175812264Y-44839336D01*
X175812262Y-44839336D01*
X175604949Y-44806500D01*
X175395051Y-44806500D01*
X175187738Y-44839336D01*
X175187736Y-44839336D01*
X175187733Y-44839337D01*
X174988118Y-44904195D01*
X174988112Y-44904198D01*
X174801090Y-44999491D01*
X174631280Y-45122865D01*
X174631277Y-45122867D01*
X174482867Y-45271277D01*
X174482865Y-45271280D01*
X174359489Y-45441093D01*
X174341984Y-45475447D01*
X174293235Y-45527061D01*
X174224320Y-45544125D01*
X174157118Y-45521222D01*
X174117452Y-45475443D01*
X174100083Y-45441355D01*
X174065481Y-45393729D01*
X174065479Y-45393729D01*
X173452323Y-46006885D01*
X173435245Y-45943147D01*
X173368102Y-45826853D01*
X173273147Y-45731898D01*
X173156853Y-45664755D01*
X173093112Y-45647676D01*
X173706269Y-45034518D01*
X173706269Y-45034517D01*
X173658647Y-44999918D01*
X173471695Y-44904661D01*
X173471689Y-44904658D01*
X173272148Y-44839824D01*
X173272152Y-44839824D01*
X173064906Y-44807000D01*
X172855094Y-44807000D01*
X172647849Y-44839824D01*
X172448310Y-44904658D01*
X172448304Y-44904661D01*
X172261350Y-44999919D01*
X172213729Y-45034517D01*
X172213729Y-45034519D01*
X172826886Y-45647676D01*
X172763147Y-45664755D01*
X172646853Y-45731898D01*
X172551898Y-45826853D01*
X172484755Y-45943147D01*
X172467676Y-46006886D01*
X171854519Y-45393729D01*
X171854517Y-45393729D01*
X171819919Y-45441350D01*
X171724661Y-45628304D01*
X171724658Y-45628310D01*
X171659824Y-45827849D01*
X171627000Y-46035094D01*
X171627000Y-46244905D01*
X171659824Y-46452150D01*
X171724658Y-46651689D01*
X171724661Y-46651695D01*
X171819918Y-46838647D01*
X171854517Y-46886269D01*
X171854518Y-46886269D01*
X172467675Y-46273111D01*
X172484755Y-46336853D01*
X172551898Y-46453147D01*
X172646853Y-46548102D01*
X172763147Y-46615245D01*
X172826885Y-46632323D01*
X172213729Y-47245479D01*
X172213729Y-47245481D01*
X172261352Y-47280081D01*
X172295995Y-47297733D01*
X172347610Y-47346481D01*
X172364676Y-47415396D01*
X172341775Y-47482598D01*
X172295996Y-47522266D01*
X172261354Y-47539917D01*
X172261351Y-47539919D01*
X172213729Y-47574517D01*
X172213729Y-47574519D01*
X172826886Y-48187676D01*
X172763147Y-48204755D01*
X172646853Y-48271898D01*
X172551898Y-48366853D01*
X172484755Y-48483147D01*
X172467676Y-48546886D01*
X171854519Y-47933729D01*
X171854517Y-47933729D01*
X171819919Y-47981350D01*
X171724661Y-48168304D01*
X171724658Y-48168310D01*
X171659824Y-48367849D01*
X171627000Y-48575094D01*
X171627000Y-48784905D01*
X171659824Y-48992150D01*
X171724658Y-49191689D01*
X171724661Y-49191695D01*
X171819918Y-49378647D01*
X171854517Y-49426269D01*
X171854518Y-49426269D01*
X172467675Y-48813111D01*
X172484755Y-48876853D01*
X172551898Y-48993147D01*
X172646853Y-49088102D01*
X172763147Y-49155245D01*
X172826885Y-49172323D01*
X172213729Y-49785479D01*
X172213729Y-49785481D01*
X172261352Y-49820081D01*
X172295995Y-49837733D01*
X172347610Y-49886481D01*
X172364676Y-49955396D01*
X172341775Y-50022598D01*
X172295996Y-50062266D01*
X172261354Y-50079917D01*
X172261351Y-50079919D01*
X172213729Y-50114517D01*
X172213729Y-50114519D01*
X172826886Y-50727676D01*
X172763147Y-50744755D01*
X172646853Y-50811898D01*
X172551898Y-50906853D01*
X172484755Y-51023147D01*
X172467676Y-51086886D01*
X171854519Y-50473729D01*
X171854517Y-50473729D01*
X171819919Y-50521350D01*
X171724661Y-50708304D01*
X171724658Y-50708310D01*
X171659824Y-50907849D01*
X171627000Y-51115094D01*
X171627000Y-51324905D01*
X171659824Y-51532150D01*
X171724658Y-51731689D01*
X171724661Y-51731695D01*
X171819918Y-51918647D01*
X171854517Y-51966269D01*
X171854518Y-51966269D01*
X172467675Y-51353111D01*
X172484755Y-51416853D01*
X172551898Y-51533147D01*
X172646853Y-51628102D01*
X172763147Y-51695245D01*
X172826885Y-51712323D01*
X172213729Y-52325479D01*
X172213729Y-52325481D01*
X172261352Y-52360081D01*
X172295995Y-52377733D01*
X172347610Y-52426481D01*
X172364676Y-52495396D01*
X172341775Y-52562598D01*
X172295996Y-52602266D01*
X172261354Y-52619917D01*
X172261351Y-52619919D01*
X172213729Y-52654517D01*
X172213729Y-52654519D01*
X172826886Y-53267676D01*
X172763147Y-53284755D01*
X172646853Y-53351898D01*
X172551898Y-53446853D01*
X172484755Y-53563147D01*
X172467676Y-53626886D01*
X171854519Y-53013729D01*
X171854517Y-53013729D01*
X171819919Y-53061350D01*
X171724661Y-53248304D01*
X171724658Y-53248310D01*
X171659824Y-53447849D01*
X171627000Y-53655094D01*
X171627000Y-53864905D01*
X171659824Y-54072150D01*
X171724658Y-54271689D01*
X171724661Y-54271695D01*
X171819918Y-54458647D01*
X171854517Y-54506269D01*
X171854518Y-54506269D01*
X172467675Y-53893111D01*
X172484755Y-53956853D01*
X172551898Y-54073147D01*
X172646853Y-54168102D01*
X172763147Y-54235245D01*
X172826885Y-54252323D01*
X172213729Y-54865479D01*
X172213729Y-54865481D01*
X172261352Y-54900081D01*
X172295995Y-54917733D01*
X172347610Y-54966481D01*
X172364676Y-55035396D01*
X172341775Y-55102598D01*
X172295996Y-55142266D01*
X172261354Y-55159917D01*
X172261351Y-55159919D01*
X172213729Y-55194517D01*
X172213729Y-55194519D01*
X172826886Y-55807676D01*
X172763147Y-55824755D01*
X172646853Y-55891898D01*
X172551898Y-55986853D01*
X172484755Y-56103147D01*
X172467676Y-56166886D01*
X171854519Y-55553729D01*
X171854517Y-55553729D01*
X171819919Y-55601350D01*
X171724661Y-55788304D01*
X171724658Y-55788310D01*
X171659824Y-55987849D01*
X171627000Y-56195094D01*
X171627000Y-56404905D01*
X171659824Y-56612150D01*
X171724658Y-56811689D01*
X171724661Y-56811695D01*
X171819918Y-56998647D01*
X171854517Y-57046269D01*
X171854518Y-57046269D01*
X172467675Y-56433111D01*
X172484755Y-56496853D01*
X172551898Y-56613147D01*
X172646853Y-56708102D01*
X172763147Y-56775245D01*
X172826885Y-56792323D01*
X172213729Y-57405479D01*
X172213729Y-57405481D01*
X172261352Y-57440081D01*
X172295995Y-57457733D01*
X172347610Y-57506481D01*
X172364676Y-57575396D01*
X172341775Y-57642598D01*
X172295996Y-57682266D01*
X172261354Y-57699917D01*
X172261351Y-57699919D01*
X172213729Y-57734517D01*
X172213729Y-57734519D01*
X172826886Y-58347676D01*
X172763147Y-58364755D01*
X172646853Y-58431898D01*
X172551898Y-58526853D01*
X172484755Y-58643147D01*
X172467676Y-58706886D01*
X171854519Y-58093729D01*
X171854517Y-58093729D01*
X171819919Y-58141350D01*
X171724661Y-58328304D01*
X171724658Y-58328310D01*
X171659824Y-58527849D01*
X171627000Y-58735094D01*
X171627000Y-58944905D01*
X171659824Y-59152150D01*
X171724658Y-59351689D01*
X171724661Y-59351695D01*
X171819918Y-59538647D01*
X171854517Y-59586269D01*
X171854518Y-59586269D01*
X172467675Y-58973111D01*
X172484755Y-59036853D01*
X172551898Y-59153147D01*
X172646853Y-59248102D01*
X172763147Y-59315245D01*
X172826885Y-59332323D01*
X172213729Y-59945479D01*
X172213729Y-59945481D01*
X172261352Y-59980081D01*
X172295995Y-59997733D01*
X172347610Y-60046481D01*
X172364676Y-60115396D01*
X172341775Y-60182598D01*
X172295996Y-60222266D01*
X172261354Y-60239917D01*
X172261351Y-60239919D01*
X172213729Y-60274517D01*
X172213729Y-60274519D01*
X172826886Y-60887676D01*
X172763147Y-60904755D01*
X172646853Y-60971898D01*
X172551898Y-61066853D01*
X172484755Y-61183147D01*
X172467676Y-61246886D01*
X171854519Y-60633729D01*
X171854517Y-60633729D01*
X171819919Y-60681350D01*
X171724661Y-60868304D01*
X171724658Y-60868310D01*
X171659824Y-61067849D01*
X171627000Y-61275094D01*
X171627000Y-61484905D01*
X171659824Y-61692150D01*
X171724658Y-61891689D01*
X171724661Y-61891695D01*
X171819918Y-62078647D01*
X171854517Y-62126269D01*
X171854518Y-62126269D01*
X172467675Y-61513111D01*
X172484755Y-61576853D01*
X172551898Y-61693147D01*
X172646853Y-61788102D01*
X172763147Y-61855245D01*
X172826885Y-61872323D01*
X172213729Y-62485479D01*
X172213729Y-62485481D01*
X172261352Y-62520081D01*
X172295995Y-62537733D01*
X172347610Y-62586481D01*
X172364676Y-62655396D01*
X172341775Y-62722598D01*
X172295996Y-62762266D01*
X172261354Y-62779917D01*
X172261351Y-62779919D01*
X172213729Y-62814517D01*
X172213729Y-62814519D01*
X172826886Y-63427676D01*
X172763147Y-63444755D01*
X172646853Y-63511898D01*
X172551898Y-63606853D01*
X172484755Y-63723147D01*
X172467676Y-63786886D01*
X171854519Y-63173729D01*
X171854517Y-63173729D01*
X171819919Y-63221350D01*
X171724661Y-63408304D01*
X171724658Y-63408310D01*
X171659824Y-63607849D01*
X171627000Y-63815094D01*
X171627000Y-64024905D01*
X171659824Y-64232150D01*
X171724658Y-64431689D01*
X171724661Y-64431695D01*
X171819918Y-64618647D01*
X171854517Y-64666269D01*
X171854518Y-64666269D01*
X172467675Y-64053111D01*
X172484755Y-64116853D01*
X172551898Y-64233147D01*
X172646853Y-64328102D01*
X172763147Y-64395245D01*
X172826885Y-64412323D01*
X172213729Y-65025479D01*
X172213729Y-65025481D01*
X172261352Y-65060081D01*
X172295995Y-65077733D01*
X172347610Y-65126481D01*
X172364676Y-65195396D01*
X172341775Y-65262598D01*
X172295996Y-65302266D01*
X172261354Y-65319917D01*
X172261351Y-65319919D01*
X172213729Y-65354517D01*
X172213729Y-65354519D01*
X172826886Y-65967676D01*
X172763147Y-65984755D01*
X172646853Y-66051898D01*
X172551898Y-66146853D01*
X172484755Y-66263147D01*
X172467676Y-66326886D01*
X171854519Y-65713729D01*
X171854517Y-65713729D01*
X171819919Y-65761350D01*
X171724661Y-65948304D01*
X171724658Y-65948310D01*
X171659824Y-66147849D01*
X171627000Y-66355094D01*
X171627000Y-66564905D01*
X171659824Y-66772150D01*
X171724658Y-66971689D01*
X171724661Y-66971695D01*
X171819918Y-67158647D01*
X171854517Y-67206269D01*
X171854518Y-67206269D01*
X172467675Y-66593111D01*
X172484755Y-66656853D01*
X172551898Y-66773147D01*
X172646853Y-66868102D01*
X172763147Y-66935245D01*
X172826885Y-66952323D01*
X172213729Y-67565479D01*
X172213729Y-67565481D01*
X172261355Y-67600083D01*
X172295443Y-67617452D01*
X172347059Y-67666200D01*
X172364125Y-67735115D01*
X172341225Y-67802316D01*
X172295447Y-67841984D01*
X172261093Y-67859489D01*
X172091280Y-67982865D01*
X172091277Y-67982867D01*
X171942867Y-68131277D01*
X171942865Y-68131280D01*
X171819491Y-68301090D01*
X171724198Y-68488112D01*
X171724195Y-68488118D01*
X171659337Y-68687733D01*
X171659336Y-68687736D01*
X171659336Y-68687738D01*
X171626500Y-68895051D01*
X167854444Y-68895051D01*
X167838892Y-68816872D01*
X167825508Y-68749585D01*
X167760793Y-68593348D01*
X167666841Y-68452738D01*
X167547262Y-68333159D01*
X167406652Y-68239207D01*
X167250418Y-68174493D01*
X167250415Y-68174492D01*
X167084558Y-68141500D01*
X167084555Y-68141500D01*
X166915445Y-68141500D01*
X166915441Y-68141500D01*
X166749584Y-68174492D01*
X166749581Y-68174493D01*
X166593347Y-68239207D01*
X166452739Y-68333158D01*
X166452733Y-68333163D01*
X166333163Y-68452733D01*
X166333158Y-68452739D01*
X166239207Y-68593347D01*
X166174493Y-68749581D01*
X166174492Y-68749584D01*
X166141500Y-68915441D01*
X166141500Y-69084558D01*
X166174492Y-69250415D01*
X166174493Y-69250418D01*
X166231909Y-69389033D01*
X166241500Y-69437251D01*
X166241500Y-91133629D01*
X166221498Y-91201750D01*
X166204595Y-91222724D01*
X151722724Y-105704595D01*
X151660412Y-105738621D01*
X151633629Y-105741500D01*
X141937252Y-105741500D01*
X141889034Y-105731909D01*
X141750418Y-105674493D01*
X141750415Y-105674492D01*
X141584558Y-105641500D01*
X141584555Y-105641500D01*
X141415445Y-105641500D01*
X141415441Y-105641500D01*
X141249584Y-105674492D01*
X141249581Y-105674493D01*
X141093347Y-105739207D01*
X140952739Y-105833158D01*
X140952733Y-105833163D01*
X140833163Y-105952733D01*
X140833158Y-105952739D01*
X140739207Y-106093347D01*
X140674493Y-106249581D01*
X140674492Y-106249584D01*
X140641500Y-106415441D01*
X140129544Y-106415441D01*
X140047262Y-106333159D01*
X139906652Y-106239207D01*
X139750418Y-106174493D01*
X139750415Y-106174492D01*
X139584558Y-106141500D01*
X139584555Y-106141500D01*
X139415445Y-106141500D01*
X139415441Y-106141500D01*
X139249584Y-106174492D01*
X139249581Y-106174493D01*
X139093347Y-106239207D01*
X138952739Y-106333158D01*
X138952733Y-106333163D01*
X138833163Y-106452733D01*
X138833158Y-106452739D01*
X138739207Y-106593347D01*
X138710059Y-106663718D01*
X138665511Y-106718999D01*
X138598147Y-106741420D01*
X138593650Y-106741500D01*
X109437252Y-106741500D01*
X109389034Y-106731909D01*
X109250418Y-106674493D01*
X109250415Y-106674492D01*
X109084558Y-106641500D01*
X109084555Y-106641500D01*
X108915445Y-106641500D01*
X108915441Y-106641500D01*
X108749584Y-106674492D01*
X108749581Y-106674493D01*
X108593347Y-106739207D01*
X108452739Y-106833158D01*
X108452733Y-106833163D01*
X108333163Y-106952733D01*
X108333158Y-106952739D01*
X108239207Y-107093347D01*
X108174493Y-107249581D01*
X108174492Y-107249584D01*
X108141500Y-107415441D01*
X80500000Y-107415441D01*
X80500000Y-103915441D01*
X140141500Y-103915441D01*
X140141500Y-104084558D01*
X140152827Y-104141500D01*
X140174492Y-104250415D01*
X140239207Y-104406652D01*
X140333159Y-104547262D01*
X140452738Y-104666841D01*
X140593348Y-104760793D01*
X140749585Y-104825508D01*
X140915445Y-104858500D01*
X141084555Y-104858500D01*
X141250415Y-104825508D01*
X141338090Y-104789191D01*
X141389034Y-104768091D01*
X141437252Y-104758500D01*
X148074701Y-104758500D01*
X148074705Y-104758500D01*
X148074706Y-104758500D01*
X148147976Y-104743925D01*
X148221247Y-104729351D01*
X148359284Y-104672174D01*
X148483515Y-104589166D01*
X152089165Y-100983516D01*
X152150648Y-100891500D01*
X152172174Y-100859284D01*
X152217269Y-100750415D01*
X152229351Y-100721247D01*
X152258500Y-100574705D01*
X152258500Y-100425295D01*
X152258500Y-91500000D01*
X156500000Y-91500000D01*
X163500000Y-91500000D01*
X163500000Y-84000000D01*
X156500000Y-84000000D01*
X156500000Y-91500000D01*
X152258500Y-91500000D01*
X152258500Y-89925294D01*
X152258500Y-75915441D01*
X153141500Y-75915441D01*
X153141500Y-76084558D01*
X153174492Y-76250415D01*
X153174493Y-76250418D01*
X153239207Y-76406652D01*
X153333159Y-76547262D01*
X153452738Y-76666841D01*
X153593348Y-76760793D01*
X153749585Y-76825508D01*
X153915445Y-76858500D01*
X154084555Y-76858500D01*
X154250415Y-76825508D01*
X154406652Y-76760793D01*
X154547262Y-76666841D01*
X154666841Y-76547262D01*
X154760793Y-76406652D01*
X154825508Y-76250415D01*
X154858500Y-76084555D01*
X154858500Y-76054239D01*
X154878502Y-75986118D01*
X154895400Y-75965148D01*
X155486922Y-75373627D01*
X155552067Y-75260792D01*
X155567030Y-75234876D01*
X155567030Y-75234875D01*
X155567032Y-75234872D01*
X155608500Y-75080110D01*
X155608500Y-74919889D01*
X155608500Y-53657793D01*
X155617283Y-53627877D01*
X155623912Y-53597408D01*
X155627726Y-53592312D01*
X155628502Y-53589672D01*
X155645405Y-53568698D01*
X155653058Y-53561045D01*
X155666841Y-53547262D01*
X155760793Y-53406652D01*
X155825508Y-53250415D01*
X155858500Y-53084555D01*
X155858500Y-52915445D01*
X155825508Y-52749585D01*
X155760793Y-52593348D01*
X155666841Y-52452738D01*
X155547262Y-52333159D01*
X155406652Y-52239207D01*
X155401642Y-52237132D01*
X155250418Y-52174493D01*
X155250415Y-52174492D01*
X155084558Y-52141500D01*
X155084555Y-52141500D01*
X154915445Y-52141500D01*
X154915441Y-52141500D01*
X154749584Y-52174492D01*
X154749581Y-52174493D01*
X154593347Y-52239207D01*
X154452739Y-52333158D01*
X154452733Y-52333163D01*
X154333163Y-52452733D01*
X154333158Y-52452739D01*
X154239207Y-52593347D01*
X154174493Y-52749581D01*
X154174492Y-52749584D01*
X154141500Y-52915441D01*
X154141500Y-53084558D01*
X154174492Y-53250415D01*
X154174493Y-53250418D01*
X154186230Y-53278754D01*
X154239207Y-53406652D01*
X154333159Y-53547262D01*
X154333163Y-53547266D01*
X154354595Y-53568698D01*
X154388621Y-53631010D01*
X154391500Y-53657793D01*
X154391500Y-74695761D01*
X154371498Y-74763882D01*
X154354595Y-74784856D01*
X154034856Y-75104595D01*
X153972544Y-75138621D01*
X153945761Y-75141500D01*
X153915441Y-75141500D01*
X153749584Y-75174492D01*
X153749581Y-75174493D01*
X153593347Y-75239207D01*
X153452739Y-75333158D01*
X153452733Y-75333163D01*
X153333163Y-75452733D01*
X153333158Y-75452739D01*
X153239207Y-75593347D01*
X153174493Y-75749581D01*
X153174492Y-75749584D01*
X153141500Y-75915441D01*
X152258500Y-75915441D01*
X152258500Y-49425294D01*
X152229351Y-49278754D01*
X152172174Y-49140716D01*
X152089165Y-49016484D01*
X151983516Y-48910835D01*
X148345524Y-45272843D01*
X148340816Y-45265798D01*
X148336510Y-45262808D01*
X148318210Y-45231965D01*
X148276289Y-45130757D01*
X148276288Y-45130756D01*
X148260795Y-45093352D01*
X148260793Y-45093348D01*
X148257285Y-45088098D01*
X148166841Y-44952738D01*
X148047262Y-44833159D01*
X147906652Y-44739207D01*
X147802838Y-44696206D01*
X147750418Y-44674493D01*
X147750415Y-44674492D01*
X147584558Y-44641500D01*
X147584555Y-44641500D01*
X147415445Y-44641500D01*
X147415441Y-44641500D01*
X147249584Y-44674492D01*
X147249581Y-44674493D01*
X147093347Y-44739207D01*
X146952739Y-44833158D01*
X146952733Y-44833163D01*
X146833163Y-44952733D01*
X146833158Y-44952739D01*
X146739207Y-45093347D01*
X146674493Y-45249581D01*
X146674492Y-45249584D01*
X146641500Y-45415441D01*
X146641500Y-45584558D01*
X146674492Y-45750415D01*
X146674493Y-45750418D01*
X146706153Y-45826853D01*
X146739207Y-45906652D01*
X146833159Y-46047262D01*
X146952738Y-46166841D01*
X147093348Y-46260793D01*
X147231966Y-46318210D01*
X147272843Y-46345524D01*
X150704595Y-49777276D01*
X150738621Y-49839588D01*
X150741500Y-49866371D01*
X150741500Y-95077215D01*
X150721498Y-95145336D01*
X150667842Y-95191829D01*
X150597568Y-95201933D01*
X150545499Y-95181981D01*
X150522833Y-95166836D01*
X150406652Y-95089207D01*
X150305397Y-95047266D01*
X150250418Y-95024493D01*
X150250415Y-95024492D01*
X150084558Y-94991500D01*
X150084555Y-94991500D01*
X149915445Y-94991500D01*
X149915441Y-94991500D01*
X149749584Y-95024492D01*
X149749581Y-95024493D01*
X149593347Y-95089207D01*
X149452739Y-95183158D01*
X149452733Y-95183163D01*
X149333163Y-95302733D01*
X149333158Y-95302739D01*
X149239207Y-95443347D01*
X149174493Y-95599581D01*
X149174492Y-95599584D01*
X149141500Y-95765441D01*
X149141500Y-95934558D01*
X149174492Y-96100415D01*
X149239207Y-96256652D01*
X149333159Y-96397262D01*
X149333163Y-96397266D01*
X149354595Y-96418698D01*
X149388621Y-96481010D01*
X149391500Y-96507793D01*
X149391500Y-97342207D01*
X149371498Y-97410328D01*
X149354595Y-97431302D01*
X149333163Y-97452733D01*
X149333158Y-97452739D01*
X149239207Y-97593347D01*
X149174493Y-97749581D01*
X149174492Y-97749584D01*
X149141500Y-97915441D01*
X149141500Y-98084558D01*
X149163919Y-98197262D01*
X149174492Y-98250415D01*
X149239207Y-98406652D01*
X149333159Y-98547262D01*
X149452738Y-98666841D01*
X149593348Y-98760793D01*
X149749585Y-98825508D01*
X149915445Y-98858500D01*
X150084555Y-98858500D01*
X150250415Y-98825508D01*
X150406652Y-98760793D01*
X150545499Y-98668018D01*
X150613251Y-98646804D01*
X150681718Y-98665587D01*
X150729161Y-98718404D01*
X150741500Y-98772784D01*
X150741500Y-100133629D01*
X150721498Y-100201750D01*
X150704595Y-100222724D01*
X147722724Y-103204595D01*
X147660412Y-103238621D01*
X147633629Y-103241500D01*
X141437252Y-103241500D01*
X141389034Y-103231909D01*
X141250418Y-103174493D01*
X141250415Y-103174492D01*
X141084558Y-103141500D01*
X141084555Y-103141500D01*
X140915445Y-103141500D01*
X140915441Y-103141500D01*
X140749584Y-103174492D01*
X140749581Y-103174493D01*
X140593347Y-103239207D01*
X140452739Y-103333158D01*
X140452733Y-103333163D01*
X140333163Y-103452733D01*
X140333158Y-103452739D01*
X140239207Y-103593347D01*
X140174493Y-103749581D01*
X140174492Y-103749584D01*
X140141500Y-103915441D01*
X80500000Y-103915441D01*
X80500000Y-99415441D01*
X96141500Y-99415441D01*
X96141500Y-99584558D01*
X96148125Y-99617861D01*
X96174492Y-99750415D01*
X96239207Y-99906652D01*
X96239208Y-99906654D01*
X96239209Y-99906655D01*
X96254807Y-99930001D01*
X96276020Y-99997754D01*
X96257235Y-100066221D01*
X96254807Y-100069999D01*
X96239209Y-100093344D01*
X96174493Y-100249581D01*
X96174492Y-100249584D01*
X96141500Y-100415441D01*
X96141500Y-100584558D01*
X96152827Y-100641500D01*
X96174492Y-100750415D01*
X96239207Y-100906652D01*
X96239208Y-100906654D01*
X96239209Y-100906655D01*
X96254807Y-100930001D01*
X96276020Y-100997754D01*
X96257235Y-101066221D01*
X96254807Y-101069999D01*
X96239209Y-101093344D01*
X96174493Y-101249581D01*
X96174492Y-101249584D01*
X96141500Y-101415441D01*
X96141500Y-101584558D01*
X96174492Y-101750415D01*
X96239207Y-101906652D01*
X96333159Y-102047262D01*
X96452738Y-102166841D01*
X96593348Y-102260793D01*
X96749585Y-102325508D01*
X96915445Y-102358500D01*
X97084555Y-102358500D01*
X97250415Y-102325508D01*
X97406652Y-102260793D01*
X97547262Y-102166841D01*
X97568698Y-102145405D01*
X97631010Y-102111379D01*
X97657793Y-102108500D01*
X103842207Y-102108500D01*
X103910328Y-102128502D01*
X103931302Y-102145405D01*
X103952738Y-102166841D01*
X104093348Y-102260793D01*
X104249585Y-102325508D01*
X104415445Y-102358500D01*
X104584555Y-102358500D01*
X104750415Y-102325508D01*
X104906652Y-102260793D01*
X105047262Y-102166841D01*
X105166841Y-102047262D01*
X105260793Y-101906652D01*
X105325508Y-101750415D01*
X105358500Y-101584555D01*
X105358500Y-101415445D01*
X105325508Y-101249585D01*
X105260793Y-101093348D01*
X105166841Y-100952738D01*
X105047262Y-100833159D01*
X104906652Y-100739207D01*
X104750418Y-100674493D01*
X104750415Y-100674492D01*
X104584558Y-100641500D01*
X104584555Y-100641500D01*
X104415445Y-100641500D01*
X104415436Y-100641500D01*
X104361304Y-100652268D01*
X104290590Y-100645940D01*
X104234524Y-100602385D01*
X104210905Y-100535432D01*
X104210724Y-100528689D01*
X104210724Y-100415444D01*
X104210723Y-100415441D01*
X104208975Y-100406652D01*
X104177732Y-100249585D01*
X104113017Y-100093348D01*
X104019065Y-99952738D01*
X103899486Y-99833159D01*
X103758876Y-99739207D01*
X103690051Y-99710699D01*
X103602642Y-99674493D01*
X103602639Y-99674492D01*
X103436782Y-99641500D01*
X103436779Y-99641500D01*
X103267669Y-99641500D01*
X103267665Y-99641500D01*
X103101808Y-99674492D01*
X103101805Y-99674493D01*
X103032718Y-99703110D01*
X102962128Y-99710699D01*
X102898641Y-99678919D01*
X102862414Y-99617861D01*
X102858500Y-99586701D01*
X102858500Y-99415444D01*
X102858499Y-99415441D01*
X102825508Y-99249585D01*
X102760793Y-99093348D01*
X102666841Y-98952738D01*
X102547262Y-98833159D01*
X102406652Y-98739207D01*
X102356429Y-98718404D01*
X102250418Y-98674493D01*
X102250415Y-98674492D01*
X102084558Y-98641500D01*
X102084555Y-98641500D01*
X101915445Y-98641500D01*
X101915441Y-98641500D01*
X101749584Y-98674492D01*
X101749581Y-98674493D01*
X101593347Y-98739207D01*
X101452739Y-98833158D01*
X101452733Y-98833163D01*
X101431302Y-98854595D01*
X101368990Y-98888621D01*
X101342207Y-98891500D01*
X97657793Y-98891500D01*
X97589672Y-98871498D01*
X97568698Y-98854595D01*
X97547266Y-98833163D01*
X97547262Y-98833159D01*
X97406652Y-98739207D01*
X97356429Y-98718404D01*
X97250418Y-98674493D01*
X97250415Y-98674492D01*
X97084558Y-98641500D01*
X97084555Y-98641500D01*
X96915445Y-98641500D01*
X96915441Y-98641500D01*
X96749584Y-98674492D01*
X96749581Y-98674493D01*
X96593347Y-98739207D01*
X96452739Y-98833158D01*
X96452733Y-98833163D01*
X96333163Y-98952733D01*
X96333158Y-98952739D01*
X96239207Y-99093347D01*
X96174493Y-99249581D01*
X96174492Y-99249584D01*
X96141500Y-99415441D01*
X80500000Y-99415441D01*
X80500000Y-91500000D01*
X90000000Y-91500000D01*
X97000000Y-91500000D01*
X97000000Y-88915441D01*
X107141500Y-88915441D01*
X107141500Y-89084558D01*
X107152827Y-89141500D01*
X107174492Y-89250415D01*
X107239207Y-89406652D01*
X107333159Y-89547262D01*
X107452738Y-89666841D01*
X107593348Y-89760793D01*
X107749585Y-89825508D01*
X107915445Y-89858500D01*
X108084555Y-89858500D01*
X108250415Y-89825508D01*
X108338090Y-89789191D01*
X108389034Y-89768091D01*
X108437252Y-89758500D01*
X111133629Y-89758500D01*
X111201750Y-89778502D01*
X111222724Y-89795405D01*
X121654476Y-100227157D01*
X121681789Y-100268033D01*
X121739207Y-100406652D01*
X121833159Y-100547262D01*
X121952738Y-100666841D01*
X122093348Y-100760793D01*
X122249585Y-100825508D01*
X122415445Y-100858500D01*
X122584555Y-100858500D01*
X122750415Y-100825508D01*
X122906652Y-100760793D01*
X123047262Y-100666841D01*
X123166841Y-100547262D01*
X123260793Y-100406652D01*
X123325508Y-100250415D01*
X123358500Y-100084555D01*
X123358500Y-99915445D01*
X123325508Y-99749585D01*
X123260793Y-99593348D01*
X123166841Y-99452738D01*
X123047262Y-99333159D01*
X122906652Y-99239207D01*
X122768033Y-99181789D01*
X122727157Y-99154476D01*
X111983519Y-88410838D01*
X111983515Y-88410834D01*
X111859284Y-88327826D01*
X111721247Y-88270649D01*
X111619524Y-88250415D01*
X111574706Y-88241500D01*
X108437252Y-88241500D01*
X108389034Y-88231909D01*
X108250418Y-88174493D01*
X108250415Y-88174492D01*
X108084558Y-88141500D01*
X108084555Y-88141500D01*
X107915445Y-88141500D01*
X107915441Y-88141500D01*
X107749584Y-88174492D01*
X107749581Y-88174493D01*
X107593347Y-88239207D01*
X107452739Y-88333158D01*
X107452733Y-88333163D01*
X107333163Y-88452733D01*
X107333158Y-88452739D01*
X107239207Y-88593347D01*
X107174493Y-88749581D01*
X107174492Y-88749584D01*
X107141500Y-88915441D01*
X97000000Y-88915441D01*
X97000000Y-84500000D01*
X90000000Y-84500000D01*
X90000000Y-91500000D01*
X80500000Y-91500000D01*
X80500000Y-81900996D01*
X101742000Y-81900996D01*
X101742000Y-82099003D01*
X101772977Y-82294585D01*
X101834166Y-82482905D01*
X101924058Y-82659330D01*
X101948212Y-82692575D01*
X102556666Y-82084121D01*
X102580667Y-82173694D01*
X102639910Y-82276306D01*
X102723694Y-82360090D01*
X102826306Y-82419333D01*
X102915875Y-82443333D01*
X102307423Y-83051785D01*
X102307423Y-83051787D01*
X102340660Y-83075935D01*
X102517097Y-83165834D01*
X102705414Y-83227022D01*
X102900996Y-83258000D01*
X103099004Y-83258000D01*
X103294585Y-83227022D01*
X103482902Y-83165834D01*
X103659337Y-83075936D01*
X103659339Y-83075935D01*
X103692575Y-83051787D01*
X103692576Y-83051786D01*
X103084123Y-82443333D01*
X103173694Y-82419333D01*
X103276306Y-82360090D01*
X103360090Y-82276306D01*
X103419333Y-82173694D01*
X103443333Y-82084122D01*
X104051786Y-82692575D01*
X104106527Y-82688268D01*
X104176007Y-82702864D01*
X104226566Y-82752707D01*
X104241690Y-82800411D01*
X104248010Y-82859197D01*
X104248011Y-82859204D01*
X104299110Y-82996202D01*
X104299112Y-82996207D01*
X104386738Y-83113261D01*
X104503792Y-83200887D01*
X104503794Y-83200888D01*
X104503796Y-83200889D01*
X104562875Y-83222924D01*
X104640795Y-83251988D01*
X104640803Y-83251990D01*
X104701350Y-83258499D01*
X104701355Y-83258499D01*
X104701362Y-83258500D01*
X104701368Y-83258500D01*
X106298632Y-83258500D01*
X106298638Y-83258500D01*
X106298645Y-83258499D01*
X106298649Y-83258499D01*
X106359196Y-83251990D01*
X106359199Y-83251989D01*
X106359201Y-83251989D01*
X106496204Y-83200889D01*
X106613261Y-83113261D01*
X106659281Y-83051786D01*
X106700887Y-82996207D01*
X106700887Y-82996206D01*
X106700889Y-82996204D01*
X106751989Y-82859201D01*
X106751989Y-82859199D01*
X106751990Y-82859196D01*
X106758499Y-82798649D01*
X106758500Y-82798632D01*
X106758500Y-81201367D01*
X106758499Y-81201350D01*
X106751990Y-81140803D01*
X106751988Y-81140795D01*
X106700889Y-81003797D01*
X106700887Y-81003792D01*
X106613261Y-80886738D01*
X106496207Y-80799112D01*
X106496202Y-80799110D01*
X106359204Y-80748011D01*
X106359196Y-80748009D01*
X106298649Y-80741500D01*
X106298638Y-80741500D01*
X104701362Y-80741500D01*
X104701350Y-80741500D01*
X104640803Y-80748009D01*
X104640795Y-80748011D01*
X104503797Y-80799110D01*
X104503792Y-80799112D01*
X104386738Y-80886738D01*
X104299112Y-81003792D01*
X104299110Y-81003797D01*
X104248011Y-81140795D01*
X104248010Y-81140802D01*
X104241690Y-81199588D01*
X104214521Y-81265180D01*
X104156203Y-81305671D01*
X104106527Y-81311731D01*
X104051785Y-81307423D01*
X103443333Y-81915875D01*
X103419333Y-81826306D01*
X103360090Y-81723694D01*
X103276306Y-81639910D01*
X103173694Y-81580667D01*
X103084122Y-81556666D01*
X103692575Y-80948212D01*
X103659330Y-80924058D01*
X103482905Y-80834166D01*
X103294585Y-80772977D01*
X103099004Y-80742000D01*
X102900996Y-80742000D01*
X102705414Y-80772977D01*
X102517094Y-80834166D01*
X102340671Y-80924057D01*
X102340667Y-80924060D01*
X102307422Y-80948212D01*
X102915876Y-81556666D01*
X102826306Y-81580667D01*
X102723694Y-81639910D01*
X102639910Y-81723694D01*
X102580667Y-81826306D01*
X102556666Y-81915876D01*
X101948212Y-81307422D01*
X101924060Y-81340667D01*
X101924057Y-81340671D01*
X101834166Y-81517094D01*
X101772977Y-81705414D01*
X101742000Y-81900996D01*
X80500000Y-81900996D01*
X80500000Y-63765441D01*
X99141500Y-63765441D01*
X99141500Y-63934558D01*
X99159472Y-64024905D01*
X99174492Y-64100415D01*
X99239207Y-64256652D01*
X99333159Y-64397262D01*
X99333163Y-64397266D01*
X99354595Y-64418698D01*
X99388621Y-64481010D01*
X99391500Y-64507793D01*
X99391500Y-69842207D01*
X99371498Y-69910328D01*
X99354595Y-69931302D01*
X99333163Y-69952733D01*
X99333158Y-69952739D01*
X99239207Y-70093347D01*
X99174493Y-70249581D01*
X99174492Y-70249584D01*
X99141500Y-70415441D01*
X99141500Y-70584558D01*
X99174492Y-70750415D01*
X99174493Y-70750418D01*
X99204253Y-70822265D01*
X99239207Y-70906652D01*
X99333159Y-71047262D01*
X99452738Y-71166841D01*
X99593348Y-71260793D01*
X99749585Y-71325508D01*
X99915445Y-71358500D01*
X100084555Y-71358500D01*
X100250415Y-71325508D01*
X100406652Y-71260793D01*
X100547262Y-71166841D01*
X100666841Y-71047262D01*
X100760793Y-70906652D01*
X100825508Y-70750415D01*
X100858500Y-70584555D01*
X100858500Y-70415445D01*
X100825508Y-70249585D01*
X100760793Y-70093348D01*
X100666841Y-69952738D01*
X100645405Y-69931302D01*
X100611379Y-69868990D01*
X100608500Y-69842207D01*
X100608500Y-64507793D01*
X100628502Y-64439672D01*
X100645405Y-64418698D01*
X100666841Y-64397262D01*
X100760793Y-64256652D01*
X100825508Y-64100415D01*
X100858500Y-63934555D01*
X100858500Y-63765445D01*
X100825508Y-63599585D01*
X100760793Y-63443348D01*
X100666841Y-63302738D01*
X100547262Y-63183159D01*
X100406652Y-63089207D01*
X100365335Y-63072093D01*
X100250418Y-63024493D01*
X100250415Y-63024492D01*
X100084558Y-62991500D01*
X100084555Y-62991500D01*
X99915445Y-62991500D01*
X99915441Y-62991500D01*
X99749584Y-63024492D01*
X99749581Y-63024493D01*
X99593347Y-63089207D01*
X99452739Y-63183158D01*
X99452733Y-63183163D01*
X99333163Y-63302733D01*
X99333158Y-63302739D01*
X99239207Y-63443347D01*
X99174493Y-63599581D01*
X99174492Y-63599584D01*
X99141500Y-63765441D01*
X80500000Y-63765441D01*
X80500000Y-53415441D01*
X104141500Y-53415441D01*
X104141500Y-53584558D01*
X104174492Y-53750415D01*
X104174493Y-53750418D01*
X104221915Y-53864905D01*
X104239207Y-53906652D01*
X104333159Y-54047262D01*
X104333163Y-54047266D01*
X104354595Y-54068698D01*
X104388621Y-54131010D01*
X104391500Y-54157793D01*
X104391500Y-69842207D01*
X104371498Y-69910328D01*
X104354595Y-69931302D01*
X104333163Y-69952733D01*
X104333158Y-69952739D01*
X104239207Y-70093347D01*
X104174493Y-70249581D01*
X104174492Y-70249584D01*
X104141500Y-70415441D01*
X104141500Y-70584558D01*
X104174492Y-70750415D01*
X104174493Y-70750418D01*
X104204253Y-70822265D01*
X104239207Y-70906652D01*
X104333159Y-71047262D01*
X104452738Y-71166841D01*
X104593348Y-71260793D01*
X104749585Y-71325508D01*
X104915445Y-71358500D01*
X105084555Y-71358500D01*
X105250415Y-71325508D01*
X105265055Y-71319443D01*
X105335644Y-71311852D01*
X105399132Y-71343629D01*
X105435361Y-71404686D01*
X105432829Y-71475638D01*
X105402371Y-71524946D01*
X104772841Y-72154476D01*
X104731964Y-72181790D01*
X104593348Y-72239207D01*
X104452739Y-72333158D01*
X104452733Y-72333163D01*
X104333163Y-72452733D01*
X104333158Y-72452739D01*
X104239207Y-72593347D01*
X104174493Y-72749581D01*
X104174492Y-72749584D01*
X104141500Y-72915441D01*
X104141500Y-73084558D01*
X104174492Y-73250415D01*
X104174493Y-73250418D01*
X104227838Y-73379204D01*
X104239207Y-73406652D01*
X104333159Y-73547262D01*
X104452738Y-73666841D01*
X104593348Y-73760793D01*
X104749585Y-73825508D01*
X104915445Y-73858500D01*
X105084555Y-73858500D01*
X105250415Y-73825508D01*
X105406652Y-73760793D01*
X105547262Y-73666841D01*
X105666841Y-73547262D01*
X105760793Y-73406652D01*
X105818211Y-73268031D01*
X105845521Y-73227158D01*
X109526407Y-69546273D01*
X109588717Y-69512249D01*
X109659533Y-69517314D01*
X109716368Y-69559861D01*
X109741179Y-69626381D01*
X109741500Y-69635370D01*
X109741500Y-84925295D01*
X109741500Y-85074705D01*
X109770649Y-85221247D01*
X109827826Y-85359284D01*
X109910834Y-85483515D01*
X119516485Y-95089166D01*
X119640716Y-95172174D01*
X119778753Y-95229351D01*
X119839830Y-95241500D01*
X119925294Y-95258500D01*
X119925295Y-95258500D01*
X120074705Y-95258500D01*
X139562748Y-95258500D01*
X139610966Y-95268091D01*
X139688849Y-95300350D01*
X139749585Y-95325508D01*
X139915445Y-95358500D01*
X140084555Y-95358500D01*
X140250415Y-95325508D01*
X140406652Y-95260793D01*
X140547262Y-95166841D01*
X140666841Y-95047262D01*
X140760793Y-94906652D01*
X140825508Y-94750415D01*
X140858500Y-94584555D01*
X140858500Y-94415445D01*
X140825508Y-94249585D01*
X140760793Y-94093348D01*
X140666841Y-93952738D01*
X140629544Y-93915441D01*
X146141500Y-93915441D01*
X146141500Y-94084558D01*
X146174492Y-94250415D01*
X146174494Y-94250423D01*
X146181908Y-94268320D01*
X146191500Y-94316539D01*
X146191500Y-97333460D01*
X146181909Y-97381677D01*
X146174495Y-97399575D01*
X146174492Y-97399584D01*
X146141500Y-97565441D01*
X146141500Y-97734558D01*
X146174492Y-97900415D01*
X146174493Y-97900418D01*
X146239207Y-98056652D01*
X146333159Y-98197262D01*
X146452738Y-98316841D01*
X146593348Y-98410793D01*
X146749585Y-98475508D01*
X146915445Y-98508500D01*
X147084555Y-98508500D01*
X147250415Y-98475508D01*
X147406652Y-98410793D01*
X147547262Y-98316841D01*
X147666841Y-98197262D01*
X147760793Y-98056652D01*
X147825508Y-97900415D01*
X147858500Y-97734555D01*
X147858500Y-97565445D01*
X147825508Y-97399585D01*
X147823359Y-97394397D01*
X147818091Y-97381677D01*
X147808500Y-97333460D01*
X147808500Y-94316539D01*
X147818092Y-94268320D01*
X147825505Y-94250423D01*
X147825505Y-94250421D01*
X147825508Y-94250415D01*
X147858500Y-94084555D01*
X147858500Y-93915445D01*
X147825508Y-93749585D01*
X147760793Y-93593348D01*
X147666841Y-93452738D01*
X147547262Y-93333159D01*
X147406652Y-93239207D01*
X147250418Y-93174493D01*
X147250415Y-93174492D01*
X147084558Y-93141500D01*
X147084555Y-93141500D01*
X146915445Y-93141500D01*
X146915441Y-93141500D01*
X146749584Y-93174492D01*
X146749581Y-93174493D01*
X146593347Y-93239207D01*
X146452739Y-93333158D01*
X146452733Y-93333163D01*
X146333163Y-93452733D01*
X146333158Y-93452739D01*
X146239207Y-93593347D01*
X146174493Y-93749581D01*
X146174492Y-93749584D01*
X146141500Y-93915441D01*
X140629544Y-93915441D01*
X140547262Y-93833159D01*
X140406652Y-93739207D01*
X140389033Y-93731909D01*
X140250418Y-93674493D01*
X140250415Y-93674492D01*
X140084558Y-93641500D01*
X140084555Y-93641500D01*
X139915445Y-93641500D01*
X139915441Y-93641500D01*
X139749584Y-93674492D01*
X139749581Y-93674493D01*
X139610966Y-93731909D01*
X139562748Y-93741500D01*
X120366371Y-93741500D01*
X120298250Y-93721498D01*
X120277276Y-93704595D01*
X118488122Y-91915441D01*
X123141500Y-91915441D01*
X123141500Y-92084558D01*
X123174492Y-92250415D01*
X123239207Y-92406652D01*
X123333159Y-92547262D01*
X123452738Y-92666841D01*
X123593348Y-92760793D01*
X123749585Y-92825508D01*
X123915445Y-92858500D01*
X124084555Y-92858500D01*
X124250415Y-92825508D01*
X124406652Y-92760793D01*
X124547262Y-92666841D01*
X124568698Y-92645405D01*
X124631010Y-92611379D01*
X124657793Y-92608500D01*
X126842207Y-92608500D01*
X126910328Y-92628502D01*
X126931302Y-92645405D01*
X126952738Y-92666841D01*
X127093348Y-92760793D01*
X127249585Y-92825508D01*
X127415445Y-92858500D01*
X127584555Y-92858500D01*
X127750415Y-92825508D01*
X127906652Y-92760793D01*
X128047262Y-92666841D01*
X128166841Y-92547262D01*
X128260793Y-92406652D01*
X128325508Y-92250415D01*
X128358500Y-92084555D01*
X128358500Y-91915445D01*
X128325508Y-91749585D01*
X128260793Y-91593348D01*
X128166841Y-91452738D01*
X128047262Y-91333159D01*
X127906652Y-91239207D01*
X127777761Y-91185819D01*
X127750418Y-91174493D01*
X127750415Y-91174492D01*
X127584558Y-91141500D01*
X127584555Y-91141500D01*
X127415445Y-91141500D01*
X127415441Y-91141500D01*
X127249584Y-91174492D01*
X127249581Y-91174493D01*
X127093347Y-91239207D01*
X126952739Y-91333158D01*
X126952733Y-91333163D01*
X126931302Y-91354595D01*
X126868990Y-91388621D01*
X126842207Y-91391500D01*
X124657793Y-91391500D01*
X124589672Y-91371498D01*
X124568698Y-91354595D01*
X124547266Y-91333163D01*
X124547262Y-91333159D01*
X124406652Y-91239207D01*
X124277761Y-91185819D01*
X124250418Y-91174493D01*
X124250415Y-91174492D01*
X124084558Y-91141500D01*
X124084555Y-91141500D01*
X123915445Y-91141500D01*
X123915441Y-91141500D01*
X123749584Y-91174492D01*
X123749581Y-91174493D01*
X123593347Y-91239207D01*
X123452739Y-91333158D01*
X123452733Y-91333163D01*
X123333163Y-91452733D01*
X123333158Y-91452739D01*
X123239207Y-91593347D01*
X123174493Y-91749581D01*
X123174492Y-91749584D01*
X123141500Y-91915441D01*
X118488122Y-91915441D01*
X116488122Y-89915441D01*
X121891500Y-89915441D01*
X121891500Y-90084558D01*
X121924492Y-90250415D01*
X121989207Y-90406652D01*
X122083159Y-90547262D01*
X122202738Y-90666841D01*
X122343348Y-90760793D01*
X122499585Y-90825508D01*
X122665445Y-90858500D01*
X122834555Y-90858500D01*
X123000415Y-90825508D01*
X123088090Y-90789191D01*
X123139034Y-90768091D01*
X123187252Y-90758500D01*
X131062748Y-90758500D01*
X131110966Y-90768091D01*
X131188849Y-90800350D01*
X131249585Y-90825508D01*
X131415445Y-90858500D01*
X131584555Y-90858500D01*
X131750415Y-90825508D01*
X131906652Y-90760793D01*
X132047262Y-90666841D01*
X132166841Y-90547262D01*
X132260793Y-90406652D01*
X132325508Y-90250415D01*
X132358500Y-90084555D01*
X132358500Y-89915445D01*
X132325508Y-89749585D01*
X132260793Y-89593348D01*
X132166841Y-89452738D01*
X132047262Y-89333159D01*
X131906652Y-89239207D01*
X131889033Y-89231909D01*
X131750418Y-89174493D01*
X131750415Y-89174492D01*
X131584558Y-89141500D01*
X131584555Y-89141500D01*
X131415445Y-89141500D01*
X131415441Y-89141500D01*
X131249584Y-89174492D01*
X131249581Y-89174493D01*
X131110966Y-89231909D01*
X131062748Y-89241500D01*
X123187252Y-89241500D01*
X123139034Y-89231909D01*
X123000418Y-89174493D01*
X123000415Y-89174492D01*
X122834558Y-89141500D01*
X122834555Y-89141500D01*
X122665445Y-89141500D01*
X122665441Y-89141500D01*
X122499584Y-89174492D01*
X122499581Y-89174493D01*
X122343347Y-89239207D01*
X122202739Y-89333158D01*
X122202733Y-89333163D01*
X122083163Y-89452733D01*
X122083158Y-89452739D01*
X121989207Y-89593347D01*
X121924493Y-89749581D01*
X121924492Y-89749584D01*
X121891500Y-89915441D01*
X116488122Y-89915441D01*
X114488122Y-87915441D01*
X126641500Y-87915441D01*
X126641500Y-88084558D01*
X126652827Y-88141500D01*
X126674492Y-88250415D01*
X126739207Y-88406652D01*
X126833159Y-88547262D01*
X126952738Y-88666841D01*
X127093348Y-88760793D01*
X127249585Y-88825508D01*
X127415445Y-88858500D01*
X127584555Y-88858500D01*
X127750415Y-88825508D01*
X127906652Y-88760793D01*
X128027965Y-88679734D01*
X128095717Y-88658520D01*
X128097966Y-88658500D01*
X148402034Y-88658500D01*
X148470155Y-88678502D01*
X148472002Y-88679712D01*
X148593348Y-88760793D01*
X148749585Y-88825508D01*
X148915445Y-88858500D01*
X149084555Y-88858500D01*
X149250415Y-88825508D01*
X149406652Y-88760793D01*
X149547262Y-88666841D01*
X149666841Y-88547262D01*
X149760793Y-88406652D01*
X149825508Y-88250415D01*
X149858500Y-88084555D01*
X149858500Y-87915445D01*
X149825508Y-87749585D01*
X149760793Y-87593348D01*
X149666841Y-87452738D01*
X149547262Y-87333159D01*
X149406652Y-87239207D01*
X149250418Y-87174493D01*
X149250415Y-87174492D01*
X149084558Y-87141500D01*
X149084555Y-87141500D01*
X148915445Y-87141500D01*
X148915441Y-87141500D01*
X148749584Y-87174492D01*
X148749581Y-87174493D01*
X148593347Y-87239207D01*
X148519485Y-87288559D01*
X148472034Y-87320265D01*
X148404283Y-87341480D01*
X148402034Y-87341500D01*
X128097966Y-87341500D01*
X128029845Y-87321498D01*
X128027997Y-87320287D01*
X127906652Y-87239207D01*
X127750418Y-87174493D01*
X127750415Y-87174492D01*
X127584558Y-87141500D01*
X127584555Y-87141500D01*
X127415445Y-87141500D01*
X127415441Y-87141500D01*
X127249584Y-87174492D01*
X127249581Y-87174493D01*
X127093347Y-87239207D01*
X126952739Y-87333158D01*
X126952733Y-87333163D01*
X126833163Y-87452733D01*
X126833158Y-87452739D01*
X126739207Y-87593347D01*
X126674493Y-87749581D01*
X126674492Y-87749584D01*
X126641500Y-87915441D01*
X114488122Y-87915441D01*
X111295405Y-84722724D01*
X111261379Y-84660412D01*
X111258500Y-84633629D01*
X111258500Y-77408824D01*
X117841500Y-77408824D01*
X117841500Y-77591176D01*
X117861180Y-77715432D01*
X117870027Y-77771288D01*
X117926374Y-77944706D01*
X117926375Y-77944709D01*
X117926376Y-77944710D01*
X118009162Y-78107186D01*
X118116346Y-78254712D01*
X118116348Y-78254714D01*
X118116350Y-78254717D01*
X118245282Y-78383649D01*
X118245285Y-78383651D01*
X118245288Y-78383654D01*
X118392814Y-78490838D01*
X118555290Y-78573624D01*
X118728717Y-78629974D01*
X118908824Y-78658500D01*
X118908827Y-78658500D01*
X119091173Y-78658500D01*
X119091176Y-78658500D01*
X119271283Y-78629974D01*
X119444710Y-78573624D01*
X119607186Y-78490838D01*
X119754712Y-78383654D01*
X119883654Y-78254712D01*
X119990838Y-78107186D01*
X120073624Y-77944710D01*
X120129974Y-77771283D01*
X120158500Y-77591176D01*
X120158500Y-77408824D01*
X120129974Y-77228717D01*
X120073624Y-77055290D01*
X119990838Y-76892814D01*
X119883654Y-76745288D01*
X119883651Y-76745285D01*
X119883649Y-76745282D01*
X119754717Y-76616350D01*
X119754714Y-76616348D01*
X119754712Y-76616346D01*
X119607186Y-76509162D01*
X119444710Y-76426376D01*
X119444709Y-76426375D01*
X119444706Y-76426374D01*
X119271288Y-76370027D01*
X119271284Y-76370026D01*
X119271283Y-76370026D01*
X119091176Y-76341500D01*
X118908824Y-76341500D01*
X118728717Y-76370026D01*
X118728711Y-76370027D01*
X118555293Y-76426374D01*
X118392810Y-76509164D01*
X118245285Y-76616348D01*
X118245282Y-76616350D01*
X118116350Y-76745282D01*
X118116348Y-76745285D01*
X118009164Y-76892810D01*
X117926374Y-77055293D01*
X117870027Y-77228711D01*
X117870026Y-77228716D01*
X117870026Y-77228717D01*
X117841500Y-77408824D01*
X111258500Y-77408824D01*
X111258500Y-71921350D01*
X117841500Y-71921350D01*
X117841500Y-73318649D01*
X117848009Y-73379196D01*
X117848011Y-73379204D01*
X117899110Y-73516202D01*
X117899112Y-73516207D01*
X117986738Y-73633261D01*
X118103792Y-73720887D01*
X118103794Y-73720888D01*
X118103796Y-73720889D01*
X118152908Y-73739207D01*
X118240795Y-73771988D01*
X118240803Y-73771990D01*
X118301350Y-73778499D01*
X118301355Y-73778499D01*
X118301362Y-73778500D01*
X118301368Y-73778500D01*
X119698632Y-73778500D01*
X119698638Y-73778500D01*
X119698645Y-73778499D01*
X119698649Y-73778499D01*
X119759196Y-73771990D01*
X119759199Y-73771989D01*
X119759201Y-73771989D01*
X119896204Y-73720889D01*
X119968404Y-73666841D01*
X120013261Y-73633261D01*
X120100887Y-73516207D01*
X120100887Y-73516206D01*
X120100889Y-73516204D01*
X120144960Y-73398045D01*
X120151988Y-73379204D01*
X120151990Y-73379196D01*
X120158499Y-73318649D01*
X120158500Y-73318632D01*
X120158500Y-71921367D01*
X120158499Y-71921350D01*
X120151990Y-71860803D01*
X120151988Y-71860795D01*
X120100889Y-71723797D01*
X120100887Y-71723792D01*
X120013261Y-71606738D01*
X119896207Y-71519112D01*
X119896202Y-71519110D01*
X119759204Y-71468011D01*
X119759196Y-71468009D01*
X119698649Y-71461500D01*
X119698638Y-71461500D01*
X118301362Y-71461500D01*
X118301350Y-71461500D01*
X118240803Y-71468009D01*
X118240795Y-71468011D01*
X118103797Y-71519110D01*
X118103792Y-71519112D01*
X117986738Y-71606738D01*
X117899112Y-71723792D01*
X117899110Y-71723797D01*
X117848011Y-71860795D01*
X117848009Y-71860803D01*
X117841500Y-71921350D01*
X111258500Y-71921350D01*
X111258500Y-63765441D01*
X115277898Y-63765441D01*
X115277898Y-63934558D01*
X115295870Y-64024905D01*
X115310890Y-64100415D01*
X115375605Y-64256652D01*
X115469557Y-64397262D01*
X115589136Y-64516841D01*
X115729746Y-64610793D01*
X115885983Y-64675508D01*
X115996804Y-64697552D01*
X116051841Y-64708500D01*
X116055143Y-64708825D01*
X116056763Y-64709479D01*
X116057914Y-64709708D01*
X116057870Y-64709926D01*
X116120977Y-64735403D01*
X116161301Y-64791395D01*
X116164530Y-64800330D01*
X116174492Y-64850412D01*
X116238291Y-65004439D01*
X116239280Y-65007174D01*
X116241280Y-65039824D01*
X116244779Y-65072370D01*
X116243533Y-65076611D01*
X116243621Y-65078038D01*
X116242555Y-65079943D01*
X116237190Y-65098215D01*
X116174494Y-65249577D01*
X116174492Y-65249584D01*
X116141500Y-65415441D01*
X116141500Y-65584558D01*
X116174492Y-65750415D01*
X116239207Y-65906652D01*
X116333159Y-66047262D01*
X116452738Y-66166841D01*
X116593348Y-66260793D01*
X116749585Y-66325508D01*
X116915445Y-66358500D01*
X117084555Y-66358500D01*
X117250415Y-66325508D01*
X117324340Y-66294886D01*
X117394928Y-66287298D01*
X117458415Y-66319077D01*
X117461652Y-66322201D01*
X131815856Y-80676405D01*
X131849882Y-80738717D01*
X131844817Y-80809532D01*
X131802270Y-80866368D01*
X131735750Y-80891179D01*
X131726761Y-80891500D01*
X127804239Y-80891500D01*
X127736118Y-80871498D01*
X127715144Y-80854595D01*
X127395405Y-80534856D01*
X127361379Y-80472544D01*
X127358500Y-80445761D01*
X127358500Y-80415444D01*
X127358499Y-80415441D01*
X127325508Y-80249585D01*
X127260793Y-80093348D01*
X127166841Y-79952738D01*
X127047262Y-79833159D01*
X126906652Y-79739207D01*
X126750418Y-79674493D01*
X126750415Y-79674492D01*
X126584558Y-79641500D01*
X126584555Y-79641500D01*
X126415445Y-79641500D01*
X126415441Y-79641500D01*
X126249584Y-79674492D01*
X126249581Y-79674493D01*
X126093347Y-79739207D01*
X125952739Y-79833158D01*
X125952733Y-79833163D01*
X125833163Y-79952733D01*
X125833158Y-79952739D01*
X125739207Y-80093347D01*
X125674493Y-80249581D01*
X125674492Y-80249584D01*
X125641500Y-80415441D01*
X125641500Y-80584558D01*
X125674492Y-80750415D01*
X125674493Y-80750418D01*
X125717644Y-80854595D01*
X125739207Y-80906652D01*
X125833159Y-81047262D01*
X125952738Y-81166841D01*
X126093348Y-81260793D01*
X126249585Y-81325508D01*
X126415445Y-81358500D01*
X126445761Y-81358500D01*
X126513882Y-81378502D01*
X126534851Y-81395400D01*
X127126373Y-81986922D01*
X127230885Y-82047262D01*
X127265128Y-82067032D01*
X127419889Y-82108500D01*
X127419890Y-82108500D01*
X127580111Y-82108500D01*
X143842207Y-82108500D01*
X143910328Y-82128502D01*
X143931302Y-82145405D01*
X143952738Y-82166841D01*
X144093348Y-82260793D01*
X144249585Y-82325508D01*
X144415445Y-82358500D01*
X144584555Y-82358500D01*
X144750415Y-82325508D01*
X144906652Y-82260793D01*
X145047262Y-82166841D01*
X145166841Y-82047262D01*
X145260793Y-81906652D01*
X145325508Y-81750415D01*
X145358500Y-81584555D01*
X145358500Y-81415445D01*
X145325508Y-81249585D01*
X145260793Y-81093348D01*
X145166841Y-80952738D01*
X145047262Y-80833159D01*
X144906652Y-80739207D01*
X144905469Y-80738717D01*
X144750418Y-80674493D01*
X144750415Y-80674492D01*
X144584558Y-80641500D01*
X144584555Y-80641500D01*
X144415445Y-80641500D01*
X144415441Y-80641500D01*
X144249584Y-80674492D01*
X144249581Y-80674493D01*
X144093347Y-80739207D01*
X143952739Y-80833158D01*
X143952733Y-80833163D01*
X143931302Y-80854595D01*
X143868990Y-80888621D01*
X143842207Y-80891500D01*
X140450976Y-80891500D01*
X140382855Y-80871498D01*
X140336362Y-80817842D01*
X140326258Y-80747568D01*
X140327397Y-80740918D01*
X140327835Y-80738717D01*
X140358500Y-80584555D01*
X140358500Y-80415445D01*
X140325508Y-80249585D01*
X140262808Y-80098214D01*
X140255220Y-80027626D01*
X140262807Y-80001786D01*
X140325508Y-79850412D01*
X140358500Y-79684552D01*
X140358500Y-79515442D01*
X140325508Y-79349582D01*
X140262808Y-79198211D01*
X140255220Y-79127623D01*
X140262807Y-79101783D01*
X140325508Y-78950409D01*
X140358500Y-78784549D01*
X140358500Y-78615439D01*
X140325508Y-78449579D01*
X140262808Y-78298208D01*
X140255220Y-78227620D01*
X140262807Y-78201780D01*
X140325508Y-78050406D01*
X140358500Y-77884546D01*
X140358500Y-77715436D01*
X140325508Y-77549576D01*
X140262808Y-77398205D01*
X140255220Y-77327617D01*
X140262807Y-77301777D01*
X140325508Y-77150403D01*
X140358500Y-76984543D01*
X140358500Y-76815433D01*
X140325508Y-76649573D01*
X140260793Y-76493336D01*
X140168026Y-76354500D01*
X140146812Y-76286749D01*
X140165595Y-76218282D01*
X140218412Y-76170839D01*
X140272792Y-76158500D01*
X142402034Y-76158500D01*
X142470155Y-76178502D01*
X142472002Y-76179712D01*
X142593348Y-76260793D01*
X142749585Y-76325508D01*
X142915445Y-76358500D01*
X143084555Y-76358500D01*
X143250415Y-76325508D01*
X143406652Y-76260793D01*
X143547262Y-76166841D01*
X143666841Y-76047262D01*
X143760793Y-75906652D01*
X143825508Y-75750415D01*
X143858500Y-75584555D01*
X143858500Y-75415445D01*
X143827397Y-75259081D01*
X143833725Y-75188368D01*
X143877279Y-75132300D01*
X143944231Y-75108681D01*
X143950976Y-75108500D01*
X145842207Y-75108500D01*
X145910328Y-75128502D01*
X145931302Y-75145405D01*
X145952738Y-75166841D01*
X146093348Y-75260793D01*
X146249585Y-75325508D01*
X146415445Y-75358500D01*
X146584555Y-75358500D01*
X146750415Y-75325508D01*
X146906652Y-75260793D01*
X147047262Y-75166841D01*
X147166841Y-75047262D01*
X147260793Y-74906652D01*
X147325508Y-74750415D01*
X147358500Y-74584555D01*
X147358500Y-74415445D01*
X147325508Y-74249585D01*
X147260793Y-74093348D01*
X147166841Y-73952738D01*
X147047262Y-73833159D01*
X146906652Y-73739207D01*
X146862423Y-73720887D01*
X146750418Y-73674493D01*
X146750415Y-73674492D01*
X146584558Y-73641500D01*
X146584555Y-73641500D01*
X146415445Y-73641500D01*
X146415441Y-73641500D01*
X146249584Y-73674492D01*
X146249581Y-73674493D01*
X146093347Y-73739207D01*
X145952739Y-73833158D01*
X145952733Y-73833163D01*
X145931302Y-73854595D01*
X145868990Y-73888621D01*
X145842207Y-73891500D01*
X140157793Y-73891500D01*
X140089672Y-73871498D01*
X140068698Y-73854595D01*
X140047266Y-73833163D01*
X140047262Y-73833159D01*
X139906652Y-73739207D01*
X139862423Y-73720887D01*
X139750418Y-73674493D01*
X139750415Y-73674492D01*
X139584558Y-73641500D01*
X139584555Y-73641500D01*
X139415445Y-73641500D01*
X139415441Y-73641500D01*
X139249584Y-73674492D01*
X139249581Y-73674493D01*
X139093347Y-73739207D01*
X138952739Y-73833158D01*
X138952733Y-73833163D01*
X138833163Y-73952733D01*
X138833158Y-73952739D01*
X138739207Y-74093347D01*
X138674493Y-74249581D01*
X138674492Y-74249584D01*
X138641500Y-74415441D01*
X138641500Y-74584558D01*
X138662657Y-74690918D01*
X138656329Y-74761632D01*
X138612775Y-74817700D01*
X138545823Y-74841319D01*
X138539078Y-74841500D01*
X133324950Y-74841500D01*
X133256829Y-74821498D01*
X133235855Y-74804595D01*
X131888456Y-73457196D01*
X131854430Y-73394884D01*
X131853972Y-73392683D01*
X131851291Y-73379204D01*
X131825508Y-73249585D01*
X131760793Y-73093348D01*
X131666841Y-72952738D01*
X131547262Y-72833159D01*
X131406652Y-72739207D01*
X131250418Y-72674493D01*
X131250415Y-72674492D01*
X131084558Y-72641500D01*
X131084555Y-72641500D01*
X130915445Y-72641500D01*
X130915441Y-72641500D01*
X130749584Y-72674492D01*
X130749581Y-72674493D01*
X130593347Y-72739207D01*
X130452739Y-72833158D01*
X130452733Y-72833163D01*
X130333163Y-72952733D01*
X130333158Y-72952739D01*
X130239207Y-73093348D01*
X130227805Y-73120875D01*
X130183257Y-73176156D01*
X130115893Y-73198577D01*
X130047102Y-73181019D01*
X130022301Y-73161752D01*
X119395405Y-62534856D01*
X119361379Y-62472544D01*
X119358500Y-62445761D01*
X119358500Y-62415444D01*
X119358499Y-62415441D01*
X119354858Y-62397137D01*
X119325508Y-62249585D01*
X119260793Y-62093348D01*
X119166841Y-61952738D01*
X119047262Y-61833159D01*
X118906652Y-61739207D01*
X118750418Y-61674493D01*
X118750415Y-61674492D01*
X118584558Y-61641500D01*
X118584555Y-61641500D01*
X118415445Y-61641500D01*
X118415441Y-61641500D01*
X118249584Y-61674492D01*
X118249581Y-61674493D01*
X118093347Y-61739207D01*
X117952739Y-61833158D01*
X117952733Y-61833163D01*
X117833163Y-61952733D01*
X117833158Y-61952739D01*
X117739207Y-62093347D01*
X117674493Y-62249581D01*
X117674490Y-62249591D01*
X117671240Y-62265930D01*
X117638331Y-62328839D01*
X117576635Y-62363970D01*
X117547662Y-62367346D01*
X117415441Y-62367346D01*
X117249584Y-62400338D01*
X117249581Y-62400339D01*
X117093347Y-62465053D01*
X116952739Y-62559004D01*
X116952733Y-62559009D01*
X116833163Y-62678579D01*
X116833158Y-62678585D01*
X116739207Y-62819193D01*
X116674493Y-62975427D01*
X116674492Y-62975429D01*
X116673529Y-62980273D01*
X116640617Y-63043180D01*
X116578920Y-63078309D01*
X116508026Y-63074504D01*
X116501733Y-63072093D01*
X116386816Y-63024493D01*
X116386813Y-63024492D01*
X116220956Y-62991500D01*
X116220953Y-62991500D01*
X116051843Y-62991500D01*
X116051839Y-62991500D01*
X115885982Y-63024492D01*
X115885979Y-63024493D01*
X115729745Y-63089207D01*
X115589137Y-63183158D01*
X115589131Y-63183163D01*
X115469561Y-63302733D01*
X115469556Y-63302739D01*
X115375605Y-63443347D01*
X115310891Y-63599581D01*
X115310890Y-63599584D01*
X115277898Y-63765441D01*
X111258500Y-63765441D01*
X111258500Y-55000000D01*
X129000000Y-55000000D01*
X136000000Y-55000000D01*
X136000000Y-47500000D01*
X129000000Y-47500000D01*
X129000000Y-55000000D01*
X111258500Y-55000000D01*
X111258500Y-53866370D01*
X111278502Y-53798249D01*
X111295395Y-53777285D01*
X112227160Y-52845519D01*
X112268031Y-52818211D01*
X112406652Y-52760793D01*
X112547262Y-52666841D01*
X112666841Y-52547262D01*
X112760793Y-52406652D01*
X112825508Y-52250415D01*
X112858500Y-52084555D01*
X112858500Y-51915445D01*
X112825508Y-51749585D01*
X112760793Y-51593348D01*
X112666841Y-51452738D01*
X112547262Y-51333159D01*
X112406652Y-51239207D01*
X112250418Y-51174493D01*
X112250415Y-51174492D01*
X112084558Y-51141500D01*
X112084555Y-51141500D01*
X111915445Y-51141500D01*
X111915441Y-51141500D01*
X111749584Y-51174492D01*
X111749581Y-51174493D01*
X111593347Y-51239207D01*
X111452739Y-51333158D01*
X111452733Y-51333163D01*
X111333163Y-51452733D01*
X111333158Y-51452739D01*
X111239207Y-51593348D01*
X111181790Y-51731964D01*
X111154476Y-51772841D01*
X109973595Y-52953723D01*
X109911283Y-52987748D01*
X109840468Y-52982684D01*
X109783632Y-52940137D01*
X109758821Y-52873617D01*
X109758500Y-52864628D01*
X109758500Y-50884500D01*
X109778502Y-50816379D01*
X109832158Y-50769886D01*
X109884500Y-50758500D01*
X118562748Y-50758500D01*
X118610966Y-50768091D01*
X118688849Y-50800350D01*
X118749585Y-50825508D01*
X118915445Y-50858500D01*
X119084555Y-50858500D01*
X119250415Y-50825508D01*
X119406652Y-50760793D01*
X119547262Y-50666841D01*
X119666841Y-50547262D01*
X119760793Y-50406652D01*
X119825508Y-50250415D01*
X119858500Y-50084555D01*
X119858500Y-49915445D01*
X119825508Y-49749585D01*
X119760793Y-49593348D01*
X119666841Y-49452738D01*
X119547262Y-49333159D01*
X119406652Y-49239207D01*
X119292411Y-49191887D01*
X119250418Y-49174493D01*
X119250415Y-49174492D01*
X119084558Y-49141500D01*
X119084555Y-49141500D01*
X118915445Y-49141500D01*
X118915441Y-49141500D01*
X118749584Y-49174492D01*
X118749581Y-49174493D01*
X118610966Y-49231909D01*
X118562748Y-49241500D01*
X109437252Y-49241500D01*
X109389034Y-49231909D01*
X109250418Y-49174493D01*
X109250415Y-49174492D01*
X109084558Y-49141500D01*
X109084555Y-49141500D01*
X108915445Y-49141500D01*
X108915441Y-49141500D01*
X108749584Y-49174492D01*
X108749581Y-49174493D01*
X108593347Y-49239207D01*
X108452739Y-49333158D01*
X108452733Y-49333163D01*
X108333163Y-49452733D01*
X108333158Y-49452739D01*
X108239207Y-49593347D01*
X108174493Y-49749581D01*
X108174492Y-49749584D01*
X108141500Y-49915441D01*
X108141500Y-50084558D01*
X108174492Y-50250415D01*
X108174493Y-50250418D01*
X108231909Y-50389033D01*
X108241500Y-50437251D01*
X108241500Y-68633628D01*
X108221498Y-68701749D01*
X108204595Y-68722723D01*
X106024946Y-70902371D01*
X105962634Y-70936397D01*
X105891818Y-70931332D01*
X105834983Y-70888785D01*
X105810172Y-70822265D01*
X105819444Y-70765054D01*
X105825506Y-70750419D01*
X105825508Y-70750415D01*
X105858500Y-70584555D01*
X105858500Y-70415445D01*
X105825508Y-70249585D01*
X105760793Y-70093348D01*
X105666841Y-69952738D01*
X105645405Y-69931302D01*
X105611379Y-69868990D01*
X105608500Y-69842207D01*
X105608500Y-54157793D01*
X105628502Y-54089672D01*
X105645405Y-54068698D01*
X105666841Y-54047262D01*
X105760793Y-53906652D01*
X105825508Y-53750415D01*
X105858500Y-53584555D01*
X105858500Y-53415445D01*
X105825508Y-53249585D01*
X105760793Y-53093348D01*
X105666841Y-52952738D01*
X105547262Y-52833159D01*
X105406652Y-52739207D01*
X105250418Y-52674493D01*
X105250415Y-52674492D01*
X105084558Y-52641500D01*
X105084555Y-52641500D01*
X104915445Y-52641500D01*
X104915441Y-52641500D01*
X104749584Y-52674492D01*
X104749581Y-52674493D01*
X104593347Y-52739207D01*
X104452739Y-52833158D01*
X104452733Y-52833163D01*
X104333163Y-52952733D01*
X104333158Y-52952739D01*
X104239207Y-53093347D01*
X104174493Y-53249581D01*
X104174492Y-53249584D01*
X104141500Y-53415441D01*
X80500000Y-53415441D01*
X80500000Y-44825999D01*
X81083255Y-44825999D01*
X81083256Y-44826000D01*
X82401323Y-44826000D01*
X82381038Y-44954077D01*
X82381038Y-45205923D01*
X82401323Y-45334000D01*
X81083256Y-45334000D01*
X81109608Y-45567879D01*
X81182289Y-45886312D01*
X81290156Y-46194579D01*
X81290167Y-46194606D01*
X81431879Y-46488874D01*
X81605650Y-46765428D01*
X81809296Y-47020792D01*
X82040245Y-47251741D01*
X82295609Y-47455387D01*
X82572163Y-47629158D01*
X82866431Y-47770870D01*
X82866458Y-47770881D01*
X83174725Y-47878748D01*
X83493159Y-47951429D01*
X83493156Y-47951429D01*
X83727038Y-47977780D01*
X83727038Y-46659714D01*
X83855115Y-46680000D01*
X84106961Y-46680000D01*
X84235038Y-46659714D01*
X84235038Y-47977779D01*
X84468917Y-47951429D01*
X84787350Y-47878748D01*
X85095617Y-47770881D01*
X85095644Y-47770870D01*
X85389912Y-47629158D01*
X85666466Y-47455387D01*
X85921830Y-47251741D01*
X86152779Y-47020792D01*
X86356425Y-46765428D01*
X86530196Y-46488874D01*
X86671908Y-46194606D01*
X86671919Y-46194579D01*
X86779786Y-45886312D01*
X86844828Y-45601350D01*
X89577538Y-45601350D01*
X89577538Y-47398649D01*
X89584047Y-47459196D01*
X89584049Y-47459204D01*
X89635148Y-47596202D01*
X89635150Y-47596207D01*
X89722776Y-47713261D01*
X89839830Y-47800887D01*
X89839832Y-47800888D01*
X89839834Y-47800889D01*
X89898913Y-47822924D01*
X89976833Y-47851988D01*
X89976841Y-47851990D01*
X90037388Y-47858499D01*
X90037393Y-47858499D01*
X90037400Y-47858500D01*
X90037406Y-47858500D01*
X91834670Y-47858500D01*
X91834676Y-47858500D01*
X91834683Y-47858499D01*
X91834687Y-47858499D01*
X91895234Y-47851990D01*
X91895237Y-47851989D01*
X91895239Y-47851989D01*
X92032242Y-47800889D01*
X92088237Y-47758972D01*
X92149299Y-47713261D01*
X92236925Y-47596207D01*
X92236925Y-47596206D01*
X92236927Y-47596204D01*
X92288027Y-47459201D01*
X92292737Y-47415396D01*
X92294537Y-47398649D01*
X92294538Y-47398632D01*
X92294538Y-47246957D01*
X92314540Y-47178836D01*
X92368196Y-47132343D01*
X92438470Y-47122239D01*
X92503050Y-47151733D01*
X92532803Y-47189752D01*
X92544144Y-47212009D01*
X92544146Y-47212012D01*
X92569535Y-47246957D01*
X92669832Y-47385004D01*
X92669834Y-47385006D01*
X92669836Y-47385009D01*
X92821028Y-47536201D01*
X92821031Y-47536203D01*
X92821034Y-47536206D01*
X92994029Y-47661894D01*
X93184555Y-47758972D01*
X93387916Y-47825047D01*
X93387917Y-47825047D01*
X93387922Y-47825049D01*
X93599122Y-47858500D01*
X93599125Y-47858500D01*
X93812951Y-47858500D01*
X93812954Y-47858500D01*
X94024154Y-47825049D01*
X94227521Y-47758972D01*
X94418047Y-47661894D01*
X94591042Y-47536206D01*
X94742244Y-47385004D01*
X94867932Y-47212009D01*
X94965010Y-47021483D01*
X94971206Y-47002412D01*
X95011277Y-46943810D01*
X95076674Y-46916172D01*
X95146631Y-46928278D01*
X95198937Y-46976284D01*
X95210867Y-47002407D01*
X95217066Y-47021483D01*
X95314012Y-47211750D01*
X95314146Y-47212012D01*
X95339535Y-47246957D01*
X95439832Y-47385004D01*
X95439834Y-47385006D01*
X95439836Y-47385009D01*
X95591028Y-47536201D01*
X95591031Y-47536203D01*
X95591034Y-47536206D01*
X95764029Y-47661894D01*
X95954555Y-47758972D01*
X96157916Y-47825047D01*
X96157917Y-47825047D01*
X96157922Y-47825049D01*
X96369122Y-47858500D01*
X96369125Y-47858500D01*
X96582951Y-47858500D01*
X96582954Y-47858500D01*
X96794154Y-47825049D01*
X96997521Y-47758972D01*
X97188047Y-47661894D01*
X97361042Y-47536206D01*
X97512244Y-47385004D01*
X97637932Y-47212009D01*
X97735010Y-47021483D01*
X97741468Y-47001604D01*
X97781540Y-46943001D01*
X97846936Y-46915363D01*
X97916893Y-46927468D01*
X97969200Y-46975473D01*
X97981134Y-47001605D01*
X97987528Y-47021286D01*
X97987531Y-47021292D01*
X98084574Y-47211750D01*
X98210215Y-47384679D01*
X98361358Y-47535822D01*
X98534287Y-47661463D01*
X98724745Y-47758506D01*
X98724751Y-47758509D01*
X98928036Y-47824560D01*
X98992038Y-47834696D01*
X98992038Y-46982664D01*
X99035676Y-47007859D01*
X99174287Y-47045000D01*
X99317789Y-47045000D01*
X99456400Y-47007859D01*
X99500038Y-46982664D01*
X99500038Y-47834696D01*
X99564039Y-47824560D01*
X99767324Y-47758509D01*
X99767330Y-47758506D01*
X99957788Y-47661463D01*
X100130717Y-47535822D01*
X100281860Y-47384679D01*
X100407501Y-47211750D01*
X100504544Y-47021292D01*
X100510939Y-47001610D01*
X100551010Y-46943002D01*
X100616406Y-46915363D01*
X100686363Y-46927467D01*
X100738671Y-46975471D01*
X100750606Y-47001603D01*
X100757062Y-47021473D01*
X100757064Y-47021478D01*
X100757066Y-47021483D01*
X100854144Y-47212009D01*
X100854146Y-47212012D01*
X100879535Y-47246957D01*
X100979832Y-47385004D01*
X100979834Y-47385006D01*
X100979836Y-47385009D01*
X101131028Y-47536201D01*
X101131031Y-47536203D01*
X101131034Y-47536206D01*
X101304029Y-47661894D01*
X101494555Y-47758972D01*
X101697916Y-47825047D01*
X101697917Y-47825047D01*
X101697922Y-47825049D01*
X101909122Y-47858500D01*
X101909125Y-47858500D01*
X102122951Y-47858500D01*
X102122954Y-47858500D01*
X102334154Y-47825049D01*
X102537521Y-47758972D01*
X102728047Y-47661894D01*
X102901042Y-47536206D01*
X103052244Y-47385004D01*
X103177932Y-47212009D01*
X103275010Y-47021483D01*
X103281206Y-47002412D01*
X103321277Y-46943810D01*
X103386674Y-46916172D01*
X103456631Y-46928278D01*
X103508937Y-46976284D01*
X103520867Y-47002407D01*
X103527066Y-47021483D01*
X103624012Y-47211750D01*
X103624146Y-47212012D01*
X103649535Y-47246957D01*
X103749832Y-47385004D01*
X103749834Y-47385006D01*
X103749836Y-47385009D01*
X103901028Y-47536201D01*
X103901031Y-47536203D01*
X103901034Y-47536206D01*
X104074029Y-47661894D01*
X104264555Y-47758972D01*
X104467916Y-47825047D01*
X104467917Y-47825047D01*
X104467922Y-47825049D01*
X104679122Y-47858500D01*
X104679125Y-47858500D01*
X104892951Y-47858500D01*
X104892954Y-47858500D01*
X105104154Y-47825049D01*
X105307521Y-47758972D01*
X105498047Y-47661894D01*
X105671042Y-47536206D01*
X105822244Y-47385004D01*
X105947932Y-47212009D01*
X106045010Y-47021483D01*
X106051206Y-47002412D01*
X106091277Y-46943810D01*
X106156674Y-46916172D01*
X106226631Y-46928278D01*
X106278937Y-46976284D01*
X106290867Y-47002407D01*
X106297066Y-47021483D01*
X106394012Y-47211750D01*
X106394146Y-47212012D01*
X106419535Y-47246957D01*
X106519832Y-47385004D01*
X106519834Y-47385006D01*
X106519836Y-47385009D01*
X106671028Y-47536201D01*
X106671031Y-47536203D01*
X106671034Y-47536206D01*
X106844029Y-47661894D01*
X107034555Y-47758972D01*
X107237916Y-47825047D01*
X107237917Y-47825047D01*
X107237922Y-47825049D01*
X107449122Y-47858500D01*
X107449125Y-47858500D01*
X107662951Y-47858500D01*
X107662954Y-47858500D01*
X107874154Y-47825049D01*
X108077521Y-47758972D01*
X108268047Y-47661894D01*
X108441042Y-47536206D01*
X108592244Y-47385004D01*
X108717932Y-47212009D01*
X108815010Y-47021483D01*
X108821206Y-47002412D01*
X108861277Y-46943810D01*
X108926674Y-46916172D01*
X108996631Y-46928278D01*
X109048937Y-46976284D01*
X109060867Y-47002407D01*
X109067066Y-47021483D01*
X109164012Y-47211750D01*
X109164146Y-47212012D01*
X109189535Y-47246957D01*
X109289832Y-47385004D01*
X109289834Y-47385006D01*
X109289836Y-47385009D01*
X109441028Y-47536201D01*
X109441031Y-47536203D01*
X109441034Y-47536206D01*
X109614029Y-47661894D01*
X109804555Y-47758972D01*
X110007916Y-47825047D01*
X110007917Y-47825047D01*
X110007922Y-47825049D01*
X110219122Y-47858500D01*
X110219125Y-47858500D01*
X110432951Y-47858500D01*
X110432954Y-47858500D01*
X110644154Y-47825049D01*
X110847521Y-47758972D01*
X111038047Y-47661894D01*
X111211042Y-47536206D01*
X111362244Y-47385004D01*
X111487932Y-47212009D01*
X111585010Y-47021483D01*
X111651087Y-46818116D01*
X111684538Y-46606916D01*
X111684538Y-46393084D01*
X111651087Y-46181884D01*
X111585010Y-45978517D01*
X111487932Y-45787991D01*
X111362244Y-45614996D01*
X111362241Y-45614993D01*
X111362239Y-45614990D01*
X111211047Y-45463798D01*
X111211044Y-45463796D01*
X111211042Y-45463794D01*
X111038047Y-45338106D01*
X110847521Y-45241028D01*
X110847518Y-45241027D01*
X110847516Y-45241026D01*
X110644158Y-45174952D01*
X110644161Y-45174952D01*
X110583233Y-45165302D01*
X110432954Y-45141500D01*
X110219122Y-45141500D01*
X110007922Y-45174951D01*
X110007916Y-45174952D01*
X109804559Y-45241026D01*
X109804553Y-45241029D01*
X109614025Y-45338108D01*
X109441031Y-45463796D01*
X109441028Y-45463798D01*
X109289836Y-45614990D01*
X109289834Y-45614993D01*
X109164146Y-45787987D01*
X109067067Y-45978515D01*
X109067064Y-45978521D01*
X109060871Y-45997584D01*
X109020797Y-46056190D01*
X108955401Y-46083827D01*
X108885444Y-46071720D01*
X108833138Y-46023714D01*
X108821205Y-45997584D01*
X108815010Y-45978517D01*
X108717932Y-45787991D01*
X108592244Y-45614996D01*
X108592241Y-45614993D01*
X108592239Y-45614990D01*
X108441047Y-45463798D01*
X108441044Y-45463796D01*
X108441042Y-45463794D01*
X108268047Y-45338106D01*
X108077521Y-45241028D01*
X108077518Y-45241027D01*
X108077516Y-45241026D01*
X107874158Y-45174952D01*
X107874161Y-45174952D01*
X107813233Y-45165302D01*
X107662954Y-45141500D01*
X107449122Y-45141500D01*
X107237922Y-45174951D01*
X107237916Y-45174952D01*
X107034559Y-45241026D01*
X107034553Y-45241029D01*
X106844025Y-45338108D01*
X106671031Y-45463796D01*
X106671028Y-45463798D01*
X106519836Y-45614990D01*
X106519834Y-45614993D01*
X106394146Y-45787987D01*
X106297067Y-45978515D01*
X106297064Y-45978521D01*
X106290871Y-45997584D01*
X106250797Y-46056190D01*
X106185401Y-46083827D01*
X106115444Y-46071720D01*
X106063138Y-46023714D01*
X106051205Y-45997584D01*
X106045010Y-45978517D01*
X105947932Y-45787991D01*
X105822244Y-45614996D01*
X105822241Y-45614993D01*
X105822239Y-45614990D01*
X105671047Y-45463798D01*
X105671044Y-45463796D01*
X105671042Y-45463794D01*
X105498047Y-45338106D01*
X105307521Y-45241028D01*
X105307518Y-45241027D01*
X105307516Y-45241026D01*
X105104158Y-45174952D01*
X105104161Y-45174952D01*
X105043233Y-45165302D01*
X104892954Y-45141500D01*
X104679122Y-45141500D01*
X104467922Y-45174951D01*
X104467916Y-45174952D01*
X104264559Y-45241026D01*
X104264553Y-45241029D01*
X104074025Y-45338108D01*
X103901031Y-45463796D01*
X103901028Y-45463798D01*
X103749836Y-45614990D01*
X103749834Y-45614993D01*
X103624146Y-45787987D01*
X103527067Y-45978515D01*
X103527064Y-45978521D01*
X103520871Y-45997584D01*
X103480797Y-46056190D01*
X103415401Y-46083827D01*
X103345444Y-46071720D01*
X103293138Y-46023714D01*
X103281205Y-45997584D01*
X103275010Y-45978517D01*
X103177932Y-45787991D01*
X103052244Y-45614996D01*
X103052241Y-45614993D01*
X103052239Y-45614990D01*
X102901047Y-45463798D01*
X102901044Y-45463796D01*
X102901042Y-45463794D01*
X102728047Y-45338106D01*
X102537521Y-45241028D01*
X102537518Y-45241027D01*
X102537516Y-45241026D01*
X102334158Y-45174952D01*
X102334161Y-45174952D01*
X102273233Y-45165302D01*
X102122954Y-45141500D01*
X101909122Y-45141500D01*
X101697922Y-45174951D01*
X101697916Y-45174952D01*
X101494559Y-45241026D01*
X101494553Y-45241029D01*
X101304025Y-45338108D01*
X101131031Y-45463796D01*
X101131028Y-45463798D01*
X100979836Y-45614990D01*
X100979834Y-45614993D01*
X100854146Y-45787987D01*
X100757067Y-45978515D01*
X100757065Y-45978519D01*
X100750606Y-45998398D01*
X100710531Y-46057002D01*
X100645133Y-46084637D01*
X100575177Y-46072528D01*
X100522872Y-46024521D01*
X100510940Y-45998391D01*
X100504546Y-45978711D01*
X100504544Y-45978707D01*
X100407501Y-45788249D01*
X100281860Y-45615320D01*
X100130717Y-45464177D01*
X99957788Y-45338536D01*
X99767330Y-45241493D01*
X99767324Y-45241490D01*
X99564042Y-45175440D01*
X99500038Y-45165302D01*
X99500038Y-46017335D01*
X99456400Y-45992141D01*
X99317789Y-45955000D01*
X99174287Y-45955000D01*
X99035676Y-45992141D01*
X98992038Y-46017335D01*
X98992038Y-45165302D01*
X98928033Y-45175440D01*
X98724751Y-45241490D01*
X98724745Y-45241493D01*
X98534287Y-45338536D01*
X98361358Y-45464177D01*
X98210215Y-45615320D01*
X98084574Y-45788249D01*
X97987531Y-45978707D01*
X97987530Y-45978710D01*
X97981134Y-45998395D01*
X97941060Y-46057001D01*
X97875663Y-46084637D01*
X97805706Y-46072530D01*
X97753400Y-46024523D01*
X97741468Y-45998393D01*
X97735073Y-45978711D01*
X97735010Y-45978517D01*
X97637932Y-45787991D01*
X97512244Y-45614996D01*
X97512241Y-45614993D01*
X97512239Y-45614990D01*
X97361047Y-45463798D01*
X97361044Y-45463796D01*
X97361042Y-45463794D01*
X97188047Y-45338106D01*
X96997521Y-45241028D01*
X96997518Y-45241027D01*
X96997516Y-45241026D01*
X96794158Y-45174952D01*
X96794161Y-45174952D01*
X96733233Y-45165302D01*
X96582954Y-45141500D01*
X96369122Y-45141500D01*
X96157922Y-45174951D01*
X96157916Y-45174952D01*
X95954559Y-45241026D01*
X95954553Y-45241029D01*
X95764025Y-45338108D01*
X95591031Y-45463796D01*
X95591028Y-45463798D01*
X95439836Y-45614990D01*
X95439834Y-45614993D01*
X95314146Y-45787987D01*
X95217067Y-45978515D01*
X95217064Y-45978521D01*
X95210871Y-45997584D01*
X95170797Y-46056190D01*
X95105401Y-46083827D01*
X95035444Y-46071720D01*
X94983138Y-46023714D01*
X94971205Y-45997584D01*
X94965010Y-45978517D01*
X94867932Y-45787991D01*
X94742244Y-45614996D01*
X94742241Y-45614993D01*
X94742239Y-45614990D01*
X94591047Y-45463798D01*
X94591044Y-45463796D01*
X94591042Y-45463794D01*
X94418047Y-45338106D01*
X94227521Y-45241028D01*
X94227518Y-45241027D01*
X94227516Y-45241026D01*
X94024158Y-45174952D01*
X94024161Y-45174952D01*
X93963233Y-45165302D01*
X93812954Y-45141500D01*
X93599122Y-45141500D01*
X93387922Y-45174951D01*
X93387916Y-45174952D01*
X93184559Y-45241026D01*
X93184553Y-45241029D01*
X92994025Y-45338108D01*
X92821031Y-45463796D01*
X92821028Y-45463798D01*
X92669836Y-45614990D01*
X92669834Y-45614993D01*
X92544144Y-45787990D01*
X92532804Y-45810246D01*
X92484055Y-45861861D01*
X92415140Y-45878926D01*
X92347939Y-45856024D01*
X92303787Y-45800426D01*
X92294538Y-45753042D01*
X92294538Y-45601367D01*
X92294537Y-45601350D01*
X92288028Y-45540803D01*
X92288026Y-45540795D01*
X92250934Y-45441350D01*
X92236927Y-45403796D01*
X92236926Y-45403794D01*
X92236925Y-45403792D01*
X92149299Y-45286738D01*
X92084732Y-45238404D01*
X92042185Y-45181568D01*
X92037121Y-45110752D01*
X92071146Y-45048440D01*
X92133458Y-45014415D01*
X92179952Y-45013088D01*
X92189823Y-45014651D01*
X92214120Y-45018500D01*
X92214122Y-45018500D01*
X92427951Y-45018500D01*
X92427954Y-45018500D01*
X92639154Y-44985049D01*
X92842521Y-44918972D01*
X93033047Y-44821894D01*
X93206042Y-44696206D01*
X93357244Y-44545004D01*
X93482932Y-44372009D01*
X93580010Y-44181483D01*
X93586206Y-44162412D01*
X93626277Y-44103810D01*
X93691674Y-44076172D01*
X93761631Y-44088278D01*
X93813937Y-44136284D01*
X93825867Y-44162407D01*
X93832066Y-44181483D01*
X93929144Y-44372009D01*
X94054832Y-44545004D01*
X94054834Y-44545006D01*
X94054836Y-44545009D01*
X94206028Y-44696201D01*
X94206031Y-44696203D01*
X94206034Y-44696206D01*
X94379029Y-44821894D01*
X94569555Y-44918972D01*
X94772916Y-44985047D01*
X94772917Y-44985047D01*
X94772922Y-44985049D01*
X94984122Y-45018500D01*
X94984125Y-45018500D01*
X95197951Y-45018500D01*
X95197954Y-45018500D01*
X95409154Y-44985049D01*
X95612521Y-44918972D01*
X95803047Y-44821894D01*
X95976042Y-44696206D01*
X96127244Y-44545004D01*
X96252932Y-44372009D01*
X96350010Y-44181483D01*
X96356206Y-44162412D01*
X96396277Y-44103810D01*
X96461674Y-44076172D01*
X96531631Y-44088278D01*
X96583937Y-44136284D01*
X96595867Y-44162407D01*
X96602066Y-44181483D01*
X96699144Y-44372009D01*
X96824832Y-44545004D01*
X96824834Y-44545006D01*
X96824836Y-44545009D01*
X96976028Y-44696201D01*
X96976031Y-44696203D01*
X96976034Y-44696206D01*
X97149029Y-44821894D01*
X97339555Y-44918972D01*
X97542916Y-44985047D01*
X97542917Y-44985047D01*
X97542922Y-44985049D01*
X97754122Y-45018500D01*
X97754125Y-45018500D01*
X97967951Y-45018500D01*
X97967954Y-45018500D01*
X98179154Y-44985049D01*
X98382521Y-44918972D01*
X98573047Y-44821894D01*
X98746042Y-44696206D01*
X98897244Y-44545004D01*
X99022932Y-44372009D01*
X99120010Y-44181483D01*
X99126206Y-44162412D01*
X99166277Y-44103810D01*
X99231674Y-44076172D01*
X99301631Y-44088278D01*
X99353937Y-44136284D01*
X99365867Y-44162407D01*
X99372066Y-44181483D01*
X99469144Y-44372009D01*
X99594832Y-44545004D01*
X99594834Y-44545006D01*
X99594836Y-44545009D01*
X99746028Y-44696201D01*
X99746031Y-44696203D01*
X99746034Y-44696206D01*
X99919029Y-44821894D01*
X100109555Y-44918972D01*
X100312916Y-44985047D01*
X100312917Y-44985047D01*
X100312922Y-44985049D01*
X100524122Y-45018500D01*
X100524125Y-45018500D01*
X100737951Y-45018500D01*
X100737954Y-45018500D01*
X100949154Y-44985049D01*
X101152521Y-44918972D01*
X101343047Y-44821894D01*
X101516042Y-44696206D01*
X101667244Y-44545004D01*
X101792932Y-44372009D01*
X101890010Y-44181483D01*
X101896206Y-44162412D01*
X101936277Y-44103810D01*
X102001674Y-44076172D01*
X102071631Y-44088278D01*
X102123937Y-44136284D01*
X102135867Y-44162407D01*
X102142066Y-44181483D01*
X102239144Y-44372009D01*
X102364832Y-44545004D01*
X102364834Y-44545006D01*
X102364836Y-44545009D01*
X102516028Y-44696201D01*
X102516031Y-44696203D01*
X102516034Y-44696206D01*
X102689029Y-44821894D01*
X102879555Y-44918972D01*
X103082916Y-44985047D01*
X103082917Y-44985047D01*
X103082922Y-44985049D01*
X103294122Y-45018500D01*
X103294125Y-45018500D01*
X103507951Y-45018500D01*
X103507954Y-45018500D01*
X103719154Y-44985049D01*
X103922521Y-44918972D01*
X104113047Y-44821894D01*
X104286042Y-44696206D01*
X104437244Y-44545004D01*
X104562932Y-44372009D01*
X104660010Y-44181483D01*
X104666206Y-44162412D01*
X104706277Y-44103810D01*
X104771674Y-44076172D01*
X104841631Y-44088278D01*
X104893937Y-44136284D01*
X104905867Y-44162407D01*
X104912066Y-44181483D01*
X105009144Y-44372009D01*
X105134832Y-44545004D01*
X105134834Y-44545006D01*
X105134836Y-44545009D01*
X105286028Y-44696201D01*
X105286031Y-44696203D01*
X105286034Y-44696206D01*
X105459029Y-44821894D01*
X105649555Y-44918972D01*
X105852916Y-44985047D01*
X105852917Y-44985047D01*
X105852922Y-44985049D01*
X106064122Y-45018500D01*
X106064125Y-45018500D01*
X106277951Y-45018500D01*
X106277954Y-45018500D01*
X106489154Y-44985049D01*
X106692521Y-44918972D01*
X106883047Y-44821894D01*
X107056042Y-44696206D01*
X107207244Y-44545004D01*
X107332932Y-44372009D01*
X107430010Y-44181483D01*
X107436206Y-44162412D01*
X107476277Y-44103810D01*
X107541674Y-44076172D01*
X107611631Y-44088278D01*
X107663937Y-44136284D01*
X107675867Y-44162407D01*
X107682066Y-44181483D01*
X107779144Y-44372009D01*
X107904832Y-44545004D01*
X107904834Y-44545006D01*
X107904836Y-44545009D01*
X108056028Y-44696201D01*
X108056031Y-44696203D01*
X108056034Y-44696206D01*
X108229029Y-44821894D01*
X108419555Y-44918972D01*
X108622916Y-44985047D01*
X108622917Y-44985047D01*
X108622922Y-44985049D01*
X108834122Y-45018500D01*
X108834125Y-45018500D01*
X109047951Y-45018500D01*
X109047954Y-45018500D01*
X109259154Y-44985049D01*
X109462521Y-44918972D01*
X109644990Y-44825999D01*
X114383255Y-44825999D01*
X114383256Y-44826000D01*
X115701323Y-44826000D01*
X115681038Y-44954077D01*
X115681038Y-45205923D01*
X115701323Y-45334000D01*
X114383256Y-45334000D01*
X114409608Y-45567879D01*
X114482289Y-45886312D01*
X114590156Y-46194579D01*
X114590167Y-46194606D01*
X114731879Y-46488874D01*
X114905650Y-46765428D01*
X115109296Y-47020792D01*
X115340245Y-47251741D01*
X115595609Y-47455387D01*
X115872163Y-47629158D01*
X116166431Y-47770870D01*
X116166458Y-47770881D01*
X116474725Y-47878748D01*
X116793159Y-47951429D01*
X116793156Y-47951429D01*
X117027038Y-47977780D01*
X117027038Y-46659714D01*
X117155115Y-46680000D01*
X117406961Y-46680000D01*
X117535038Y-46659714D01*
X117535038Y-47977779D01*
X117768917Y-47951429D01*
X118087350Y-47878748D01*
X118395617Y-47770881D01*
X118395644Y-47770870D01*
X118689912Y-47629158D01*
X118966466Y-47455387D01*
X119099498Y-47349298D01*
X119221830Y-47251741D01*
X119452779Y-47020792D01*
X119656425Y-46765428D01*
X119830196Y-46488874D01*
X119971908Y-46194606D01*
X119971919Y-46194579D01*
X120079786Y-45886312D01*
X120152467Y-45567879D01*
X120178820Y-45334000D01*
X118860753Y-45334000D01*
X118881038Y-45205923D01*
X118881038Y-44954077D01*
X118860753Y-44826000D01*
X120178820Y-44826000D01*
X120178820Y-44825999D01*
X120152467Y-44592120D01*
X120079786Y-44273687D01*
X119971919Y-43965420D01*
X119971908Y-43965393D01*
X119830196Y-43671125D01*
X119656425Y-43394571D01*
X119452779Y-43139207D01*
X119221830Y-42908258D01*
X118966466Y-42704612D01*
X118689912Y-42530841D01*
X118395644Y-42389129D01*
X118395617Y-42389118D01*
X118087350Y-42281251D01*
X117768917Y-42208570D01*
X117535038Y-42182217D01*
X117535038Y-43500285D01*
X117406961Y-43480000D01*
X117155115Y-43480000D01*
X117027038Y-43500285D01*
X117027038Y-42182218D01*
X117027037Y-42182217D01*
X116793158Y-42208570D01*
X116474725Y-42281251D01*
X116166458Y-42389118D01*
X116166431Y-42389129D01*
X115872163Y-42530841D01*
X115595609Y-42704612D01*
X115340245Y-42908258D01*
X115109296Y-43139207D01*
X114905650Y-43394571D01*
X114731879Y-43671125D01*
X114590167Y-43965393D01*
X114590156Y-43965420D01*
X114482289Y-44273687D01*
X114409608Y-44592120D01*
X114383255Y-44825999D01*
X109644990Y-44825999D01*
X109653047Y-44821894D01*
X109826042Y-44696206D01*
X109977244Y-44545004D01*
X110102932Y-44372009D01*
X110200010Y-44181483D01*
X110266087Y-43978116D01*
X110299538Y-43766916D01*
X110299538Y-43553084D01*
X110266087Y-43341884D01*
X110200010Y-43138517D01*
X110102932Y-42947991D01*
X109977244Y-42774996D01*
X109977241Y-42774993D01*
X109977239Y-42774990D01*
X109826047Y-42623798D01*
X109826044Y-42623796D01*
X109826042Y-42623794D01*
X109653047Y-42498106D01*
X109462521Y-42401028D01*
X109462518Y-42401027D01*
X109462516Y-42401026D01*
X109259158Y-42334952D01*
X109259161Y-42334952D01*
X109219839Y-42328724D01*
X109047954Y-42301500D01*
X108834122Y-42301500D01*
X108622922Y-42334951D01*
X108622916Y-42334952D01*
X108419559Y-42401026D01*
X108419553Y-42401029D01*
X108229025Y-42498108D01*
X108056031Y-42623796D01*
X108056028Y-42623798D01*
X107904836Y-42774990D01*
X107904834Y-42774993D01*
X107779146Y-42947987D01*
X107682067Y-43138515D01*
X107682064Y-43138521D01*
X107675871Y-43157584D01*
X107635797Y-43216190D01*
X107570401Y-43243827D01*
X107500444Y-43231720D01*
X107448138Y-43183714D01*
X107436205Y-43157584D01*
X107430011Y-43138521D01*
X107430010Y-43138517D01*
X107332932Y-42947991D01*
X107207244Y-42774996D01*
X107207241Y-42774993D01*
X107207239Y-42774990D01*
X107056047Y-42623798D01*
X107056044Y-42623796D01*
X107056042Y-42623794D01*
X106883047Y-42498106D01*
X106692521Y-42401028D01*
X106692518Y-42401027D01*
X106692516Y-42401026D01*
X106489158Y-42334952D01*
X106489161Y-42334952D01*
X106449839Y-42328724D01*
X106277954Y-42301500D01*
X106064122Y-42301500D01*
X105852922Y-42334951D01*
X105852916Y-42334952D01*
X105649559Y-42401026D01*
X105649553Y-42401029D01*
X105459025Y-42498108D01*
X105286031Y-42623796D01*
X105286028Y-42623798D01*
X105134836Y-42774990D01*
X105134834Y-42774993D01*
X105009146Y-42947987D01*
X104912067Y-43138515D01*
X104912064Y-43138521D01*
X104905871Y-43157584D01*
X104865797Y-43216190D01*
X104800401Y-43243827D01*
X104730444Y-43231720D01*
X104678138Y-43183714D01*
X104666205Y-43157584D01*
X104660011Y-43138521D01*
X104660010Y-43138517D01*
X104562932Y-42947991D01*
X104437244Y-42774996D01*
X104437241Y-42774993D01*
X104437239Y-42774990D01*
X104286047Y-42623798D01*
X104286044Y-42623796D01*
X104286042Y-42623794D01*
X104113047Y-42498106D01*
X103922521Y-42401028D01*
X103922518Y-42401027D01*
X103922516Y-42401026D01*
X103719158Y-42334952D01*
X103719161Y-42334952D01*
X103679839Y-42328724D01*
X103507954Y-42301500D01*
X103294122Y-42301500D01*
X103082922Y-42334951D01*
X103082916Y-42334952D01*
X102879559Y-42401026D01*
X102879553Y-42401029D01*
X102689025Y-42498108D01*
X102516031Y-42623796D01*
X102516028Y-42623798D01*
X102364836Y-42774990D01*
X102364834Y-42774993D01*
X102239146Y-42947987D01*
X102142067Y-43138515D01*
X102142064Y-43138521D01*
X102135871Y-43157584D01*
X102095797Y-43216190D01*
X102030401Y-43243827D01*
X101960444Y-43231720D01*
X101908138Y-43183714D01*
X101896205Y-43157584D01*
X101890011Y-43138521D01*
X101890010Y-43138517D01*
X101792932Y-42947991D01*
X101667244Y-42774996D01*
X101667241Y-42774993D01*
X101667239Y-42774990D01*
X101516047Y-42623798D01*
X101516044Y-42623796D01*
X101516042Y-42623794D01*
X101343047Y-42498106D01*
X101152521Y-42401028D01*
X101152518Y-42401027D01*
X101152516Y-42401026D01*
X100949158Y-42334952D01*
X100949161Y-42334952D01*
X100909839Y-42328724D01*
X100737954Y-42301500D01*
X100524122Y-42301500D01*
X100312922Y-42334951D01*
X100312916Y-42334952D01*
X100109559Y-42401026D01*
X100109553Y-42401029D01*
X99919025Y-42498108D01*
X99746031Y-42623796D01*
X99746028Y-42623798D01*
X99594836Y-42774990D01*
X99594834Y-42774993D01*
X99469146Y-42947987D01*
X99372067Y-43138515D01*
X99372064Y-43138521D01*
X99365871Y-43157584D01*
X99325797Y-43216190D01*
X99260401Y-43243827D01*
X99190444Y-43231720D01*
X99138138Y-43183714D01*
X99126205Y-43157584D01*
X99120011Y-43138521D01*
X99120010Y-43138517D01*
X99022932Y-42947991D01*
X98897244Y-42774996D01*
X98897241Y-42774993D01*
X98897239Y-42774990D01*
X98746047Y-42623798D01*
X98746044Y-42623796D01*
X98746042Y-42623794D01*
X98573047Y-42498106D01*
X98382521Y-42401028D01*
X98382518Y-42401027D01*
X98382516Y-42401026D01*
X98179158Y-42334952D01*
X98179161Y-42334952D01*
X98139839Y-42328724D01*
X97967954Y-42301500D01*
X97754122Y-42301500D01*
X97542922Y-42334951D01*
X97542916Y-42334952D01*
X97339559Y-42401026D01*
X97339553Y-42401029D01*
X97149025Y-42498108D01*
X96976031Y-42623796D01*
X96976028Y-42623798D01*
X96824836Y-42774990D01*
X96824834Y-42774993D01*
X96699146Y-42947987D01*
X96602067Y-43138515D01*
X96602064Y-43138521D01*
X96595871Y-43157584D01*
X96555797Y-43216190D01*
X96490401Y-43243827D01*
X96420444Y-43231720D01*
X96368138Y-43183714D01*
X96356205Y-43157584D01*
X96350011Y-43138521D01*
X96350010Y-43138517D01*
X96252932Y-42947991D01*
X96127244Y-42774996D01*
X96127241Y-42774993D01*
X96127239Y-42774990D01*
X95976047Y-42623798D01*
X95976044Y-42623796D01*
X95976042Y-42623794D01*
X95803047Y-42498106D01*
X95612521Y-42401028D01*
X95612518Y-42401027D01*
X95612516Y-42401026D01*
X95409158Y-42334952D01*
X95409161Y-42334952D01*
X95369839Y-42328724D01*
X95197954Y-42301500D01*
X94984122Y-42301500D01*
X94772922Y-42334951D01*
X94772916Y-42334952D01*
X94569559Y-42401026D01*
X94569553Y-42401029D01*
X94379025Y-42498108D01*
X94206031Y-42623796D01*
X94206028Y-42623798D01*
X94054836Y-42774990D01*
X94054834Y-42774993D01*
X93929146Y-42947987D01*
X93832067Y-43138515D01*
X93832064Y-43138521D01*
X93825871Y-43157584D01*
X93785797Y-43216190D01*
X93720401Y-43243827D01*
X93650444Y-43231720D01*
X93598138Y-43183714D01*
X93586205Y-43157584D01*
X93580011Y-43138521D01*
X93580010Y-43138517D01*
X93482932Y-42947991D01*
X93357244Y-42774996D01*
X93357241Y-42774993D01*
X93357239Y-42774990D01*
X93206047Y-42623798D01*
X93206044Y-42623796D01*
X93206042Y-42623794D01*
X93033047Y-42498106D01*
X92842521Y-42401028D01*
X92842518Y-42401027D01*
X92842516Y-42401026D01*
X92639158Y-42334952D01*
X92639161Y-42334952D01*
X92599839Y-42328724D01*
X92427954Y-42301500D01*
X92214122Y-42301500D01*
X92002922Y-42334951D01*
X92002916Y-42334952D01*
X91799559Y-42401026D01*
X91799553Y-42401029D01*
X91609025Y-42498108D01*
X91436031Y-42623796D01*
X91436028Y-42623798D01*
X91284836Y-42774990D01*
X91284834Y-42774993D01*
X91159146Y-42947987D01*
X91062067Y-43138515D01*
X91062064Y-43138521D01*
X90995990Y-43341878D01*
X90995989Y-43341883D01*
X90995989Y-43341884D01*
X90962538Y-43553084D01*
X90962538Y-43766916D01*
X90977216Y-43859588D01*
X90995990Y-43978121D01*
X91062064Y-44181478D01*
X91062066Y-44181483D01*
X91159144Y-44372009D01*
X91284832Y-44545004D01*
X91284834Y-44545006D01*
X91284836Y-44545009D01*
X91436028Y-44696201D01*
X91436031Y-44696203D01*
X91436034Y-44696206D01*
X91609029Y-44821894D01*
X91768668Y-44903234D01*
X91820282Y-44951981D01*
X91837348Y-45020896D01*
X91814447Y-45088098D01*
X91758850Y-45132250D01*
X91711464Y-45141500D01*
X90037388Y-45141500D01*
X89976841Y-45148009D01*
X89976833Y-45148011D01*
X89839835Y-45199110D01*
X89839830Y-45199112D01*
X89722776Y-45286738D01*
X89635150Y-45403792D01*
X89635148Y-45403797D01*
X89584049Y-45540795D01*
X89584047Y-45540803D01*
X89577538Y-45601350D01*
X86844828Y-45601350D01*
X86851995Y-45569950D01*
X86852467Y-45567877D01*
X86878820Y-45334000D01*
X85560753Y-45334000D01*
X85581038Y-45205923D01*
X85581038Y-44954077D01*
X85560753Y-44826000D01*
X86878820Y-44826000D01*
X86878820Y-44825999D01*
X86852467Y-44592120D01*
X86779786Y-44273687D01*
X86671919Y-43965420D01*
X86671908Y-43965393D01*
X86530196Y-43671125D01*
X86356425Y-43394571D01*
X86152779Y-43139207D01*
X85921830Y-42908258D01*
X85666466Y-42704612D01*
X85389912Y-42530841D01*
X85095644Y-42389129D01*
X85095617Y-42389118D01*
X84787350Y-42281251D01*
X84468917Y-42208570D01*
X84235038Y-42182217D01*
X84235038Y-43500285D01*
X84106961Y-43480000D01*
X83855115Y-43480000D01*
X83727038Y-43500285D01*
X83727038Y-42182218D01*
X83727037Y-42182217D01*
X83493158Y-42208570D01*
X83174725Y-42281251D01*
X82866458Y-42389118D01*
X82866431Y-42389129D01*
X82572163Y-42530841D01*
X82295609Y-42704612D01*
X82040245Y-42908258D01*
X81809296Y-43139207D01*
X81605650Y-43394571D01*
X81431879Y-43671125D01*
X81290167Y-43965393D01*
X81290156Y-43965420D01*
X81182289Y-44273687D01*
X81109608Y-44592120D01*
X81083255Y-44825999D01*
X80500000Y-44825999D01*
X80500000Y-38151402D01*
X142572000Y-38151402D01*
X142572000Y-38746000D01*
X143449297Y-38746000D01*
X143414075Y-38807007D01*
X143380000Y-38934174D01*
X143380000Y-39065826D01*
X143414075Y-39192993D01*
X143449297Y-39254000D01*
X142572000Y-39254000D01*
X142572000Y-39848597D01*
X142578505Y-39909093D01*
X142629555Y-40045964D01*
X142629555Y-40045965D01*
X142717095Y-40162904D01*
X142834034Y-40250444D01*
X142970906Y-40301494D01*
X143031402Y-40307999D01*
X143031415Y-40308000D01*
X143626000Y-40308000D01*
X143626000Y-39430702D01*
X143687007Y-39465925D01*
X143814174Y-39500000D01*
X143945826Y-39500000D01*
X144072993Y-39465925D01*
X144134000Y-39430702D01*
X144134000Y-40308000D01*
X144728585Y-40308000D01*
X144728597Y-40307999D01*
X144789093Y-40301494D01*
X144925964Y-40250444D01*
X144925965Y-40250444D01*
X145042904Y-40162904D01*
X145130444Y-40045965D01*
X145130444Y-40045964D01*
X145181494Y-39909093D01*
X145182831Y-39896663D01*
X145209999Y-39831070D01*
X145268317Y-39790578D01*
X145339268Y-39788044D01*
X145400327Y-39824270D01*
X145410039Y-39836061D01*
X145421932Y-39852430D01*
X145421934Y-39852432D01*
X145421937Y-39852436D01*
X145567564Y-39998063D01*
X145567567Y-39998065D01*
X145567570Y-39998068D01*
X145734197Y-40119129D01*
X145917710Y-40212634D01*
X146113592Y-40276280D01*
X146317019Y-40308500D01*
X146317022Y-40308500D01*
X146522978Y-40308500D01*
X146522981Y-40308500D01*
X146726408Y-40276280D01*
X146922290Y-40212634D01*
X147105803Y-40119129D01*
X147272430Y-39998068D01*
X147418068Y-39852430D01*
X147539129Y-39685803D01*
X147577734Y-39610034D01*
X147626481Y-39558422D01*
X147695396Y-39541356D01*
X147762598Y-39564257D01*
X147802264Y-39610034D01*
X147840871Y-39685803D01*
X147961932Y-39852430D01*
X147961934Y-39852432D01*
X147961936Y-39852435D01*
X148107564Y-39998063D01*
X148107567Y-39998065D01*
X148107570Y-39998068D01*
X148274197Y-40119129D01*
X148457710Y-40212634D01*
X148653592Y-40276280D01*
X148857019Y-40308500D01*
X148857022Y-40308500D01*
X149062978Y-40308500D01*
X149062981Y-40308500D01*
X149266408Y-40276280D01*
X149462290Y-40212634D01*
X149645803Y-40119129D01*
X149812430Y-39998068D01*
X149958068Y-39852430D01*
X150079129Y-39685803D01*
X150117734Y-39610034D01*
X150166481Y-39558422D01*
X150235396Y-39541356D01*
X150302598Y-39564257D01*
X150342264Y-39610034D01*
X150380871Y-39685803D01*
X150501932Y-39852430D01*
X150501934Y-39852432D01*
X150501936Y-39852435D01*
X150647564Y-39998063D01*
X150647567Y-39998065D01*
X150647570Y-39998068D01*
X150814197Y-40119129D01*
X150997710Y-40212634D01*
X151193592Y-40276280D01*
X151397019Y-40308500D01*
X151397022Y-40308500D01*
X151602978Y-40308500D01*
X151602981Y-40308500D01*
X151806408Y-40276280D01*
X152002290Y-40212634D01*
X152185803Y-40119129D01*
X152352430Y-39998068D01*
X152498068Y-39852430D01*
X152619129Y-39685803D01*
X152712634Y-39502290D01*
X152776280Y-39306408D01*
X152808500Y-39102981D01*
X152808500Y-38897019D01*
X152776280Y-38693592D01*
X152712634Y-38497710D01*
X152619129Y-38314197D01*
X152498068Y-38147570D01*
X152498065Y-38147567D01*
X152498063Y-38147564D01*
X152352435Y-38001936D01*
X152352432Y-38001934D01*
X152352430Y-38001932D01*
X152185803Y-37880871D01*
X152002290Y-37787366D01*
X152002287Y-37787365D01*
X152002285Y-37787364D01*
X151806412Y-37723721D01*
X151806410Y-37723720D01*
X151806408Y-37723720D01*
X151602981Y-37691500D01*
X151397019Y-37691500D01*
X151193592Y-37723720D01*
X151193590Y-37723720D01*
X151193587Y-37723721D01*
X150997714Y-37787364D01*
X150997708Y-37787367D01*
X150814193Y-37880873D01*
X150647567Y-38001934D01*
X150647564Y-38001936D01*
X150501936Y-38147564D01*
X150501934Y-38147567D01*
X150380873Y-38314193D01*
X150342267Y-38389962D01*
X150293518Y-38441577D01*
X150224603Y-38458643D01*
X150157402Y-38435742D01*
X150117733Y-38389962D01*
X150079129Y-38314197D01*
X149958068Y-38147570D01*
X149958065Y-38147567D01*
X149958063Y-38147564D01*
X149812435Y-38001936D01*
X149812432Y-38001934D01*
X149812430Y-38001932D01*
X149645803Y-37880871D01*
X149462290Y-37787366D01*
X149462287Y-37787365D01*
X149462285Y-37787364D01*
X149266412Y-37723721D01*
X149266410Y-37723720D01*
X149266408Y-37723720D01*
X149062981Y-37691500D01*
X148857019Y-37691500D01*
X148653592Y-37723720D01*
X148653590Y-37723720D01*
X148653587Y-37723721D01*
X148457714Y-37787364D01*
X148457708Y-37787367D01*
X148274193Y-37880873D01*
X148107567Y-38001934D01*
X148107564Y-38001936D01*
X147961936Y-38147564D01*
X147961934Y-38147567D01*
X147840873Y-38314193D01*
X147802267Y-38389962D01*
X147753518Y-38441577D01*
X147684603Y-38458643D01*
X147617402Y-38435742D01*
X147577733Y-38389962D01*
X147539129Y-38314197D01*
X147418068Y-38147570D01*
X147418065Y-38147567D01*
X147418063Y-38147564D01*
X147272435Y-38001936D01*
X147272432Y-38001934D01*
X147272430Y-38001932D01*
X147105803Y-37880871D01*
X146922290Y-37787366D01*
X146922287Y-37787365D01*
X146922285Y-37787364D01*
X146726412Y-37723721D01*
X146726410Y-37723720D01*
X146726408Y-37723720D01*
X146522981Y-37691500D01*
X146317019Y-37691500D01*
X146113592Y-37723720D01*
X146113590Y-37723720D01*
X146113587Y-37723721D01*
X145917714Y-37787364D01*
X145917708Y-37787367D01*
X145734193Y-37880873D01*
X145567567Y-38001934D01*
X145567564Y-38001936D01*
X145421936Y-38147564D01*
X145421934Y-38147567D01*
X145410043Y-38163933D01*
X145353819Y-38207285D01*
X145283083Y-38213359D01*
X145220292Y-38180225D01*
X145185383Y-38118404D01*
X145182831Y-38103337D01*
X145181494Y-38090906D01*
X145130444Y-37954035D01*
X145130444Y-37954034D01*
X145042904Y-37837095D01*
X144925965Y-37749555D01*
X144789093Y-37698505D01*
X144728597Y-37692000D01*
X144134000Y-37692000D01*
X144134000Y-38569297D01*
X144072993Y-38534075D01*
X143945826Y-38500000D01*
X143814174Y-38500000D01*
X143687007Y-38534075D01*
X143626000Y-38569297D01*
X143626000Y-37692000D01*
X143031402Y-37692000D01*
X142970906Y-37698505D01*
X142834035Y-37749555D01*
X142834034Y-37749555D01*
X142717095Y-37837095D01*
X142629555Y-37954034D01*
X142629555Y-37954035D01*
X142578505Y-38090906D01*
X142572000Y-38151402D01*
X80500000Y-38151402D01*
X80500000Y-35626000D01*
X80520002Y-35557879D01*
X80573658Y-35511386D01*
X80626000Y-35500000D01*
X179374000Y-35500000D01*
X179442121Y-35520002D01*
G37*
%TD.AperFunction*%
%TD*%
M02*
