%TF.GenerationSoftware,KiCad,Pcbnew,10.0.4*%
%TF.CreationDate,2026-07-17T14:18:18+02:00*%
%TF.ProjectId,KommModul_Joystick,4b6f6d6d-4d6f-4647-956c-5f4a6f797374,rev?*%
%TF.SameCoordinates,Original*%
%TF.FileFunction,Soldermask,Bot*%
%TF.FilePolarity,Negative*%
%FSLAX46Y46*%
G04 Gerber Fmt 4.6, Leading zero omitted, Abs format (unit mm)*
G04 Created by KiCad (PCBNEW 10.0.4) date 2026-07-17 14:18:18*
%MOMM*%
%LPD*%
G01*
G04 APERTURE LIST*
G04 APERTURE END LIST*
G36*
X87642626Y-127906084D02*
G01*
X87810519Y-127960636D01*
X87967811Y-128040780D01*
X88110629Y-128144543D01*
X88235457Y-128269371D01*
X88339220Y-128412189D01*
X88419364Y-128569481D01*
X88473916Y-128737374D01*
X88501532Y-128911734D01*
X88501532Y-129088266D01*
X88473916Y-129262626D01*
X88419364Y-129430519D01*
X88339220Y-129587811D01*
X88235457Y-129730629D01*
X88110629Y-129855457D01*
X87967811Y-129959220D01*
X87810519Y-130039364D01*
X87642626Y-130093916D01*
X87468266Y-130121532D01*
X87291734Y-130121532D01*
X87117374Y-130093916D01*
X86949481Y-130039364D01*
X86792189Y-129959220D01*
X86649371Y-129855457D01*
X86524543Y-129730629D01*
X86420780Y-129587811D01*
X86340636Y-129430519D01*
X86286084Y-129262626D01*
X86258468Y-129088266D01*
X86258468Y-128911734D01*
X86286084Y-128737374D01*
X86340636Y-128569481D01*
X86420780Y-128412189D01*
X86524543Y-128269371D01*
X86649371Y-128144543D01*
X86792189Y-128040780D01*
X86949481Y-127960636D01*
X87117374Y-127906084D01*
X87291734Y-127878468D01*
X87468266Y-127878468D01*
X87642626Y-127906084D01*
G37*
G36*
X92722626Y-127906084D02*
G01*
X92890519Y-127960636D01*
X93047811Y-128040780D01*
X93190629Y-128144543D01*
X93315457Y-128269371D01*
X93419220Y-128412189D01*
X93499364Y-128569481D01*
X93553916Y-128737374D01*
X93581532Y-128911734D01*
X93581532Y-129088266D01*
X93553916Y-129262626D01*
X93499364Y-129430519D01*
X93419220Y-129587811D01*
X93315457Y-129730629D01*
X93190629Y-129855457D01*
X93047811Y-129959220D01*
X92890519Y-130039364D01*
X92722626Y-130093916D01*
X92548266Y-130121532D01*
X92371734Y-130121532D01*
X92197374Y-130093916D01*
X92029481Y-130039364D01*
X91872189Y-129959220D01*
X91729371Y-129855457D01*
X91604543Y-129730629D01*
X91500780Y-129587811D01*
X91420636Y-129430519D01*
X91366084Y-129262626D01*
X91338468Y-129088266D01*
X91338468Y-128911734D01*
X91366084Y-128737374D01*
X91420636Y-128569481D01*
X91500780Y-128412189D01*
X91604543Y-128269371D01*
X91729371Y-128144543D01*
X91872189Y-128040780D01*
X92029481Y-127960636D01*
X92197374Y-127906084D01*
X92371734Y-127878468D01*
X92548266Y-127878468D01*
X92722626Y-127906084D01*
G37*
G36*
X97802626Y-127906084D02*
G01*
X97970519Y-127960636D01*
X98127811Y-128040780D01*
X98270629Y-128144543D01*
X98395457Y-128269371D01*
X98499220Y-128412189D01*
X98579364Y-128569481D01*
X98633916Y-128737374D01*
X98661532Y-128911734D01*
X98661532Y-129088266D01*
X98633916Y-129262626D01*
X98579364Y-129430519D01*
X98499220Y-129587811D01*
X98395457Y-129730629D01*
X98270629Y-129855457D01*
X98127811Y-129959220D01*
X97970519Y-130039364D01*
X97802626Y-130093916D01*
X97628266Y-130121532D01*
X97451734Y-130121532D01*
X97277374Y-130093916D01*
X97109481Y-130039364D01*
X96952189Y-129959220D01*
X96809371Y-129855457D01*
X96684543Y-129730629D01*
X96580780Y-129587811D01*
X96500636Y-129430519D01*
X96446084Y-129262626D01*
X96418468Y-129088266D01*
X96418468Y-128911734D01*
X96446084Y-128737374D01*
X96500636Y-128569481D01*
X96580780Y-128412189D01*
X96684543Y-128269371D01*
X96809371Y-128144543D01*
X96952189Y-128040780D01*
X97109481Y-127960636D01*
X97277374Y-127906084D01*
X97451734Y-127878468D01*
X97628266Y-127878468D01*
X97802626Y-127906084D01*
G37*
G36*
X102882626Y-127906084D02*
G01*
X103050519Y-127960636D01*
X103207811Y-128040780D01*
X103350629Y-128144543D01*
X103475457Y-128269371D01*
X103579220Y-128412189D01*
X103659364Y-128569481D01*
X103713916Y-128737374D01*
X103741532Y-128911734D01*
X103741532Y-129088266D01*
X103713916Y-129262626D01*
X103659364Y-129430519D01*
X103579220Y-129587811D01*
X103475457Y-129730629D01*
X103350629Y-129855457D01*
X103207811Y-129959220D01*
X103050519Y-130039364D01*
X102882626Y-130093916D01*
X102708266Y-130121532D01*
X102531734Y-130121532D01*
X102357374Y-130093916D01*
X102189481Y-130039364D01*
X102032189Y-129959220D01*
X101889371Y-129855457D01*
X101764543Y-129730629D01*
X101660780Y-129587811D01*
X101580636Y-129430519D01*
X101526084Y-129262626D01*
X101498468Y-129088266D01*
X101498468Y-128911734D01*
X101526084Y-128737374D01*
X101580636Y-128569481D01*
X101660780Y-128412189D01*
X101764543Y-128269371D01*
X101889371Y-128144543D01*
X102032189Y-128040780D01*
X102189481Y-127960636D01*
X102357374Y-127906084D01*
X102531734Y-127878468D01*
X102708266Y-127878468D01*
X102882626Y-127906084D01*
G37*
G36*
X158142626Y-127906084D02*
G01*
X158310519Y-127960636D01*
X158467811Y-128040780D01*
X158610629Y-128144543D01*
X158735457Y-128269371D01*
X158839220Y-128412189D01*
X158919364Y-128569481D01*
X158973916Y-128737374D01*
X159001532Y-128911734D01*
X159001532Y-129088266D01*
X158973916Y-129262626D01*
X158919364Y-129430519D01*
X158839220Y-129587811D01*
X158735457Y-129730629D01*
X158610629Y-129855457D01*
X158467811Y-129959220D01*
X158310519Y-130039364D01*
X158142626Y-130093916D01*
X157968266Y-130121532D01*
X157791734Y-130121532D01*
X157617374Y-130093916D01*
X157449481Y-130039364D01*
X157292189Y-129959220D01*
X157149371Y-129855457D01*
X157024543Y-129730629D01*
X156920780Y-129587811D01*
X156840636Y-129430519D01*
X156786084Y-129262626D01*
X156758468Y-129088266D01*
X156758468Y-128911734D01*
X156786084Y-128737374D01*
X156840636Y-128569481D01*
X156920780Y-128412189D01*
X157024543Y-128269371D01*
X157149371Y-128144543D01*
X157292189Y-128040780D01*
X157449481Y-127960636D01*
X157617374Y-127906084D01*
X157791734Y-127878468D01*
X157968266Y-127878468D01*
X158142626Y-127906084D01*
G37*
G36*
X163222626Y-127906084D02*
G01*
X163390519Y-127960636D01*
X163547811Y-128040780D01*
X163690629Y-128144543D01*
X163815457Y-128269371D01*
X163919220Y-128412189D01*
X163999364Y-128569481D01*
X164053916Y-128737374D01*
X164081532Y-128911734D01*
X164081532Y-129088266D01*
X164053916Y-129262626D01*
X163999364Y-129430519D01*
X163919220Y-129587811D01*
X163815457Y-129730629D01*
X163690629Y-129855457D01*
X163547811Y-129959220D01*
X163390519Y-130039364D01*
X163222626Y-130093916D01*
X163048266Y-130121532D01*
X162871734Y-130121532D01*
X162697374Y-130093916D01*
X162529481Y-130039364D01*
X162372189Y-129959220D01*
X162229371Y-129855457D01*
X162104543Y-129730629D01*
X162000780Y-129587811D01*
X161920636Y-129430519D01*
X161866084Y-129262626D01*
X161838468Y-129088266D01*
X161838468Y-128911734D01*
X161866084Y-128737374D01*
X161920636Y-128569481D01*
X162000780Y-128412189D01*
X162104543Y-128269371D01*
X162229371Y-128144543D01*
X162372189Y-128040780D01*
X162529481Y-127960636D01*
X162697374Y-127906084D01*
X162871734Y-127878468D01*
X163048266Y-127878468D01*
X163222626Y-127906084D01*
G37*
G36*
X168302626Y-127906084D02*
G01*
X168470519Y-127960636D01*
X168627811Y-128040780D01*
X168770629Y-128144543D01*
X168895457Y-128269371D01*
X168999220Y-128412189D01*
X169079364Y-128569481D01*
X169133916Y-128737374D01*
X169161532Y-128911734D01*
X169161532Y-129088266D01*
X169133916Y-129262626D01*
X169079364Y-129430519D01*
X168999220Y-129587811D01*
X168895457Y-129730629D01*
X168770629Y-129855457D01*
X168627811Y-129959220D01*
X168470519Y-130039364D01*
X168302626Y-130093916D01*
X168128266Y-130121532D01*
X167951734Y-130121532D01*
X167777374Y-130093916D01*
X167609481Y-130039364D01*
X167452189Y-129959220D01*
X167309371Y-129855457D01*
X167184543Y-129730629D01*
X167080780Y-129587811D01*
X167000636Y-129430519D01*
X166946084Y-129262626D01*
X166918468Y-129088266D01*
X166918468Y-128911734D01*
X166946084Y-128737374D01*
X167000636Y-128569481D01*
X167080780Y-128412189D01*
X167184543Y-128269371D01*
X167309371Y-128144543D01*
X167452189Y-128040780D01*
X167609481Y-127960636D01*
X167777374Y-127906084D01*
X167951734Y-127878468D01*
X168128266Y-127878468D01*
X168302626Y-127906084D01*
G37*
G36*
X173382626Y-127906084D02*
G01*
X173550519Y-127960636D01*
X173707811Y-128040780D01*
X173850629Y-128144543D01*
X173975457Y-128269371D01*
X174079220Y-128412189D01*
X174159364Y-128569481D01*
X174213916Y-128737374D01*
X174241532Y-128911734D01*
X174241532Y-129088266D01*
X174213916Y-129262626D01*
X174159364Y-129430519D01*
X174079220Y-129587811D01*
X173975457Y-129730629D01*
X173850629Y-129855457D01*
X173707811Y-129959220D01*
X173550519Y-130039364D01*
X173382626Y-130093916D01*
X173208266Y-130121532D01*
X173031734Y-130121532D01*
X172857374Y-130093916D01*
X172689481Y-130039364D01*
X172532189Y-129959220D01*
X172389371Y-129855457D01*
X172264543Y-129730629D01*
X172160780Y-129587811D01*
X172080636Y-129430519D01*
X172026084Y-129262626D01*
X171998468Y-129088266D01*
X171998468Y-128911734D01*
X172026084Y-128737374D01*
X172080636Y-128569481D01*
X172160780Y-128412189D01*
X172264543Y-128269371D01*
X172389371Y-128144543D01*
X172532189Y-128040780D01*
X172689481Y-127960636D01*
X172857374Y-127906084D01*
X173031734Y-127878468D01*
X173208266Y-127878468D01*
X173382626Y-127906084D01*
G37*
G36*
X136015000Y-129875000D02*
G01*
X133265000Y-129875000D01*
X133265000Y-127125000D01*
X136015000Y-127125000D01*
X136015000Y-129875000D01*
G37*
G36*
X125560987Y-127162991D02*
G01*
X125766190Y-127229666D01*
X125958436Y-127327620D01*
X126132991Y-127454442D01*
X126285558Y-127607009D01*
X126412380Y-127781564D01*
X126510334Y-127973810D01*
X126577009Y-128179013D01*
X126610761Y-128392119D01*
X126610761Y-128607881D01*
X126577009Y-128820987D01*
X126510334Y-129026190D01*
X126412380Y-129218436D01*
X126285558Y-129392991D01*
X126132991Y-129545558D01*
X125958436Y-129672380D01*
X125766190Y-129770334D01*
X125560987Y-129837009D01*
X125347881Y-129870761D01*
X125132119Y-129870761D01*
X124919013Y-129837009D01*
X124713810Y-129770334D01*
X124521564Y-129672380D01*
X124347009Y-129545558D01*
X124194442Y-129392991D01*
X124067620Y-129218436D01*
X123969666Y-129026190D01*
X123902991Y-128820987D01*
X123869239Y-128607881D01*
X123869239Y-128392119D01*
X123902991Y-128179013D01*
X123969666Y-127973810D01*
X124067620Y-127781564D01*
X124194442Y-127607009D01*
X124347009Y-127454442D01*
X124521564Y-127327620D01*
X124713810Y-127229666D01*
X124919013Y-127162991D01*
X125132119Y-127129239D01*
X125347881Y-127129239D01*
X125560987Y-127162991D01*
G37*
G36*
X130260987Y-127162991D02*
G01*
X130466190Y-127229666D01*
X130658436Y-127327620D01*
X130832991Y-127454442D01*
X130985558Y-127607009D01*
X131112380Y-127781564D01*
X131210334Y-127973810D01*
X131277009Y-128179013D01*
X131310761Y-128392119D01*
X131310761Y-128607881D01*
X131277009Y-128820987D01*
X131210334Y-129026190D01*
X131112380Y-129218436D01*
X130985558Y-129392991D01*
X130832991Y-129545558D01*
X130658436Y-129672380D01*
X130466190Y-129770334D01*
X130260987Y-129837009D01*
X130047881Y-129870761D01*
X129832119Y-129870761D01*
X129619013Y-129837009D01*
X129413810Y-129770334D01*
X129221564Y-129672380D01*
X129047009Y-129545558D01*
X128894442Y-129392991D01*
X128767620Y-129218436D01*
X128669666Y-129026190D01*
X128602991Y-128820987D01*
X128569239Y-128607881D01*
X128569239Y-128392119D01*
X128602991Y-128179013D01*
X128669666Y-127973810D01*
X128767620Y-127781564D01*
X128894442Y-127607009D01*
X129047009Y-127454442D01*
X129221564Y-127327620D01*
X129413810Y-127229666D01*
X129619013Y-127162991D01*
X129832119Y-127129239D01*
X130047881Y-127129239D01*
X130260987Y-127162991D01*
G37*
G36*
X113800000Y-126800000D02*
G01*
X112200000Y-126800000D01*
X112200000Y-125200000D01*
X113800000Y-125200000D01*
X113800000Y-126800000D01*
G37*
G36*
X148300000Y-126800000D02*
G01*
X146700000Y-126800000D01*
X146700000Y-125200000D01*
X148300000Y-125200000D01*
X148300000Y-126800000D01*
G37*
G36*
X113232228Y-122694448D02*
G01*
X113377117Y-122754463D01*
X113507515Y-122841592D01*
X113618408Y-122952485D01*
X113705537Y-123082883D01*
X113765552Y-123227772D01*
X113796148Y-123381586D01*
X113796148Y-123538414D01*
X113765552Y-123692228D01*
X113705537Y-123837117D01*
X113618408Y-123967515D01*
X113507515Y-124078408D01*
X113377117Y-124165537D01*
X113232228Y-124225552D01*
X113078414Y-124256148D01*
X112921586Y-124256148D01*
X112767772Y-124225552D01*
X112622883Y-124165537D01*
X112492485Y-124078408D01*
X112381592Y-123967515D01*
X112294463Y-123837117D01*
X112234448Y-123692228D01*
X112203852Y-123538414D01*
X112203852Y-123381586D01*
X112234448Y-123227772D01*
X112294463Y-123082883D01*
X112381592Y-122952485D01*
X112492485Y-122841592D01*
X112622883Y-122754463D01*
X112767772Y-122694448D01*
X112921586Y-122663852D01*
X113078414Y-122663852D01*
X113232228Y-122694448D01*
G37*
G36*
X147732228Y-122694448D02*
G01*
X147877117Y-122754463D01*
X148007515Y-122841592D01*
X148118408Y-122952485D01*
X148205537Y-123082883D01*
X148265552Y-123227772D01*
X148296148Y-123381586D01*
X148296148Y-123538414D01*
X148265552Y-123692228D01*
X148205537Y-123837117D01*
X148118408Y-123967515D01*
X148007515Y-124078408D01*
X147877117Y-124165537D01*
X147732228Y-124225552D01*
X147578414Y-124256148D01*
X147421586Y-124256148D01*
X147267772Y-124225552D01*
X147122883Y-124165537D01*
X146992485Y-124078408D01*
X146881592Y-123967515D01*
X146794463Y-123837117D01*
X146734448Y-123692228D01*
X146703852Y-123538414D01*
X146703852Y-123381586D01*
X146734448Y-123227772D01*
X146794463Y-123082883D01*
X146881592Y-122952485D01*
X146992485Y-122841592D01*
X147122883Y-122754463D01*
X147267772Y-122694448D01*
X147421586Y-122663852D01*
X147578414Y-122663852D01*
X147732228Y-122694448D01*
G37*
G36*
X123625000Y-115625000D02*
G01*
X121375000Y-115625000D01*
X121375000Y-113375000D01*
X123625000Y-113375000D01*
X123625000Y-115625000D01*
G37*
G36*
X137762626Y-113406084D02*
G01*
X137930519Y-113460636D01*
X138087811Y-113540780D01*
X138230629Y-113644543D01*
X138355457Y-113769371D01*
X138459220Y-113912189D01*
X138539364Y-114069481D01*
X138593916Y-114237374D01*
X138621532Y-114411734D01*
X138621532Y-114588266D01*
X138593916Y-114762626D01*
X138539364Y-114930519D01*
X138459220Y-115087811D01*
X138355457Y-115230629D01*
X138230629Y-115355457D01*
X138087811Y-115459220D01*
X137930519Y-115539364D01*
X137762626Y-115593916D01*
X137588266Y-115621532D01*
X137411734Y-115621532D01*
X137237374Y-115593916D01*
X137069481Y-115539364D01*
X136912189Y-115459220D01*
X136769371Y-115355457D01*
X136644543Y-115230629D01*
X136540780Y-115087811D01*
X136460636Y-114930519D01*
X136406084Y-114762626D01*
X136378468Y-114588266D01*
X136378468Y-114411734D01*
X136406084Y-114237374D01*
X136460636Y-114069481D01*
X136540780Y-113912189D01*
X136644543Y-113769371D01*
X136769371Y-113644543D01*
X136912189Y-113540780D01*
X137069481Y-113460636D01*
X137237374Y-113406084D01*
X137411734Y-113378468D01*
X137588266Y-113378468D01*
X137762626Y-113406084D01*
G37*
G36*
X93873513Y-86444208D02*
G01*
X94112293Y-86521793D01*
X94335998Y-86635776D01*
X94539117Y-86783350D01*
X94716650Y-86960883D01*
X94864224Y-87164002D01*
X94978207Y-87387707D01*
X95055792Y-87626487D01*
X95095068Y-87874465D01*
X95095068Y-88125535D01*
X95055792Y-88373513D01*
X94978207Y-88612293D01*
X94864224Y-88835998D01*
X94716650Y-89039117D01*
X94539117Y-89216650D01*
X94335998Y-89364224D01*
X94112293Y-89478207D01*
X93873513Y-89555792D01*
X93625535Y-89595068D01*
X93374465Y-89595068D01*
X93126487Y-89555792D01*
X92887707Y-89478207D01*
X92664002Y-89364224D01*
X92460883Y-89216650D01*
X92283350Y-89039117D01*
X92135776Y-88835998D01*
X92021793Y-88612293D01*
X91944208Y-88373513D01*
X91904932Y-88125535D01*
X91904932Y-87874465D01*
X91944208Y-87626487D01*
X92021793Y-87387707D01*
X92135776Y-87164002D01*
X92283350Y-86960883D01*
X92460883Y-86783350D01*
X92664002Y-86635776D01*
X92887707Y-86521793D01*
X93126487Y-86444208D01*
X93374465Y-86404932D01*
X93625535Y-86404932D01*
X93873513Y-86444208D01*
G37*
G36*
X160373513Y-86444208D02*
G01*
X160612293Y-86521793D01*
X160835998Y-86635776D01*
X161039117Y-86783350D01*
X161216650Y-86960883D01*
X161364224Y-87164002D01*
X161478207Y-87387707D01*
X161555792Y-87626487D01*
X161595068Y-87874465D01*
X161595068Y-88125535D01*
X161555792Y-88373513D01*
X161478207Y-88612293D01*
X161364224Y-88835998D01*
X161216650Y-89039117D01*
X161039117Y-89216650D01*
X160835998Y-89364224D01*
X160612293Y-89478207D01*
X160373513Y-89555792D01*
X160125535Y-89595068D01*
X159874465Y-89595068D01*
X159626487Y-89555792D01*
X159387707Y-89478207D01*
X159164002Y-89364224D01*
X158960883Y-89216650D01*
X158783350Y-89039117D01*
X158635776Y-88835998D01*
X158521793Y-88612293D01*
X158444208Y-88373513D01*
X158404932Y-88125535D01*
X158404932Y-87874465D01*
X158444208Y-87626487D01*
X158521793Y-87387707D01*
X158635776Y-87164002D01*
X158783350Y-86960883D01*
X158960883Y-86783350D01*
X159164002Y-86635776D01*
X159387707Y-86521793D01*
X159626487Y-86444208D01*
X159874465Y-86404932D01*
X160125535Y-86404932D01*
X160373513Y-86444208D01*
G37*
G36*
X106250000Y-82750000D02*
G01*
X104750000Y-82750000D01*
X104750000Y-81250000D01*
X106250000Y-81250000D01*
X106250000Y-82750000D01*
G37*
G36*
X103217714Y-81282295D02*
G01*
X103353548Y-81338559D01*
X103475795Y-81420242D01*
X103579758Y-81524205D01*
X103661441Y-81646452D01*
X103717705Y-81782286D01*
X103746389Y-81926487D01*
X103746389Y-82073513D01*
X103717705Y-82217714D01*
X103661441Y-82353548D01*
X103579758Y-82475795D01*
X103475795Y-82579758D01*
X103353548Y-82661441D01*
X103217714Y-82717705D01*
X103073513Y-82746389D01*
X102926487Y-82746389D01*
X102782286Y-82717705D01*
X102646452Y-82661441D01*
X102524205Y-82579758D01*
X102420242Y-82475795D01*
X102338559Y-82353548D01*
X102282295Y-82217714D01*
X102253611Y-82073513D01*
X102253611Y-81926487D01*
X102282295Y-81782286D01*
X102338559Y-81646452D01*
X102420242Y-81524205D01*
X102524205Y-81420242D01*
X102646452Y-81338559D01*
X102782286Y-81282295D01*
X102926487Y-81253611D01*
X103073513Y-81253611D01*
X103217714Y-81282295D01*
G37*
G36*
X119188685Y-76877989D02*
G01*
X119306408Y-76926751D01*
X119412356Y-76997543D01*
X119502457Y-77087644D01*
X119573249Y-77193592D01*
X119622011Y-77311315D01*
X119646870Y-77436289D01*
X119646870Y-77563711D01*
X119622011Y-77688685D01*
X119573249Y-77806408D01*
X119502457Y-77912356D01*
X119412356Y-78002457D01*
X119306408Y-78073249D01*
X119188685Y-78122011D01*
X119063711Y-78146870D01*
X118936289Y-78146870D01*
X118811315Y-78122011D01*
X118693592Y-78073249D01*
X118587644Y-78002457D01*
X118497543Y-77912356D01*
X118426751Y-77806408D01*
X118377989Y-77688685D01*
X118353130Y-77563711D01*
X118353130Y-77436289D01*
X118377989Y-77311315D01*
X118426751Y-77193592D01*
X118497543Y-77087644D01*
X118587644Y-76997543D01*
X118693592Y-76926751D01*
X118811315Y-76877989D01*
X118936289Y-76853130D01*
X119063711Y-76853130D01*
X119188685Y-76877989D01*
G37*
G36*
X119650000Y-73270000D02*
G01*
X118350000Y-73270000D01*
X118350000Y-71970000D01*
X119650000Y-71970000D01*
X119650000Y-73270000D01*
G37*
G36*
X176325000Y-69825000D02*
G01*
X174675000Y-69825000D01*
X174675000Y-68175000D01*
X176325000Y-68175000D01*
X176325000Y-69825000D01*
G37*
G36*
X173199485Y-68210524D02*
G01*
X173348902Y-68272415D01*
X173483374Y-68362266D01*
X173597734Y-68476626D01*
X173687585Y-68611098D01*
X173749476Y-68760515D01*
X173781027Y-68919136D01*
X173781027Y-69080864D01*
X173749476Y-69239485D01*
X173687585Y-69388902D01*
X173597734Y-69523374D01*
X173483374Y-69637734D01*
X173348902Y-69727585D01*
X173199485Y-69789476D01*
X173040864Y-69821027D01*
X172879136Y-69821027D01*
X172720515Y-69789476D01*
X172571098Y-69727585D01*
X172436626Y-69637734D01*
X172322266Y-69523374D01*
X172232415Y-69388902D01*
X172170524Y-69239485D01*
X172138973Y-69080864D01*
X172138973Y-68919136D01*
X172170524Y-68760515D01*
X172232415Y-68611098D01*
X172322266Y-68476626D01*
X172436626Y-68362266D01*
X172571098Y-68272415D01*
X172720515Y-68210524D01*
X172879136Y-68178973D01*
X173040864Y-68178973D01*
X173199485Y-68210524D01*
G37*
G36*
X173199485Y-65670524D02*
G01*
X173348902Y-65732415D01*
X173483374Y-65822266D01*
X173597734Y-65936626D01*
X173687585Y-66071098D01*
X173749476Y-66220515D01*
X173781027Y-66379136D01*
X173781027Y-66540864D01*
X173749476Y-66699485D01*
X173687585Y-66848902D01*
X173597734Y-66983374D01*
X173483374Y-67097734D01*
X173348902Y-67187585D01*
X173199485Y-67249476D01*
X173040864Y-67281027D01*
X172879136Y-67281027D01*
X172720515Y-67249476D01*
X172571098Y-67187585D01*
X172436626Y-67097734D01*
X172322266Y-66983374D01*
X172232415Y-66848902D01*
X172170524Y-66699485D01*
X172138973Y-66540864D01*
X172138973Y-66379136D01*
X172170524Y-66220515D01*
X172232415Y-66071098D01*
X172322266Y-65936626D01*
X172436626Y-65822266D01*
X172571098Y-65732415D01*
X172720515Y-65670524D01*
X172879136Y-65638973D01*
X173040864Y-65638973D01*
X173199485Y-65670524D01*
G37*
G36*
X175739485Y-65670524D02*
G01*
X175888902Y-65732415D01*
X176023374Y-65822266D01*
X176137734Y-65936626D01*
X176227585Y-66071098D01*
X176289476Y-66220515D01*
X176321027Y-66379136D01*
X176321027Y-66540864D01*
X176289476Y-66699485D01*
X176227585Y-66848902D01*
X176137734Y-66983374D01*
X176023374Y-67097734D01*
X175888902Y-67187585D01*
X175739485Y-67249476D01*
X175580864Y-67281027D01*
X175419136Y-67281027D01*
X175260515Y-67249476D01*
X175111098Y-67187585D01*
X174976626Y-67097734D01*
X174862266Y-66983374D01*
X174772415Y-66848902D01*
X174710524Y-66699485D01*
X174678973Y-66540864D01*
X174678973Y-66379136D01*
X174710524Y-66220515D01*
X174772415Y-66071098D01*
X174862266Y-65936626D01*
X174976626Y-65822266D01*
X175111098Y-65732415D01*
X175260515Y-65670524D01*
X175419136Y-65638973D01*
X175580864Y-65638973D01*
X175739485Y-65670524D01*
G37*
G36*
X173199485Y-63130524D02*
G01*
X173348902Y-63192415D01*
X173483374Y-63282266D01*
X173597734Y-63396626D01*
X173687585Y-63531098D01*
X173749476Y-63680515D01*
X173781027Y-63839136D01*
X173781027Y-64000864D01*
X173749476Y-64159485D01*
X173687585Y-64308902D01*
X173597734Y-64443374D01*
X173483374Y-64557734D01*
X173348902Y-64647585D01*
X173199485Y-64709476D01*
X173040864Y-64741027D01*
X172879136Y-64741027D01*
X172720515Y-64709476D01*
X172571098Y-64647585D01*
X172436626Y-64557734D01*
X172322266Y-64443374D01*
X172232415Y-64308902D01*
X172170524Y-64159485D01*
X172138973Y-64000864D01*
X172138973Y-63839136D01*
X172170524Y-63680515D01*
X172232415Y-63531098D01*
X172322266Y-63396626D01*
X172436626Y-63282266D01*
X172571098Y-63192415D01*
X172720515Y-63130524D01*
X172879136Y-63098973D01*
X173040864Y-63098973D01*
X173199485Y-63130524D01*
G37*
G36*
X175739485Y-63130524D02*
G01*
X175888902Y-63192415D01*
X176023374Y-63282266D01*
X176137734Y-63396626D01*
X176227585Y-63531098D01*
X176289476Y-63680515D01*
X176321027Y-63839136D01*
X176321027Y-64000864D01*
X176289476Y-64159485D01*
X176227585Y-64308902D01*
X176137734Y-64443374D01*
X176023374Y-64557734D01*
X175888902Y-64647585D01*
X175739485Y-64709476D01*
X175580864Y-64741027D01*
X175419136Y-64741027D01*
X175260515Y-64709476D01*
X175111098Y-64647585D01*
X174976626Y-64557734D01*
X174862266Y-64443374D01*
X174772415Y-64308902D01*
X174710524Y-64159485D01*
X174678973Y-64000864D01*
X174678973Y-63839136D01*
X174710524Y-63680515D01*
X174772415Y-63531098D01*
X174862266Y-63396626D01*
X174976626Y-63282266D01*
X175111098Y-63192415D01*
X175260515Y-63130524D01*
X175419136Y-63098973D01*
X175580864Y-63098973D01*
X175739485Y-63130524D01*
G37*
G36*
X173199485Y-60590524D02*
G01*
X173348902Y-60652415D01*
X173483374Y-60742266D01*
X173597734Y-60856626D01*
X173687585Y-60991098D01*
X173749476Y-61140515D01*
X173781027Y-61299136D01*
X173781027Y-61460864D01*
X173749476Y-61619485D01*
X173687585Y-61768902D01*
X173597734Y-61903374D01*
X173483374Y-62017734D01*
X173348902Y-62107585D01*
X173199485Y-62169476D01*
X173040864Y-62201027D01*
X172879136Y-62201027D01*
X172720515Y-62169476D01*
X172571098Y-62107585D01*
X172436626Y-62017734D01*
X172322266Y-61903374D01*
X172232415Y-61768902D01*
X172170524Y-61619485D01*
X172138973Y-61460864D01*
X172138973Y-61299136D01*
X172170524Y-61140515D01*
X172232415Y-60991098D01*
X172322266Y-60856626D01*
X172436626Y-60742266D01*
X172571098Y-60652415D01*
X172720515Y-60590524D01*
X172879136Y-60558973D01*
X173040864Y-60558973D01*
X173199485Y-60590524D01*
G37*
G36*
X175739485Y-60590524D02*
G01*
X175888902Y-60652415D01*
X176023374Y-60742266D01*
X176137734Y-60856626D01*
X176227585Y-60991098D01*
X176289476Y-61140515D01*
X176321027Y-61299136D01*
X176321027Y-61460864D01*
X176289476Y-61619485D01*
X176227585Y-61768902D01*
X176137734Y-61903374D01*
X176023374Y-62017734D01*
X175888902Y-62107585D01*
X175739485Y-62169476D01*
X175580864Y-62201027D01*
X175419136Y-62201027D01*
X175260515Y-62169476D01*
X175111098Y-62107585D01*
X174976626Y-62017734D01*
X174862266Y-61903374D01*
X174772415Y-61768902D01*
X174710524Y-61619485D01*
X174678973Y-61460864D01*
X174678973Y-61299136D01*
X174710524Y-61140515D01*
X174772415Y-60991098D01*
X174862266Y-60856626D01*
X174976626Y-60742266D01*
X175111098Y-60652415D01*
X175260515Y-60590524D01*
X175419136Y-60558973D01*
X175580864Y-60558973D01*
X175739485Y-60590524D01*
G37*
G36*
X173199485Y-58050524D02*
G01*
X173348902Y-58112415D01*
X173483374Y-58202266D01*
X173597734Y-58316626D01*
X173687585Y-58451098D01*
X173749476Y-58600515D01*
X173781027Y-58759136D01*
X173781027Y-58920864D01*
X173749476Y-59079485D01*
X173687585Y-59228902D01*
X173597734Y-59363374D01*
X173483374Y-59477734D01*
X173348902Y-59567585D01*
X173199485Y-59629476D01*
X173040864Y-59661027D01*
X172879136Y-59661027D01*
X172720515Y-59629476D01*
X172571098Y-59567585D01*
X172436626Y-59477734D01*
X172322266Y-59363374D01*
X172232415Y-59228902D01*
X172170524Y-59079485D01*
X172138973Y-58920864D01*
X172138973Y-58759136D01*
X172170524Y-58600515D01*
X172232415Y-58451098D01*
X172322266Y-58316626D01*
X172436626Y-58202266D01*
X172571098Y-58112415D01*
X172720515Y-58050524D01*
X172879136Y-58018973D01*
X173040864Y-58018973D01*
X173199485Y-58050524D01*
G37*
G36*
X175739485Y-58050524D02*
G01*
X175888902Y-58112415D01*
X176023374Y-58202266D01*
X176137734Y-58316626D01*
X176227585Y-58451098D01*
X176289476Y-58600515D01*
X176321027Y-58759136D01*
X176321027Y-58920864D01*
X176289476Y-59079485D01*
X176227585Y-59228902D01*
X176137734Y-59363374D01*
X176023374Y-59477734D01*
X175888902Y-59567585D01*
X175739485Y-59629476D01*
X175580864Y-59661027D01*
X175419136Y-59661027D01*
X175260515Y-59629476D01*
X175111098Y-59567585D01*
X174976626Y-59477734D01*
X174862266Y-59363374D01*
X174772415Y-59228902D01*
X174710524Y-59079485D01*
X174678973Y-58920864D01*
X174678973Y-58759136D01*
X174710524Y-58600515D01*
X174772415Y-58451098D01*
X174862266Y-58316626D01*
X174976626Y-58202266D01*
X175111098Y-58112415D01*
X175260515Y-58050524D01*
X175419136Y-58018973D01*
X175580864Y-58018973D01*
X175739485Y-58050524D01*
G37*
G36*
X173199485Y-55510524D02*
G01*
X173348902Y-55572415D01*
X173483374Y-55662266D01*
X173597734Y-55776626D01*
X173687585Y-55911098D01*
X173749476Y-56060515D01*
X173781027Y-56219136D01*
X173781027Y-56380864D01*
X173749476Y-56539485D01*
X173687585Y-56688902D01*
X173597734Y-56823374D01*
X173483374Y-56937734D01*
X173348902Y-57027585D01*
X173199485Y-57089476D01*
X173040864Y-57121027D01*
X172879136Y-57121027D01*
X172720515Y-57089476D01*
X172571098Y-57027585D01*
X172436626Y-56937734D01*
X172322266Y-56823374D01*
X172232415Y-56688902D01*
X172170524Y-56539485D01*
X172138973Y-56380864D01*
X172138973Y-56219136D01*
X172170524Y-56060515D01*
X172232415Y-55911098D01*
X172322266Y-55776626D01*
X172436626Y-55662266D01*
X172571098Y-55572415D01*
X172720515Y-55510524D01*
X172879136Y-55478973D01*
X173040864Y-55478973D01*
X173199485Y-55510524D01*
G37*
G36*
X175739485Y-55510524D02*
G01*
X175888902Y-55572415D01*
X176023374Y-55662266D01*
X176137734Y-55776626D01*
X176227585Y-55911098D01*
X176289476Y-56060515D01*
X176321027Y-56219136D01*
X176321027Y-56380864D01*
X176289476Y-56539485D01*
X176227585Y-56688902D01*
X176137734Y-56823374D01*
X176023374Y-56937734D01*
X175888902Y-57027585D01*
X175739485Y-57089476D01*
X175580864Y-57121027D01*
X175419136Y-57121027D01*
X175260515Y-57089476D01*
X175111098Y-57027585D01*
X174976626Y-56937734D01*
X174862266Y-56823374D01*
X174772415Y-56688902D01*
X174710524Y-56539485D01*
X174678973Y-56380864D01*
X174678973Y-56219136D01*
X174710524Y-56060515D01*
X174772415Y-55911098D01*
X174862266Y-55776626D01*
X174976626Y-55662266D01*
X175111098Y-55572415D01*
X175260515Y-55510524D01*
X175419136Y-55478973D01*
X175580864Y-55478973D01*
X175739485Y-55510524D01*
G37*
G36*
X173199485Y-52970524D02*
G01*
X173348902Y-53032415D01*
X173483374Y-53122266D01*
X173597734Y-53236626D01*
X173687585Y-53371098D01*
X173749476Y-53520515D01*
X173781027Y-53679136D01*
X173781027Y-53840864D01*
X173749476Y-53999485D01*
X173687585Y-54148902D01*
X173597734Y-54283374D01*
X173483374Y-54397734D01*
X173348902Y-54487585D01*
X173199485Y-54549476D01*
X173040864Y-54581027D01*
X172879136Y-54581027D01*
X172720515Y-54549476D01*
X172571098Y-54487585D01*
X172436626Y-54397734D01*
X172322266Y-54283374D01*
X172232415Y-54148902D01*
X172170524Y-53999485D01*
X172138973Y-53840864D01*
X172138973Y-53679136D01*
X172170524Y-53520515D01*
X172232415Y-53371098D01*
X172322266Y-53236626D01*
X172436626Y-53122266D01*
X172571098Y-53032415D01*
X172720515Y-52970524D01*
X172879136Y-52938973D01*
X173040864Y-52938973D01*
X173199485Y-52970524D01*
G37*
G36*
X175739485Y-52970524D02*
G01*
X175888902Y-53032415D01*
X176023374Y-53122266D01*
X176137734Y-53236626D01*
X176227585Y-53371098D01*
X176289476Y-53520515D01*
X176321027Y-53679136D01*
X176321027Y-53840864D01*
X176289476Y-53999485D01*
X176227585Y-54148902D01*
X176137734Y-54283374D01*
X176023374Y-54397734D01*
X175888902Y-54487585D01*
X175739485Y-54549476D01*
X175580864Y-54581027D01*
X175419136Y-54581027D01*
X175260515Y-54549476D01*
X175111098Y-54487585D01*
X174976626Y-54397734D01*
X174862266Y-54283374D01*
X174772415Y-54148902D01*
X174710524Y-53999485D01*
X174678973Y-53840864D01*
X174678973Y-53679136D01*
X174710524Y-53520515D01*
X174772415Y-53371098D01*
X174862266Y-53236626D01*
X174976626Y-53122266D01*
X175111098Y-53032415D01*
X175260515Y-52970524D01*
X175419136Y-52938973D01*
X175580864Y-52938973D01*
X175739485Y-52970524D01*
G37*
G36*
X132873513Y-49944208D02*
G01*
X133112293Y-50021793D01*
X133335998Y-50135776D01*
X133539117Y-50283350D01*
X133716650Y-50460883D01*
X133864224Y-50664002D01*
X133978207Y-50887707D01*
X134055792Y-51126487D01*
X134095068Y-51374465D01*
X134095068Y-51625535D01*
X134055792Y-51873513D01*
X133978207Y-52112293D01*
X133864224Y-52335998D01*
X133716650Y-52539117D01*
X133539117Y-52716650D01*
X133335998Y-52864224D01*
X133112293Y-52978207D01*
X132873513Y-53055792D01*
X132625535Y-53095068D01*
X132374465Y-53095068D01*
X132126487Y-53055792D01*
X131887707Y-52978207D01*
X131664002Y-52864224D01*
X131460883Y-52716650D01*
X131283350Y-52539117D01*
X131135776Y-52335998D01*
X131021793Y-52112293D01*
X130944208Y-51873513D01*
X130904932Y-51625535D01*
X130904932Y-51374465D01*
X130944208Y-51126487D01*
X131021793Y-50887707D01*
X131135776Y-50664002D01*
X131283350Y-50460883D01*
X131460883Y-50283350D01*
X131664002Y-50135776D01*
X131887707Y-50021793D01*
X132126487Y-49944208D01*
X132374465Y-49904932D01*
X132625535Y-49904932D01*
X132873513Y-49944208D01*
G37*
G36*
X173199485Y-50430524D02*
G01*
X173348902Y-50492415D01*
X173483374Y-50582266D01*
X173597734Y-50696626D01*
X173687585Y-50831098D01*
X173749476Y-50980515D01*
X173781027Y-51139136D01*
X173781027Y-51300864D01*
X173749476Y-51459485D01*
X173687585Y-51608902D01*
X173597734Y-51743374D01*
X173483374Y-51857734D01*
X173348902Y-51947585D01*
X173199485Y-52009476D01*
X173040864Y-52041027D01*
X172879136Y-52041027D01*
X172720515Y-52009476D01*
X172571098Y-51947585D01*
X172436626Y-51857734D01*
X172322266Y-51743374D01*
X172232415Y-51608902D01*
X172170524Y-51459485D01*
X172138973Y-51300864D01*
X172138973Y-51139136D01*
X172170524Y-50980515D01*
X172232415Y-50831098D01*
X172322266Y-50696626D01*
X172436626Y-50582266D01*
X172571098Y-50492415D01*
X172720515Y-50430524D01*
X172879136Y-50398973D01*
X173040864Y-50398973D01*
X173199485Y-50430524D01*
G37*
G36*
X175739485Y-50430524D02*
G01*
X175888902Y-50492415D01*
X176023374Y-50582266D01*
X176137734Y-50696626D01*
X176227585Y-50831098D01*
X176289476Y-50980515D01*
X176321027Y-51139136D01*
X176321027Y-51300864D01*
X176289476Y-51459485D01*
X176227585Y-51608902D01*
X176137734Y-51743374D01*
X176023374Y-51857734D01*
X175888902Y-51947585D01*
X175739485Y-52009476D01*
X175580864Y-52041027D01*
X175419136Y-52041027D01*
X175260515Y-52009476D01*
X175111098Y-51947585D01*
X174976626Y-51857734D01*
X174862266Y-51743374D01*
X174772415Y-51608902D01*
X174710524Y-51459485D01*
X174678973Y-51300864D01*
X174678973Y-51139136D01*
X174710524Y-50980515D01*
X174772415Y-50831098D01*
X174862266Y-50696626D01*
X174976626Y-50582266D01*
X175111098Y-50492415D01*
X175260515Y-50430524D01*
X175419136Y-50398973D01*
X175580864Y-50398973D01*
X175739485Y-50430524D01*
G37*
G36*
X173199485Y-47890524D02*
G01*
X173348902Y-47952415D01*
X173483374Y-48042266D01*
X173597734Y-48156626D01*
X173687585Y-48291098D01*
X173749476Y-48440515D01*
X173781027Y-48599136D01*
X173781027Y-48760864D01*
X173749476Y-48919485D01*
X173687585Y-49068902D01*
X173597734Y-49203374D01*
X173483374Y-49317734D01*
X173348902Y-49407585D01*
X173199485Y-49469476D01*
X173040864Y-49501027D01*
X172879136Y-49501027D01*
X172720515Y-49469476D01*
X172571098Y-49407585D01*
X172436626Y-49317734D01*
X172322266Y-49203374D01*
X172232415Y-49068902D01*
X172170524Y-48919485D01*
X172138973Y-48760864D01*
X172138973Y-48599136D01*
X172170524Y-48440515D01*
X172232415Y-48291098D01*
X172322266Y-48156626D01*
X172436626Y-48042266D01*
X172571098Y-47952415D01*
X172720515Y-47890524D01*
X172879136Y-47858973D01*
X173040864Y-47858973D01*
X173199485Y-47890524D01*
G37*
G36*
X175739485Y-47890524D02*
G01*
X175888902Y-47952415D01*
X176023374Y-48042266D01*
X176137734Y-48156626D01*
X176227585Y-48291098D01*
X176289476Y-48440515D01*
X176321027Y-48599136D01*
X176321027Y-48760864D01*
X176289476Y-48919485D01*
X176227585Y-49068902D01*
X176137734Y-49203374D01*
X176023374Y-49317734D01*
X175888902Y-49407585D01*
X175739485Y-49469476D01*
X175580864Y-49501027D01*
X175419136Y-49501027D01*
X175260515Y-49469476D01*
X175111098Y-49407585D01*
X174976626Y-49317734D01*
X174862266Y-49203374D01*
X174772415Y-49068902D01*
X174710524Y-48919485D01*
X174678973Y-48760864D01*
X174678973Y-48599136D01*
X174710524Y-48440515D01*
X174772415Y-48291098D01*
X174862266Y-48156626D01*
X174976626Y-48042266D01*
X175111098Y-47952415D01*
X175260515Y-47890524D01*
X175419136Y-47858973D01*
X175580864Y-47858973D01*
X175739485Y-47890524D01*
G37*
G36*
X84383053Y-42713910D02*
G01*
X84645443Y-42773798D01*
X84899478Y-42862689D01*
X85141963Y-42979464D01*
X85369849Y-43122654D01*
X85580270Y-43290459D01*
X85770579Y-43480768D01*
X85938384Y-43691189D01*
X86081574Y-43919075D01*
X86198349Y-44161560D01*
X86287240Y-44415595D01*
X86347128Y-44677985D01*
X86377262Y-44945431D01*
X86377262Y-45214569D01*
X86347128Y-45482015D01*
X86287240Y-45744405D01*
X86198349Y-45998440D01*
X86081574Y-46240925D01*
X85938384Y-46468811D01*
X85770579Y-46679232D01*
X85580270Y-46869541D01*
X85369849Y-47037346D01*
X85141963Y-47180536D01*
X84899478Y-47297311D01*
X84645443Y-47386202D01*
X84383053Y-47446090D01*
X84115607Y-47476224D01*
X83846469Y-47476224D01*
X83579023Y-47446090D01*
X83316633Y-47386202D01*
X83062598Y-47297311D01*
X82820113Y-47180536D01*
X82592227Y-47037346D01*
X82381806Y-46869541D01*
X82191497Y-46679232D01*
X82023692Y-46468811D01*
X81880502Y-46240925D01*
X81763727Y-45998440D01*
X81674836Y-45744405D01*
X81614948Y-45482015D01*
X81584814Y-45214569D01*
X81584814Y-44945431D01*
X81614948Y-44677985D01*
X81674836Y-44415595D01*
X81763727Y-44161560D01*
X81880502Y-43919075D01*
X82023692Y-43691189D01*
X82191497Y-43480768D01*
X82381806Y-43290459D01*
X82592227Y-43122654D01*
X82820113Y-42979464D01*
X83062598Y-42862689D01*
X83316633Y-42773798D01*
X83579023Y-42713910D01*
X83846469Y-42683776D01*
X84115607Y-42683776D01*
X84383053Y-42713910D01*
G37*
G36*
X117683053Y-42713910D02*
G01*
X117945443Y-42773798D01*
X118199478Y-42862689D01*
X118441963Y-42979464D01*
X118669849Y-43122654D01*
X118880270Y-43290459D01*
X119070579Y-43480768D01*
X119238384Y-43691189D01*
X119381574Y-43919075D01*
X119498349Y-44161560D01*
X119587240Y-44415595D01*
X119647128Y-44677985D01*
X119677262Y-44945431D01*
X119677262Y-45214569D01*
X119647128Y-45482015D01*
X119587240Y-45744405D01*
X119498349Y-45998440D01*
X119381574Y-46240925D01*
X119238384Y-46468811D01*
X119070579Y-46679232D01*
X118880270Y-46869541D01*
X118669849Y-47037346D01*
X118441963Y-47180536D01*
X118199478Y-47297311D01*
X117945443Y-47386202D01*
X117683053Y-47446090D01*
X117415607Y-47476224D01*
X117146469Y-47476224D01*
X116879023Y-47446090D01*
X116616633Y-47386202D01*
X116362598Y-47297311D01*
X116120113Y-47180536D01*
X115892227Y-47037346D01*
X115681806Y-46869541D01*
X115491497Y-46679232D01*
X115323692Y-46468811D01*
X115180502Y-46240925D01*
X115063727Y-45998440D01*
X114974836Y-45744405D01*
X114914948Y-45482015D01*
X114884814Y-45214569D01*
X114884814Y-44945431D01*
X114914948Y-44677985D01*
X114974836Y-44415595D01*
X115063727Y-44161560D01*
X115180502Y-43919075D01*
X115323692Y-43691189D01*
X115491497Y-43480768D01*
X115681806Y-43290459D01*
X115892227Y-43122654D01*
X116120113Y-42979464D01*
X116362598Y-42862689D01*
X116616633Y-42773798D01*
X116879023Y-42713910D01*
X117146469Y-42683776D01*
X117415607Y-42683776D01*
X117683053Y-42713910D01*
G37*
G36*
X91786038Y-47350000D02*
G01*
X90086038Y-47350000D01*
X90086038Y-45650000D01*
X91786038Y-45650000D01*
X91786038Y-47350000D01*
G37*
G36*
X93952780Y-45686601D02*
G01*
X94106725Y-45750367D01*
X94245272Y-45842941D01*
X94363097Y-45960766D01*
X94455671Y-46099313D01*
X94519437Y-46253258D01*
X94551945Y-46416685D01*
X94551945Y-46583315D01*
X94519437Y-46746742D01*
X94455671Y-46900687D01*
X94363097Y-47039234D01*
X94245272Y-47157059D01*
X94106725Y-47249633D01*
X93952780Y-47313399D01*
X93789353Y-47345907D01*
X93622723Y-47345907D01*
X93459296Y-47313399D01*
X93305351Y-47249633D01*
X93166804Y-47157059D01*
X93048979Y-47039234D01*
X92956405Y-46900687D01*
X92892639Y-46746742D01*
X92860131Y-46583315D01*
X92860131Y-46416685D01*
X92892639Y-46253258D01*
X92956405Y-46099313D01*
X93048979Y-45960766D01*
X93166804Y-45842941D01*
X93305351Y-45750367D01*
X93459296Y-45686601D01*
X93622723Y-45654093D01*
X93789353Y-45654093D01*
X93952780Y-45686601D01*
G37*
G36*
X96722780Y-45686601D02*
G01*
X96876725Y-45750367D01*
X97015272Y-45842941D01*
X97133097Y-45960766D01*
X97225671Y-46099313D01*
X97289437Y-46253258D01*
X97321945Y-46416685D01*
X97321945Y-46583315D01*
X97289437Y-46746742D01*
X97225671Y-46900687D01*
X97133097Y-47039234D01*
X97015272Y-47157059D01*
X96876725Y-47249633D01*
X96722780Y-47313399D01*
X96559353Y-47345907D01*
X96392723Y-47345907D01*
X96229296Y-47313399D01*
X96075351Y-47249633D01*
X95936804Y-47157059D01*
X95818979Y-47039234D01*
X95726405Y-46900687D01*
X95662639Y-46746742D01*
X95630131Y-46583315D01*
X95630131Y-46416685D01*
X95662639Y-46253258D01*
X95726405Y-46099313D01*
X95818979Y-45960766D01*
X95936804Y-45842941D01*
X96075351Y-45750367D01*
X96229296Y-45686601D01*
X96392723Y-45654093D01*
X96559353Y-45654093D01*
X96722780Y-45686601D01*
G37*
G36*
X99492780Y-45686601D02*
G01*
X99646725Y-45750367D01*
X99785272Y-45842941D01*
X99903097Y-45960766D01*
X99995671Y-46099313D01*
X100059437Y-46253258D01*
X100091945Y-46416685D01*
X100091945Y-46583315D01*
X100059437Y-46746742D01*
X99995671Y-46900687D01*
X99903097Y-47039234D01*
X99785272Y-47157059D01*
X99646725Y-47249633D01*
X99492780Y-47313399D01*
X99329353Y-47345907D01*
X99162723Y-47345907D01*
X98999296Y-47313399D01*
X98845351Y-47249633D01*
X98706804Y-47157059D01*
X98588979Y-47039234D01*
X98496405Y-46900687D01*
X98432639Y-46746742D01*
X98400131Y-46583315D01*
X98400131Y-46416685D01*
X98432639Y-46253258D01*
X98496405Y-46099313D01*
X98588979Y-45960766D01*
X98706804Y-45842941D01*
X98845351Y-45750367D01*
X98999296Y-45686601D01*
X99162723Y-45654093D01*
X99329353Y-45654093D01*
X99492780Y-45686601D01*
G37*
G36*
X102262780Y-45686601D02*
G01*
X102416725Y-45750367D01*
X102555272Y-45842941D01*
X102673097Y-45960766D01*
X102765671Y-46099313D01*
X102829437Y-46253258D01*
X102861945Y-46416685D01*
X102861945Y-46583315D01*
X102829437Y-46746742D01*
X102765671Y-46900687D01*
X102673097Y-47039234D01*
X102555272Y-47157059D01*
X102416725Y-47249633D01*
X102262780Y-47313399D01*
X102099353Y-47345907D01*
X101932723Y-47345907D01*
X101769296Y-47313399D01*
X101615351Y-47249633D01*
X101476804Y-47157059D01*
X101358979Y-47039234D01*
X101266405Y-46900687D01*
X101202639Y-46746742D01*
X101170131Y-46583315D01*
X101170131Y-46416685D01*
X101202639Y-46253258D01*
X101266405Y-46099313D01*
X101358979Y-45960766D01*
X101476804Y-45842941D01*
X101615351Y-45750367D01*
X101769296Y-45686601D01*
X101932723Y-45654093D01*
X102099353Y-45654093D01*
X102262780Y-45686601D01*
G37*
G36*
X105032780Y-45686601D02*
G01*
X105186725Y-45750367D01*
X105325272Y-45842941D01*
X105443097Y-45960766D01*
X105535671Y-46099313D01*
X105599437Y-46253258D01*
X105631945Y-46416685D01*
X105631945Y-46583315D01*
X105599437Y-46746742D01*
X105535671Y-46900687D01*
X105443097Y-47039234D01*
X105325272Y-47157059D01*
X105186725Y-47249633D01*
X105032780Y-47313399D01*
X104869353Y-47345907D01*
X104702723Y-47345907D01*
X104539296Y-47313399D01*
X104385351Y-47249633D01*
X104246804Y-47157059D01*
X104128979Y-47039234D01*
X104036405Y-46900687D01*
X103972639Y-46746742D01*
X103940131Y-46583315D01*
X103940131Y-46416685D01*
X103972639Y-46253258D01*
X104036405Y-46099313D01*
X104128979Y-45960766D01*
X104246804Y-45842941D01*
X104385351Y-45750367D01*
X104539296Y-45686601D01*
X104702723Y-45654093D01*
X104869353Y-45654093D01*
X105032780Y-45686601D01*
G37*
G36*
X107802780Y-45686601D02*
G01*
X107956725Y-45750367D01*
X108095272Y-45842941D01*
X108213097Y-45960766D01*
X108305671Y-46099313D01*
X108369437Y-46253258D01*
X108401945Y-46416685D01*
X108401945Y-46583315D01*
X108369437Y-46746742D01*
X108305671Y-46900687D01*
X108213097Y-47039234D01*
X108095272Y-47157059D01*
X107956725Y-47249633D01*
X107802780Y-47313399D01*
X107639353Y-47345907D01*
X107472723Y-47345907D01*
X107309296Y-47313399D01*
X107155351Y-47249633D01*
X107016804Y-47157059D01*
X106898979Y-47039234D01*
X106806405Y-46900687D01*
X106742639Y-46746742D01*
X106710131Y-46583315D01*
X106710131Y-46416685D01*
X106742639Y-46253258D01*
X106806405Y-46099313D01*
X106898979Y-45960766D01*
X107016804Y-45842941D01*
X107155351Y-45750367D01*
X107309296Y-45686601D01*
X107472723Y-45654093D01*
X107639353Y-45654093D01*
X107802780Y-45686601D01*
G37*
G36*
X110572780Y-45686601D02*
G01*
X110726725Y-45750367D01*
X110865272Y-45842941D01*
X110983097Y-45960766D01*
X111075671Y-46099313D01*
X111139437Y-46253258D01*
X111171945Y-46416685D01*
X111171945Y-46583315D01*
X111139437Y-46746742D01*
X111075671Y-46900687D01*
X110983097Y-47039234D01*
X110865272Y-47157059D01*
X110726725Y-47249633D01*
X110572780Y-47313399D01*
X110409353Y-47345907D01*
X110242723Y-47345907D01*
X110079296Y-47313399D01*
X109925351Y-47249633D01*
X109786804Y-47157059D01*
X109668979Y-47039234D01*
X109576405Y-46900687D01*
X109512639Y-46746742D01*
X109480131Y-46583315D01*
X109480131Y-46416685D01*
X109512639Y-46253258D01*
X109576405Y-46099313D01*
X109668979Y-45960766D01*
X109786804Y-45842941D01*
X109925351Y-45750367D01*
X110079296Y-45686601D01*
X110242723Y-45654093D01*
X110409353Y-45654093D01*
X110572780Y-45686601D01*
G37*
G36*
X173199485Y-45350524D02*
G01*
X173348902Y-45412415D01*
X173483374Y-45502266D01*
X173597734Y-45616626D01*
X173687585Y-45751098D01*
X173749476Y-45900515D01*
X173781027Y-46059136D01*
X173781027Y-46220864D01*
X173749476Y-46379485D01*
X173687585Y-46528902D01*
X173597734Y-46663374D01*
X173483374Y-46777734D01*
X173348902Y-46867585D01*
X173199485Y-46929476D01*
X173040864Y-46961027D01*
X172879136Y-46961027D01*
X172720515Y-46929476D01*
X172571098Y-46867585D01*
X172436626Y-46777734D01*
X172322266Y-46663374D01*
X172232415Y-46528902D01*
X172170524Y-46379485D01*
X172138973Y-46220864D01*
X172138973Y-46059136D01*
X172170524Y-45900515D01*
X172232415Y-45751098D01*
X172322266Y-45616626D01*
X172436626Y-45502266D01*
X172571098Y-45412415D01*
X172720515Y-45350524D01*
X172879136Y-45318973D01*
X173040864Y-45318973D01*
X173199485Y-45350524D01*
G37*
G36*
X175739485Y-45350524D02*
G01*
X175888902Y-45412415D01*
X176023374Y-45502266D01*
X176137734Y-45616626D01*
X176227585Y-45751098D01*
X176289476Y-45900515D01*
X176321027Y-46059136D01*
X176321027Y-46220864D01*
X176289476Y-46379485D01*
X176227585Y-46528902D01*
X176137734Y-46663374D01*
X176023374Y-46777734D01*
X175888902Y-46867585D01*
X175739485Y-46929476D01*
X175580864Y-46961027D01*
X175419136Y-46961027D01*
X175260515Y-46929476D01*
X175111098Y-46867585D01*
X174976626Y-46777734D01*
X174862266Y-46663374D01*
X174772415Y-46528902D01*
X174710524Y-46379485D01*
X174678973Y-46220864D01*
X174678973Y-46059136D01*
X174710524Y-45900515D01*
X174772415Y-45751098D01*
X174862266Y-45616626D01*
X174976626Y-45502266D01*
X175111098Y-45412415D01*
X175260515Y-45350524D01*
X175419136Y-45318973D01*
X175580864Y-45318973D01*
X175739485Y-45350524D01*
G37*
G36*
X92567780Y-42846601D02*
G01*
X92721725Y-42910367D01*
X92860272Y-43002941D01*
X92978097Y-43120766D01*
X93070671Y-43259313D01*
X93134437Y-43413258D01*
X93166945Y-43576685D01*
X93166945Y-43743315D01*
X93134437Y-43906742D01*
X93070671Y-44060687D01*
X92978097Y-44199234D01*
X92860272Y-44317059D01*
X92721725Y-44409633D01*
X92567780Y-44473399D01*
X92404353Y-44505907D01*
X92237723Y-44505907D01*
X92074296Y-44473399D01*
X91920351Y-44409633D01*
X91781804Y-44317059D01*
X91663979Y-44199234D01*
X91571405Y-44060687D01*
X91507639Y-43906742D01*
X91475131Y-43743315D01*
X91475131Y-43576685D01*
X91507639Y-43413258D01*
X91571405Y-43259313D01*
X91663979Y-43120766D01*
X91781804Y-43002941D01*
X91920351Y-42910367D01*
X92074296Y-42846601D01*
X92237723Y-42814093D01*
X92404353Y-42814093D01*
X92567780Y-42846601D01*
G37*
G36*
X95337780Y-42846601D02*
G01*
X95491725Y-42910367D01*
X95630272Y-43002941D01*
X95748097Y-43120766D01*
X95840671Y-43259313D01*
X95904437Y-43413258D01*
X95936945Y-43576685D01*
X95936945Y-43743315D01*
X95904437Y-43906742D01*
X95840671Y-44060687D01*
X95748097Y-44199234D01*
X95630272Y-44317059D01*
X95491725Y-44409633D01*
X95337780Y-44473399D01*
X95174353Y-44505907D01*
X95007723Y-44505907D01*
X94844296Y-44473399D01*
X94690351Y-44409633D01*
X94551804Y-44317059D01*
X94433979Y-44199234D01*
X94341405Y-44060687D01*
X94277639Y-43906742D01*
X94245131Y-43743315D01*
X94245131Y-43576685D01*
X94277639Y-43413258D01*
X94341405Y-43259313D01*
X94433979Y-43120766D01*
X94551804Y-43002941D01*
X94690351Y-42910367D01*
X94844296Y-42846601D01*
X95007723Y-42814093D01*
X95174353Y-42814093D01*
X95337780Y-42846601D01*
G37*
G36*
X98107780Y-42846601D02*
G01*
X98261725Y-42910367D01*
X98400272Y-43002941D01*
X98518097Y-43120766D01*
X98610671Y-43259313D01*
X98674437Y-43413258D01*
X98706945Y-43576685D01*
X98706945Y-43743315D01*
X98674437Y-43906742D01*
X98610671Y-44060687D01*
X98518097Y-44199234D01*
X98400272Y-44317059D01*
X98261725Y-44409633D01*
X98107780Y-44473399D01*
X97944353Y-44505907D01*
X97777723Y-44505907D01*
X97614296Y-44473399D01*
X97460351Y-44409633D01*
X97321804Y-44317059D01*
X97203979Y-44199234D01*
X97111405Y-44060687D01*
X97047639Y-43906742D01*
X97015131Y-43743315D01*
X97015131Y-43576685D01*
X97047639Y-43413258D01*
X97111405Y-43259313D01*
X97203979Y-43120766D01*
X97321804Y-43002941D01*
X97460351Y-42910367D01*
X97614296Y-42846601D01*
X97777723Y-42814093D01*
X97944353Y-42814093D01*
X98107780Y-42846601D01*
G37*
G36*
X100877780Y-42846601D02*
G01*
X101031725Y-42910367D01*
X101170272Y-43002941D01*
X101288097Y-43120766D01*
X101380671Y-43259313D01*
X101444437Y-43413258D01*
X101476945Y-43576685D01*
X101476945Y-43743315D01*
X101444437Y-43906742D01*
X101380671Y-44060687D01*
X101288097Y-44199234D01*
X101170272Y-44317059D01*
X101031725Y-44409633D01*
X100877780Y-44473399D01*
X100714353Y-44505907D01*
X100547723Y-44505907D01*
X100384296Y-44473399D01*
X100230351Y-44409633D01*
X100091804Y-44317059D01*
X99973979Y-44199234D01*
X99881405Y-44060687D01*
X99817639Y-43906742D01*
X99785131Y-43743315D01*
X99785131Y-43576685D01*
X99817639Y-43413258D01*
X99881405Y-43259313D01*
X99973979Y-43120766D01*
X100091804Y-43002941D01*
X100230351Y-42910367D01*
X100384296Y-42846601D01*
X100547723Y-42814093D01*
X100714353Y-42814093D01*
X100877780Y-42846601D01*
G37*
G36*
X103647780Y-42846601D02*
G01*
X103801725Y-42910367D01*
X103940272Y-43002941D01*
X104058097Y-43120766D01*
X104150671Y-43259313D01*
X104214437Y-43413258D01*
X104246945Y-43576685D01*
X104246945Y-43743315D01*
X104214437Y-43906742D01*
X104150671Y-44060687D01*
X104058097Y-44199234D01*
X103940272Y-44317059D01*
X103801725Y-44409633D01*
X103647780Y-44473399D01*
X103484353Y-44505907D01*
X103317723Y-44505907D01*
X103154296Y-44473399D01*
X103000351Y-44409633D01*
X102861804Y-44317059D01*
X102743979Y-44199234D01*
X102651405Y-44060687D01*
X102587639Y-43906742D01*
X102555131Y-43743315D01*
X102555131Y-43576685D01*
X102587639Y-43413258D01*
X102651405Y-43259313D01*
X102743979Y-43120766D01*
X102861804Y-43002941D01*
X103000351Y-42910367D01*
X103154296Y-42846601D01*
X103317723Y-42814093D01*
X103484353Y-42814093D01*
X103647780Y-42846601D01*
G37*
G36*
X106417780Y-42846601D02*
G01*
X106571725Y-42910367D01*
X106710272Y-43002941D01*
X106828097Y-43120766D01*
X106920671Y-43259313D01*
X106984437Y-43413258D01*
X107016945Y-43576685D01*
X107016945Y-43743315D01*
X106984437Y-43906742D01*
X106920671Y-44060687D01*
X106828097Y-44199234D01*
X106710272Y-44317059D01*
X106571725Y-44409633D01*
X106417780Y-44473399D01*
X106254353Y-44505907D01*
X106087723Y-44505907D01*
X105924296Y-44473399D01*
X105770351Y-44409633D01*
X105631804Y-44317059D01*
X105513979Y-44199234D01*
X105421405Y-44060687D01*
X105357639Y-43906742D01*
X105325131Y-43743315D01*
X105325131Y-43576685D01*
X105357639Y-43413258D01*
X105421405Y-43259313D01*
X105513979Y-43120766D01*
X105631804Y-43002941D01*
X105770351Y-42910367D01*
X105924296Y-42846601D01*
X106087723Y-42814093D01*
X106254353Y-42814093D01*
X106417780Y-42846601D01*
G37*
G36*
X109187780Y-42846601D02*
G01*
X109341725Y-42910367D01*
X109480272Y-43002941D01*
X109598097Y-43120766D01*
X109690671Y-43259313D01*
X109754437Y-43413258D01*
X109786945Y-43576685D01*
X109786945Y-43743315D01*
X109754437Y-43906742D01*
X109690671Y-44060687D01*
X109598097Y-44199234D01*
X109480272Y-44317059D01*
X109341725Y-44409633D01*
X109187780Y-44473399D01*
X109024353Y-44505907D01*
X108857723Y-44505907D01*
X108694296Y-44473399D01*
X108540351Y-44409633D01*
X108401804Y-44317059D01*
X108283979Y-44199234D01*
X108191405Y-44060687D01*
X108127639Y-43906742D01*
X108095131Y-43743315D01*
X108095131Y-43576685D01*
X108127639Y-43413258D01*
X108191405Y-43259313D01*
X108283979Y-43120766D01*
X108401804Y-43002941D01*
X108540351Y-42910367D01*
X108694296Y-42846601D01*
X108857723Y-42814093D01*
X109024353Y-42814093D01*
X109187780Y-42846601D01*
G37*
G36*
X144680000Y-39800000D02*
G01*
X143080000Y-39800000D01*
X143080000Y-38200000D01*
X144680000Y-38200000D01*
X144680000Y-39800000D01*
G37*
G36*
X146652228Y-38234448D02*
G01*
X146797117Y-38294463D01*
X146927515Y-38381592D01*
X147038408Y-38492485D01*
X147125537Y-38622883D01*
X147185552Y-38767772D01*
X147216148Y-38921586D01*
X147216148Y-39078414D01*
X147185552Y-39232228D01*
X147125537Y-39377117D01*
X147038408Y-39507515D01*
X146927515Y-39618408D01*
X146797117Y-39705537D01*
X146652228Y-39765552D01*
X146498414Y-39796148D01*
X146341586Y-39796148D01*
X146187772Y-39765552D01*
X146042883Y-39705537D01*
X145912485Y-39618408D01*
X145801592Y-39507515D01*
X145714463Y-39377117D01*
X145654448Y-39232228D01*
X145623852Y-39078414D01*
X145623852Y-38921586D01*
X145654448Y-38767772D01*
X145714463Y-38622883D01*
X145801592Y-38492485D01*
X145912485Y-38381592D01*
X146042883Y-38294463D01*
X146187772Y-38234448D01*
X146341586Y-38203852D01*
X146498414Y-38203852D01*
X146652228Y-38234448D01*
G37*
G36*
X149192228Y-38234448D02*
G01*
X149337117Y-38294463D01*
X149467515Y-38381592D01*
X149578408Y-38492485D01*
X149665537Y-38622883D01*
X149725552Y-38767772D01*
X149756148Y-38921586D01*
X149756148Y-39078414D01*
X149725552Y-39232228D01*
X149665537Y-39377117D01*
X149578408Y-39507515D01*
X149467515Y-39618408D01*
X149337117Y-39705537D01*
X149192228Y-39765552D01*
X149038414Y-39796148D01*
X148881586Y-39796148D01*
X148727772Y-39765552D01*
X148582883Y-39705537D01*
X148452485Y-39618408D01*
X148341592Y-39507515D01*
X148254463Y-39377117D01*
X148194448Y-39232228D01*
X148163852Y-39078414D01*
X148163852Y-38921586D01*
X148194448Y-38767772D01*
X148254463Y-38622883D01*
X148341592Y-38492485D01*
X148452485Y-38381592D01*
X148582883Y-38294463D01*
X148727772Y-38234448D01*
X148881586Y-38203852D01*
X149038414Y-38203852D01*
X149192228Y-38234448D01*
G37*
G36*
X151732228Y-38234448D02*
G01*
X151877117Y-38294463D01*
X152007515Y-38381592D01*
X152118408Y-38492485D01*
X152205537Y-38622883D01*
X152265552Y-38767772D01*
X152296148Y-38921586D01*
X152296148Y-39078414D01*
X152265552Y-39232228D01*
X152205537Y-39377117D01*
X152118408Y-39507515D01*
X152007515Y-39618408D01*
X151877117Y-39705537D01*
X151732228Y-39765552D01*
X151578414Y-39796148D01*
X151421586Y-39796148D01*
X151267772Y-39765552D01*
X151122883Y-39705537D01*
X150992485Y-39618408D01*
X150881592Y-39507515D01*
X150794463Y-39377117D01*
X150734448Y-39232228D01*
X150703852Y-39078414D01*
X150703852Y-38921586D01*
X150734448Y-38767772D01*
X150794463Y-38622883D01*
X150881592Y-38492485D01*
X150992485Y-38381592D01*
X151122883Y-38294463D01*
X151267772Y-38234448D01*
X151421586Y-38203852D01*
X151578414Y-38203852D01*
X151732228Y-38234448D01*
G37*
M02*
