%TF.GenerationSoftware,KiCad,Pcbnew,10.0.4*%
%TF.CreationDate,2026-07-17T14:18:18+02:00*%
%TF.ProjectId,KommModul_Joystick,4b6f6d6d-4d6f-4647-956c-5f4a6f797374,rev?*%
%TF.SameCoordinates,Original*%
%TF.FileFunction,Soldermask,Top*%
%TF.FilePolarity,Negative*%
%FSLAX46Y46*%
G04 Gerber Fmt 4.6, Leading zero omitted, Abs format (unit mm)*
G04 Created by KiCad (PCBNEW 10.0.4) date 2026-07-17 14:18:18*
%MOMM*%
%LPD*%
G01*
G04 APERTURE LIST*
G04 APERTURE END LIST*
G36*
X113800000Y-133350000D02*
G01*
X112200000Y-133350000D01*
X112200000Y-132450000D01*
X113800000Y-132450000D01*
X113800000Y-133350000D01*
G37*
G36*
X148300000Y-133350000D02*
G01*
X146700000Y-133350000D01*
X146700000Y-132450000D01*
X148300000Y-132450000D01*
X148300000Y-133350000D01*
G37*
G36*
X113800000Y-130450000D02*
G01*
X112200000Y-130450000D01*
X112200000Y-129550000D01*
X113800000Y-129550000D01*
X113800000Y-130450000D01*
G37*
G36*
X148300000Y-130450000D02*
G01*
X146700000Y-130450000D01*
X146700000Y-129550000D01*
X148300000Y-129550000D01*
X148300000Y-130450000D01*
G37*
G36*
X87642626Y-127906084D02*
G01*
X87810519Y-127960636D01*
X87967811Y-128040780D01*
X88110629Y-128144543D01*
X88235457Y-128269371D01*
X88339220Y-128412189D01*
X88419364Y-128569481D01*
X88473916Y-128737374D01*
X88501532Y-128911734D01*
X88501532Y-129088266D01*
X88473916Y-129262626D01*
X88419364Y-129430519D01*
X88339220Y-129587811D01*
X88235457Y-129730629D01*
X88110629Y-129855457D01*
X87967811Y-129959220D01*
X87810519Y-130039364D01*
X87642626Y-130093916D01*
X87468266Y-130121532D01*
X87291734Y-130121532D01*
X87117374Y-130093916D01*
X86949481Y-130039364D01*
X86792189Y-129959220D01*
X86649371Y-129855457D01*
X86524543Y-129730629D01*
X86420780Y-129587811D01*
X86340636Y-129430519D01*
X86286084Y-129262626D01*
X86258468Y-129088266D01*
X86258468Y-128911734D01*
X86286084Y-128737374D01*
X86340636Y-128569481D01*
X86420780Y-128412189D01*
X86524543Y-128269371D01*
X86649371Y-128144543D01*
X86792189Y-128040780D01*
X86949481Y-127960636D01*
X87117374Y-127906084D01*
X87291734Y-127878468D01*
X87468266Y-127878468D01*
X87642626Y-127906084D01*
G37*
G36*
X92722626Y-127906084D02*
G01*
X92890519Y-127960636D01*
X93047811Y-128040780D01*
X93190629Y-128144543D01*
X93315457Y-128269371D01*
X93419220Y-128412189D01*
X93499364Y-128569481D01*
X93553916Y-128737374D01*
X93581532Y-128911734D01*
X93581532Y-129088266D01*
X93553916Y-129262626D01*
X93499364Y-129430519D01*
X93419220Y-129587811D01*
X93315457Y-129730629D01*
X93190629Y-129855457D01*
X93047811Y-129959220D01*
X92890519Y-130039364D01*
X92722626Y-130093916D01*
X92548266Y-130121532D01*
X92371734Y-130121532D01*
X92197374Y-130093916D01*
X92029481Y-130039364D01*
X91872189Y-129959220D01*
X91729371Y-129855457D01*
X91604543Y-129730629D01*
X91500780Y-129587811D01*
X91420636Y-129430519D01*
X91366084Y-129262626D01*
X91338468Y-129088266D01*
X91338468Y-128911734D01*
X91366084Y-128737374D01*
X91420636Y-128569481D01*
X91500780Y-128412189D01*
X91604543Y-128269371D01*
X91729371Y-128144543D01*
X91872189Y-128040780D01*
X92029481Y-127960636D01*
X92197374Y-127906084D01*
X92371734Y-127878468D01*
X92548266Y-127878468D01*
X92722626Y-127906084D01*
G37*
G36*
X97802626Y-127906084D02*
G01*
X97970519Y-127960636D01*
X98127811Y-128040780D01*
X98270629Y-128144543D01*
X98395457Y-128269371D01*
X98499220Y-128412189D01*
X98579364Y-128569481D01*
X98633916Y-128737374D01*
X98661532Y-128911734D01*
X98661532Y-129088266D01*
X98633916Y-129262626D01*
X98579364Y-129430519D01*
X98499220Y-129587811D01*
X98395457Y-129730629D01*
X98270629Y-129855457D01*
X98127811Y-129959220D01*
X97970519Y-130039364D01*
X97802626Y-130093916D01*
X97628266Y-130121532D01*
X97451734Y-130121532D01*
X97277374Y-130093916D01*
X97109481Y-130039364D01*
X96952189Y-129959220D01*
X96809371Y-129855457D01*
X96684543Y-129730629D01*
X96580780Y-129587811D01*
X96500636Y-129430519D01*
X96446084Y-129262626D01*
X96418468Y-129088266D01*
X96418468Y-128911734D01*
X96446084Y-128737374D01*
X96500636Y-128569481D01*
X96580780Y-128412189D01*
X96684543Y-128269371D01*
X96809371Y-128144543D01*
X96952189Y-128040780D01*
X97109481Y-127960636D01*
X97277374Y-127906084D01*
X97451734Y-127878468D01*
X97628266Y-127878468D01*
X97802626Y-127906084D01*
G37*
G36*
X102882626Y-127906084D02*
G01*
X103050519Y-127960636D01*
X103207811Y-128040780D01*
X103350629Y-128144543D01*
X103475457Y-128269371D01*
X103579220Y-128412189D01*
X103659364Y-128569481D01*
X103713916Y-128737374D01*
X103741532Y-128911734D01*
X103741532Y-129088266D01*
X103713916Y-129262626D01*
X103659364Y-129430519D01*
X103579220Y-129587811D01*
X103475457Y-129730629D01*
X103350629Y-129855457D01*
X103207811Y-129959220D01*
X103050519Y-130039364D01*
X102882626Y-130093916D01*
X102708266Y-130121532D01*
X102531734Y-130121532D01*
X102357374Y-130093916D01*
X102189481Y-130039364D01*
X102032189Y-129959220D01*
X101889371Y-129855457D01*
X101764543Y-129730629D01*
X101660780Y-129587811D01*
X101580636Y-129430519D01*
X101526084Y-129262626D01*
X101498468Y-129088266D01*
X101498468Y-128911734D01*
X101526084Y-128737374D01*
X101580636Y-128569481D01*
X101660780Y-128412189D01*
X101764543Y-128269371D01*
X101889371Y-128144543D01*
X102032189Y-128040780D01*
X102189481Y-127960636D01*
X102357374Y-127906084D01*
X102531734Y-127878468D01*
X102708266Y-127878468D01*
X102882626Y-127906084D01*
G37*
G36*
X158142626Y-127906084D02*
G01*
X158310519Y-127960636D01*
X158467811Y-128040780D01*
X158610629Y-128144543D01*
X158735457Y-128269371D01*
X158839220Y-128412189D01*
X158919364Y-128569481D01*
X158973916Y-128737374D01*
X159001532Y-128911734D01*
X159001532Y-129088266D01*
X158973916Y-129262626D01*
X158919364Y-129430519D01*
X158839220Y-129587811D01*
X158735457Y-129730629D01*
X158610629Y-129855457D01*
X158467811Y-129959220D01*
X158310519Y-130039364D01*
X158142626Y-130093916D01*
X157968266Y-130121532D01*
X157791734Y-130121532D01*
X157617374Y-130093916D01*
X157449481Y-130039364D01*
X157292189Y-129959220D01*
X157149371Y-129855457D01*
X157024543Y-129730629D01*
X156920780Y-129587811D01*
X156840636Y-129430519D01*
X156786084Y-129262626D01*
X156758468Y-129088266D01*
X156758468Y-128911734D01*
X156786084Y-128737374D01*
X156840636Y-128569481D01*
X156920780Y-128412189D01*
X157024543Y-128269371D01*
X157149371Y-128144543D01*
X157292189Y-128040780D01*
X157449481Y-127960636D01*
X157617374Y-127906084D01*
X157791734Y-127878468D01*
X157968266Y-127878468D01*
X158142626Y-127906084D01*
G37*
G36*
X163222626Y-127906084D02*
G01*
X163390519Y-127960636D01*
X163547811Y-128040780D01*
X163690629Y-128144543D01*
X163815457Y-128269371D01*
X163919220Y-128412189D01*
X163999364Y-128569481D01*
X164053916Y-128737374D01*
X164081532Y-128911734D01*
X164081532Y-129088266D01*
X164053916Y-129262626D01*
X163999364Y-129430519D01*
X163919220Y-129587811D01*
X163815457Y-129730629D01*
X163690629Y-129855457D01*
X163547811Y-129959220D01*
X163390519Y-130039364D01*
X163222626Y-130093916D01*
X163048266Y-130121532D01*
X162871734Y-130121532D01*
X162697374Y-130093916D01*
X162529481Y-130039364D01*
X162372189Y-129959220D01*
X162229371Y-129855457D01*
X162104543Y-129730629D01*
X162000780Y-129587811D01*
X161920636Y-129430519D01*
X161866084Y-129262626D01*
X161838468Y-129088266D01*
X161838468Y-128911734D01*
X161866084Y-128737374D01*
X161920636Y-128569481D01*
X162000780Y-128412189D01*
X162104543Y-128269371D01*
X162229371Y-128144543D01*
X162372189Y-128040780D01*
X162529481Y-127960636D01*
X162697374Y-127906084D01*
X162871734Y-127878468D01*
X163048266Y-127878468D01*
X163222626Y-127906084D01*
G37*
G36*
X168302626Y-127906084D02*
G01*
X168470519Y-127960636D01*
X168627811Y-128040780D01*
X168770629Y-128144543D01*
X168895457Y-128269371D01*
X168999220Y-128412189D01*
X169079364Y-128569481D01*
X169133916Y-128737374D01*
X169161532Y-128911734D01*
X169161532Y-129088266D01*
X169133916Y-129262626D01*
X169079364Y-129430519D01*
X168999220Y-129587811D01*
X168895457Y-129730629D01*
X168770629Y-129855457D01*
X168627811Y-129959220D01*
X168470519Y-130039364D01*
X168302626Y-130093916D01*
X168128266Y-130121532D01*
X167951734Y-130121532D01*
X167777374Y-130093916D01*
X167609481Y-130039364D01*
X167452189Y-129959220D01*
X167309371Y-129855457D01*
X167184543Y-129730629D01*
X167080780Y-129587811D01*
X167000636Y-129430519D01*
X166946084Y-129262626D01*
X166918468Y-129088266D01*
X166918468Y-128911734D01*
X166946084Y-128737374D01*
X167000636Y-128569481D01*
X167080780Y-128412189D01*
X167184543Y-128269371D01*
X167309371Y-128144543D01*
X167452189Y-128040780D01*
X167609481Y-127960636D01*
X167777374Y-127906084D01*
X167951734Y-127878468D01*
X168128266Y-127878468D01*
X168302626Y-127906084D01*
G37*
G36*
X173382626Y-127906084D02*
G01*
X173550519Y-127960636D01*
X173707811Y-128040780D01*
X173850629Y-128144543D01*
X173975457Y-128269371D01*
X174079220Y-128412189D01*
X174159364Y-128569481D01*
X174213916Y-128737374D01*
X174241532Y-128911734D01*
X174241532Y-129088266D01*
X174213916Y-129262626D01*
X174159364Y-129430519D01*
X174079220Y-129587811D01*
X173975457Y-129730629D01*
X173850629Y-129855457D01*
X173707811Y-129959220D01*
X173550519Y-130039364D01*
X173382626Y-130093916D01*
X173208266Y-130121532D01*
X173031734Y-130121532D01*
X172857374Y-130093916D01*
X172689481Y-130039364D01*
X172532189Y-129959220D01*
X172389371Y-129855457D01*
X172264543Y-129730629D01*
X172160780Y-129587811D01*
X172080636Y-129430519D01*
X172026084Y-129262626D01*
X171998468Y-129088266D01*
X171998468Y-128911734D01*
X172026084Y-128737374D01*
X172080636Y-128569481D01*
X172160780Y-128412189D01*
X172264543Y-128269371D01*
X172389371Y-128144543D01*
X172532189Y-128040780D01*
X172689481Y-127960636D01*
X172857374Y-127906084D01*
X173031734Y-127878468D01*
X173208266Y-127878468D01*
X173382626Y-127906084D01*
G37*
G36*
X136015000Y-129875000D02*
G01*
X133265000Y-129875000D01*
X133265000Y-127125000D01*
X136015000Y-127125000D01*
X136015000Y-129875000D01*
G37*
G36*
X125560987Y-127162991D02*
G01*
X125766190Y-127229666D01*
X125958436Y-127327620D01*
X126132991Y-127454442D01*
X126285558Y-127607009D01*
X126412380Y-127781564D01*
X126510334Y-127973810D01*
X126577009Y-128179013D01*
X126610761Y-128392119D01*
X126610761Y-128607881D01*
X126577009Y-128820987D01*
X126510334Y-129026190D01*
X126412380Y-129218436D01*
X126285558Y-129392991D01*
X126132991Y-129545558D01*
X125958436Y-129672380D01*
X125766190Y-129770334D01*
X125560987Y-129837009D01*
X125347881Y-129870761D01*
X125132119Y-129870761D01*
X124919013Y-129837009D01*
X124713810Y-129770334D01*
X124521564Y-129672380D01*
X124347009Y-129545558D01*
X124194442Y-129392991D01*
X124067620Y-129218436D01*
X123969666Y-129026190D01*
X123902991Y-128820987D01*
X123869239Y-128607881D01*
X123869239Y-128392119D01*
X123902991Y-128179013D01*
X123969666Y-127973810D01*
X124067620Y-127781564D01*
X124194442Y-127607009D01*
X124347009Y-127454442D01*
X124521564Y-127327620D01*
X124713810Y-127229666D01*
X124919013Y-127162991D01*
X125132119Y-127129239D01*
X125347881Y-127129239D01*
X125560987Y-127162991D01*
G37*
G36*
X130260987Y-127162991D02*
G01*
X130466190Y-127229666D01*
X130658436Y-127327620D01*
X130832991Y-127454442D01*
X130985558Y-127607009D01*
X131112380Y-127781564D01*
X131210334Y-127973810D01*
X131277009Y-128179013D01*
X131310761Y-128392119D01*
X131310761Y-128607881D01*
X131277009Y-128820987D01*
X131210334Y-129026190D01*
X131112380Y-129218436D01*
X130985558Y-129392991D01*
X130832991Y-129545558D01*
X130658436Y-129672380D01*
X130466190Y-129770334D01*
X130260987Y-129837009D01*
X130047881Y-129870761D01*
X129832119Y-129870761D01*
X129619013Y-129837009D01*
X129413810Y-129770334D01*
X129221564Y-129672380D01*
X129047009Y-129545558D01*
X128894442Y-129392991D01*
X128767620Y-129218436D01*
X128669666Y-129026190D01*
X128602991Y-128820987D01*
X128569239Y-128607881D01*
X128569239Y-128392119D01*
X128602991Y-128179013D01*
X128669666Y-127973810D01*
X128767620Y-127781564D01*
X128894442Y-127607009D01*
X129047009Y-127454442D01*
X129221564Y-127327620D01*
X129413810Y-127229666D01*
X129619013Y-127162991D01*
X129832119Y-127129239D01*
X130047881Y-127129239D01*
X130260987Y-127162991D01*
G37*
G36*
X113800000Y-126800000D02*
G01*
X112200000Y-126800000D01*
X112200000Y-125200000D01*
X113800000Y-125200000D01*
X113800000Y-126800000D01*
G37*
G36*
X148300000Y-126800000D02*
G01*
X146700000Y-126800000D01*
X146700000Y-125200000D01*
X148300000Y-125200000D01*
X148300000Y-126800000D01*
G37*
G36*
X113232228Y-122694448D02*
G01*
X113377117Y-122754463D01*
X113507515Y-122841592D01*
X113618408Y-122952485D01*
X113705537Y-123082883D01*
X113765552Y-123227772D01*
X113796148Y-123381586D01*
X113796148Y-123538414D01*
X113765552Y-123692228D01*
X113705537Y-123837117D01*
X113618408Y-123967515D01*
X113507515Y-124078408D01*
X113377117Y-124165537D01*
X113232228Y-124225552D01*
X113078414Y-124256148D01*
X112921586Y-124256148D01*
X112767772Y-124225552D01*
X112622883Y-124165537D01*
X112492485Y-124078408D01*
X112381592Y-123967515D01*
X112294463Y-123837117D01*
X112234448Y-123692228D01*
X112203852Y-123538414D01*
X112203852Y-123381586D01*
X112234448Y-123227772D01*
X112294463Y-123082883D01*
X112381592Y-122952485D01*
X112492485Y-122841592D01*
X112622883Y-122754463D01*
X112767772Y-122694448D01*
X112921586Y-122663852D01*
X113078414Y-122663852D01*
X113232228Y-122694448D01*
G37*
G36*
X147732228Y-122694448D02*
G01*
X147877117Y-122754463D01*
X148007515Y-122841592D01*
X148118408Y-122952485D01*
X148205537Y-123082883D01*
X148265552Y-123227772D01*
X148296148Y-123381586D01*
X148296148Y-123538414D01*
X148265552Y-123692228D01*
X148205537Y-123837117D01*
X148118408Y-123967515D01*
X148007515Y-124078408D01*
X147877117Y-124165537D01*
X147732228Y-124225552D01*
X147578414Y-124256148D01*
X147421586Y-124256148D01*
X147267772Y-124225552D01*
X147122883Y-124165537D01*
X146992485Y-124078408D01*
X146881592Y-123967515D01*
X146794463Y-123837117D01*
X146734448Y-123692228D01*
X146703852Y-123538414D01*
X146703852Y-123381586D01*
X146734448Y-123227772D01*
X146794463Y-123082883D01*
X146881592Y-122952485D01*
X146992485Y-122841592D01*
X147122883Y-122754463D01*
X147267772Y-122694448D01*
X147421586Y-122663852D01*
X147578414Y-122663852D01*
X147732228Y-122694448D01*
G37*
G36*
X99000000Y-121900000D02*
G01*
X98100000Y-121900000D01*
X98100000Y-119100000D01*
X99000000Y-119100000D01*
X99000000Y-121900000D01*
G37*
G36*
X101900000Y-121900000D02*
G01*
X101000000Y-121900000D01*
X101000000Y-119100000D01*
X101900000Y-119100000D01*
X101900000Y-121900000D01*
G37*
G36*
X159000000Y-121400000D02*
G01*
X158100000Y-121400000D01*
X158100000Y-118600000D01*
X159000000Y-118600000D01*
X159000000Y-121400000D01*
G37*
G36*
X161900000Y-121400000D02*
G01*
X161000000Y-121400000D01*
X161000000Y-118600000D01*
X161900000Y-118600000D01*
X161900000Y-121400000D01*
G37*
G36*
X106150000Y-118400000D02*
G01*
X104850000Y-118400000D01*
X104850000Y-117500000D01*
X106150000Y-117500000D01*
X106150000Y-118400000D01*
G37*
G36*
X165650000Y-118400000D02*
G01*
X164350000Y-118400000D01*
X164350000Y-117500000D01*
X165650000Y-117500000D01*
X165650000Y-118400000D01*
G37*
G36*
X83790285Y-115543060D02*
G01*
X83971397Y-115618079D01*
X84134393Y-115726990D01*
X84273010Y-115865607D01*
X84381921Y-116028603D01*
X84456940Y-116209715D01*
X84495185Y-116401983D01*
X84495185Y-116598017D01*
X84456940Y-116790285D01*
X84381921Y-116971397D01*
X84273010Y-117134393D01*
X84134393Y-117273010D01*
X83971397Y-117381921D01*
X83790285Y-117456940D01*
X83598017Y-117495185D01*
X83401983Y-117495185D01*
X83209715Y-117456940D01*
X83028603Y-117381921D01*
X82865607Y-117273010D01*
X82726990Y-117134393D01*
X82618079Y-116971397D01*
X82543060Y-116790285D01*
X82504815Y-116598017D01*
X82504815Y-116401983D01*
X82543060Y-116209715D01*
X82618079Y-116028603D01*
X82726990Y-115865607D01*
X82865607Y-115726990D01*
X83028603Y-115618079D01*
X83209715Y-115543060D01*
X83401983Y-115504815D01*
X83598017Y-115504815D01*
X83790285Y-115543060D01*
G37*
G36*
X106150000Y-116500000D02*
G01*
X104850000Y-116500000D01*
X104850000Y-115600000D01*
X106150000Y-115600000D01*
X106150000Y-116500000D01*
G37*
G36*
X165650000Y-116500000D02*
G01*
X164350000Y-116500000D01*
X164350000Y-115600000D01*
X165650000Y-115600000D01*
X165650000Y-116500000D01*
G37*
G36*
X98302403Y-114511418D02*
G01*
X98351066Y-114543934D01*
X98383582Y-114592597D01*
X98395000Y-114650000D01*
X98395000Y-116300000D01*
X98383582Y-116357403D01*
X98351066Y-116406066D01*
X98302403Y-116438582D01*
X98245000Y-116450000D01*
X97945000Y-116450000D01*
X97887597Y-116438582D01*
X97838934Y-116406066D01*
X97806418Y-116357403D01*
X97795000Y-116300000D01*
X97795000Y-114650000D01*
X97806418Y-114592597D01*
X97838934Y-114543934D01*
X97887597Y-114511418D01*
X97945000Y-114500000D01*
X98245000Y-114500000D01*
X98302403Y-114511418D01*
G37*
G36*
X99572403Y-114511418D02*
G01*
X99621066Y-114543934D01*
X99653582Y-114592597D01*
X99665000Y-114650000D01*
X99665000Y-116300000D01*
X99653582Y-116357403D01*
X99621066Y-116406066D01*
X99572403Y-116438582D01*
X99515000Y-116450000D01*
X99215000Y-116450000D01*
X99157597Y-116438582D01*
X99108934Y-116406066D01*
X99076418Y-116357403D01*
X99065000Y-116300000D01*
X99065000Y-114650000D01*
X99076418Y-114592597D01*
X99108934Y-114543934D01*
X99157597Y-114511418D01*
X99215000Y-114500000D01*
X99515000Y-114500000D01*
X99572403Y-114511418D01*
G37*
G36*
X100842403Y-114511418D02*
G01*
X100891066Y-114543934D01*
X100923582Y-114592597D01*
X100935000Y-114650000D01*
X100935000Y-116300000D01*
X100923582Y-116357403D01*
X100891066Y-116406066D01*
X100842403Y-116438582D01*
X100785000Y-116450000D01*
X100485000Y-116450000D01*
X100427597Y-116438582D01*
X100378934Y-116406066D01*
X100346418Y-116357403D01*
X100335000Y-116300000D01*
X100335000Y-114650000D01*
X100346418Y-114592597D01*
X100378934Y-114543934D01*
X100427597Y-114511418D01*
X100485000Y-114500000D01*
X100785000Y-114500000D01*
X100842403Y-114511418D01*
G37*
G36*
X102112403Y-114511418D02*
G01*
X102161066Y-114543934D01*
X102193582Y-114592597D01*
X102205000Y-114650000D01*
X102205000Y-116300000D01*
X102193582Y-116357403D01*
X102161066Y-116406066D01*
X102112403Y-116438582D01*
X102055000Y-116450000D01*
X101755000Y-116450000D01*
X101697597Y-116438582D01*
X101648934Y-116406066D01*
X101616418Y-116357403D01*
X101605000Y-116300000D01*
X101605000Y-114650000D01*
X101616418Y-114592597D01*
X101648934Y-114543934D01*
X101697597Y-114511418D01*
X101755000Y-114500000D01*
X102055000Y-114500000D01*
X102112403Y-114511418D01*
G37*
G36*
X158302403Y-114511418D02*
G01*
X158351066Y-114543934D01*
X158383582Y-114592597D01*
X158395000Y-114650000D01*
X158395000Y-116300000D01*
X158383582Y-116357403D01*
X158351066Y-116406066D01*
X158302403Y-116438582D01*
X158245000Y-116450000D01*
X157945000Y-116450000D01*
X157887597Y-116438582D01*
X157838934Y-116406066D01*
X157806418Y-116357403D01*
X157795000Y-116300000D01*
X157795000Y-114650000D01*
X157806418Y-114592597D01*
X157838934Y-114543934D01*
X157887597Y-114511418D01*
X157945000Y-114500000D01*
X158245000Y-114500000D01*
X158302403Y-114511418D01*
G37*
G36*
X159572403Y-114511418D02*
G01*
X159621066Y-114543934D01*
X159653582Y-114592597D01*
X159665000Y-114650000D01*
X159665000Y-116300000D01*
X159653582Y-116357403D01*
X159621066Y-116406066D01*
X159572403Y-116438582D01*
X159515000Y-116450000D01*
X159215000Y-116450000D01*
X159157597Y-116438582D01*
X159108934Y-116406066D01*
X159076418Y-116357403D01*
X159065000Y-116300000D01*
X159065000Y-114650000D01*
X159076418Y-114592597D01*
X159108934Y-114543934D01*
X159157597Y-114511418D01*
X159215000Y-114500000D01*
X159515000Y-114500000D01*
X159572403Y-114511418D01*
G37*
G36*
X160842403Y-114511418D02*
G01*
X160891066Y-114543934D01*
X160923582Y-114592597D01*
X160935000Y-114650000D01*
X160935000Y-116300000D01*
X160923582Y-116357403D01*
X160891066Y-116406066D01*
X160842403Y-116438582D01*
X160785000Y-116450000D01*
X160485000Y-116450000D01*
X160427597Y-116438582D01*
X160378934Y-116406066D01*
X160346418Y-116357403D01*
X160335000Y-116300000D01*
X160335000Y-114650000D01*
X160346418Y-114592597D01*
X160378934Y-114543934D01*
X160427597Y-114511418D01*
X160485000Y-114500000D01*
X160785000Y-114500000D01*
X160842403Y-114511418D01*
G37*
G36*
X162112403Y-114511418D02*
G01*
X162161066Y-114543934D01*
X162193582Y-114592597D01*
X162205000Y-114650000D01*
X162205000Y-116300000D01*
X162193582Y-116357403D01*
X162161066Y-116406066D01*
X162112403Y-116438582D01*
X162055000Y-116450000D01*
X161755000Y-116450000D01*
X161697597Y-116438582D01*
X161648934Y-116406066D01*
X161616418Y-116357403D01*
X161605000Y-116300000D01*
X161605000Y-114650000D01*
X161616418Y-114592597D01*
X161648934Y-114543934D01*
X161697597Y-114511418D01*
X161755000Y-114500000D01*
X162055000Y-114500000D01*
X162112403Y-114511418D01*
G37*
G36*
X123625000Y-115625000D02*
G01*
X121375000Y-115625000D01*
X121375000Y-113375000D01*
X123625000Y-113375000D01*
X123625000Y-115625000D01*
G37*
G36*
X137762626Y-113406084D02*
G01*
X137930519Y-113460636D01*
X138087811Y-113540780D01*
X138230629Y-113644543D01*
X138355457Y-113769371D01*
X138459220Y-113912189D01*
X138539364Y-114069481D01*
X138593916Y-114237374D01*
X138621532Y-114411734D01*
X138621532Y-114588266D01*
X138593916Y-114762626D01*
X138539364Y-114930519D01*
X138459220Y-115087811D01*
X138355457Y-115230629D01*
X138230629Y-115355457D01*
X138087811Y-115459220D01*
X137930519Y-115539364D01*
X137762626Y-115593916D01*
X137588266Y-115621532D01*
X137411734Y-115621532D01*
X137237374Y-115593916D01*
X137069481Y-115539364D01*
X136912189Y-115459220D01*
X136769371Y-115355457D01*
X136644543Y-115230629D01*
X136540780Y-115087811D01*
X136460636Y-114930519D01*
X136406084Y-114762626D01*
X136378468Y-114588266D01*
X136378468Y-114411734D01*
X136406084Y-114237374D01*
X136460636Y-114069481D01*
X136540780Y-113912189D01*
X136644543Y-113769371D01*
X136769371Y-113644543D01*
X136912189Y-113540780D01*
X137069481Y-113460636D01*
X137237374Y-113406084D01*
X137411734Y-113378468D01*
X137588266Y-113378468D01*
X137762626Y-113406084D01*
G37*
G36*
X175790285Y-111543060D02*
G01*
X175971397Y-111618079D01*
X176134393Y-111726990D01*
X176273010Y-111865607D01*
X176381921Y-112028603D01*
X176456940Y-112209715D01*
X176495185Y-112401983D01*
X176495185Y-112598017D01*
X176456940Y-112790285D01*
X176381921Y-112971397D01*
X176273010Y-113134393D01*
X176134393Y-113273010D01*
X175971397Y-113381921D01*
X175790285Y-113456940D01*
X175598017Y-113495185D01*
X175401983Y-113495185D01*
X175209715Y-113456940D01*
X175028603Y-113381921D01*
X174865607Y-113273010D01*
X174726990Y-113134393D01*
X174618079Y-112971397D01*
X174543060Y-112790285D01*
X174504815Y-112598017D01*
X174504815Y-112401983D01*
X174543060Y-112209715D01*
X174618079Y-112028603D01*
X174726990Y-111865607D01*
X174865607Y-111726990D01*
X175028603Y-111618079D01*
X175209715Y-111543060D01*
X175401983Y-111504815D01*
X175598017Y-111504815D01*
X175790285Y-111543060D01*
G37*
G36*
X83790285Y-110043060D02*
G01*
X83971397Y-110118079D01*
X84134393Y-110226990D01*
X84273010Y-110365607D01*
X84381921Y-110528603D01*
X84456940Y-110709715D01*
X84495185Y-110901983D01*
X84495185Y-111098017D01*
X84456940Y-111290285D01*
X84381921Y-111471397D01*
X84273010Y-111634393D01*
X84134393Y-111773010D01*
X83971397Y-111881921D01*
X83790285Y-111956940D01*
X83598017Y-111995185D01*
X83401983Y-111995185D01*
X83209715Y-111956940D01*
X83028603Y-111881921D01*
X82865607Y-111773010D01*
X82726990Y-111634393D01*
X82618079Y-111471397D01*
X82543060Y-111290285D01*
X82504815Y-111098017D01*
X82504815Y-110901983D01*
X82543060Y-110709715D01*
X82618079Y-110528603D01*
X82726990Y-110365607D01*
X82865607Y-110226990D01*
X83028603Y-110118079D01*
X83209715Y-110043060D01*
X83401983Y-110004815D01*
X83598017Y-110004815D01*
X83790285Y-110043060D01*
G37*
G36*
X98302403Y-109561418D02*
G01*
X98351066Y-109593934D01*
X98383582Y-109642597D01*
X98395000Y-109700000D01*
X98395000Y-111350000D01*
X98383582Y-111407403D01*
X98351066Y-111456066D01*
X98302403Y-111488582D01*
X98245000Y-111500000D01*
X97945000Y-111500000D01*
X97887597Y-111488582D01*
X97838934Y-111456066D01*
X97806418Y-111407403D01*
X97795000Y-111350000D01*
X97795000Y-109700000D01*
X97806418Y-109642597D01*
X97838934Y-109593934D01*
X97887597Y-109561418D01*
X97945000Y-109550000D01*
X98245000Y-109550000D01*
X98302403Y-109561418D01*
G37*
G36*
X99572403Y-109561418D02*
G01*
X99621066Y-109593934D01*
X99653582Y-109642597D01*
X99665000Y-109700000D01*
X99665000Y-111350000D01*
X99653582Y-111407403D01*
X99621066Y-111456066D01*
X99572403Y-111488582D01*
X99515000Y-111500000D01*
X99215000Y-111500000D01*
X99157597Y-111488582D01*
X99108934Y-111456066D01*
X99076418Y-111407403D01*
X99065000Y-111350000D01*
X99065000Y-109700000D01*
X99076418Y-109642597D01*
X99108934Y-109593934D01*
X99157597Y-109561418D01*
X99215000Y-109550000D01*
X99515000Y-109550000D01*
X99572403Y-109561418D01*
G37*
G36*
X100842403Y-109561418D02*
G01*
X100891066Y-109593934D01*
X100923582Y-109642597D01*
X100935000Y-109700000D01*
X100935000Y-111350000D01*
X100923582Y-111407403D01*
X100891066Y-111456066D01*
X100842403Y-111488582D01*
X100785000Y-111500000D01*
X100485000Y-111500000D01*
X100427597Y-111488582D01*
X100378934Y-111456066D01*
X100346418Y-111407403D01*
X100335000Y-111350000D01*
X100335000Y-109700000D01*
X100346418Y-109642597D01*
X100378934Y-109593934D01*
X100427597Y-109561418D01*
X100485000Y-109550000D01*
X100785000Y-109550000D01*
X100842403Y-109561418D01*
G37*
G36*
X102112403Y-109561418D02*
G01*
X102161066Y-109593934D01*
X102193582Y-109642597D01*
X102205000Y-109700000D01*
X102205000Y-111350000D01*
X102193582Y-111407403D01*
X102161066Y-111456066D01*
X102112403Y-111488582D01*
X102055000Y-111500000D01*
X101755000Y-111500000D01*
X101697597Y-111488582D01*
X101648934Y-111456066D01*
X101616418Y-111407403D01*
X101605000Y-111350000D01*
X101605000Y-109700000D01*
X101616418Y-109642597D01*
X101648934Y-109593934D01*
X101697597Y-109561418D01*
X101755000Y-109550000D01*
X102055000Y-109550000D01*
X102112403Y-109561418D01*
G37*
G36*
X158302403Y-109561418D02*
G01*
X158351066Y-109593934D01*
X158383582Y-109642597D01*
X158395000Y-109700000D01*
X158395000Y-111350000D01*
X158383582Y-111407403D01*
X158351066Y-111456066D01*
X158302403Y-111488582D01*
X158245000Y-111500000D01*
X157945000Y-111500000D01*
X157887597Y-111488582D01*
X157838934Y-111456066D01*
X157806418Y-111407403D01*
X157795000Y-111350000D01*
X157795000Y-109700000D01*
X157806418Y-109642597D01*
X157838934Y-109593934D01*
X157887597Y-109561418D01*
X157945000Y-109550000D01*
X158245000Y-109550000D01*
X158302403Y-109561418D01*
G37*
G36*
X159572403Y-109561418D02*
G01*
X159621066Y-109593934D01*
X159653582Y-109642597D01*
X159665000Y-109700000D01*
X159665000Y-111350000D01*
X159653582Y-111407403D01*
X159621066Y-111456066D01*
X159572403Y-111488582D01*
X159515000Y-111500000D01*
X159215000Y-111500000D01*
X159157597Y-111488582D01*
X159108934Y-111456066D01*
X159076418Y-111407403D01*
X159065000Y-111350000D01*
X159065000Y-109700000D01*
X159076418Y-109642597D01*
X159108934Y-109593934D01*
X159157597Y-109561418D01*
X159215000Y-109550000D01*
X159515000Y-109550000D01*
X159572403Y-109561418D01*
G37*
G36*
X160842403Y-109561418D02*
G01*
X160891066Y-109593934D01*
X160923582Y-109642597D01*
X160935000Y-109700000D01*
X160935000Y-111350000D01*
X160923582Y-111407403D01*
X160891066Y-111456066D01*
X160842403Y-111488582D01*
X160785000Y-111500000D01*
X160485000Y-111500000D01*
X160427597Y-111488582D01*
X160378934Y-111456066D01*
X160346418Y-111407403D01*
X160335000Y-111350000D01*
X160335000Y-109700000D01*
X160346418Y-109642597D01*
X160378934Y-109593934D01*
X160427597Y-109561418D01*
X160485000Y-109550000D01*
X160785000Y-109550000D01*
X160842403Y-109561418D01*
G37*
G36*
X162112403Y-109561418D02*
G01*
X162161066Y-109593934D01*
X162193582Y-109642597D01*
X162205000Y-109700000D01*
X162205000Y-111350000D01*
X162193582Y-111407403D01*
X162161066Y-111456066D01*
X162112403Y-111488582D01*
X162055000Y-111500000D01*
X161755000Y-111500000D01*
X161697597Y-111488582D01*
X161648934Y-111456066D01*
X161616418Y-111407403D01*
X161605000Y-111350000D01*
X161605000Y-109700000D01*
X161616418Y-109642597D01*
X161648934Y-109593934D01*
X161697597Y-109561418D01*
X161755000Y-109550000D01*
X162055000Y-109550000D01*
X162112403Y-109561418D01*
G37*
G36*
X175790285Y-105543060D02*
G01*
X175971397Y-105618079D01*
X176134393Y-105726990D01*
X176273010Y-105865607D01*
X176381921Y-106028603D01*
X176456940Y-106209715D01*
X176495185Y-106401983D01*
X176495185Y-106598017D01*
X176456940Y-106790285D01*
X176381921Y-106971397D01*
X176273010Y-107134393D01*
X176134393Y-107273010D01*
X175971397Y-107381921D01*
X175790285Y-107456940D01*
X175598017Y-107495185D01*
X175401983Y-107495185D01*
X175209715Y-107456940D01*
X175028603Y-107381921D01*
X174865607Y-107273010D01*
X174726990Y-107134393D01*
X174618079Y-106971397D01*
X174543060Y-106790285D01*
X174504815Y-106598017D01*
X174504815Y-106401983D01*
X174543060Y-106209715D01*
X174618079Y-106028603D01*
X174726990Y-105865607D01*
X174865607Y-105726990D01*
X175028603Y-105618079D01*
X175209715Y-105543060D01*
X175401983Y-105504815D01*
X175598017Y-105504815D01*
X175790285Y-105543060D01*
G37*
G36*
X83790285Y-104543060D02*
G01*
X83971397Y-104618079D01*
X84134393Y-104726990D01*
X84273010Y-104865607D01*
X84381921Y-105028603D01*
X84456940Y-105209715D01*
X84495185Y-105401983D01*
X84495185Y-105598017D01*
X84456940Y-105790285D01*
X84381921Y-105971397D01*
X84273010Y-106134393D01*
X84134393Y-106273010D01*
X83971397Y-106381921D01*
X83790285Y-106456940D01*
X83598017Y-106495185D01*
X83401983Y-106495185D01*
X83209715Y-106456940D01*
X83028603Y-106381921D01*
X82865607Y-106273010D01*
X82726990Y-106134393D01*
X82618079Y-105971397D01*
X82543060Y-105790285D01*
X82504815Y-105598017D01*
X82504815Y-105401983D01*
X82543060Y-105209715D01*
X82618079Y-105028603D01*
X82726990Y-104865607D01*
X82865607Y-104726990D01*
X83028603Y-104618079D01*
X83209715Y-104543060D01*
X83401983Y-104504815D01*
X83598017Y-104504815D01*
X83790285Y-104543060D01*
G37*
G36*
X132275000Y-103775000D02*
G01*
X130125000Y-103775000D01*
X130125000Y-102825000D01*
X132275000Y-102825000D01*
X132275000Y-103775000D01*
G37*
G36*
X128800000Y-103714312D02*
G01*
X127200000Y-103714312D01*
X127200000Y-102814312D01*
X128800000Y-102814312D01*
X128800000Y-103714312D01*
G37*
G36*
X138075000Y-102625000D02*
G01*
X135925000Y-102625000D01*
X135925000Y-99375000D01*
X138075000Y-99375000D01*
X138075000Y-102625000D01*
G37*
G36*
X175790285Y-100543060D02*
G01*
X175971397Y-100618079D01*
X176134393Y-100726990D01*
X176273010Y-100865607D01*
X176381921Y-101028603D01*
X176456940Y-101209715D01*
X176495185Y-101401983D01*
X176495185Y-101598017D01*
X176456940Y-101790285D01*
X176381921Y-101971397D01*
X176273010Y-102134393D01*
X176134393Y-102273010D01*
X175971397Y-102381921D01*
X175790285Y-102456940D01*
X175598017Y-102495185D01*
X175401983Y-102495185D01*
X175209715Y-102456940D01*
X175028603Y-102381921D01*
X174865607Y-102273010D01*
X174726990Y-102134393D01*
X174618079Y-101971397D01*
X174543060Y-101790285D01*
X174504815Y-101598017D01*
X174504815Y-101401983D01*
X174543060Y-101209715D01*
X174618079Y-101028603D01*
X174726990Y-100865607D01*
X174865607Y-100726990D01*
X175028603Y-100618079D01*
X175209715Y-100543060D01*
X175401983Y-100504815D01*
X175598017Y-100504815D01*
X175790285Y-100543060D01*
G37*
G36*
X141400000Y-101800000D02*
G01*
X140500000Y-101800000D01*
X140500000Y-100200000D01*
X141400000Y-100200000D01*
X141400000Y-101800000D01*
G37*
G36*
X144500000Y-101800000D02*
G01*
X143600000Y-101800000D01*
X143600000Y-100200000D01*
X144500000Y-100200000D01*
X144500000Y-101800000D01*
G37*
G36*
X132275000Y-101475000D02*
G01*
X130125000Y-101475000D01*
X130125000Y-100525000D01*
X132275000Y-100525000D01*
X132275000Y-101475000D01*
G37*
G36*
X128800000Y-100614312D02*
G01*
X127200000Y-100614312D01*
X127200000Y-99714312D01*
X128800000Y-99714312D01*
X128800000Y-100614312D01*
G37*
G36*
X83790285Y-98543060D02*
G01*
X83971397Y-98618079D01*
X84134393Y-98726990D01*
X84273010Y-98865607D01*
X84381921Y-99028603D01*
X84456940Y-99209715D01*
X84495185Y-99401983D01*
X84495185Y-99598017D01*
X84456940Y-99790285D01*
X84381921Y-99971397D01*
X84273010Y-100134393D01*
X84134393Y-100273010D01*
X83971397Y-100381921D01*
X83790285Y-100456940D01*
X83598017Y-100495185D01*
X83401983Y-100495185D01*
X83209715Y-100456940D01*
X83028603Y-100381921D01*
X82865607Y-100273010D01*
X82726990Y-100134393D01*
X82618079Y-99971397D01*
X82543060Y-99790285D01*
X82504815Y-99598017D01*
X82504815Y-99401983D01*
X82543060Y-99209715D01*
X82618079Y-99028603D01*
X82726990Y-98865607D01*
X82865607Y-98726990D01*
X83028603Y-98618079D01*
X83209715Y-98543060D01*
X83401983Y-98504815D01*
X83598017Y-98504815D01*
X83790285Y-98543060D01*
G37*
G36*
X132275000Y-99175000D02*
G01*
X130125000Y-99175000D01*
X130125000Y-98225000D01*
X132275000Y-98225000D01*
X132275000Y-99175000D01*
G37*
G36*
X175790285Y-94543060D02*
G01*
X175971397Y-94618079D01*
X176134393Y-94726990D01*
X176273010Y-94865607D01*
X176381921Y-95028603D01*
X176456940Y-95209715D01*
X176495185Y-95401983D01*
X176495185Y-95598017D01*
X176456940Y-95790285D01*
X176381921Y-95971397D01*
X176273010Y-96134393D01*
X176134393Y-96273010D01*
X175971397Y-96381921D01*
X175790285Y-96456940D01*
X175598017Y-96495185D01*
X175401983Y-96495185D01*
X175209715Y-96456940D01*
X175028603Y-96381921D01*
X174865607Y-96273010D01*
X174726990Y-96134393D01*
X174618079Y-95971397D01*
X174543060Y-95790285D01*
X174504815Y-95598017D01*
X174504815Y-95401983D01*
X174543060Y-95209715D01*
X174618079Y-95028603D01*
X174726990Y-94865607D01*
X174865607Y-94726990D01*
X175028603Y-94618079D01*
X175209715Y-94543060D01*
X175401983Y-94504815D01*
X175598017Y-94504815D01*
X175790285Y-94543060D01*
G37*
G36*
X83790285Y-94043060D02*
G01*
X83971397Y-94118079D01*
X84134393Y-94226990D01*
X84273010Y-94365607D01*
X84381921Y-94528603D01*
X84456940Y-94709715D01*
X84495185Y-94901983D01*
X84495185Y-95098017D01*
X84456940Y-95290285D01*
X84381921Y-95471397D01*
X84273010Y-95634393D01*
X84134393Y-95773010D01*
X83971397Y-95881921D01*
X83790285Y-95956940D01*
X83598017Y-95995185D01*
X83401983Y-95995185D01*
X83209715Y-95956940D01*
X83028603Y-95881921D01*
X82865607Y-95773010D01*
X82726990Y-95634393D01*
X82618079Y-95471397D01*
X82543060Y-95290285D01*
X82504815Y-95098017D01*
X82504815Y-94901983D01*
X82543060Y-94709715D01*
X82618079Y-94528603D01*
X82726990Y-94365607D01*
X82865607Y-94226990D01*
X83028603Y-94118079D01*
X83209715Y-94043060D01*
X83401983Y-94004815D01*
X83598017Y-94004815D01*
X83790285Y-94043060D01*
G37*
G36*
X102900000Y-89800000D02*
G01*
X102000000Y-89800000D01*
X102000000Y-88200000D01*
X102900000Y-88200000D01*
X102900000Y-89800000D01*
G37*
G36*
X106000000Y-89800000D02*
G01*
X105100000Y-89800000D01*
X105100000Y-88200000D01*
X106000000Y-88200000D01*
X106000000Y-89800000D01*
G37*
G36*
X93873513Y-86444208D02*
G01*
X94112293Y-86521793D01*
X94335998Y-86635776D01*
X94539117Y-86783350D01*
X94716650Y-86960883D01*
X94864224Y-87164002D01*
X94978207Y-87387707D01*
X95055792Y-87626487D01*
X95095068Y-87874465D01*
X95095068Y-88125535D01*
X95055792Y-88373513D01*
X94978207Y-88612293D01*
X94864224Y-88835998D01*
X94716650Y-89039117D01*
X94539117Y-89216650D01*
X94335998Y-89364224D01*
X94112293Y-89478207D01*
X93873513Y-89555792D01*
X93625535Y-89595068D01*
X93374465Y-89595068D01*
X93126487Y-89555792D01*
X92887707Y-89478207D01*
X92664002Y-89364224D01*
X92460883Y-89216650D01*
X92283350Y-89039117D01*
X92135776Y-88835998D01*
X92021793Y-88612293D01*
X91944208Y-88373513D01*
X91904932Y-88125535D01*
X91904932Y-87874465D01*
X91944208Y-87626487D01*
X92021793Y-87387707D01*
X92135776Y-87164002D01*
X92283350Y-86960883D01*
X92460883Y-86783350D01*
X92664002Y-86635776D01*
X92887707Y-86521793D01*
X93126487Y-86444208D01*
X93374465Y-86404932D01*
X93625535Y-86404932D01*
X93873513Y-86444208D01*
G37*
G36*
X160373513Y-86444208D02*
G01*
X160612293Y-86521793D01*
X160835998Y-86635776D01*
X161039117Y-86783350D01*
X161216650Y-86960883D01*
X161364224Y-87164002D01*
X161478207Y-87387707D01*
X161555792Y-87626487D01*
X161595068Y-87874465D01*
X161595068Y-88125535D01*
X161555792Y-88373513D01*
X161478207Y-88612293D01*
X161364224Y-88835998D01*
X161216650Y-89039117D01*
X161039117Y-89216650D01*
X160835998Y-89364224D01*
X160612293Y-89478207D01*
X160373513Y-89555792D01*
X160125535Y-89595068D01*
X159874465Y-89595068D01*
X159626487Y-89555792D01*
X159387707Y-89478207D01*
X159164002Y-89364224D01*
X158960883Y-89216650D01*
X158783350Y-89039117D01*
X158635776Y-88835998D01*
X158521793Y-88612293D01*
X158444208Y-88373513D01*
X158404932Y-88125535D01*
X158404932Y-87874465D01*
X158444208Y-87626487D01*
X158521793Y-87387707D01*
X158635776Y-87164002D01*
X158783350Y-86960883D01*
X158960883Y-86783350D01*
X159164002Y-86635776D01*
X159387707Y-86521793D01*
X159626487Y-86444208D01*
X159874465Y-86404932D01*
X160125535Y-86404932D01*
X160373513Y-86444208D01*
G37*
G36*
X175790285Y-87043060D02*
G01*
X175971397Y-87118079D01*
X176134393Y-87226990D01*
X176273010Y-87365607D01*
X176381921Y-87528603D01*
X176456940Y-87709715D01*
X176495185Y-87901983D01*
X176495185Y-88098017D01*
X176456940Y-88290285D01*
X176381921Y-88471397D01*
X176273010Y-88634393D01*
X176134393Y-88773010D01*
X175971397Y-88881921D01*
X175790285Y-88956940D01*
X175598017Y-88995185D01*
X175401983Y-88995185D01*
X175209715Y-88956940D01*
X175028603Y-88881921D01*
X174865607Y-88773010D01*
X174726990Y-88634393D01*
X174618079Y-88471397D01*
X174543060Y-88290285D01*
X174504815Y-88098017D01*
X174504815Y-87901983D01*
X174543060Y-87709715D01*
X174618079Y-87528603D01*
X174726990Y-87365607D01*
X174865607Y-87226990D01*
X175028603Y-87118079D01*
X175209715Y-87043060D01*
X175401983Y-87004815D01*
X175598017Y-87004815D01*
X175790285Y-87043060D01*
G37*
G36*
X142400000Y-88800000D02*
G01*
X141500000Y-88800000D01*
X141500000Y-87200000D01*
X142400000Y-87200000D01*
X142400000Y-88800000D01*
G37*
G36*
X145500000Y-88800000D02*
G01*
X144600000Y-88800000D01*
X144600000Y-87200000D01*
X145500000Y-87200000D01*
X145500000Y-88800000D01*
G37*
G36*
X84290285Y-86543060D02*
G01*
X84471397Y-86618079D01*
X84634393Y-86726990D01*
X84773010Y-86865607D01*
X84881921Y-87028603D01*
X84956940Y-87209715D01*
X84995185Y-87401983D01*
X84995185Y-87598017D01*
X84956940Y-87790285D01*
X84881921Y-87971397D01*
X84773010Y-88134393D01*
X84634393Y-88273010D01*
X84471397Y-88381921D01*
X84290285Y-88456940D01*
X84098017Y-88495185D01*
X83901983Y-88495185D01*
X83709715Y-88456940D01*
X83528603Y-88381921D01*
X83365607Y-88273010D01*
X83226990Y-88134393D01*
X83118079Y-87971397D01*
X83043060Y-87790285D01*
X83004815Y-87598017D01*
X83004815Y-87401983D01*
X83043060Y-87209715D01*
X83118079Y-87028603D01*
X83226990Y-86865607D01*
X83365607Y-86726990D01*
X83528603Y-86618079D01*
X83709715Y-86543060D01*
X83901983Y-86504815D01*
X84098017Y-86504815D01*
X84290285Y-86543060D01*
G37*
G36*
X124600000Y-86285736D02*
G01*
X123700000Y-86285736D01*
X123700000Y-84685736D01*
X124600000Y-84685736D01*
X124600000Y-86285736D01*
G37*
G36*
X127700000Y-86285736D02*
G01*
X126800000Y-86285736D01*
X126800000Y-84685736D01*
X127700000Y-84685736D01*
X127700000Y-86285736D01*
G37*
G36*
X137800000Y-86000000D02*
G01*
X136200000Y-86000000D01*
X136200000Y-85100000D01*
X137800000Y-85100000D01*
X137800000Y-86000000D01*
G37*
G36*
X118900000Y-85800000D02*
G01*
X118000000Y-85800000D01*
X118000000Y-84200000D01*
X118900000Y-84200000D01*
X118900000Y-85800000D01*
G37*
G36*
X122000000Y-85800000D02*
G01*
X121100000Y-85800000D01*
X121100000Y-84200000D01*
X122000000Y-84200000D01*
X122000000Y-85800000D01*
G37*
G36*
X149800000Y-85050000D02*
G01*
X148200000Y-85050000D01*
X148200000Y-84150000D01*
X149800000Y-84150000D01*
X149800000Y-85050000D01*
G37*
G36*
X118900000Y-83300000D02*
G01*
X118000000Y-83300000D01*
X118000000Y-81700000D01*
X118900000Y-81700000D01*
X118900000Y-83300000D01*
G37*
G36*
X122000000Y-83300000D02*
G01*
X121100000Y-83300000D01*
X121100000Y-81700000D01*
X122000000Y-81700000D01*
X122000000Y-83300000D01*
G37*
G36*
X126353701Y-81405709D02*
G01*
X126378033Y-81421967D01*
X126394291Y-81446299D01*
X126400000Y-81475000D01*
X126400000Y-82875000D01*
X126394291Y-82903701D01*
X126378033Y-82928033D01*
X126353701Y-82944291D01*
X126325000Y-82950000D01*
X126175000Y-82950000D01*
X126146299Y-82944291D01*
X126121967Y-82928033D01*
X126105709Y-82903701D01*
X126100000Y-82875000D01*
X126100000Y-81475000D01*
X126105709Y-81446299D01*
X126121967Y-81421967D01*
X126146299Y-81405709D01*
X126175000Y-81400000D01*
X126325000Y-81400000D01*
X126353701Y-81405709D01*
G37*
G36*
X126853701Y-81405709D02*
G01*
X126878033Y-81421967D01*
X126894291Y-81446299D01*
X126900000Y-81475000D01*
X126900000Y-82875000D01*
X126894291Y-82903701D01*
X126878033Y-82928033D01*
X126853701Y-82944291D01*
X126825000Y-82950000D01*
X126675000Y-82950000D01*
X126646299Y-82944291D01*
X126621967Y-82928033D01*
X126605709Y-82903701D01*
X126600000Y-82875000D01*
X126600000Y-81475000D01*
X126605709Y-81446299D01*
X126621967Y-81421967D01*
X126646299Y-81405709D01*
X126675000Y-81400000D01*
X126825000Y-81400000D01*
X126853701Y-81405709D01*
G37*
G36*
X127353701Y-81405709D02*
G01*
X127378033Y-81421967D01*
X127394291Y-81446299D01*
X127400000Y-81475000D01*
X127400000Y-82875000D01*
X127394291Y-82903701D01*
X127378033Y-82928033D01*
X127353701Y-82944291D01*
X127325000Y-82950000D01*
X127175000Y-82950000D01*
X127146299Y-82944291D01*
X127121967Y-82928033D01*
X127105709Y-82903701D01*
X127100000Y-82875000D01*
X127100000Y-81475000D01*
X127105709Y-81446299D01*
X127121967Y-81421967D01*
X127146299Y-81405709D01*
X127175000Y-81400000D01*
X127325000Y-81400000D01*
X127353701Y-81405709D01*
G37*
G36*
X127853701Y-81405709D02*
G01*
X127878033Y-81421967D01*
X127894291Y-81446299D01*
X127900000Y-81475000D01*
X127900000Y-82875000D01*
X127894291Y-82903701D01*
X127878033Y-82928033D01*
X127853701Y-82944291D01*
X127825000Y-82950000D01*
X127675000Y-82950000D01*
X127646299Y-82944291D01*
X127621967Y-82928033D01*
X127605709Y-82903701D01*
X127600000Y-82875000D01*
X127600000Y-81475000D01*
X127605709Y-81446299D01*
X127621967Y-81421967D01*
X127646299Y-81405709D01*
X127675000Y-81400000D01*
X127825000Y-81400000D01*
X127853701Y-81405709D01*
G37*
G36*
X128353701Y-81405709D02*
G01*
X128378033Y-81421967D01*
X128394291Y-81446299D01*
X128400000Y-81475000D01*
X128400000Y-82875000D01*
X128394291Y-82903701D01*
X128378033Y-82928033D01*
X128353701Y-82944291D01*
X128325000Y-82950000D01*
X128175000Y-82950000D01*
X128146299Y-82944291D01*
X128121967Y-82928033D01*
X128105709Y-82903701D01*
X128100000Y-82875000D01*
X128100000Y-81475000D01*
X128105709Y-81446299D01*
X128121967Y-81421967D01*
X128146299Y-81405709D01*
X128175000Y-81400000D01*
X128325000Y-81400000D01*
X128353701Y-81405709D01*
G37*
G36*
X128853701Y-81405709D02*
G01*
X128878033Y-81421967D01*
X128894291Y-81446299D01*
X128900000Y-81475000D01*
X128900000Y-82875000D01*
X128894291Y-82903701D01*
X128878033Y-82928033D01*
X128853701Y-82944291D01*
X128825000Y-82950000D01*
X128675000Y-82950000D01*
X128646299Y-82944291D01*
X128621967Y-82928033D01*
X128605709Y-82903701D01*
X128600000Y-82875000D01*
X128600000Y-81475000D01*
X128605709Y-81446299D01*
X128621967Y-81421967D01*
X128646299Y-81405709D01*
X128675000Y-81400000D01*
X128825000Y-81400000D01*
X128853701Y-81405709D01*
G37*
G36*
X129353701Y-81405709D02*
G01*
X129378033Y-81421967D01*
X129394291Y-81446299D01*
X129400000Y-81475000D01*
X129400000Y-82875000D01*
X129394291Y-82903701D01*
X129378033Y-82928033D01*
X129353701Y-82944291D01*
X129325000Y-82950000D01*
X129175000Y-82950000D01*
X129146299Y-82944291D01*
X129121967Y-82928033D01*
X129105709Y-82903701D01*
X129100000Y-82875000D01*
X129100000Y-81475000D01*
X129105709Y-81446299D01*
X129121967Y-81421967D01*
X129146299Y-81405709D01*
X129175000Y-81400000D01*
X129325000Y-81400000D01*
X129353701Y-81405709D01*
G37*
G36*
X129853701Y-81405709D02*
G01*
X129878033Y-81421967D01*
X129894291Y-81446299D01*
X129900000Y-81475000D01*
X129900000Y-82875000D01*
X129894291Y-82903701D01*
X129878033Y-82928033D01*
X129853701Y-82944291D01*
X129825000Y-82950000D01*
X129675000Y-82950000D01*
X129646299Y-82944291D01*
X129621967Y-82928033D01*
X129605709Y-82903701D01*
X129600000Y-82875000D01*
X129600000Y-81475000D01*
X129605709Y-81446299D01*
X129621967Y-81421967D01*
X129646299Y-81405709D01*
X129675000Y-81400000D01*
X129825000Y-81400000D01*
X129853701Y-81405709D01*
G37*
G36*
X130353701Y-81405709D02*
G01*
X130378033Y-81421967D01*
X130394291Y-81446299D01*
X130400000Y-81475000D01*
X130400000Y-82875000D01*
X130394291Y-82903701D01*
X130378033Y-82928033D01*
X130353701Y-82944291D01*
X130325000Y-82950000D01*
X130175000Y-82950000D01*
X130146299Y-82944291D01*
X130121967Y-82928033D01*
X130105709Y-82903701D01*
X130100000Y-82875000D01*
X130100000Y-81475000D01*
X130105709Y-81446299D01*
X130121967Y-81421967D01*
X130146299Y-81405709D01*
X130175000Y-81400000D01*
X130325000Y-81400000D01*
X130353701Y-81405709D01*
G37*
G36*
X130853701Y-81405709D02*
G01*
X130878033Y-81421967D01*
X130894291Y-81446299D01*
X130900000Y-81475000D01*
X130900000Y-82875000D01*
X130894291Y-82903701D01*
X130878033Y-82928033D01*
X130853701Y-82944291D01*
X130825000Y-82950000D01*
X130675000Y-82950000D01*
X130646299Y-82944291D01*
X130621967Y-82928033D01*
X130605709Y-82903701D01*
X130600000Y-82875000D01*
X130600000Y-81475000D01*
X130605709Y-81446299D01*
X130621967Y-81421967D01*
X130646299Y-81405709D01*
X130675000Y-81400000D01*
X130825000Y-81400000D01*
X130853701Y-81405709D01*
G37*
G36*
X131353701Y-81405709D02*
G01*
X131378033Y-81421967D01*
X131394291Y-81446299D01*
X131400000Y-81475000D01*
X131400000Y-82875000D01*
X131394291Y-82903701D01*
X131378033Y-82928033D01*
X131353701Y-82944291D01*
X131325000Y-82950000D01*
X131175000Y-82950000D01*
X131146299Y-82944291D01*
X131121967Y-82928033D01*
X131105709Y-82903701D01*
X131100000Y-82875000D01*
X131100000Y-81475000D01*
X131105709Y-81446299D01*
X131121967Y-81421967D01*
X131146299Y-81405709D01*
X131175000Y-81400000D01*
X131325000Y-81400000D01*
X131353701Y-81405709D01*
G37*
G36*
X131853701Y-81405709D02*
G01*
X131878033Y-81421967D01*
X131894291Y-81446299D01*
X131900000Y-81475000D01*
X131900000Y-82875000D01*
X131894291Y-82903701D01*
X131878033Y-82928033D01*
X131853701Y-82944291D01*
X131825000Y-82950000D01*
X131675000Y-82950000D01*
X131646299Y-82944291D01*
X131621967Y-82928033D01*
X131605709Y-82903701D01*
X131600000Y-82875000D01*
X131600000Y-81475000D01*
X131605709Y-81446299D01*
X131621967Y-81421967D01*
X131646299Y-81405709D01*
X131675000Y-81400000D01*
X131825000Y-81400000D01*
X131853701Y-81405709D01*
G37*
G36*
X132353701Y-81405709D02*
G01*
X132378033Y-81421967D01*
X132394291Y-81446299D01*
X132400000Y-81475000D01*
X132400000Y-82875000D01*
X132394291Y-82903701D01*
X132378033Y-82928033D01*
X132353701Y-82944291D01*
X132325000Y-82950000D01*
X132175000Y-82950000D01*
X132146299Y-82944291D01*
X132121967Y-82928033D01*
X132105709Y-82903701D01*
X132100000Y-82875000D01*
X132100000Y-81475000D01*
X132105709Y-81446299D01*
X132121967Y-81421967D01*
X132146299Y-81405709D01*
X132175000Y-81400000D01*
X132325000Y-81400000D01*
X132353701Y-81405709D01*
G37*
G36*
X132853701Y-81405709D02*
G01*
X132878033Y-81421967D01*
X132894291Y-81446299D01*
X132900000Y-81475000D01*
X132900000Y-82875000D01*
X132894291Y-82903701D01*
X132878033Y-82928033D01*
X132853701Y-82944291D01*
X132825000Y-82950000D01*
X132675000Y-82950000D01*
X132646299Y-82944291D01*
X132621967Y-82928033D01*
X132605709Y-82903701D01*
X132600000Y-82875000D01*
X132600000Y-81475000D01*
X132605709Y-81446299D01*
X132621967Y-81421967D01*
X132646299Y-81405709D01*
X132675000Y-81400000D01*
X132825000Y-81400000D01*
X132853701Y-81405709D01*
G37*
G36*
X133353701Y-81405709D02*
G01*
X133378033Y-81421967D01*
X133394291Y-81446299D01*
X133400000Y-81475000D01*
X133400000Y-82875000D01*
X133394291Y-82903701D01*
X133378033Y-82928033D01*
X133353701Y-82944291D01*
X133325000Y-82950000D01*
X133175000Y-82950000D01*
X133146299Y-82944291D01*
X133121967Y-82928033D01*
X133105709Y-82903701D01*
X133100000Y-82875000D01*
X133100000Y-81475000D01*
X133105709Y-81446299D01*
X133121967Y-81421967D01*
X133146299Y-81405709D01*
X133175000Y-81400000D01*
X133325000Y-81400000D01*
X133353701Y-81405709D01*
G37*
G36*
X133853701Y-81405709D02*
G01*
X133878033Y-81421967D01*
X133894291Y-81446299D01*
X133900000Y-81475000D01*
X133900000Y-82875000D01*
X133894291Y-82903701D01*
X133878033Y-82928033D01*
X133853701Y-82944291D01*
X133825000Y-82950000D01*
X133675000Y-82950000D01*
X133646299Y-82944291D01*
X133621967Y-82928033D01*
X133605709Y-82903701D01*
X133600000Y-82875000D01*
X133600000Y-81475000D01*
X133605709Y-81446299D01*
X133621967Y-81421967D01*
X133646299Y-81405709D01*
X133675000Y-81400000D01*
X133825000Y-81400000D01*
X133853701Y-81405709D01*
G37*
G36*
X137800000Y-82900000D02*
G01*
X136200000Y-82900000D01*
X136200000Y-82000000D01*
X137800000Y-82000000D01*
X137800000Y-82900000D01*
G37*
G36*
X106250000Y-82750000D02*
G01*
X104750000Y-82750000D01*
X104750000Y-81250000D01*
X106250000Y-81250000D01*
X106250000Y-82750000D01*
G37*
G36*
X103217714Y-81282295D02*
G01*
X103353548Y-81338559D01*
X103475795Y-81420242D01*
X103579758Y-81524205D01*
X103661441Y-81646452D01*
X103717705Y-81782286D01*
X103746389Y-81926487D01*
X103746389Y-82073513D01*
X103717705Y-82217714D01*
X103661441Y-82353548D01*
X103579758Y-82475795D01*
X103475795Y-82579758D01*
X103353548Y-82661441D01*
X103217714Y-82717705D01*
X103073513Y-82746389D01*
X102926487Y-82746389D01*
X102782286Y-82717705D01*
X102646452Y-82661441D01*
X102524205Y-82579758D01*
X102420242Y-82475795D01*
X102338559Y-82353548D01*
X102282295Y-82217714D01*
X102253611Y-82073513D01*
X102253611Y-81926487D01*
X102282295Y-81782286D01*
X102338559Y-81646452D01*
X102420242Y-81524205D01*
X102524205Y-81420242D01*
X102646452Y-81338559D01*
X102782286Y-81282295D01*
X102926487Y-81253611D01*
X103073513Y-81253611D01*
X103217714Y-81282295D01*
G37*
G36*
X84290285Y-80543060D02*
G01*
X84471397Y-80618079D01*
X84634393Y-80726990D01*
X84773010Y-80865607D01*
X84881921Y-81028603D01*
X84956940Y-81209715D01*
X84995185Y-81401983D01*
X84995185Y-81598017D01*
X84956940Y-81790285D01*
X84881921Y-81971397D01*
X84773010Y-82134393D01*
X84634393Y-82273010D01*
X84471397Y-82381921D01*
X84290285Y-82456940D01*
X84098017Y-82495185D01*
X83901983Y-82495185D01*
X83709715Y-82456940D01*
X83528603Y-82381921D01*
X83365607Y-82273010D01*
X83226990Y-82134393D01*
X83118079Y-81971397D01*
X83043060Y-81790285D01*
X83004815Y-81598017D01*
X83004815Y-81401983D01*
X83043060Y-81209715D01*
X83118079Y-81028603D01*
X83226990Y-80865607D01*
X83365607Y-80726990D01*
X83528603Y-80618079D01*
X83709715Y-80543060D01*
X83901983Y-80504815D01*
X84098017Y-80504815D01*
X84290285Y-80543060D01*
G37*
G36*
X149800000Y-81950000D02*
G01*
X148200000Y-81950000D01*
X148200000Y-81050000D01*
X149800000Y-81050000D01*
X149800000Y-81950000D01*
G37*
G36*
X175290285Y-79543060D02*
G01*
X175471397Y-79618079D01*
X175634393Y-79726990D01*
X175773010Y-79865607D01*
X175881921Y-80028603D01*
X175956940Y-80209715D01*
X175995185Y-80401983D01*
X175995185Y-80598017D01*
X175956940Y-80790285D01*
X175881921Y-80971397D01*
X175773010Y-81134393D01*
X175634393Y-81273010D01*
X175471397Y-81381921D01*
X175290285Y-81456940D01*
X175098017Y-81495185D01*
X174901983Y-81495185D01*
X174709715Y-81456940D01*
X174528603Y-81381921D01*
X174365607Y-81273010D01*
X174226990Y-81134393D01*
X174118079Y-80971397D01*
X174043060Y-80790285D01*
X174004815Y-80598017D01*
X174004815Y-80401983D01*
X174043060Y-80209715D01*
X174118079Y-80028603D01*
X174226990Y-79865607D01*
X174365607Y-79726990D01*
X174528603Y-79618079D01*
X174709715Y-79543060D01*
X174901983Y-79504815D01*
X175098017Y-79504815D01*
X175290285Y-79543060D01*
G37*
G36*
X125053701Y-80105709D02*
G01*
X125078033Y-80121967D01*
X125094291Y-80146299D01*
X125100000Y-80175000D01*
X125100000Y-80325000D01*
X125094291Y-80353701D01*
X125078033Y-80378033D01*
X125053701Y-80394291D01*
X125025000Y-80400000D01*
X123625000Y-80400000D01*
X123596299Y-80394291D01*
X123571967Y-80378033D01*
X123555709Y-80353701D01*
X123550000Y-80325000D01*
X123550000Y-80175000D01*
X123555709Y-80146299D01*
X123571967Y-80121967D01*
X123596299Y-80105709D01*
X123625000Y-80100000D01*
X125025000Y-80100000D01*
X125053701Y-80105709D01*
G37*
G36*
X136403701Y-80105709D02*
G01*
X136428033Y-80121967D01*
X136444291Y-80146299D01*
X136450000Y-80175000D01*
X136450000Y-80325000D01*
X136444291Y-80353701D01*
X136428033Y-80378033D01*
X136403701Y-80394291D01*
X136375000Y-80400000D01*
X134975000Y-80400000D01*
X134946299Y-80394291D01*
X134921967Y-80378033D01*
X134905709Y-80353701D01*
X134900000Y-80325000D01*
X134900000Y-80175000D01*
X134905709Y-80146299D01*
X134921967Y-80121967D01*
X134946299Y-80105709D01*
X134975000Y-80100000D01*
X136375000Y-80100000D01*
X136403701Y-80105709D01*
G37*
G36*
X125053701Y-79605709D02*
G01*
X125078033Y-79621967D01*
X125094291Y-79646299D01*
X125100000Y-79675000D01*
X125100000Y-79825000D01*
X125094291Y-79853701D01*
X125078033Y-79878033D01*
X125053701Y-79894291D01*
X125025000Y-79900000D01*
X123625000Y-79900000D01*
X123596299Y-79894291D01*
X123571967Y-79878033D01*
X123555709Y-79853701D01*
X123550000Y-79825000D01*
X123550000Y-79675000D01*
X123555709Y-79646299D01*
X123571967Y-79621967D01*
X123596299Y-79605709D01*
X123625000Y-79600000D01*
X125025000Y-79600000D01*
X125053701Y-79605709D01*
G37*
G36*
X136403701Y-79605709D02*
G01*
X136428033Y-79621967D01*
X136444291Y-79646299D01*
X136450000Y-79675000D01*
X136450000Y-79825000D01*
X136444291Y-79853701D01*
X136428033Y-79878033D01*
X136403701Y-79894291D01*
X136375000Y-79900000D01*
X134975000Y-79900000D01*
X134946299Y-79894291D01*
X134921967Y-79878033D01*
X134905709Y-79853701D01*
X134900000Y-79825000D01*
X134900000Y-79675000D01*
X134905709Y-79646299D01*
X134921967Y-79621967D01*
X134946299Y-79605709D01*
X134975000Y-79600000D01*
X136375000Y-79600000D01*
X136403701Y-79605709D01*
G37*
G36*
X125053701Y-79105709D02*
G01*
X125078033Y-79121967D01*
X125094291Y-79146299D01*
X125100000Y-79175000D01*
X125100000Y-79325000D01*
X125094291Y-79353701D01*
X125078033Y-79378033D01*
X125053701Y-79394291D01*
X125025000Y-79400000D01*
X123625000Y-79400000D01*
X123596299Y-79394291D01*
X123571967Y-79378033D01*
X123555709Y-79353701D01*
X123550000Y-79325000D01*
X123550000Y-79175000D01*
X123555709Y-79146299D01*
X123571967Y-79121967D01*
X123596299Y-79105709D01*
X123625000Y-79100000D01*
X125025000Y-79100000D01*
X125053701Y-79105709D01*
G37*
G36*
X136403701Y-79105709D02*
G01*
X136428033Y-79121967D01*
X136444291Y-79146299D01*
X136450000Y-79175000D01*
X136450000Y-79325000D01*
X136444291Y-79353701D01*
X136428033Y-79378033D01*
X136403701Y-79394291D01*
X136375000Y-79400000D01*
X134975000Y-79400000D01*
X134946299Y-79394291D01*
X134921967Y-79378033D01*
X134905709Y-79353701D01*
X134900000Y-79325000D01*
X134900000Y-79175000D01*
X134905709Y-79146299D01*
X134921967Y-79121967D01*
X134946299Y-79105709D01*
X134975000Y-79100000D01*
X136375000Y-79100000D01*
X136403701Y-79105709D01*
G37*
G36*
X125053701Y-78605709D02*
G01*
X125078033Y-78621967D01*
X125094291Y-78646299D01*
X125100000Y-78675000D01*
X125100000Y-78825000D01*
X125094291Y-78853701D01*
X125078033Y-78878033D01*
X125053701Y-78894291D01*
X125025000Y-78900000D01*
X123625000Y-78900000D01*
X123596299Y-78894291D01*
X123571967Y-78878033D01*
X123555709Y-78853701D01*
X123550000Y-78825000D01*
X123550000Y-78675000D01*
X123555709Y-78646299D01*
X123571967Y-78621967D01*
X123596299Y-78605709D01*
X123625000Y-78600000D01*
X125025000Y-78600000D01*
X125053701Y-78605709D01*
G37*
G36*
X136403701Y-78605709D02*
G01*
X136428033Y-78621967D01*
X136444291Y-78646299D01*
X136450000Y-78675000D01*
X136450000Y-78825000D01*
X136444291Y-78853701D01*
X136428033Y-78878033D01*
X136403701Y-78894291D01*
X136375000Y-78900000D01*
X134975000Y-78900000D01*
X134946299Y-78894291D01*
X134921967Y-78878033D01*
X134905709Y-78853701D01*
X134900000Y-78825000D01*
X134900000Y-78675000D01*
X134905709Y-78646299D01*
X134921967Y-78621967D01*
X134946299Y-78605709D01*
X134975000Y-78600000D01*
X136375000Y-78600000D01*
X136403701Y-78605709D01*
G37*
G36*
X158900000Y-78750000D02*
G01*
X157600000Y-78750000D01*
X157600000Y-77200000D01*
X158900000Y-77200000D01*
X158900000Y-78750000D01*
G37*
G36*
X163400000Y-78750000D02*
G01*
X162100000Y-78750000D01*
X162100000Y-77200000D01*
X163400000Y-77200000D01*
X163400000Y-78750000D01*
G37*
G36*
X125053701Y-78105709D02*
G01*
X125078033Y-78121967D01*
X125094291Y-78146299D01*
X125100000Y-78175000D01*
X125100000Y-78325000D01*
X125094291Y-78353701D01*
X125078033Y-78378033D01*
X125053701Y-78394291D01*
X125025000Y-78400000D01*
X123625000Y-78400000D01*
X123596299Y-78394291D01*
X123571967Y-78378033D01*
X123555709Y-78353701D01*
X123550000Y-78325000D01*
X123550000Y-78175000D01*
X123555709Y-78146299D01*
X123571967Y-78121967D01*
X123596299Y-78105709D01*
X123625000Y-78100000D01*
X125025000Y-78100000D01*
X125053701Y-78105709D01*
G37*
G36*
X136403701Y-78105709D02*
G01*
X136428033Y-78121967D01*
X136444291Y-78146299D01*
X136450000Y-78175000D01*
X136450000Y-78325000D01*
X136444291Y-78353701D01*
X136428033Y-78378033D01*
X136403701Y-78394291D01*
X136375000Y-78400000D01*
X134975000Y-78400000D01*
X134946299Y-78394291D01*
X134921967Y-78378033D01*
X134905709Y-78353701D01*
X134900000Y-78325000D01*
X134900000Y-78175000D01*
X134905709Y-78146299D01*
X134921967Y-78121967D01*
X134946299Y-78105709D01*
X134975000Y-78100000D01*
X136375000Y-78100000D01*
X136403701Y-78105709D01*
G37*
G36*
X111900000Y-78300000D02*
G01*
X111000000Y-78300000D01*
X111000000Y-76700000D01*
X111900000Y-76700000D01*
X111900000Y-78300000D01*
G37*
G36*
X115000000Y-78300000D02*
G01*
X114100000Y-78300000D01*
X114100000Y-76700000D01*
X115000000Y-76700000D01*
X115000000Y-78300000D01*
G37*
G36*
X119188685Y-76877989D02*
G01*
X119306408Y-76926751D01*
X119412356Y-76997543D01*
X119502457Y-77087644D01*
X119573249Y-77193592D01*
X119622011Y-77311315D01*
X119646870Y-77436289D01*
X119646870Y-77563711D01*
X119622011Y-77688685D01*
X119573249Y-77806408D01*
X119502457Y-77912356D01*
X119412356Y-78002457D01*
X119306408Y-78073249D01*
X119188685Y-78122011D01*
X119063711Y-78146870D01*
X118936289Y-78146870D01*
X118811315Y-78122011D01*
X118693592Y-78073249D01*
X118587644Y-78002457D01*
X118497543Y-77912356D01*
X118426751Y-77806408D01*
X118377989Y-77688685D01*
X118353130Y-77563711D01*
X118353130Y-77436289D01*
X118377989Y-77311315D01*
X118426751Y-77193592D01*
X118497543Y-77087644D01*
X118587644Y-76997543D01*
X118693592Y-76926751D01*
X118811315Y-76877989D01*
X118936289Y-76853130D01*
X119063711Y-76853130D01*
X119188685Y-76877989D01*
G37*
G36*
X125053701Y-77605709D02*
G01*
X125078033Y-77621967D01*
X125094291Y-77646299D01*
X125100000Y-77675000D01*
X125100000Y-77825000D01*
X125094291Y-77853701D01*
X125078033Y-77878033D01*
X125053701Y-77894291D01*
X125025000Y-77900000D01*
X123625000Y-77900000D01*
X123596299Y-77894291D01*
X123571967Y-77878033D01*
X123555709Y-77853701D01*
X123550000Y-77825000D01*
X123550000Y-77675000D01*
X123555709Y-77646299D01*
X123571967Y-77621967D01*
X123596299Y-77605709D01*
X123625000Y-77600000D01*
X125025000Y-77600000D01*
X125053701Y-77605709D01*
G37*
G36*
X136403701Y-77605709D02*
G01*
X136428033Y-77621967D01*
X136444291Y-77646299D01*
X136450000Y-77675000D01*
X136450000Y-77825000D01*
X136444291Y-77853701D01*
X136428033Y-77878033D01*
X136403701Y-77894291D01*
X136375000Y-77900000D01*
X134975000Y-77900000D01*
X134946299Y-77894291D01*
X134921967Y-77878033D01*
X134905709Y-77853701D01*
X134900000Y-77825000D01*
X134900000Y-77675000D01*
X134905709Y-77646299D01*
X134921967Y-77621967D01*
X134946299Y-77605709D01*
X134975000Y-77600000D01*
X136375000Y-77600000D01*
X136403701Y-77605709D01*
G37*
G36*
X125053701Y-77105709D02*
G01*
X125078033Y-77121967D01*
X125094291Y-77146299D01*
X125100000Y-77175000D01*
X125100000Y-77325000D01*
X125094291Y-77353701D01*
X125078033Y-77378033D01*
X125053701Y-77394291D01*
X125025000Y-77400000D01*
X123625000Y-77400000D01*
X123596299Y-77394291D01*
X123571967Y-77378033D01*
X123555709Y-77353701D01*
X123550000Y-77325000D01*
X123550000Y-77175000D01*
X123555709Y-77146299D01*
X123571967Y-77121967D01*
X123596299Y-77105709D01*
X123625000Y-77100000D01*
X125025000Y-77100000D01*
X125053701Y-77105709D01*
G37*
G36*
X136403701Y-77105709D02*
G01*
X136428033Y-77121967D01*
X136444291Y-77146299D01*
X136450000Y-77175000D01*
X136450000Y-77325000D01*
X136444291Y-77353701D01*
X136428033Y-77378033D01*
X136403701Y-77394291D01*
X136375000Y-77400000D01*
X134975000Y-77400000D01*
X134946299Y-77394291D01*
X134921967Y-77378033D01*
X134905709Y-77353701D01*
X134900000Y-77325000D01*
X134900000Y-77175000D01*
X134905709Y-77146299D01*
X134921967Y-77121967D01*
X134946299Y-77105709D01*
X134975000Y-77100000D01*
X136375000Y-77100000D01*
X136403701Y-77105709D01*
G37*
G36*
X125053701Y-76605709D02*
G01*
X125078033Y-76621967D01*
X125094291Y-76646299D01*
X125100000Y-76675000D01*
X125100000Y-76825000D01*
X125094291Y-76853701D01*
X125078033Y-76878033D01*
X125053701Y-76894291D01*
X125025000Y-76900000D01*
X123625000Y-76900000D01*
X123596299Y-76894291D01*
X123571967Y-76878033D01*
X123555709Y-76853701D01*
X123550000Y-76825000D01*
X123550000Y-76675000D01*
X123555709Y-76646299D01*
X123571967Y-76621967D01*
X123596299Y-76605709D01*
X123625000Y-76600000D01*
X125025000Y-76600000D01*
X125053701Y-76605709D01*
G37*
G36*
X136403701Y-76605709D02*
G01*
X136428033Y-76621967D01*
X136444291Y-76646299D01*
X136450000Y-76675000D01*
X136450000Y-76825000D01*
X136444291Y-76853701D01*
X136428033Y-76878033D01*
X136403701Y-76894291D01*
X136375000Y-76900000D01*
X134975000Y-76900000D01*
X134946299Y-76894291D01*
X134921967Y-76878033D01*
X134905709Y-76853701D01*
X134900000Y-76825000D01*
X134900000Y-76675000D01*
X134905709Y-76646299D01*
X134921967Y-76621967D01*
X134946299Y-76605709D01*
X134975000Y-76600000D01*
X136375000Y-76600000D01*
X136403701Y-76605709D01*
G37*
G36*
X84290285Y-74543060D02*
G01*
X84471397Y-74618079D01*
X84634393Y-74726990D01*
X84773010Y-74865607D01*
X84881921Y-75028603D01*
X84956940Y-75209715D01*
X84995185Y-75401983D01*
X84995185Y-75598017D01*
X84956940Y-75790285D01*
X84881921Y-75971397D01*
X84773010Y-76134393D01*
X84634393Y-76273010D01*
X84471397Y-76381921D01*
X84290285Y-76456940D01*
X84098017Y-76495185D01*
X83901983Y-76495185D01*
X83709715Y-76456940D01*
X83528603Y-76381921D01*
X83365607Y-76273010D01*
X83226990Y-76134393D01*
X83118079Y-75971397D01*
X83043060Y-75790285D01*
X83004815Y-75598017D01*
X83004815Y-75401983D01*
X83043060Y-75209715D01*
X83118079Y-75028603D01*
X83226990Y-74865607D01*
X83365607Y-74726990D01*
X83528603Y-74618079D01*
X83709715Y-74543060D01*
X83901983Y-74504815D01*
X84098017Y-74504815D01*
X84290285Y-74543060D01*
G37*
G36*
X125053701Y-76105709D02*
G01*
X125078033Y-76121967D01*
X125094291Y-76146299D01*
X125100000Y-76175000D01*
X125100000Y-76325000D01*
X125094291Y-76353701D01*
X125078033Y-76378033D01*
X125053701Y-76394291D01*
X125025000Y-76400000D01*
X123625000Y-76400000D01*
X123596299Y-76394291D01*
X123571967Y-76378033D01*
X123555709Y-76353701D01*
X123550000Y-76325000D01*
X123550000Y-76175000D01*
X123555709Y-76146299D01*
X123571967Y-76121967D01*
X123596299Y-76105709D01*
X123625000Y-76100000D01*
X125025000Y-76100000D01*
X125053701Y-76105709D01*
G37*
G36*
X136403701Y-76105709D02*
G01*
X136428033Y-76121967D01*
X136444291Y-76146299D01*
X136450000Y-76175000D01*
X136450000Y-76325000D01*
X136444291Y-76353701D01*
X136428033Y-76378033D01*
X136403701Y-76394291D01*
X136375000Y-76400000D01*
X134975000Y-76400000D01*
X134946299Y-76394291D01*
X134921967Y-76378033D01*
X134905709Y-76353701D01*
X134900000Y-76325000D01*
X134900000Y-76175000D01*
X134905709Y-76146299D01*
X134921967Y-76121967D01*
X134946299Y-76105709D01*
X134975000Y-76100000D01*
X136375000Y-76100000D01*
X136403701Y-76105709D01*
G37*
G36*
X125053701Y-75605709D02*
G01*
X125078033Y-75621967D01*
X125094291Y-75646299D01*
X125100000Y-75675000D01*
X125100000Y-75825000D01*
X125094291Y-75853701D01*
X125078033Y-75878033D01*
X125053701Y-75894291D01*
X125025000Y-75900000D01*
X123625000Y-75900000D01*
X123596299Y-75894291D01*
X123571967Y-75878033D01*
X123555709Y-75853701D01*
X123550000Y-75825000D01*
X123550000Y-75675000D01*
X123555709Y-75646299D01*
X123571967Y-75621967D01*
X123596299Y-75605709D01*
X123625000Y-75600000D01*
X125025000Y-75600000D01*
X125053701Y-75605709D01*
G37*
G36*
X136403701Y-75605709D02*
G01*
X136428033Y-75621967D01*
X136444291Y-75646299D01*
X136450000Y-75675000D01*
X136450000Y-75825000D01*
X136444291Y-75853701D01*
X136428033Y-75878033D01*
X136403701Y-75894291D01*
X136375000Y-75900000D01*
X134975000Y-75900000D01*
X134946299Y-75894291D01*
X134921967Y-75878033D01*
X134905709Y-75853701D01*
X134900000Y-75825000D01*
X134900000Y-75675000D01*
X134905709Y-75646299D01*
X134921967Y-75621967D01*
X134946299Y-75605709D01*
X134975000Y-75600000D01*
X136375000Y-75600000D01*
X136403701Y-75605709D01*
G37*
G36*
X125053701Y-75105709D02*
G01*
X125078033Y-75121967D01*
X125094291Y-75146299D01*
X125100000Y-75175000D01*
X125100000Y-75325000D01*
X125094291Y-75353701D01*
X125078033Y-75378033D01*
X125053701Y-75394291D01*
X125025000Y-75400000D01*
X123625000Y-75400000D01*
X123596299Y-75394291D01*
X123571967Y-75378033D01*
X123555709Y-75353701D01*
X123550000Y-75325000D01*
X123550000Y-75175000D01*
X123555709Y-75146299D01*
X123571967Y-75121967D01*
X123596299Y-75105709D01*
X123625000Y-75100000D01*
X125025000Y-75100000D01*
X125053701Y-75105709D01*
G37*
G36*
X136403701Y-75105709D02*
G01*
X136428033Y-75121967D01*
X136444291Y-75146299D01*
X136450000Y-75175000D01*
X136450000Y-75325000D01*
X136444291Y-75353701D01*
X136428033Y-75378033D01*
X136403701Y-75394291D01*
X136375000Y-75400000D01*
X134975000Y-75400000D01*
X134946299Y-75394291D01*
X134921967Y-75378033D01*
X134905709Y-75353701D01*
X134900000Y-75325000D01*
X134900000Y-75175000D01*
X134905709Y-75146299D01*
X134921967Y-75121967D01*
X134946299Y-75105709D01*
X134975000Y-75100000D01*
X136375000Y-75100000D01*
X136403701Y-75105709D01*
G37*
G36*
X125053701Y-74605709D02*
G01*
X125078033Y-74621967D01*
X125094291Y-74646299D01*
X125100000Y-74675000D01*
X125100000Y-74825000D01*
X125094291Y-74853701D01*
X125078033Y-74878033D01*
X125053701Y-74894291D01*
X125025000Y-74900000D01*
X123625000Y-74900000D01*
X123596299Y-74894291D01*
X123571967Y-74878033D01*
X123555709Y-74853701D01*
X123550000Y-74825000D01*
X123550000Y-74675000D01*
X123555709Y-74646299D01*
X123571967Y-74621967D01*
X123596299Y-74605709D01*
X123625000Y-74600000D01*
X125025000Y-74600000D01*
X125053701Y-74605709D01*
G37*
G36*
X136403701Y-74605709D02*
G01*
X136428033Y-74621967D01*
X136444291Y-74646299D01*
X136450000Y-74675000D01*
X136450000Y-74825000D01*
X136444291Y-74853701D01*
X136428033Y-74878033D01*
X136403701Y-74894291D01*
X136375000Y-74900000D01*
X134975000Y-74900000D01*
X134946299Y-74894291D01*
X134921967Y-74878033D01*
X134905709Y-74853701D01*
X134900000Y-74825000D01*
X134900000Y-74675000D01*
X134905709Y-74646299D01*
X134921967Y-74621967D01*
X134946299Y-74605709D01*
X134975000Y-74600000D01*
X136375000Y-74600000D01*
X136403701Y-74605709D01*
G37*
G36*
X125053701Y-74105709D02*
G01*
X125078033Y-74121967D01*
X125094291Y-74146299D01*
X125100000Y-74175000D01*
X125100000Y-74325000D01*
X125094291Y-74353701D01*
X125078033Y-74378033D01*
X125053701Y-74394291D01*
X125025000Y-74400000D01*
X123625000Y-74400000D01*
X123596299Y-74394291D01*
X123571967Y-74378033D01*
X123555709Y-74353701D01*
X123550000Y-74325000D01*
X123550000Y-74175000D01*
X123555709Y-74146299D01*
X123571967Y-74121967D01*
X123596299Y-74105709D01*
X123625000Y-74100000D01*
X125025000Y-74100000D01*
X125053701Y-74105709D01*
G37*
G36*
X136403701Y-74105709D02*
G01*
X136428033Y-74121967D01*
X136444291Y-74146299D01*
X136450000Y-74175000D01*
X136450000Y-74325000D01*
X136444291Y-74353701D01*
X136428033Y-74378033D01*
X136403701Y-74394291D01*
X136375000Y-74400000D01*
X134975000Y-74400000D01*
X134946299Y-74394291D01*
X134921967Y-74378033D01*
X134905709Y-74353701D01*
X134900000Y-74325000D01*
X134900000Y-74175000D01*
X134905709Y-74146299D01*
X134921967Y-74121967D01*
X134946299Y-74105709D01*
X134975000Y-74100000D01*
X136375000Y-74100000D01*
X136403701Y-74105709D01*
G37*
G36*
X125053701Y-73605709D02*
G01*
X125078033Y-73621967D01*
X125094291Y-73646299D01*
X125100000Y-73675000D01*
X125100000Y-73825000D01*
X125094291Y-73853701D01*
X125078033Y-73878033D01*
X125053701Y-73894291D01*
X125025000Y-73900000D01*
X123625000Y-73900000D01*
X123596299Y-73894291D01*
X123571967Y-73878033D01*
X123555709Y-73853701D01*
X123550000Y-73825000D01*
X123550000Y-73675000D01*
X123555709Y-73646299D01*
X123571967Y-73621967D01*
X123596299Y-73605709D01*
X123625000Y-73600000D01*
X125025000Y-73600000D01*
X125053701Y-73605709D01*
G37*
G36*
X136403701Y-73605709D02*
G01*
X136428033Y-73621967D01*
X136444291Y-73646299D01*
X136450000Y-73675000D01*
X136450000Y-73825000D01*
X136444291Y-73853701D01*
X136428033Y-73878033D01*
X136403701Y-73894291D01*
X136375000Y-73900000D01*
X134975000Y-73900000D01*
X134946299Y-73894291D01*
X134921967Y-73878033D01*
X134905709Y-73853701D01*
X134900000Y-73825000D01*
X134900000Y-73675000D01*
X134905709Y-73646299D01*
X134921967Y-73621967D01*
X134946299Y-73605709D01*
X134975000Y-73600000D01*
X136375000Y-73600000D01*
X136403701Y-73605709D01*
G37*
G36*
X111900000Y-73420000D02*
G01*
X111000000Y-73420000D01*
X111000000Y-71820000D01*
X111900000Y-71820000D01*
X111900000Y-73420000D01*
G37*
G36*
X115000000Y-73420000D02*
G01*
X114100000Y-73420000D01*
X114100000Y-71820000D01*
X115000000Y-71820000D01*
X115000000Y-73420000D01*
G37*
G36*
X125053701Y-73105709D02*
G01*
X125078033Y-73121967D01*
X125094291Y-73146299D01*
X125100000Y-73175000D01*
X125100000Y-73325000D01*
X125094291Y-73353701D01*
X125078033Y-73378033D01*
X125053701Y-73394291D01*
X125025000Y-73400000D01*
X123625000Y-73400000D01*
X123596299Y-73394291D01*
X123571967Y-73378033D01*
X123555709Y-73353701D01*
X123550000Y-73325000D01*
X123550000Y-73175000D01*
X123555709Y-73146299D01*
X123571967Y-73121967D01*
X123596299Y-73105709D01*
X123625000Y-73100000D01*
X125025000Y-73100000D01*
X125053701Y-73105709D01*
G37*
G36*
X136403701Y-73105709D02*
G01*
X136428033Y-73121967D01*
X136444291Y-73146299D01*
X136450000Y-73175000D01*
X136450000Y-73325000D01*
X136444291Y-73353701D01*
X136428033Y-73378033D01*
X136403701Y-73394291D01*
X136375000Y-73400000D01*
X134975000Y-73400000D01*
X134946299Y-73394291D01*
X134921967Y-73378033D01*
X134905709Y-73353701D01*
X134900000Y-73325000D01*
X134900000Y-73175000D01*
X134905709Y-73146299D01*
X134921967Y-73121967D01*
X134946299Y-73105709D01*
X134975000Y-73100000D01*
X136375000Y-73100000D01*
X136403701Y-73105709D01*
G37*
G36*
X119650000Y-73270000D02*
G01*
X118350000Y-73270000D01*
X118350000Y-71970000D01*
X119650000Y-71970000D01*
X119650000Y-73270000D01*
G37*
G36*
X139800000Y-73000000D02*
G01*
X138200000Y-73000000D01*
X138200000Y-72100000D01*
X139800000Y-72100000D01*
X139800000Y-73000000D01*
G37*
G36*
X125053701Y-72605709D02*
G01*
X125078033Y-72621967D01*
X125094291Y-72646299D01*
X125100000Y-72675000D01*
X125100000Y-72825000D01*
X125094291Y-72853701D01*
X125078033Y-72878033D01*
X125053701Y-72894291D01*
X125025000Y-72900000D01*
X123625000Y-72900000D01*
X123596299Y-72894291D01*
X123571967Y-72878033D01*
X123555709Y-72853701D01*
X123550000Y-72825000D01*
X123550000Y-72675000D01*
X123555709Y-72646299D01*
X123571967Y-72621967D01*
X123596299Y-72605709D01*
X123625000Y-72600000D01*
X125025000Y-72600000D01*
X125053701Y-72605709D01*
G37*
G36*
X136403701Y-72605709D02*
G01*
X136428033Y-72621967D01*
X136444291Y-72646299D01*
X136450000Y-72675000D01*
X136450000Y-72825000D01*
X136444291Y-72853701D01*
X136428033Y-72878033D01*
X136403701Y-72894291D01*
X136375000Y-72900000D01*
X134975000Y-72900000D01*
X134946299Y-72894291D01*
X134921967Y-72878033D01*
X134905709Y-72853701D01*
X134900000Y-72825000D01*
X134900000Y-72675000D01*
X134905709Y-72646299D01*
X134921967Y-72621967D01*
X134946299Y-72605709D01*
X134975000Y-72600000D01*
X136375000Y-72600000D01*
X136403701Y-72605709D01*
G37*
G36*
X126353701Y-70055709D02*
G01*
X126378033Y-70071967D01*
X126394291Y-70096299D01*
X126400000Y-70125000D01*
X126400000Y-71525000D01*
X126394291Y-71553701D01*
X126378033Y-71578033D01*
X126353701Y-71594291D01*
X126325000Y-71600000D01*
X126175000Y-71600000D01*
X126146299Y-71594291D01*
X126121967Y-71578033D01*
X126105709Y-71553701D01*
X126100000Y-71525000D01*
X126100000Y-70125000D01*
X126105709Y-70096299D01*
X126121967Y-70071967D01*
X126146299Y-70055709D01*
X126175000Y-70050000D01*
X126325000Y-70050000D01*
X126353701Y-70055709D01*
G37*
G36*
X126853701Y-70055709D02*
G01*
X126878033Y-70071967D01*
X126894291Y-70096299D01*
X126900000Y-70125000D01*
X126900000Y-71525000D01*
X126894291Y-71553701D01*
X126878033Y-71578033D01*
X126853701Y-71594291D01*
X126825000Y-71600000D01*
X126675000Y-71600000D01*
X126646299Y-71594291D01*
X126621967Y-71578033D01*
X126605709Y-71553701D01*
X126600000Y-71525000D01*
X126600000Y-70125000D01*
X126605709Y-70096299D01*
X126621967Y-70071967D01*
X126646299Y-70055709D01*
X126675000Y-70050000D01*
X126825000Y-70050000D01*
X126853701Y-70055709D01*
G37*
G36*
X127353701Y-70055709D02*
G01*
X127378033Y-70071967D01*
X127394291Y-70096299D01*
X127400000Y-70125000D01*
X127400000Y-71525000D01*
X127394291Y-71553701D01*
X127378033Y-71578033D01*
X127353701Y-71594291D01*
X127325000Y-71600000D01*
X127175000Y-71600000D01*
X127146299Y-71594291D01*
X127121967Y-71578033D01*
X127105709Y-71553701D01*
X127100000Y-71525000D01*
X127100000Y-70125000D01*
X127105709Y-70096299D01*
X127121967Y-70071967D01*
X127146299Y-70055709D01*
X127175000Y-70050000D01*
X127325000Y-70050000D01*
X127353701Y-70055709D01*
G37*
G36*
X127853701Y-70055709D02*
G01*
X127878033Y-70071967D01*
X127894291Y-70096299D01*
X127900000Y-70125000D01*
X127900000Y-71525000D01*
X127894291Y-71553701D01*
X127878033Y-71578033D01*
X127853701Y-71594291D01*
X127825000Y-71600000D01*
X127675000Y-71600000D01*
X127646299Y-71594291D01*
X127621967Y-71578033D01*
X127605709Y-71553701D01*
X127600000Y-71525000D01*
X127600000Y-70125000D01*
X127605709Y-70096299D01*
X127621967Y-70071967D01*
X127646299Y-70055709D01*
X127675000Y-70050000D01*
X127825000Y-70050000D01*
X127853701Y-70055709D01*
G37*
G36*
X128353701Y-70055709D02*
G01*
X128378033Y-70071967D01*
X128394291Y-70096299D01*
X128400000Y-70125000D01*
X128400000Y-71525000D01*
X128394291Y-71553701D01*
X128378033Y-71578033D01*
X128353701Y-71594291D01*
X128325000Y-71600000D01*
X128175000Y-71600000D01*
X128146299Y-71594291D01*
X128121967Y-71578033D01*
X128105709Y-71553701D01*
X128100000Y-71525000D01*
X128100000Y-70125000D01*
X128105709Y-70096299D01*
X128121967Y-70071967D01*
X128146299Y-70055709D01*
X128175000Y-70050000D01*
X128325000Y-70050000D01*
X128353701Y-70055709D01*
G37*
G36*
X128853701Y-70055709D02*
G01*
X128878033Y-70071967D01*
X128894291Y-70096299D01*
X128900000Y-70125000D01*
X128900000Y-71525000D01*
X128894291Y-71553701D01*
X128878033Y-71578033D01*
X128853701Y-71594291D01*
X128825000Y-71600000D01*
X128675000Y-71600000D01*
X128646299Y-71594291D01*
X128621967Y-71578033D01*
X128605709Y-71553701D01*
X128600000Y-71525000D01*
X128600000Y-70125000D01*
X128605709Y-70096299D01*
X128621967Y-70071967D01*
X128646299Y-70055709D01*
X128675000Y-70050000D01*
X128825000Y-70050000D01*
X128853701Y-70055709D01*
G37*
G36*
X129353701Y-70055709D02*
G01*
X129378033Y-70071967D01*
X129394291Y-70096299D01*
X129400000Y-70125000D01*
X129400000Y-71525000D01*
X129394291Y-71553701D01*
X129378033Y-71578033D01*
X129353701Y-71594291D01*
X129325000Y-71600000D01*
X129175000Y-71600000D01*
X129146299Y-71594291D01*
X129121967Y-71578033D01*
X129105709Y-71553701D01*
X129100000Y-71525000D01*
X129100000Y-70125000D01*
X129105709Y-70096299D01*
X129121967Y-70071967D01*
X129146299Y-70055709D01*
X129175000Y-70050000D01*
X129325000Y-70050000D01*
X129353701Y-70055709D01*
G37*
G36*
X129853701Y-70055709D02*
G01*
X129878033Y-70071967D01*
X129894291Y-70096299D01*
X129900000Y-70125000D01*
X129900000Y-71525000D01*
X129894291Y-71553701D01*
X129878033Y-71578033D01*
X129853701Y-71594291D01*
X129825000Y-71600000D01*
X129675000Y-71600000D01*
X129646299Y-71594291D01*
X129621967Y-71578033D01*
X129605709Y-71553701D01*
X129600000Y-71525000D01*
X129600000Y-70125000D01*
X129605709Y-70096299D01*
X129621967Y-70071967D01*
X129646299Y-70055709D01*
X129675000Y-70050000D01*
X129825000Y-70050000D01*
X129853701Y-70055709D01*
G37*
G36*
X130353701Y-70055709D02*
G01*
X130378033Y-70071967D01*
X130394291Y-70096299D01*
X130400000Y-70125000D01*
X130400000Y-71525000D01*
X130394291Y-71553701D01*
X130378033Y-71578033D01*
X130353701Y-71594291D01*
X130325000Y-71600000D01*
X130175000Y-71600000D01*
X130146299Y-71594291D01*
X130121967Y-71578033D01*
X130105709Y-71553701D01*
X130100000Y-71525000D01*
X130100000Y-70125000D01*
X130105709Y-70096299D01*
X130121967Y-70071967D01*
X130146299Y-70055709D01*
X130175000Y-70050000D01*
X130325000Y-70050000D01*
X130353701Y-70055709D01*
G37*
G36*
X130853701Y-70055709D02*
G01*
X130878033Y-70071967D01*
X130894291Y-70096299D01*
X130900000Y-70125000D01*
X130900000Y-71525000D01*
X130894291Y-71553701D01*
X130878033Y-71578033D01*
X130853701Y-71594291D01*
X130825000Y-71600000D01*
X130675000Y-71600000D01*
X130646299Y-71594291D01*
X130621967Y-71578033D01*
X130605709Y-71553701D01*
X130600000Y-71525000D01*
X130600000Y-70125000D01*
X130605709Y-70096299D01*
X130621967Y-70071967D01*
X130646299Y-70055709D01*
X130675000Y-70050000D01*
X130825000Y-70050000D01*
X130853701Y-70055709D01*
G37*
G36*
X131353701Y-70055709D02*
G01*
X131378033Y-70071967D01*
X131394291Y-70096299D01*
X131400000Y-70125000D01*
X131400000Y-71525000D01*
X131394291Y-71553701D01*
X131378033Y-71578033D01*
X131353701Y-71594291D01*
X131325000Y-71600000D01*
X131175000Y-71600000D01*
X131146299Y-71594291D01*
X131121967Y-71578033D01*
X131105709Y-71553701D01*
X131100000Y-71525000D01*
X131100000Y-70125000D01*
X131105709Y-70096299D01*
X131121967Y-70071967D01*
X131146299Y-70055709D01*
X131175000Y-70050000D01*
X131325000Y-70050000D01*
X131353701Y-70055709D01*
G37*
G36*
X131853701Y-70055709D02*
G01*
X131878033Y-70071967D01*
X131894291Y-70096299D01*
X131900000Y-70125000D01*
X131900000Y-71525000D01*
X131894291Y-71553701D01*
X131878033Y-71578033D01*
X131853701Y-71594291D01*
X131825000Y-71600000D01*
X131675000Y-71600000D01*
X131646299Y-71594291D01*
X131621967Y-71578033D01*
X131605709Y-71553701D01*
X131600000Y-71525000D01*
X131600000Y-70125000D01*
X131605709Y-70096299D01*
X131621967Y-70071967D01*
X131646299Y-70055709D01*
X131675000Y-70050000D01*
X131825000Y-70050000D01*
X131853701Y-70055709D01*
G37*
G36*
X132353701Y-70055709D02*
G01*
X132378033Y-70071967D01*
X132394291Y-70096299D01*
X132400000Y-70125000D01*
X132400000Y-71525000D01*
X132394291Y-71553701D01*
X132378033Y-71578033D01*
X132353701Y-71594291D01*
X132325000Y-71600000D01*
X132175000Y-71600000D01*
X132146299Y-71594291D01*
X132121967Y-71578033D01*
X132105709Y-71553701D01*
X132100000Y-71525000D01*
X132100000Y-70125000D01*
X132105709Y-70096299D01*
X132121967Y-70071967D01*
X132146299Y-70055709D01*
X132175000Y-70050000D01*
X132325000Y-70050000D01*
X132353701Y-70055709D01*
G37*
G36*
X132853701Y-70055709D02*
G01*
X132878033Y-70071967D01*
X132894291Y-70096299D01*
X132900000Y-70125000D01*
X132900000Y-71525000D01*
X132894291Y-71553701D01*
X132878033Y-71578033D01*
X132853701Y-71594291D01*
X132825000Y-71600000D01*
X132675000Y-71600000D01*
X132646299Y-71594291D01*
X132621967Y-71578033D01*
X132605709Y-71553701D01*
X132600000Y-71525000D01*
X132600000Y-70125000D01*
X132605709Y-70096299D01*
X132621967Y-70071967D01*
X132646299Y-70055709D01*
X132675000Y-70050000D01*
X132825000Y-70050000D01*
X132853701Y-70055709D01*
G37*
G36*
X133353701Y-70055709D02*
G01*
X133378033Y-70071967D01*
X133394291Y-70096299D01*
X133400000Y-70125000D01*
X133400000Y-71525000D01*
X133394291Y-71553701D01*
X133378033Y-71578033D01*
X133353701Y-71594291D01*
X133325000Y-71600000D01*
X133175000Y-71600000D01*
X133146299Y-71594291D01*
X133121967Y-71578033D01*
X133105709Y-71553701D01*
X133100000Y-71525000D01*
X133100000Y-70125000D01*
X133105709Y-70096299D01*
X133121967Y-70071967D01*
X133146299Y-70055709D01*
X133175000Y-70050000D01*
X133325000Y-70050000D01*
X133353701Y-70055709D01*
G37*
G36*
X133853701Y-70055709D02*
G01*
X133878033Y-70071967D01*
X133894291Y-70096299D01*
X133900000Y-70125000D01*
X133900000Y-71525000D01*
X133894291Y-71553701D01*
X133878033Y-71578033D01*
X133853701Y-71594291D01*
X133825000Y-71600000D01*
X133675000Y-71600000D01*
X133646299Y-71594291D01*
X133621967Y-71578033D01*
X133605709Y-71553701D01*
X133600000Y-71525000D01*
X133600000Y-70125000D01*
X133605709Y-70096299D01*
X133621967Y-70071967D01*
X133646299Y-70055709D01*
X133675000Y-70050000D01*
X133825000Y-70050000D01*
X133853701Y-70055709D01*
G37*
G36*
X158900000Y-70800000D02*
G01*
X157600000Y-70800000D01*
X157600000Y-69250000D01*
X158900000Y-69250000D01*
X158900000Y-70800000D01*
G37*
G36*
X163400000Y-70800000D02*
G01*
X162100000Y-70800000D01*
X162100000Y-69250000D01*
X163400000Y-69250000D01*
X163400000Y-70800000D01*
G37*
G36*
X139800000Y-69900000D02*
G01*
X138200000Y-69900000D01*
X138200000Y-69000000D01*
X139800000Y-69000000D01*
X139800000Y-69900000D01*
G37*
G36*
X176325000Y-69825000D02*
G01*
X174675000Y-69825000D01*
X174675000Y-68175000D01*
X176325000Y-68175000D01*
X176325000Y-69825000D01*
G37*
G36*
X173199485Y-68210524D02*
G01*
X173348902Y-68272415D01*
X173483374Y-68362266D01*
X173597734Y-68476626D01*
X173687585Y-68611098D01*
X173749476Y-68760515D01*
X173781027Y-68919136D01*
X173781027Y-69080864D01*
X173749476Y-69239485D01*
X173687585Y-69388902D01*
X173597734Y-69523374D01*
X173483374Y-69637734D01*
X173348902Y-69727585D01*
X173199485Y-69789476D01*
X173040864Y-69821027D01*
X172879136Y-69821027D01*
X172720515Y-69789476D01*
X172571098Y-69727585D01*
X172436626Y-69637734D01*
X172322266Y-69523374D01*
X172232415Y-69388902D01*
X172170524Y-69239485D01*
X172138973Y-69080864D01*
X172138973Y-68919136D01*
X172170524Y-68760515D01*
X172232415Y-68611098D01*
X172322266Y-68476626D01*
X172436626Y-68362266D01*
X172571098Y-68272415D01*
X172720515Y-68210524D01*
X172879136Y-68178973D01*
X173040864Y-68178973D01*
X173199485Y-68210524D01*
G37*
G36*
X84400000Y-69800000D02*
G01*
X83500000Y-69800000D01*
X83500000Y-68200000D01*
X84400000Y-68200000D01*
X84400000Y-69800000D01*
G37*
G36*
X87500000Y-69800000D02*
G01*
X86600000Y-69800000D01*
X86600000Y-68200000D01*
X87500000Y-68200000D01*
X87500000Y-69800000D01*
G37*
G36*
X129050000Y-68457828D02*
G01*
X127450000Y-68457828D01*
X127450000Y-67557828D01*
X129050000Y-67557828D01*
X129050000Y-68457828D01*
G37*
G36*
X126300000Y-68450000D02*
G01*
X124700000Y-68450000D01*
X124700000Y-67550000D01*
X126300000Y-67550000D01*
X126300000Y-68450000D01*
G37*
G36*
X173199485Y-65670524D02*
G01*
X173348902Y-65732415D01*
X173483374Y-65822266D01*
X173597734Y-65936626D01*
X173687585Y-66071098D01*
X173749476Y-66220515D01*
X173781027Y-66379136D01*
X173781027Y-66540864D01*
X173749476Y-66699485D01*
X173687585Y-66848902D01*
X173597734Y-66983374D01*
X173483374Y-67097734D01*
X173348902Y-67187585D01*
X173199485Y-67249476D01*
X173040864Y-67281027D01*
X172879136Y-67281027D01*
X172720515Y-67249476D01*
X172571098Y-67187585D01*
X172436626Y-67097734D01*
X172322266Y-66983374D01*
X172232415Y-66848902D01*
X172170524Y-66699485D01*
X172138973Y-66540864D01*
X172138973Y-66379136D01*
X172170524Y-66220515D01*
X172232415Y-66071098D01*
X172322266Y-65936626D01*
X172436626Y-65822266D01*
X172571098Y-65732415D01*
X172720515Y-65670524D01*
X172879136Y-65638973D01*
X173040864Y-65638973D01*
X173199485Y-65670524D01*
G37*
G36*
X175739485Y-65670524D02*
G01*
X175888902Y-65732415D01*
X176023374Y-65822266D01*
X176137734Y-65936626D01*
X176227585Y-66071098D01*
X176289476Y-66220515D01*
X176321027Y-66379136D01*
X176321027Y-66540864D01*
X176289476Y-66699485D01*
X176227585Y-66848902D01*
X176137734Y-66983374D01*
X176023374Y-67097734D01*
X175888902Y-67187585D01*
X175739485Y-67249476D01*
X175580864Y-67281027D01*
X175419136Y-67281027D01*
X175260515Y-67249476D01*
X175111098Y-67187585D01*
X174976626Y-67097734D01*
X174862266Y-66983374D01*
X174772415Y-66848902D01*
X174710524Y-66699485D01*
X174678973Y-66540864D01*
X174678973Y-66379136D01*
X174710524Y-66220515D01*
X174772415Y-66071098D01*
X174862266Y-65936626D01*
X174976626Y-65822266D01*
X175111098Y-65732415D01*
X175260515Y-65670524D01*
X175419136Y-65638973D01*
X175580864Y-65638973D01*
X175739485Y-65670524D01*
G37*
G36*
X84500000Y-66800000D02*
G01*
X83600000Y-66800000D01*
X83600000Y-65200000D01*
X84500000Y-65200000D01*
X84500000Y-66800000D01*
G37*
G36*
X87400000Y-66800000D02*
G01*
X86500000Y-66800000D01*
X86500000Y-65200000D01*
X87400000Y-65200000D01*
X87400000Y-66800000D01*
G37*
G36*
X92350000Y-66300000D02*
G01*
X91450000Y-66300000D01*
X91450000Y-64700000D01*
X92350000Y-64700000D01*
X92350000Y-66300000D01*
G37*
G36*
X95450000Y-66300000D02*
G01*
X94550000Y-66300000D01*
X94550000Y-64700000D01*
X95450000Y-64700000D01*
X95450000Y-66300000D01*
G37*
G36*
X129050000Y-65557828D02*
G01*
X127450000Y-65557828D01*
X127450000Y-64657828D01*
X129050000Y-64657828D01*
X129050000Y-65557828D01*
G37*
G36*
X126300000Y-65350000D02*
G01*
X124700000Y-65350000D01*
X124700000Y-64450000D01*
X126300000Y-64450000D01*
X126300000Y-65350000D01*
G37*
G36*
X173199485Y-63130524D02*
G01*
X173348902Y-63192415D01*
X173483374Y-63282266D01*
X173597734Y-63396626D01*
X173687585Y-63531098D01*
X173749476Y-63680515D01*
X173781027Y-63839136D01*
X173781027Y-64000864D01*
X173749476Y-64159485D01*
X173687585Y-64308902D01*
X173597734Y-64443374D01*
X173483374Y-64557734D01*
X173348902Y-64647585D01*
X173199485Y-64709476D01*
X173040864Y-64741027D01*
X172879136Y-64741027D01*
X172720515Y-64709476D01*
X172571098Y-64647585D01*
X172436626Y-64557734D01*
X172322266Y-64443374D01*
X172232415Y-64308902D01*
X172170524Y-64159485D01*
X172138973Y-64000864D01*
X172138973Y-63839136D01*
X172170524Y-63680515D01*
X172232415Y-63531098D01*
X172322266Y-63396626D01*
X172436626Y-63282266D01*
X172571098Y-63192415D01*
X172720515Y-63130524D01*
X172879136Y-63098973D01*
X173040864Y-63098973D01*
X173199485Y-63130524D01*
G37*
G36*
X175739485Y-63130524D02*
G01*
X175888902Y-63192415D01*
X176023374Y-63282266D01*
X176137734Y-63396626D01*
X176227585Y-63531098D01*
X176289476Y-63680515D01*
X176321027Y-63839136D01*
X176321027Y-64000864D01*
X176289476Y-64159485D01*
X176227585Y-64308902D01*
X176137734Y-64443374D01*
X176023374Y-64557734D01*
X175888902Y-64647585D01*
X175739485Y-64709476D01*
X175580864Y-64741027D01*
X175419136Y-64741027D01*
X175260515Y-64709476D01*
X175111098Y-64647585D01*
X174976626Y-64557734D01*
X174862266Y-64443374D01*
X174772415Y-64308902D01*
X174710524Y-64159485D01*
X174678973Y-64000864D01*
X174678973Y-63839136D01*
X174710524Y-63680515D01*
X174772415Y-63531098D01*
X174862266Y-63396626D01*
X174976626Y-63282266D01*
X175111098Y-63192415D01*
X175260515Y-63130524D01*
X175419136Y-63098973D01*
X175580864Y-63098973D01*
X175739485Y-63130524D01*
G37*
G36*
X92356384Y-63300000D02*
G01*
X91456384Y-63300000D01*
X91456384Y-61700000D01*
X92356384Y-61700000D01*
X92356384Y-63300000D01*
G37*
G36*
X95256384Y-63300000D02*
G01*
X94356384Y-63300000D01*
X94356384Y-61700000D01*
X95256384Y-61700000D01*
X95256384Y-63300000D01*
G37*
G36*
X173199485Y-60590524D02*
G01*
X173348902Y-60652415D01*
X173483374Y-60742266D01*
X173597734Y-60856626D01*
X173687585Y-60991098D01*
X173749476Y-61140515D01*
X173781027Y-61299136D01*
X173781027Y-61460864D01*
X173749476Y-61619485D01*
X173687585Y-61768902D01*
X173597734Y-61903374D01*
X173483374Y-62017734D01*
X173348902Y-62107585D01*
X173199485Y-62169476D01*
X173040864Y-62201027D01*
X172879136Y-62201027D01*
X172720515Y-62169476D01*
X172571098Y-62107585D01*
X172436626Y-62017734D01*
X172322266Y-61903374D01*
X172232415Y-61768902D01*
X172170524Y-61619485D01*
X172138973Y-61460864D01*
X172138973Y-61299136D01*
X172170524Y-61140515D01*
X172232415Y-60991098D01*
X172322266Y-60856626D01*
X172436626Y-60742266D01*
X172571098Y-60652415D01*
X172720515Y-60590524D01*
X172879136Y-60558973D01*
X173040864Y-60558973D01*
X173199485Y-60590524D01*
G37*
G36*
X175739485Y-60590524D02*
G01*
X175888902Y-60652415D01*
X176023374Y-60742266D01*
X176137734Y-60856626D01*
X176227585Y-60991098D01*
X176289476Y-61140515D01*
X176321027Y-61299136D01*
X176321027Y-61460864D01*
X176289476Y-61619485D01*
X176227585Y-61768902D01*
X176137734Y-61903374D01*
X176023374Y-62017734D01*
X175888902Y-62107585D01*
X175739485Y-62169476D01*
X175580864Y-62201027D01*
X175419136Y-62201027D01*
X175260515Y-62169476D01*
X175111098Y-62107585D01*
X174976626Y-62017734D01*
X174862266Y-61903374D01*
X174772415Y-61768902D01*
X174710524Y-61619485D01*
X174678973Y-61460864D01*
X174678973Y-61299136D01*
X174710524Y-61140515D01*
X174772415Y-60991098D01*
X174862266Y-60856626D01*
X174976626Y-60742266D01*
X175111098Y-60652415D01*
X175260515Y-60590524D01*
X175419136Y-60558973D01*
X175580864Y-60558973D01*
X175739485Y-60590524D01*
G37*
G36*
X100850000Y-61300000D02*
G01*
X99950000Y-61300000D01*
X99950000Y-59700000D01*
X100850000Y-59700000D01*
X100850000Y-61300000D01*
G37*
G36*
X103950000Y-61300000D02*
G01*
X103050000Y-61300000D01*
X103050000Y-59700000D01*
X103950000Y-59700000D01*
X103950000Y-61300000D01*
G37*
G36*
X84800000Y-60900000D02*
G01*
X83200000Y-60900000D01*
X83200000Y-60000000D01*
X84800000Y-60000000D01*
X84800000Y-60900000D01*
G37*
G36*
X173199485Y-58050524D02*
G01*
X173348902Y-58112415D01*
X173483374Y-58202266D01*
X173597734Y-58316626D01*
X173687585Y-58451098D01*
X173749476Y-58600515D01*
X173781027Y-58759136D01*
X173781027Y-58920864D01*
X173749476Y-59079485D01*
X173687585Y-59228902D01*
X173597734Y-59363374D01*
X173483374Y-59477734D01*
X173348902Y-59567585D01*
X173199485Y-59629476D01*
X173040864Y-59661027D01*
X172879136Y-59661027D01*
X172720515Y-59629476D01*
X172571098Y-59567585D01*
X172436626Y-59477734D01*
X172322266Y-59363374D01*
X172232415Y-59228902D01*
X172170524Y-59079485D01*
X172138973Y-58920864D01*
X172138973Y-58759136D01*
X172170524Y-58600515D01*
X172232415Y-58451098D01*
X172322266Y-58316626D01*
X172436626Y-58202266D01*
X172571098Y-58112415D01*
X172720515Y-58050524D01*
X172879136Y-58018973D01*
X173040864Y-58018973D01*
X173199485Y-58050524D01*
G37*
G36*
X175739485Y-58050524D02*
G01*
X175888902Y-58112415D01*
X176023374Y-58202266D01*
X176137734Y-58316626D01*
X176227585Y-58451098D01*
X176289476Y-58600515D01*
X176321027Y-58759136D01*
X176321027Y-58920864D01*
X176289476Y-59079485D01*
X176227585Y-59228902D01*
X176137734Y-59363374D01*
X176023374Y-59477734D01*
X175888902Y-59567585D01*
X175739485Y-59629476D01*
X175580864Y-59661027D01*
X175419136Y-59661027D01*
X175260515Y-59629476D01*
X175111098Y-59567585D01*
X174976626Y-59477734D01*
X174862266Y-59363374D01*
X174772415Y-59228902D01*
X174710524Y-59079485D01*
X174678973Y-58920864D01*
X174678973Y-58759136D01*
X174710524Y-58600515D01*
X174772415Y-58451098D01*
X174862266Y-58316626D01*
X174976626Y-58202266D01*
X175111098Y-58112415D01*
X175260515Y-58050524D01*
X175419136Y-58018973D01*
X175580864Y-58018973D01*
X175739485Y-58050524D01*
G37*
G36*
X92706384Y-58900000D02*
G01*
X91106384Y-58900000D01*
X91106384Y-58000000D01*
X92706384Y-58000000D01*
X92706384Y-58900000D01*
G37*
G36*
X100850000Y-58300000D02*
G01*
X99950000Y-58300000D01*
X99950000Y-56700000D01*
X100850000Y-56700000D01*
X100850000Y-58300000D01*
G37*
G36*
X103750000Y-58300000D02*
G01*
X102850000Y-58300000D01*
X102850000Y-56700000D01*
X103750000Y-56700000D01*
X103750000Y-58300000D01*
G37*
G36*
X84800000Y-58000000D02*
G01*
X83200000Y-58000000D01*
X83200000Y-57100000D01*
X84800000Y-57100000D01*
X84800000Y-58000000D01*
G37*
G36*
X113050000Y-57300000D02*
G01*
X112150000Y-57300000D01*
X112150000Y-55700000D01*
X113050000Y-55700000D01*
X113050000Y-57300000D01*
G37*
G36*
X115950000Y-57300000D02*
G01*
X115050000Y-57300000D01*
X115050000Y-55700000D01*
X115950000Y-55700000D01*
X115950000Y-57300000D01*
G37*
G36*
X119550000Y-57300000D02*
G01*
X118650000Y-57300000D01*
X118650000Y-55700000D01*
X119550000Y-55700000D01*
X119550000Y-57300000D01*
G37*
G36*
X122450000Y-57300000D02*
G01*
X121550000Y-57300000D01*
X121550000Y-55700000D01*
X122450000Y-55700000D01*
X122450000Y-57300000D01*
G37*
G36*
X173199485Y-55510524D02*
G01*
X173348902Y-55572415D01*
X173483374Y-55662266D01*
X173597734Y-55776626D01*
X173687585Y-55911098D01*
X173749476Y-56060515D01*
X173781027Y-56219136D01*
X173781027Y-56380864D01*
X173749476Y-56539485D01*
X173687585Y-56688902D01*
X173597734Y-56823374D01*
X173483374Y-56937734D01*
X173348902Y-57027585D01*
X173199485Y-57089476D01*
X173040864Y-57121027D01*
X172879136Y-57121027D01*
X172720515Y-57089476D01*
X172571098Y-57027585D01*
X172436626Y-56937734D01*
X172322266Y-56823374D01*
X172232415Y-56688902D01*
X172170524Y-56539485D01*
X172138973Y-56380864D01*
X172138973Y-56219136D01*
X172170524Y-56060515D01*
X172232415Y-55911098D01*
X172322266Y-55776626D01*
X172436626Y-55662266D01*
X172571098Y-55572415D01*
X172720515Y-55510524D01*
X172879136Y-55478973D01*
X173040864Y-55478973D01*
X173199485Y-55510524D01*
G37*
G36*
X175739485Y-55510524D02*
G01*
X175888902Y-55572415D01*
X176023374Y-55662266D01*
X176137734Y-55776626D01*
X176227585Y-55911098D01*
X176289476Y-56060515D01*
X176321027Y-56219136D01*
X176321027Y-56380864D01*
X176289476Y-56539485D01*
X176227585Y-56688902D01*
X176137734Y-56823374D01*
X176023374Y-56937734D01*
X175888902Y-57027585D01*
X175739485Y-57089476D01*
X175580864Y-57121027D01*
X175419136Y-57121027D01*
X175260515Y-57089476D01*
X175111098Y-57027585D01*
X174976626Y-56937734D01*
X174862266Y-56823374D01*
X174772415Y-56688902D01*
X174710524Y-56539485D01*
X174678973Y-56380864D01*
X174678973Y-56219136D01*
X174710524Y-56060515D01*
X174772415Y-55911098D01*
X174862266Y-55776626D01*
X174976626Y-55662266D01*
X175111098Y-55572415D01*
X175260515Y-55510524D01*
X175419136Y-55478973D01*
X175580864Y-55478973D01*
X175739485Y-55510524D01*
G37*
G36*
X92706384Y-56000000D02*
G01*
X91106384Y-56000000D01*
X91106384Y-55100000D01*
X92706384Y-55100000D01*
X92706384Y-56000000D01*
G37*
G36*
X173199485Y-52970524D02*
G01*
X173348902Y-53032415D01*
X173483374Y-53122266D01*
X173597734Y-53236626D01*
X173687585Y-53371098D01*
X173749476Y-53520515D01*
X173781027Y-53679136D01*
X173781027Y-53840864D01*
X173749476Y-53999485D01*
X173687585Y-54148902D01*
X173597734Y-54283374D01*
X173483374Y-54397734D01*
X173348902Y-54487585D01*
X173199485Y-54549476D01*
X173040864Y-54581027D01*
X172879136Y-54581027D01*
X172720515Y-54549476D01*
X172571098Y-54487585D01*
X172436626Y-54397734D01*
X172322266Y-54283374D01*
X172232415Y-54148902D01*
X172170524Y-53999485D01*
X172138973Y-53840864D01*
X172138973Y-53679136D01*
X172170524Y-53520515D01*
X172232415Y-53371098D01*
X172322266Y-53236626D01*
X172436626Y-53122266D01*
X172571098Y-53032415D01*
X172720515Y-52970524D01*
X172879136Y-52938973D01*
X173040864Y-52938973D01*
X173199485Y-52970524D01*
G37*
G36*
X175739485Y-52970524D02*
G01*
X175888902Y-53032415D01*
X176023374Y-53122266D01*
X176137734Y-53236626D01*
X176227585Y-53371098D01*
X176289476Y-53520515D01*
X176321027Y-53679136D01*
X176321027Y-53840864D01*
X176289476Y-53999485D01*
X176227585Y-54148902D01*
X176137734Y-54283374D01*
X176023374Y-54397734D01*
X175888902Y-54487585D01*
X175739485Y-54549476D01*
X175580864Y-54581027D01*
X175419136Y-54581027D01*
X175260515Y-54549476D01*
X175111098Y-54487585D01*
X174976626Y-54397734D01*
X174862266Y-54283374D01*
X174772415Y-54148902D01*
X174710524Y-53999485D01*
X174678973Y-53840864D01*
X174678973Y-53679136D01*
X174710524Y-53520515D01*
X174772415Y-53371098D01*
X174862266Y-53236626D01*
X174976626Y-53122266D01*
X175111098Y-53032415D01*
X175260515Y-52970524D01*
X175419136Y-52938973D01*
X175580864Y-52938973D01*
X175739485Y-52970524D01*
G37*
G36*
X101200000Y-53950000D02*
G01*
X99600000Y-53950000D01*
X99600000Y-53050000D01*
X101200000Y-53050000D01*
X101200000Y-53950000D01*
G37*
G36*
X132873513Y-49944208D02*
G01*
X133112293Y-50021793D01*
X133335998Y-50135776D01*
X133539117Y-50283350D01*
X133716650Y-50460883D01*
X133864224Y-50664002D01*
X133978207Y-50887707D01*
X134055792Y-51126487D01*
X134095068Y-51374465D01*
X134095068Y-51625535D01*
X134055792Y-51873513D01*
X133978207Y-52112293D01*
X133864224Y-52335998D01*
X133716650Y-52539117D01*
X133539117Y-52716650D01*
X133335998Y-52864224D01*
X133112293Y-52978207D01*
X132873513Y-53055792D01*
X132625535Y-53095068D01*
X132374465Y-53095068D01*
X132126487Y-53055792D01*
X131887707Y-52978207D01*
X131664002Y-52864224D01*
X131460883Y-52716650D01*
X131283350Y-52539117D01*
X131135776Y-52335998D01*
X131021793Y-52112293D01*
X130944208Y-51873513D01*
X130904932Y-51625535D01*
X130904932Y-51374465D01*
X130944208Y-51126487D01*
X131021793Y-50887707D01*
X131135776Y-50664002D01*
X131283350Y-50460883D01*
X131460883Y-50283350D01*
X131664002Y-50135776D01*
X131887707Y-50021793D01*
X132126487Y-49944208D01*
X132374465Y-49904932D01*
X132625535Y-49904932D01*
X132873513Y-49944208D01*
G37*
G36*
X173199485Y-50430524D02*
G01*
X173348902Y-50492415D01*
X173483374Y-50582266D01*
X173597734Y-50696626D01*
X173687585Y-50831098D01*
X173749476Y-50980515D01*
X173781027Y-51139136D01*
X173781027Y-51300864D01*
X173749476Y-51459485D01*
X173687585Y-51608902D01*
X173597734Y-51743374D01*
X173483374Y-51857734D01*
X173348902Y-51947585D01*
X173199485Y-52009476D01*
X173040864Y-52041027D01*
X172879136Y-52041027D01*
X172720515Y-52009476D01*
X172571098Y-51947585D01*
X172436626Y-51857734D01*
X172322266Y-51743374D01*
X172232415Y-51608902D01*
X172170524Y-51459485D01*
X172138973Y-51300864D01*
X172138973Y-51139136D01*
X172170524Y-50980515D01*
X172232415Y-50831098D01*
X172322266Y-50696626D01*
X172436626Y-50582266D01*
X172571098Y-50492415D01*
X172720515Y-50430524D01*
X172879136Y-50398973D01*
X173040864Y-50398973D01*
X173199485Y-50430524D01*
G37*
G36*
X175739485Y-50430524D02*
G01*
X175888902Y-50492415D01*
X176023374Y-50582266D01*
X176137734Y-50696626D01*
X176227585Y-50831098D01*
X176289476Y-50980515D01*
X176321027Y-51139136D01*
X176321027Y-51300864D01*
X176289476Y-51459485D01*
X176227585Y-51608902D01*
X176137734Y-51743374D01*
X176023374Y-51857734D01*
X175888902Y-51947585D01*
X175739485Y-52009476D01*
X175580864Y-52041027D01*
X175419136Y-52041027D01*
X175260515Y-52009476D01*
X175111098Y-51947585D01*
X174976626Y-51857734D01*
X174862266Y-51743374D01*
X174772415Y-51608902D01*
X174710524Y-51459485D01*
X174678973Y-51300864D01*
X174678973Y-51139136D01*
X174710524Y-50980515D01*
X174772415Y-50831098D01*
X174862266Y-50696626D01*
X174976626Y-50582266D01*
X175111098Y-50492415D01*
X175260515Y-50430524D01*
X175419136Y-50398973D01*
X175580864Y-50398973D01*
X175739485Y-50430524D01*
G37*
G36*
X101200000Y-51050000D02*
G01*
X99600000Y-51050000D01*
X99600000Y-50150000D01*
X101200000Y-50150000D01*
X101200000Y-51050000D01*
G37*
G36*
X173199485Y-47890524D02*
G01*
X173348902Y-47952415D01*
X173483374Y-48042266D01*
X173597734Y-48156626D01*
X173687585Y-48291098D01*
X173749476Y-48440515D01*
X173781027Y-48599136D01*
X173781027Y-48760864D01*
X173749476Y-48919485D01*
X173687585Y-49068902D01*
X173597734Y-49203374D01*
X173483374Y-49317734D01*
X173348902Y-49407585D01*
X173199485Y-49469476D01*
X173040864Y-49501027D01*
X172879136Y-49501027D01*
X172720515Y-49469476D01*
X172571098Y-49407585D01*
X172436626Y-49317734D01*
X172322266Y-49203374D01*
X172232415Y-49068902D01*
X172170524Y-48919485D01*
X172138973Y-48760864D01*
X172138973Y-48599136D01*
X172170524Y-48440515D01*
X172232415Y-48291098D01*
X172322266Y-48156626D01*
X172436626Y-48042266D01*
X172571098Y-47952415D01*
X172720515Y-47890524D01*
X172879136Y-47858973D01*
X173040864Y-47858973D01*
X173199485Y-47890524D01*
G37*
G36*
X175739485Y-47890524D02*
G01*
X175888902Y-47952415D01*
X176023374Y-48042266D01*
X176137734Y-48156626D01*
X176227585Y-48291098D01*
X176289476Y-48440515D01*
X176321027Y-48599136D01*
X176321027Y-48760864D01*
X176289476Y-48919485D01*
X176227585Y-49068902D01*
X176137734Y-49203374D01*
X176023374Y-49317734D01*
X175888902Y-49407585D01*
X175739485Y-49469476D01*
X175580864Y-49501027D01*
X175419136Y-49501027D01*
X175260515Y-49469476D01*
X175111098Y-49407585D01*
X174976626Y-49317734D01*
X174862266Y-49203374D01*
X174772415Y-49068902D01*
X174710524Y-48919485D01*
X174678973Y-48760864D01*
X174678973Y-48599136D01*
X174710524Y-48440515D01*
X174772415Y-48291098D01*
X174862266Y-48156626D01*
X174976626Y-48042266D01*
X175111098Y-47952415D01*
X175260515Y-47890524D01*
X175419136Y-47858973D01*
X175580864Y-47858973D01*
X175739485Y-47890524D01*
G37*
G36*
X84383053Y-42713910D02*
G01*
X84645443Y-42773798D01*
X84899478Y-42862689D01*
X85141963Y-42979464D01*
X85369849Y-43122654D01*
X85580270Y-43290459D01*
X85770579Y-43480768D01*
X85938384Y-43691189D01*
X86081574Y-43919075D01*
X86198349Y-44161560D01*
X86287240Y-44415595D01*
X86347128Y-44677985D01*
X86377262Y-44945431D01*
X86377262Y-45214569D01*
X86347128Y-45482015D01*
X86287240Y-45744405D01*
X86198349Y-45998440D01*
X86081574Y-46240925D01*
X85938384Y-46468811D01*
X85770579Y-46679232D01*
X85580270Y-46869541D01*
X85369849Y-47037346D01*
X85141963Y-47180536D01*
X84899478Y-47297311D01*
X84645443Y-47386202D01*
X84383053Y-47446090D01*
X84115607Y-47476224D01*
X83846469Y-47476224D01*
X83579023Y-47446090D01*
X83316633Y-47386202D01*
X83062598Y-47297311D01*
X82820113Y-47180536D01*
X82592227Y-47037346D01*
X82381806Y-46869541D01*
X82191497Y-46679232D01*
X82023692Y-46468811D01*
X81880502Y-46240925D01*
X81763727Y-45998440D01*
X81674836Y-45744405D01*
X81614948Y-45482015D01*
X81584814Y-45214569D01*
X81584814Y-44945431D01*
X81614948Y-44677985D01*
X81674836Y-44415595D01*
X81763727Y-44161560D01*
X81880502Y-43919075D01*
X82023692Y-43691189D01*
X82191497Y-43480768D01*
X82381806Y-43290459D01*
X82592227Y-43122654D01*
X82820113Y-42979464D01*
X83062598Y-42862689D01*
X83316633Y-42773798D01*
X83579023Y-42713910D01*
X83846469Y-42683776D01*
X84115607Y-42683776D01*
X84383053Y-42713910D01*
G37*
G36*
X117683053Y-42713910D02*
G01*
X117945443Y-42773798D01*
X118199478Y-42862689D01*
X118441963Y-42979464D01*
X118669849Y-43122654D01*
X118880270Y-43290459D01*
X119070579Y-43480768D01*
X119238384Y-43691189D01*
X119381574Y-43919075D01*
X119498349Y-44161560D01*
X119587240Y-44415595D01*
X119647128Y-44677985D01*
X119677262Y-44945431D01*
X119677262Y-45214569D01*
X119647128Y-45482015D01*
X119587240Y-45744405D01*
X119498349Y-45998440D01*
X119381574Y-46240925D01*
X119238384Y-46468811D01*
X119070579Y-46679232D01*
X118880270Y-46869541D01*
X118669849Y-47037346D01*
X118441963Y-47180536D01*
X118199478Y-47297311D01*
X117945443Y-47386202D01*
X117683053Y-47446090D01*
X117415607Y-47476224D01*
X117146469Y-47476224D01*
X116879023Y-47446090D01*
X116616633Y-47386202D01*
X116362598Y-47297311D01*
X116120113Y-47180536D01*
X115892227Y-47037346D01*
X115681806Y-46869541D01*
X115491497Y-46679232D01*
X115323692Y-46468811D01*
X115180502Y-46240925D01*
X115063727Y-45998440D01*
X114974836Y-45744405D01*
X114914948Y-45482015D01*
X114884814Y-45214569D01*
X114884814Y-44945431D01*
X114914948Y-44677985D01*
X114974836Y-44415595D01*
X115063727Y-44161560D01*
X115180502Y-43919075D01*
X115323692Y-43691189D01*
X115491497Y-43480768D01*
X115681806Y-43290459D01*
X115892227Y-43122654D01*
X116120113Y-42979464D01*
X116362598Y-42862689D01*
X116616633Y-42773798D01*
X116879023Y-42713910D01*
X117146469Y-42683776D01*
X117415607Y-42683776D01*
X117683053Y-42713910D01*
G37*
G36*
X91786038Y-47350000D02*
G01*
X90086038Y-47350000D01*
X90086038Y-45650000D01*
X91786038Y-45650000D01*
X91786038Y-47350000D01*
G37*
G36*
X93952780Y-45686601D02*
G01*
X94106725Y-45750367D01*
X94245272Y-45842941D01*
X94363097Y-45960766D01*
X94455671Y-46099313D01*
X94519437Y-46253258D01*
X94551945Y-46416685D01*
X94551945Y-46583315D01*
X94519437Y-46746742D01*
X94455671Y-46900687D01*
X94363097Y-47039234D01*
X94245272Y-47157059D01*
X94106725Y-47249633D01*
X93952780Y-47313399D01*
X93789353Y-47345907D01*
X93622723Y-47345907D01*
X93459296Y-47313399D01*
X93305351Y-47249633D01*
X93166804Y-47157059D01*
X93048979Y-47039234D01*
X92956405Y-46900687D01*
X92892639Y-46746742D01*
X92860131Y-46583315D01*
X92860131Y-46416685D01*
X92892639Y-46253258D01*
X92956405Y-46099313D01*
X93048979Y-45960766D01*
X93166804Y-45842941D01*
X93305351Y-45750367D01*
X93459296Y-45686601D01*
X93622723Y-45654093D01*
X93789353Y-45654093D01*
X93952780Y-45686601D01*
G37*
G36*
X96722780Y-45686601D02*
G01*
X96876725Y-45750367D01*
X97015272Y-45842941D01*
X97133097Y-45960766D01*
X97225671Y-46099313D01*
X97289437Y-46253258D01*
X97321945Y-46416685D01*
X97321945Y-46583315D01*
X97289437Y-46746742D01*
X97225671Y-46900687D01*
X97133097Y-47039234D01*
X97015272Y-47157059D01*
X96876725Y-47249633D01*
X96722780Y-47313399D01*
X96559353Y-47345907D01*
X96392723Y-47345907D01*
X96229296Y-47313399D01*
X96075351Y-47249633D01*
X95936804Y-47157059D01*
X95818979Y-47039234D01*
X95726405Y-46900687D01*
X95662639Y-46746742D01*
X95630131Y-46583315D01*
X95630131Y-46416685D01*
X95662639Y-46253258D01*
X95726405Y-46099313D01*
X95818979Y-45960766D01*
X95936804Y-45842941D01*
X96075351Y-45750367D01*
X96229296Y-45686601D01*
X96392723Y-45654093D01*
X96559353Y-45654093D01*
X96722780Y-45686601D01*
G37*
G36*
X99492780Y-45686601D02*
G01*
X99646725Y-45750367D01*
X99785272Y-45842941D01*
X99903097Y-45960766D01*
X99995671Y-46099313D01*
X100059437Y-46253258D01*
X100091945Y-46416685D01*
X100091945Y-46583315D01*
X100059437Y-46746742D01*
X99995671Y-46900687D01*
X99903097Y-47039234D01*
X99785272Y-47157059D01*
X99646725Y-47249633D01*
X99492780Y-47313399D01*
X99329353Y-47345907D01*
X99162723Y-47345907D01*
X98999296Y-47313399D01*
X98845351Y-47249633D01*
X98706804Y-47157059D01*
X98588979Y-47039234D01*
X98496405Y-46900687D01*
X98432639Y-46746742D01*
X98400131Y-46583315D01*
X98400131Y-46416685D01*
X98432639Y-46253258D01*
X98496405Y-46099313D01*
X98588979Y-45960766D01*
X98706804Y-45842941D01*
X98845351Y-45750367D01*
X98999296Y-45686601D01*
X99162723Y-45654093D01*
X99329353Y-45654093D01*
X99492780Y-45686601D01*
G37*
G36*
X102262780Y-45686601D02*
G01*
X102416725Y-45750367D01*
X102555272Y-45842941D01*
X102673097Y-45960766D01*
X102765671Y-46099313D01*
X102829437Y-46253258D01*
X102861945Y-46416685D01*
X102861945Y-46583315D01*
X102829437Y-46746742D01*
X102765671Y-46900687D01*
X102673097Y-47039234D01*
X102555272Y-47157059D01*
X102416725Y-47249633D01*
X102262780Y-47313399D01*
X102099353Y-47345907D01*
X101932723Y-47345907D01*
X101769296Y-47313399D01*
X101615351Y-47249633D01*
X101476804Y-47157059D01*
X101358979Y-47039234D01*
X101266405Y-46900687D01*
X101202639Y-46746742D01*
X101170131Y-46583315D01*
X101170131Y-46416685D01*
X101202639Y-46253258D01*
X101266405Y-46099313D01*
X101358979Y-45960766D01*
X101476804Y-45842941D01*
X101615351Y-45750367D01*
X101769296Y-45686601D01*
X101932723Y-45654093D01*
X102099353Y-45654093D01*
X102262780Y-45686601D01*
G37*
G36*
X105032780Y-45686601D02*
G01*
X105186725Y-45750367D01*
X105325272Y-45842941D01*
X105443097Y-45960766D01*
X105535671Y-46099313D01*
X105599437Y-46253258D01*
X105631945Y-46416685D01*
X105631945Y-46583315D01*
X105599437Y-46746742D01*
X105535671Y-46900687D01*
X105443097Y-47039234D01*
X105325272Y-47157059D01*
X105186725Y-47249633D01*
X105032780Y-47313399D01*
X104869353Y-47345907D01*
X104702723Y-47345907D01*
X104539296Y-47313399D01*
X104385351Y-47249633D01*
X104246804Y-47157059D01*
X104128979Y-47039234D01*
X104036405Y-46900687D01*
X103972639Y-46746742D01*
X103940131Y-46583315D01*
X103940131Y-46416685D01*
X103972639Y-46253258D01*
X104036405Y-46099313D01*
X104128979Y-45960766D01*
X104246804Y-45842941D01*
X104385351Y-45750367D01*
X104539296Y-45686601D01*
X104702723Y-45654093D01*
X104869353Y-45654093D01*
X105032780Y-45686601D01*
G37*
G36*
X107802780Y-45686601D02*
G01*
X107956725Y-45750367D01*
X108095272Y-45842941D01*
X108213097Y-45960766D01*
X108305671Y-46099313D01*
X108369437Y-46253258D01*
X108401945Y-46416685D01*
X108401945Y-46583315D01*
X108369437Y-46746742D01*
X108305671Y-46900687D01*
X108213097Y-47039234D01*
X108095272Y-47157059D01*
X107956725Y-47249633D01*
X107802780Y-47313399D01*
X107639353Y-47345907D01*
X107472723Y-47345907D01*
X107309296Y-47313399D01*
X107155351Y-47249633D01*
X107016804Y-47157059D01*
X106898979Y-47039234D01*
X106806405Y-46900687D01*
X106742639Y-46746742D01*
X106710131Y-46583315D01*
X106710131Y-46416685D01*
X106742639Y-46253258D01*
X106806405Y-46099313D01*
X106898979Y-45960766D01*
X107016804Y-45842941D01*
X107155351Y-45750367D01*
X107309296Y-45686601D01*
X107472723Y-45654093D01*
X107639353Y-45654093D01*
X107802780Y-45686601D01*
G37*
G36*
X110572780Y-45686601D02*
G01*
X110726725Y-45750367D01*
X110865272Y-45842941D01*
X110983097Y-45960766D01*
X111075671Y-46099313D01*
X111139437Y-46253258D01*
X111171945Y-46416685D01*
X111171945Y-46583315D01*
X111139437Y-46746742D01*
X111075671Y-46900687D01*
X110983097Y-47039234D01*
X110865272Y-47157059D01*
X110726725Y-47249633D01*
X110572780Y-47313399D01*
X110409353Y-47345907D01*
X110242723Y-47345907D01*
X110079296Y-47313399D01*
X109925351Y-47249633D01*
X109786804Y-47157059D01*
X109668979Y-47039234D01*
X109576405Y-46900687D01*
X109512639Y-46746742D01*
X109480131Y-46583315D01*
X109480131Y-46416685D01*
X109512639Y-46253258D01*
X109576405Y-46099313D01*
X109668979Y-45960766D01*
X109786804Y-45842941D01*
X109925351Y-45750367D01*
X110079296Y-45686601D01*
X110242723Y-45654093D01*
X110409353Y-45654093D01*
X110572780Y-45686601D01*
G37*
G36*
X173199485Y-45350524D02*
G01*
X173348902Y-45412415D01*
X173483374Y-45502266D01*
X173597734Y-45616626D01*
X173687585Y-45751098D01*
X173749476Y-45900515D01*
X173781027Y-46059136D01*
X173781027Y-46220864D01*
X173749476Y-46379485D01*
X173687585Y-46528902D01*
X173597734Y-46663374D01*
X173483374Y-46777734D01*
X173348902Y-46867585D01*
X173199485Y-46929476D01*
X173040864Y-46961027D01*
X172879136Y-46961027D01*
X172720515Y-46929476D01*
X172571098Y-46867585D01*
X172436626Y-46777734D01*
X172322266Y-46663374D01*
X172232415Y-46528902D01*
X172170524Y-46379485D01*
X172138973Y-46220864D01*
X172138973Y-46059136D01*
X172170524Y-45900515D01*
X172232415Y-45751098D01*
X172322266Y-45616626D01*
X172436626Y-45502266D01*
X172571098Y-45412415D01*
X172720515Y-45350524D01*
X172879136Y-45318973D01*
X173040864Y-45318973D01*
X173199485Y-45350524D01*
G37*
G36*
X175739485Y-45350524D02*
G01*
X175888902Y-45412415D01*
X176023374Y-45502266D01*
X176137734Y-45616626D01*
X176227585Y-45751098D01*
X176289476Y-45900515D01*
X176321027Y-46059136D01*
X176321027Y-46220864D01*
X176289476Y-46379485D01*
X176227585Y-46528902D01*
X176137734Y-46663374D01*
X176023374Y-46777734D01*
X175888902Y-46867585D01*
X175739485Y-46929476D01*
X175580864Y-46961027D01*
X175419136Y-46961027D01*
X175260515Y-46929476D01*
X175111098Y-46867585D01*
X174976626Y-46777734D01*
X174862266Y-46663374D01*
X174772415Y-46528902D01*
X174710524Y-46379485D01*
X174678973Y-46220864D01*
X174678973Y-46059136D01*
X174710524Y-45900515D01*
X174772415Y-45751098D01*
X174862266Y-45616626D01*
X174976626Y-45502266D01*
X175111098Y-45412415D01*
X175260515Y-45350524D01*
X175419136Y-45318973D01*
X175580864Y-45318973D01*
X175739485Y-45350524D01*
G37*
G36*
X92567780Y-42846601D02*
G01*
X92721725Y-42910367D01*
X92860272Y-43002941D01*
X92978097Y-43120766D01*
X93070671Y-43259313D01*
X93134437Y-43413258D01*
X93166945Y-43576685D01*
X93166945Y-43743315D01*
X93134437Y-43906742D01*
X93070671Y-44060687D01*
X92978097Y-44199234D01*
X92860272Y-44317059D01*
X92721725Y-44409633D01*
X92567780Y-44473399D01*
X92404353Y-44505907D01*
X92237723Y-44505907D01*
X92074296Y-44473399D01*
X91920351Y-44409633D01*
X91781804Y-44317059D01*
X91663979Y-44199234D01*
X91571405Y-44060687D01*
X91507639Y-43906742D01*
X91475131Y-43743315D01*
X91475131Y-43576685D01*
X91507639Y-43413258D01*
X91571405Y-43259313D01*
X91663979Y-43120766D01*
X91781804Y-43002941D01*
X91920351Y-42910367D01*
X92074296Y-42846601D01*
X92237723Y-42814093D01*
X92404353Y-42814093D01*
X92567780Y-42846601D01*
G37*
G36*
X95337780Y-42846601D02*
G01*
X95491725Y-42910367D01*
X95630272Y-43002941D01*
X95748097Y-43120766D01*
X95840671Y-43259313D01*
X95904437Y-43413258D01*
X95936945Y-43576685D01*
X95936945Y-43743315D01*
X95904437Y-43906742D01*
X95840671Y-44060687D01*
X95748097Y-44199234D01*
X95630272Y-44317059D01*
X95491725Y-44409633D01*
X95337780Y-44473399D01*
X95174353Y-44505907D01*
X95007723Y-44505907D01*
X94844296Y-44473399D01*
X94690351Y-44409633D01*
X94551804Y-44317059D01*
X94433979Y-44199234D01*
X94341405Y-44060687D01*
X94277639Y-43906742D01*
X94245131Y-43743315D01*
X94245131Y-43576685D01*
X94277639Y-43413258D01*
X94341405Y-43259313D01*
X94433979Y-43120766D01*
X94551804Y-43002941D01*
X94690351Y-42910367D01*
X94844296Y-42846601D01*
X95007723Y-42814093D01*
X95174353Y-42814093D01*
X95337780Y-42846601D01*
G37*
G36*
X98107780Y-42846601D02*
G01*
X98261725Y-42910367D01*
X98400272Y-43002941D01*
X98518097Y-43120766D01*
X98610671Y-43259313D01*
X98674437Y-43413258D01*
X98706945Y-43576685D01*
X98706945Y-43743315D01*
X98674437Y-43906742D01*
X98610671Y-44060687D01*
X98518097Y-44199234D01*
X98400272Y-44317059D01*
X98261725Y-44409633D01*
X98107780Y-44473399D01*
X97944353Y-44505907D01*
X97777723Y-44505907D01*
X97614296Y-44473399D01*
X97460351Y-44409633D01*
X97321804Y-44317059D01*
X97203979Y-44199234D01*
X97111405Y-44060687D01*
X97047639Y-43906742D01*
X97015131Y-43743315D01*
X97015131Y-43576685D01*
X97047639Y-43413258D01*
X97111405Y-43259313D01*
X97203979Y-43120766D01*
X97321804Y-43002941D01*
X97460351Y-42910367D01*
X97614296Y-42846601D01*
X97777723Y-42814093D01*
X97944353Y-42814093D01*
X98107780Y-42846601D01*
G37*
G36*
X100877780Y-42846601D02*
G01*
X101031725Y-42910367D01*
X101170272Y-43002941D01*
X101288097Y-43120766D01*
X101380671Y-43259313D01*
X101444437Y-43413258D01*
X101476945Y-43576685D01*
X101476945Y-43743315D01*
X101444437Y-43906742D01*
X101380671Y-44060687D01*
X101288097Y-44199234D01*
X101170272Y-44317059D01*
X101031725Y-44409633D01*
X100877780Y-44473399D01*
X100714353Y-44505907D01*
X100547723Y-44505907D01*
X100384296Y-44473399D01*
X100230351Y-44409633D01*
X100091804Y-44317059D01*
X99973979Y-44199234D01*
X99881405Y-44060687D01*
X99817639Y-43906742D01*
X99785131Y-43743315D01*
X99785131Y-43576685D01*
X99817639Y-43413258D01*
X99881405Y-43259313D01*
X99973979Y-43120766D01*
X100091804Y-43002941D01*
X100230351Y-42910367D01*
X100384296Y-42846601D01*
X100547723Y-42814093D01*
X100714353Y-42814093D01*
X100877780Y-42846601D01*
G37*
G36*
X103647780Y-42846601D02*
G01*
X103801725Y-42910367D01*
X103940272Y-43002941D01*
X104058097Y-43120766D01*
X104150671Y-43259313D01*
X104214437Y-43413258D01*
X104246945Y-43576685D01*
X104246945Y-43743315D01*
X104214437Y-43906742D01*
X104150671Y-44060687D01*
X104058097Y-44199234D01*
X103940272Y-44317059D01*
X103801725Y-44409633D01*
X103647780Y-44473399D01*
X103484353Y-44505907D01*
X103317723Y-44505907D01*
X103154296Y-44473399D01*
X103000351Y-44409633D01*
X102861804Y-44317059D01*
X102743979Y-44199234D01*
X102651405Y-44060687D01*
X102587639Y-43906742D01*
X102555131Y-43743315D01*
X102555131Y-43576685D01*
X102587639Y-43413258D01*
X102651405Y-43259313D01*
X102743979Y-43120766D01*
X102861804Y-43002941D01*
X103000351Y-42910367D01*
X103154296Y-42846601D01*
X103317723Y-42814093D01*
X103484353Y-42814093D01*
X103647780Y-42846601D01*
G37*
G36*
X106417780Y-42846601D02*
G01*
X106571725Y-42910367D01*
X106710272Y-43002941D01*
X106828097Y-43120766D01*
X106920671Y-43259313D01*
X106984437Y-43413258D01*
X107016945Y-43576685D01*
X107016945Y-43743315D01*
X106984437Y-43906742D01*
X106920671Y-44060687D01*
X106828097Y-44199234D01*
X106710272Y-44317059D01*
X106571725Y-44409633D01*
X106417780Y-44473399D01*
X106254353Y-44505907D01*
X106087723Y-44505907D01*
X105924296Y-44473399D01*
X105770351Y-44409633D01*
X105631804Y-44317059D01*
X105513979Y-44199234D01*
X105421405Y-44060687D01*
X105357639Y-43906742D01*
X105325131Y-43743315D01*
X105325131Y-43576685D01*
X105357639Y-43413258D01*
X105421405Y-43259313D01*
X105513979Y-43120766D01*
X105631804Y-43002941D01*
X105770351Y-42910367D01*
X105924296Y-42846601D01*
X106087723Y-42814093D01*
X106254353Y-42814093D01*
X106417780Y-42846601D01*
G37*
G36*
X109187780Y-42846601D02*
G01*
X109341725Y-42910367D01*
X109480272Y-43002941D01*
X109598097Y-43120766D01*
X109690671Y-43259313D01*
X109754437Y-43413258D01*
X109786945Y-43576685D01*
X109786945Y-43743315D01*
X109754437Y-43906742D01*
X109690671Y-44060687D01*
X109598097Y-44199234D01*
X109480272Y-44317059D01*
X109341725Y-44409633D01*
X109187780Y-44473399D01*
X109024353Y-44505907D01*
X108857723Y-44505907D01*
X108694296Y-44473399D01*
X108540351Y-44409633D01*
X108401804Y-44317059D01*
X108283979Y-44199234D01*
X108191405Y-44060687D01*
X108127639Y-43906742D01*
X108095131Y-43743315D01*
X108095131Y-43576685D01*
X108127639Y-43413258D01*
X108191405Y-43259313D01*
X108283979Y-43120766D01*
X108401804Y-43002941D01*
X108540351Y-42910367D01*
X108694296Y-42846601D01*
X108857723Y-42814093D01*
X109024353Y-42814093D01*
X109187780Y-42846601D01*
G37*
G36*
X144680000Y-39800000D02*
G01*
X143080000Y-39800000D01*
X143080000Y-38200000D01*
X144680000Y-38200000D01*
X144680000Y-39800000D01*
G37*
G36*
X146652228Y-38234448D02*
G01*
X146797117Y-38294463D01*
X146927515Y-38381592D01*
X147038408Y-38492485D01*
X147125537Y-38622883D01*
X147185552Y-38767772D01*
X147216148Y-38921586D01*
X147216148Y-39078414D01*
X147185552Y-39232228D01*
X147125537Y-39377117D01*
X147038408Y-39507515D01*
X146927515Y-39618408D01*
X146797117Y-39705537D01*
X146652228Y-39765552D01*
X146498414Y-39796148D01*
X146341586Y-39796148D01*
X146187772Y-39765552D01*
X146042883Y-39705537D01*
X145912485Y-39618408D01*
X145801592Y-39507515D01*
X145714463Y-39377117D01*
X145654448Y-39232228D01*
X145623852Y-39078414D01*
X145623852Y-38921586D01*
X145654448Y-38767772D01*
X145714463Y-38622883D01*
X145801592Y-38492485D01*
X145912485Y-38381592D01*
X146042883Y-38294463D01*
X146187772Y-38234448D01*
X146341586Y-38203852D01*
X146498414Y-38203852D01*
X146652228Y-38234448D01*
G37*
G36*
X149192228Y-38234448D02*
G01*
X149337117Y-38294463D01*
X149467515Y-38381592D01*
X149578408Y-38492485D01*
X149665537Y-38622883D01*
X149725552Y-38767772D01*
X149756148Y-38921586D01*
X149756148Y-39078414D01*
X149725552Y-39232228D01*
X149665537Y-39377117D01*
X149578408Y-39507515D01*
X149467515Y-39618408D01*
X149337117Y-39705537D01*
X149192228Y-39765552D01*
X149038414Y-39796148D01*
X148881586Y-39796148D01*
X148727772Y-39765552D01*
X148582883Y-39705537D01*
X148452485Y-39618408D01*
X148341592Y-39507515D01*
X148254463Y-39377117D01*
X148194448Y-39232228D01*
X148163852Y-39078414D01*
X148163852Y-38921586D01*
X148194448Y-38767772D01*
X148254463Y-38622883D01*
X148341592Y-38492485D01*
X148452485Y-38381592D01*
X148582883Y-38294463D01*
X148727772Y-38234448D01*
X148881586Y-38203852D01*
X149038414Y-38203852D01*
X149192228Y-38234448D01*
G37*
G36*
X151732228Y-38234448D02*
G01*
X151877117Y-38294463D01*
X152007515Y-38381592D01*
X152118408Y-38492485D01*
X152205537Y-38622883D01*
X152265552Y-38767772D01*
X152296148Y-38921586D01*
X152296148Y-39078414D01*
X152265552Y-39232228D01*
X152205537Y-39377117D01*
X152118408Y-39507515D01*
X152007515Y-39618408D01*
X151877117Y-39705537D01*
X151732228Y-39765552D01*
X151578414Y-39796148D01*
X151421586Y-39796148D01*
X151267772Y-39765552D01*
X151122883Y-39705537D01*
X150992485Y-39618408D01*
X150881592Y-39507515D01*
X150794463Y-39377117D01*
X150734448Y-39232228D01*
X150703852Y-39078414D01*
X150703852Y-38921586D01*
X150734448Y-38767772D01*
X150794463Y-38622883D01*
X150881592Y-38492485D01*
X150992485Y-38381592D01*
X151122883Y-38294463D01*
X151267772Y-38234448D01*
X151421586Y-38203852D01*
X151578414Y-38203852D01*
X151732228Y-38234448D01*
G37*
G36*
X134290285Y-37543060D02*
G01*
X134471397Y-37618079D01*
X134634393Y-37726990D01*
X134773010Y-37865607D01*
X134881921Y-38028603D01*
X134956940Y-38209715D01*
X134995185Y-38401983D01*
X134995185Y-38598017D01*
X134956940Y-38790285D01*
X134881921Y-38971397D01*
X134773010Y-39134393D01*
X134634393Y-39273010D01*
X134471397Y-39381921D01*
X134290285Y-39456940D01*
X134098017Y-39495185D01*
X133901983Y-39495185D01*
X133709715Y-39456940D01*
X133528603Y-39381921D01*
X133365607Y-39273010D01*
X133226990Y-39134393D01*
X133118079Y-38971397D01*
X133043060Y-38790285D01*
X133004815Y-38598017D01*
X133004815Y-38401983D01*
X133043060Y-38209715D01*
X133118079Y-38028603D01*
X133226990Y-37865607D01*
X133365607Y-37726990D01*
X133528603Y-37618079D01*
X133709715Y-37543060D01*
X133901983Y-37504815D01*
X134098017Y-37504815D01*
X134290285Y-37543060D01*
G37*
M02*
