%TF.GenerationSoftware,KiCad,Pcbnew,10.0.3*%
%TF.CreationDate,2026-07-18T15:09:08+02:00*%
%TF.ProjectId,KommModul_Joystick,4b6f6d6d-4d6f-4647-956c-5f4a6f797374,rev?*%
%TF.SameCoordinates,Original*%
%TF.FileFunction,Paste,Top*%
%TF.FilePolarity,Positive*%
%FSLAX46Y46*%
G04 Gerber Fmt 4.6, Leading zero omitted, Abs format (unit mm)*
G04 Created by KiCad (PCBNEW 10.0.3) date 2026-07-18 15:09:08*
%MOMM*%
%LPD*%
G01*
G04 APERTURE LIST*
G04 Aperture macros list*
%AMRoundRect*
0 Rectangle with rounded corners*
0 $1 Rounding radius*
0 $2 $3 $4 $5 $6 $7 $8 $9 X,Y pos of 4 corners*
0 Add a 4 corners polygon primitive as box body*
4,1,4,$2,$3,$4,$5,$6,$7,$8,$9,$2,$3,0*
0 Add four circle primitives for the rounded corners*
1,1,$1+$1,$2,$3*
1,1,$1+$1,$4,$5*
1,1,$1+$1,$6,$7*
1,1,$1+$1,$8,$9*
0 Add four rect primitives between the rounded corners*
20,1,$1+$1,$2,$3,$4,$5,0*
20,1,$1+$1,$4,$5,$6,$7,0*
20,1,$1+$1,$6,$7,$8,$9,0*
20,1,$1+$1,$8,$9,$2,$3,0*%
G04 Aperture macros list end*
%ADD10R,1.600000X0.900000*%
%ADD11R,0.900000X2.800000*%
%ADD12R,0.900000X1.600000*%
%ADD13R,1.300000X0.900000*%
%ADD14R,2.150000X0.950000*%
%ADD15R,2.150000X3.250000*%
%ADD16R,1.300000X1.550000*%
%ADD17RoundRect,0.075000X-0.700000X-0.075000X0.700000X-0.075000X0.700000X0.075000X-0.700000X0.075000X0*%
%ADD18RoundRect,0.075000X-0.075000X-0.700000X0.075000X-0.700000X0.075000X0.700000X-0.075000X0.700000X0*%
%ADD19RoundRect,0.150000X-0.150000X0.825000X-0.150000X-0.825000X0.150000X-0.825000X0.150000X0.825000X0*%
G04 APERTURE END LIST*
D10*
%TO.C,R13*%
X128250000Y-68007828D03*
X128250000Y-65107828D03*
%TD*%
D11*
%TO.C,R2*%
X101450000Y-120500000D03*
X98550000Y-120500000D03*
%TD*%
D12*
%TO.C,C14*%
X145050000Y-88000000D03*
X141950000Y-88000000D03*
%TD*%
%TO.C,C16*%
X118450000Y-82500000D03*
X121550000Y-82500000D03*
%TD*%
D10*
%TO.C,C19*%
X149000000Y-81500000D03*
X149000000Y-84600000D03*
%TD*%
%TO.C,C9*%
X139000000Y-72550000D03*
X139000000Y-69450000D03*
%TD*%
D12*
%TO.C,C12*%
X102450000Y-89000000D03*
X105550000Y-89000000D03*
%TD*%
%TO.C,R12*%
X122000000Y-56500000D03*
X119100000Y-56500000D03*
%TD*%
D11*
%TO.C,R5*%
X158550000Y-120000000D03*
X161450000Y-120000000D03*
%TD*%
D12*
%TO.C,C2*%
X103500000Y-60500000D03*
X100400000Y-60500000D03*
%TD*%
%TO.C,C13*%
X124150000Y-85485736D03*
X127250000Y-85485736D03*
%TD*%
%TO.C,R3*%
X84050000Y-66000000D03*
X86950000Y-66000000D03*
%TD*%
D10*
%TO.C,R4*%
X100400000Y-50600000D03*
X100400000Y-53500000D03*
%TD*%
D13*
%TO.C,C4*%
X105500000Y-117950000D03*
X105500000Y-116050000D03*
%TD*%
D10*
%TO.C,R6*%
X113000000Y-132900000D03*
X113000000Y-130000000D03*
%TD*%
D12*
%TO.C,C6*%
X140950000Y-101000000D03*
X144050000Y-101000000D03*
%TD*%
%TO.C,C18*%
X114550000Y-77500000D03*
X111450000Y-77500000D03*
%TD*%
D14*
%TO.C,U4*%
X131200000Y-98700000D03*
X131200000Y-101000000D03*
X131200000Y-103300000D03*
D15*
X137000000Y-101000000D03*
%TD*%
D12*
%TO.C,R10*%
X91906384Y-62500000D03*
X94806384Y-62500000D03*
%TD*%
%TO.C,R11*%
X115500000Y-56500000D03*
X112600000Y-56500000D03*
%TD*%
D16*
%TO.C,SW1*%
X158250000Y-77975000D03*
X162750000Y-77975000D03*
X158250000Y-70025000D03*
X162750000Y-70025000D03*
%TD*%
D12*
%TO.C,C1*%
X83950000Y-69000000D03*
X87050000Y-69000000D03*
%TD*%
%TO.C,R8*%
X100400000Y-57500000D03*
X103300000Y-57500000D03*
%TD*%
D10*
%TO.C,C10*%
X137000000Y-85550000D03*
X137000000Y-82450000D03*
%TD*%
D12*
%TO.C,C17*%
X114550000Y-72620000D03*
X111450000Y-72620000D03*
%TD*%
D10*
%TO.C,C8*%
X125500000Y-64900000D03*
X125500000Y-68000000D03*
%TD*%
D13*
%TO.C,C5*%
X165000000Y-117950000D03*
X165000000Y-116050000D03*
%TD*%
D17*
%TO.C,U1*%
X124325000Y-72750000D03*
X124325000Y-73250000D03*
X124325000Y-73750000D03*
X124325000Y-74250000D03*
X124325000Y-74750000D03*
X124325000Y-75250000D03*
X124325000Y-75750000D03*
X124325000Y-76250000D03*
X124325000Y-76750000D03*
X124325000Y-77250000D03*
X124325000Y-77750000D03*
X124325000Y-78250000D03*
X124325000Y-78750000D03*
X124325000Y-79250000D03*
X124325000Y-79750000D03*
X124325000Y-80250000D03*
D18*
X126250000Y-82175000D03*
X126750000Y-82175000D03*
X127250000Y-82175000D03*
X127750000Y-82175000D03*
X128250000Y-82175000D03*
X128750000Y-82175000D03*
X129250000Y-82175000D03*
X129750000Y-82175000D03*
X130250000Y-82175000D03*
X130750000Y-82175000D03*
X131250000Y-82175000D03*
X131750000Y-82175000D03*
X132250000Y-82175000D03*
X132750000Y-82175000D03*
X133250000Y-82175000D03*
X133750000Y-82175000D03*
D17*
X135675000Y-80250000D03*
X135675000Y-79750000D03*
X135675000Y-79250000D03*
X135675000Y-78750000D03*
X135675000Y-78250000D03*
X135675000Y-77750000D03*
X135675000Y-77250000D03*
X135675000Y-76750000D03*
X135675000Y-76250000D03*
X135675000Y-75750000D03*
X135675000Y-75250000D03*
X135675000Y-74750000D03*
X135675000Y-74250000D03*
X135675000Y-73750000D03*
X135675000Y-73250000D03*
X135675000Y-72750000D03*
D18*
X133750000Y-70825000D03*
X133250000Y-70825000D03*
X132750000Y-70825000D03*
X132250000Y-70825000D03*
X131750000Y-70825000D03*
X131250000Y-70825000D03*
X130750000Y-70825000D03*
X130250000Y-70825000D03*
X129750000Y-70825000D03*
X129250000Y-70825000D03*
X128750000Y-70825000D03*
X128250000Y-70825000D03*
X127750000Y-70825000D03*
X127250000Y-70825000D03*
X126750000Y-70825000D03*
X126250000Y-70825000D03*
%TD*%
D10*
%TO.C,R9*%
X91906384Y-55550000D03*
X91906384Y-58450000D03*
%TD*%
D19*
%TO.C,U2*%
X101905000Y-110525000D03*
X100635000Y-110525000D03*
X99365000Y-110525000D03*
X98095000Y-110525000D03*
X98095000Y-115475000D03*
X99365000Y-115475000D03*
X100635000Y-115475000D03*
X101905000Y-115475000D03*
%TD*%
D12*
%TO.C,C15*%
X121550000Y-85000000D03*
X118450000Y-85000000D03*
%TD*%
D10*
%TO.C,C7*%
X128000000Y-103264312D03*
X128000000Y-100164312D03*
%TD*%
%TO.C,R7*%
X147500000Y-132900000D03*
X147500000Y-130000000D03*
%TD*%
D12*
%TO.C,C3*%
X91900000Y-65500000D03*
X95000000Y-65500000D03*
%TD*%
D19*
%TO.C,U3*%
X161905000Y-110525000D03*
X160635000Y-110525000D03*
X159365000Y-110525000D03*
X158095000Y-110525000D03*
X158095000Y-115475000D03*
X159365000Y-115475000D03*
X160635000Y-115475000D03*
X161905000Y-115475000D03*
%TD*%
D10*
%TO.C,R1*%
X84000000Y-57550000D03*
X84000000Y-60450000D03*
%TD*%
M02*
