%TF.GenerationSoftware,KiCad,Pcbnew,10.0.3*%
%TF.CreationDate,2026-07-18T15:09:08+02:00*%
%TF.ProjectId,KommModul_Joystick,4b6f6d6d-4d6f-4647-956c-5f4a6f797374,rev?*%
%TF.SameCoordinates,Original*%
%TF.FileFunction,Soldermask,Top*%
%TF.FilePolarity,Negative*%
%FSLAX46Y46*%
G04 Gerber Fmt 4.6, Leading zero omitted, Abs format (unit mm)*
G04 Created by KiCad (PCBNEW 10.0.3) date 2026-07-18 15:09:08*
%MOMM*%
%LPD*%
G01*
G04 APERTURE LIST*
G04 Aperture macros list*
%AMRoundRect*
0 Rectangle with rounded corners*
0 $1 Rounding radius*
0 $2 $3 $4 $5 $6 $7 $8 $9 X,Y pos of 4 corners*
0 Add a 4 corners polygon primitive as box body*
4,1,4,$2,$3,$4,$5,$6,$7,$8,$9,$2,$3,0*
0 Add four circle primitives for the rounded corners*
1,1,$1+$1,$2,$3*
1,1,$1+$1,$4,$5*
1,1,$1+$1,$6,$7*
1,1,$1+$1,$8,$9*
0 Add four rect primitives between the rounded corners*
20,1,$1+$1,$2,$3,$4,$5,0*
20,1,$1+$1,$4,$5,$6,$7,0*
20,1,$1+$1,$6,$7,$8,$9,0*
20,1,$1+$1,$8,$9,$2,$3,0*%
G04 Aperture macros list end*
%ADD10R,1.600000X0.900000*%
%ADD11R,0.900000X2.800000*%
%ADD12R,0.900000X1.600000*%
%ADD13C,2.000000*%
%ADD14C,3.200000*%
%ADD15R,1.600000X1.600000*%
%ADD16C,1.600000*%
%ADD17R,1.300000X0.900000*%
%ADD18C,2.250000*%
%ADD19R,1.300000X1.300000*%
%ADD20C,1.300000*%
%ADD21R,1.650000X1.650000*%
%ADD22C,1.650000*%
%ADD23R,2.250000X2.250000*%
%ADD24R,2.750000X2.750000*%
%ADD25C,2.750000*%
%ADD26R,2.150000X0.950000*%
%ADD27R,2.150000X3.250000*%
%ADD28R,1.300000X1.550000*%
%ADD29RoundRect,0.075000X-0.700000X-0.075000X0.700000X-0.075000X0.700000X0.075000X-0.700000X0.075000X0*%
%ADD30RoundRect,0.075000X-0.075000X-0.700000X0.075000X-0.700000X0.075000X0.700000X-0.075000X0.700000X0*%
%ADD31RoundRect,0.150000X-0.150000X0.825000X-0.150000X-0.825000X0.150000X-0.825000X0.150000X0.825000X0*%
%ADD32R,1.500000X1.500000*%
%ADD33C,1.500000*%
%ADD34R,1.700000X1.700000*%
%ADD35C,1.700000*%
%ADD36C,4.800000*%
G04 APERTURE END LIST*
D10*
%TO.C,R13*%
X128250000Y-68007828D03*
X128250000Y-65107828D03*
%TD*%
D11*
%TO.C,R2*%
X101450000Y-120500000D03*
X98550000Y-120500000D03*
%TD*%
D12*
%TO.C,C14*%
X145050000Y-88000000D03*
X141950000Y-88000000D03*
%TD*%
%TO.C,C16*%
X118450000Y-82500000D03*
X121550000Y-82500000D03*
%TD*%
D13*
%TO.C,TP11*%
X175000000Y-80500000D03*
%TD*%
%TO.C,TP7*%
X175500000Y-106500000D03*
%TD*%
D10*
%TO.C,C19*%
X149000000Y-81500000D03*
X149000000Y-84600000D03*
%TD*%
D13*
%TO.C,TP13*%
X175500000Y-88000000D03*
%TD*%
D10*
%TO.C,C9*%
X139000000Y-72550000D03*
X139000000Y-69450000D03*
%TD*%
D14*
%TO.C,H3*%
X93500000Y-88000000D03*
%TD*%
D13*
%TO.C,TP3*%
X83500000Y-105500000D03*
%TD*%
D15*
%TO.C,J1*%
X143880000Y-39000000D03*
D16*
X146420000Y-39000000D03*
X148960000Y-39000000D03*
X151500000Y-39000000D03*
%TD*%
D12*
%TO.C,C12*%
X102450000Y-89000000D03*
X105550000Y-89000000D03*
%TD*%
D13*
%TO.C,TP1*%
X83500000Y-99500000D03*
%TD*%
D12*
%TO.C,R12*%
X122000000Y-56500000D03*
X119100000Y-56500000D03*
%TD*%
D13*
%TO.C,TP6*%
X175500000Y-95500000D03*
%TD*%
%TO.C,TP4*%
X83500000Y-111000000D03*
%TD*%
D11*
%TO.C,R5*%
X158550000Y-120000000D03*
X161450000Y-120000000D03*
%TD*%
D12*
%TO.C,C2*%
X103500000Y-60500000D03*
X100400000Y-60500000D03*
%TD*%
%TO.C,C13*%
X124150000Y-85485736D03*
X127250000Y-85485736D03*
%TD*%
%TO.C,R3*%
X84050000Y-66000000D03*
X86950000Y-66000000D03*
%TD*%
D10*
%TO.C,R4*%
X100400000Y-50600000D03*
X100400000Y-53500000D03*
%TD*%
D17*
%TO.C,C4*%
X105500000Y-117950000D03*
X105500000Y-116050000D03*
%TD*%
D18*
%TO.C,J4*%
X173120000Y-129000000D03*
X168040000Y-129000000D03*
X162960000Y-129000000D03*
X157880000Y-129000000D03*
%TD*%
D13*
%TO.C,TP15*%
X84000000Y-81500000D03*
%TD*%
D15*
%TO.C,D5*%
X113000000Y-126000000D03*
D16*
X113000000Y-123460000D03*
%TD*%
D14*
%TO.C,H2*%
X160000000Y-88000000D03*
%TD*%
D19*
%TO.C,Y1*%
X119000000Y-72620000D03*
D20*
X119000000Y-77500000D03*
%TD*%
D21*
%TO.C,J5*%
X175500000Y-69000000D03*
D22*
X172960000Y-69000000D03*
X175500000Y-66460000D03*
X172960000Y-66460000D03*
X175500000Y-63920000D03*
X172960000Y-63920000D03*
X175500000Y-61380000D03*
X172960000Y-61380000D03*
X175500000Y-58840000D03*
X172960000Y-58840000D03*
X175500000Y-56300000D03*
X172960000Y-56300000D03*
X175500000Y-53760000D03*
X172960000Y-53760000D03*
X175500000Y-51220000D03*
X172960000Y-51220000D03*
X175500000Y-48680000D03*
X172960000Y-48680000D03*
X175500000Y-46140000D03*
X172960000Y-46140000D03*
%TD*%
D10*
%TO.C,R6*%
X113000000Y-132900000D03*
X113000000Y-130000000D03*
%TD*%
D14*
%TO.C,H1*%
X132500000Y-51500000D03*
%TD*%
D23*
%TO.C,J6*%
X122500000Y-114500000D03*
D18*
X137500000Y-114500000D03*
%TD*%
D13*
%TO.C,TP14*%
X84000000Y-75500000D03*
%TD*%
D24*
%TO.C,SW3*%
X134640000Y-128500000D03*
D25*
X129940000Y-128500000D03*
X125240000Y-128500000D03*
%TD*%
D13*
%TO.C,TP9*%
X83500000Y-95000000D03*
%TD*%
%TO.C,TP2*%
X83500000Y-116500000D03*
%TD*%
D12*
%TO.C,C6*%
X140950000Y-101000000D03*
X144050000Y-101000000D03*
%TD*%
%TO.C,C18*%
X114550000Y-77500000D03*
X111450000Y-77500000D03*
%TD*%
D26*
%TO.C,U4*%
X131200000Y-98700000D03*
X131200000Y-101000000D03*
X131200000Y-103300000D03*
D27*
X137000000Y-101000000D03*
%TD*%
D12*
%TO.C,R10*%
X91906384Y-62500000D03*
X94806384Y-62500000D03*
%TD*%
%TO.C,R11*%
X115500000Y-56500000D03*
X112600000Y-56500000D03*
%TD*%
D13*
%TO.C,TP12*%
X134000000Y-38500000D03*
%TD*%
D18*
%TO.C,J3*%
X102620000Y-129000000D03*
X97540000Y-129000000D03*
X92460000Y-129000000D03*
X87380000Y-129000000D03*
%TD*%
D28*
%TO.C,SW1*%
X158250000Y-77975000D03*
X162750000Y-77975000D03*
X158250000Y-70025000D03*
X162750000Y-70025000D03*
%TD*%
D12*
%TO.C,C1*%
X83950000Y-69000000D03*
X87050000Y-69000000D03*
%TD*%
%TO.C,R8*%
X100400000Y-57500000D03*
X103300000Y-57500000D03*
%TD*%
D10*
%TO.C,C10*%
X137000000Y-85550000D03*
X137000000Y-82450000D03*
%TD*%
D13*
%TO.C,TP5*%
X175500000Y-112500000D03*
%TD*%
D12*
%TO.C,C17*%
X114550000Y-72620000D03*
X111450000Y-72620000D03*
%TD*%
D10*
%TO.C,C8*%
X125500000Y-64900000D03*
X125500000Y-68000000D03*
%TD*%
D17*
%TO.C,C5*%
X165000000Y-117950000D03*
X165000000Y-116050000D03*
%TD*%
D29*
%TO.C,U1*%
X124325000Y-72750000D03*
X124325000Y-73250000D03*
X124325000Y-73750000D03*
X124325000Y-74250000D03*
X124325000Y-74750000D03*
X124325000Y-75250000D03*
X124325000Y-75750000D03*
X124325000Y-76250000D03*
X124325000Y-76750000D03*
X124325000Y-77250000D03*
X124325000Y-77750000D03*
X124325000Y-78250000D03*
X124325000Y-78750000D03*
X124325000Y-79250000D03*
X124325000Y-79750000D03*
X124325000Y-80250000D03*
D30*
X126250000Y-82175000D03*
X126750000Y-82175000D03*
X127250000Y-82175000D03*
X127750000Y-82175000D03*
X128250000Y-82175000D03*
X128750000Y-82175000D03*
X129250000Y-82175000D03*
X129750000Y-82175000D03*
X130250000Y-82175000D03*
X130750000Y-82175000D03*
X131250000Y-82175000D03*
X131750000Y-82175000D03*
X132250000Y-82175000D03*
X132750000Y-82175000D03*
X133250000Y-82175000D03*
X133750000Y-82175000D03*
D29*
X135675000Y-80250000D03*
X135675000Y-79750000D03*
X135675000Y-79250000D03*
X135675000Y-78750000D03*
X135675000Y-78250000D03*
X135675000Y-77750000D03*
X135675000Y-77250000D03*
X135675000Y-76750000D03*
X135675000Y-76250000D03*
X135675000Y-75750000D03*
X135675000Y-75250000D03*
X135675000Y-74750000D03*
X135675000Y-74250000D03*
X135675000Y-73750000D03*
X135675000Y-73250000D03*
X135675000Y-72750000D03*
D30*
X133750000Y-70825000D03*
X133250000Y-70825000D03*
X132750000Y-70825000D03*
X132250000Y-70825000D03*
X131750000Y-70825000D03*
X131250000Y-70825000D03*
X130750000Y-70825000D03*
X130250000Y-70825000D03*
X129750000Y-70825000D03*
X129250000Y-70825000D03*
X128750000Y-70825000D03*
X128250000Y-70825000D03*
X127750000Y-70825000D03*
X127250000Y-70825000D03*
X126750000Y-70825000D03*
X126250000Y-70825000D03*
%TD*%
D10*
%TO.C,R9*%
X91906384Y-55550000D03*
X91906384Y-58450000D03*
%TD*%
D13*
%TO.C,TP16*%
X84000000Y-87500000D03*
%TD*%
D31*
%TO.C,U2*%
X101905000Y-110525000D03*
X100635000Y-110525000D03*
X99365000Y-110525000D03*
X98095000Y-110525000D03*
X98095000Y-115475000D03*
X99365000Y-115475000D03*
X100635000Y-115475000D03*
X101905000Y-115475000D03*
%TD*%
D12*
%TO.C,C15*%
X121550000Y-85000000D03*
X118450000Y-85000000D03*
%TD*%
D32*
%TO.C,C11*%
X105500000Y-82000000D03*
D33*
X103000000Y-82000000D03*
%TD*%
D10*
%TO.C,C7*%
X128000000Y-103264312D03*
X128000000Y-100164312D03*
%TD*%
%TO.C,R7*%
X147500000Y-132900000D03*
X147500000Y-130000000D03*
%TD*%
D12*
%TO.C,C3*%
X91900000Y-65500000D03*
X95000000Y-65500000D03*
%TD*%
D31*
%TO.C,U3*%
X161905000Y-110525000D03*
X160635000Y-110525000D03*
X159365000Y-110525000D03*
X158095000Y-110525000D03*
X158095000Y-115475000D03*
X159365000Y-115475000D03*
X160635000Y-115475000D03*
X161905000Y-115475000D03*
%TD*%
D15*
%TO.C,D6*%
X147500000Y-126000000D03*
D16*
X147500000Y-123460000D03*
%TD*%
D13*
%TO.C,TP8*%
X175500000Y-101500000D03*
%TD*%
D34*
%TO.C,J2*%
X90936038Y-46000000D03*
D35*
X93706038Y-46000000D03*
X96476038Y-46000000D03*
X99246038Y-46000000D03*
X102016038Y-46000000D03*
X104786038Y-46000000D03*
X107556038Y-46000000D03*
X110326038Y-46000000D03*
X92321038Y-43160000D03*
X95091038Y-43160000D03*
X97861038Y-43160000D03*
X100631038Y-43160000D03*
X103401038Y-43160000D03*
X106171038Y-43160000D03*
X108941038Y-43160000D03*
D36*
X117281038Y-44580000D03*
X83981038Y-44580000D03*
%TD*%
D10*
%TO.C,R1*%
X84000000Y-57550000D03*
X84000000Y-60450000D03*
%TD*%
M02*
