%TF.GenerationSoftware,KiCad,Pcbnew,10.0.4*%
%TF.CreationDate,2026-07-17T14:18:18+02:00*%
%TF.ProjectId,KommModul_Joystick,4b6f6d6d-4d6f-4647-956c-5f4a6f797374,rev?*%
%TF.SameCoordinates,Original*%
%TF.FileFunction,Legend,Top*%
%TF.FilePolarity,Positive*%
%FSLAX46Y46*%
G04 Gerber Fmt 4.6, Leading zero omitted, Abs format (unit mm)*
G04 Created by KiCad (PCBNEW 10.0.4) date 2026-07-17 14:18:18*
%MOMM*%
%LPD*%
G01*
G04 APERTURE LIST*
%ADD10C,0.150000*%
%ADD11C,0.250000*%
%ADD12C,0.120000*%
%ADD13C,0.200000*%
%ADD14C,0.400000*%
%ADD15C,0.100000*%
%ADD16C,0.127000*%
G04 APERTURE END LIST*
D10*
X127741541Y-123369819D02*
X127979636Y-124369819D01*
X127979636Y-124369819D02*
X128170112Y-123655533D01*
X128170112Y-123655533D02*
X128360588Y-124369819D01*
X128360588Y-124369819D02*
X128598684Y-123369819D01*
X129408207Y-124369819D02*
X129408207Y-123846009D01*
X129408207Y-123846009D02*
X129360588Y-123750771D01*
X129360588Y-123750771D02*
X129265350Y-123703152D01*
X129265350Y-123703152D02*
X129074874Y-123703152D01*
X129074874Y-123703152D02*
X128979636Y-123750771D01*
X129408207Y-124322200D02*
X129312969Y-124369819D01*
X129312969Y-124369819D02*
X129074874Y-124369819D01*
X129074874Y-124369819D02*
X128979636Y-124322200D01*
X128979636Y-124322200D02*
X128932017Y-124226961D01*
X128932017Y-124226961D02*
X128932017Y-124131723D01*
X128932017Y-124131723D02*
X128979636Y-124036485D01*
X128979636Y-124036485D02*
X129074874Y-123988866D01*
X129074874Y-123988866D02*
X129312969Y-123988866D01*
X129312969Y-123988866D02*
X129408207Y-123941247D01*
X129884398Y-124369819D02*
X129884398Y-123369819D01*
X130312969Y-124369819D02*
X130312969Y-123846009D01*
X130312969Y-123846009D02*
X130265350Y-123750771D01*
X130265350Y-123750771D02*
X130170112Y-123703152D01*
X130170112Y-123703152D02*
X130027255Y-123703152D01*
X130027255Y-123703152D02*
X129932017Y-123750771D01*
X129932017Y-123750771D02*
X129884398Y-123798390D01*
X130932017Y-124369819D02*
X130836779Y-124322200D01*
X130836779Y-124322200D02*
X130789160Y-124226961D01*
X130789160Y-124226961D02*
X130789160Y-123369819D01*
X131265351Y-124322200D02*
X131360589Y-124369819D01*
X131360589Y-124369819D02*
X131551065Y-124369819D01*
X131551065Y-124369819D02*
X131646303Y-124322200D01*
X131646303Y-124322200D02*
X131693922Y-124226961D01*
X131693922Y-124226961D02*
X131693922Y-124179342D01*
X131693922Y-124179342D02*
X131646303Y-124084104D01*
X131646303Y-124084104D02*
X131551065Y-124036485D01*
X131551065Y-124036485D02*
X131408208Y-124036485D01*
X131408208Y-124036485D02*
X131312970Y-123988866D01*
X131312970Y-123988866D02*
X131265351Y-123893628D01*
X131265351Y-123893628D02*
X131265351Y-123846009D01*
X131265351Y-123846009D02*
X131312970Y-123750771D01*
X131312970Y-123750771D02*
X131408208Y-123703152D01*
X131408208Y-123703152D02*
X131551065Y-123703152D01*
X131551065Y-123703152D02*
X131646303Y-123750771D01*
X132551065Y-124322200D02*
X132455827Y-124369819D01*
X132455827Y-124369819D02*
X132265351Y-124369819D01*
X132265351Y-124369819D02*
X132170113Y-124322200D01*
X132170113Y-124322200D02*
X132122494Y-124274580D01*
X132122494Y-124274580D02*
X132074875Y-124179342D01*
X132074875Y-124179342D02*
X132074875Y-123893628D01*
X132074875Y-123893628D02*
X132122494Y-123798390D01*
X132122494Y-123798390D02*
X132170113Y-123750771D01*
X132170113Y-123750771D02*
X132265351Y-123703152D01*
X132265351Y-123703152D02*
X132455827Y-123703152D01*
X132455827Y-123703152D02*
X132551065Y-123750771D01*
X132979637Y-124369819D02*
X132979637Y-123369819D01*
X133408208Y-124369819D02*
X133408208Y-123846009D01*
X133408208Y-123846009D02*
X133360589Y-123750771D01*
X133360589Y-123750771D02*
X133265351Y-123703152D01*
X133265351Y-123703152D02*
X133122494Y-123703152D01*
X133122494Y-123703152D02*
X133027256Y-123750771D01*
X133027256Y-123750771D02*
X132979637Y-123798390D01*
X134312970Y-124369819D02*
X134312970Y-123846009D01*
X134312970Y-123846009D02*
X134265351Y-123750771D01*
X134265351Y-123750771D02*
X134170113Y-123703152D01*
X134170113Y-123703152D02*
X133979637Y-123703152D01*
X133979637Y-123703152D02*
X133884399Y-123750771D01*
X134312970Y-124322200D02*
X134217732Y-124369819D01*
X134217732Y-124369819D02*
X133979637Y-124369819D01*
X133979637Y-124369819D02*
X133884399Y-124322200D01*
X133884399Y-124322200D02*
X133836780Y-124226961D01*
X133836780Y-124226961D02*
X133836780Y-124131723D01*
X133836780Y-124131723D02*
X133884399Y-124036485D01*
X133884399Y-124036485D02*
X133979637Y-123988866D01*
X133979637Y-123988866D02*
X134217732Y-123988866D01*
X134217732Y-123988866D02*
X134312970Y-123941247D01*
X134932018Y-124369819D02*
X134836780Y-124322200D01*
X134836780Y-124322200D02*
X134789161Y-124226961D01*
X134789161Y-124226961D02*
X134789161Y-123369819D01*
X135170114Y-123703152D02*
X135551066Y-123703152D01*
X135312971Y-123369819D02*
X135312971Y-124226961D01*
X135312971Y-124226961D02*
X135360590Y-124322200D01*
X135360590Y-124322200D02*
X135455828Y-124369819D01*
X135455828Y-124369819D02*
X135551066Y-124369819D01*
X136265352Y-124322200D02*
X136170114Y-124369819D01*
X136170114Y-124369819D02*
X135979638Y-124369819D01*
X135979638Y-124369819D02*
X135884400Y-124322200D01*
X135884400Y-124322200D02*
X135836781Y-124226961D01*
X135836781Y-124226961D02*
X135836781Y-123846009D01*
X135836781Y-123846009D02*
X135884400Y-123750771D01*
X135884400Y-123750771D02*
X135979638Y-123703152D01*
X135979638Y-123703152D02*
X136170114Y-123703152D01*
X136170114Y-123703152D02*
X136265352Y-123750771D01*
X136265352Y-123750771D02*
X136312971Y-123846009D01*
X136312971Y-123846009D02*
X136312971Y-123941247D01*
X136312971Y-123941247D02*
X135836781Y-124036485D01*
X136741543Y-124369819D02*
X136741543Y-123703152D01*
X136741543Y-123893628D02*
X136789162Y-123798390D01*
X136789162Y-123798390D02*
X136836781Y-123750771D01*
X136836781Y-123750771D02*
X136932019Y-123703152D01*
X136932019Y-123703152D02*
X137027257Y-123703152D01*
X143289160Y-114822200D02*
X143432017Y-114869819D01*
X143432017Y-114869819D02*
X143670112Y-114869819D01*
X143670112Y-114869819D02*
X143765350Y-114822200D01*
X143765350Y-114822200D02*
X143812969Y-114774580D01*
X143812969Y-114774580D02*
X143860588Y-114679342D01*
X143860588Y-114679342D02*
X143860588Y-114584104D01*
X143860588Y-114584104D02*
X143812969Y-114488866D01*
X143812969Y-114488866D02*
X143765350Y-114441247D01*
X143765350Y-114441247D02*
X143670112Y-114393628D01*
X143670112Y-114393628D02*
X143479636Y-114346009D01*
X143479636Y-114346009D02*
X143384398Y-114298390D01*
X143384398Y-114298390D02*
X143336779Y-114250771D01*
X143336779Y-114250771D02*
X143289160Y-114155533D01*
X143289160Y-114155533D02*
X143289160Y-114060295D01*
X143289160Y-114060295D02*
X143336779Y-113965057D01*
X143336779Y-113965057D02*
X143384398Y-113917438D01*
X143384398Y-113917438D02*
X143479636Y-113869819D01*
X143479636Y-113869819D02*
X143717731Y-113869819D01*
X143717731Y-113869819D02*
X143860588Y-113917438D01*
X144289160Y-114869819D02*
X144289160Y-114203152D01*
X144289160Y-113869819D02*
X144241541Y-113917438D01*
X144241541Y-113917438D02*
X144289160Y-113965057D01*
X144289160Y-113965057D02*
X144336779Y-113917438D01*
X144336779Y-113917438D02*
X144289160Y-113869819D01*
X144289160Y-113869819D02*
X144289160Y-113965057D01*
X145193921Y-114822200D02*
X145098683Y-114869819D01*
X145098683Y-114869819D02*
X144908207Y-114869819D01*
X144908207Y-114869819D02*
X144812969Y-114822200D01*
X144812969Y-114822200D02*
X144765350Y-114774580D01*
X144765350Y-114774580D02*
X144717731Y-114679342D01*
X144717731Y-114679342D02*
X144717731Y-114393628D01*
X144717731Y-114393628D02*
X144765350Y-114298390D01*
X144765350Y-114298390D02*
X144812969Y-114250771D01*
X144812969Y-114250771D02*
X144908207Y-114203152D01*
X144908207Y-114203152D02*
X145098683Y-114203152D01*
X145098683Y-114203152D02*
X145193921Y-114250771D01*
X145622493Y-114869819D02*
X145622493Y-113869819D01*
X146051064Y-114869819D02*
X146051064Y-114346009D01*
X146051064Y-114346009D02*
X146003445Y-114250771D01*
X146003445Y-114250771D02*
X145908207Y-114203152D01*
X145908207Y-114203152D02*
X145765350Y-114203152D01*
X145765350Y-114203152D02*
X145670112Y-114250771D01*
X145670112Y-114250771D02*
X145622493Y-114298390D01*
X146908207Y-114822200D02*
X146812969Y-114869819D01*
X146812969Y-114869819D02*
X146622493Y-114869819D01*
X146622493Y-114869819D02*
X146527255Y-114822200D01*
X146527255Y-114822200D02*
X146479636Y-114726961D01*
X146479636Y-114726961D02*
X146479636Y-114346009D01*
X146479636Y-114346009D02*
X146527255Y-114250771D01*
X146527255Y-114250771D02*
X146622493Y-114203152D01*
X146622493Y-114203152D02*
X146812969Y-114203152D01*
X146812969Y-114203152D02*
X146908207Y-114250771D01*
X146908207Y-114250771D02*
X146955826Y-114346009D01*
X146955826Y-114346009D02*
X146955826Y-114441247D01*
X146955826Y-114441247D02*
X146479636Y-114536485D01*
X147384398Y-114869819D02*
X147384398Y-114203152D01*
X147384398Y-114393628D02*
X147432017Y-114298390D01*
X147432017Y-114298390D02*
X147479636Y-114250771D01*
X147479636Y-114250771D02*
X147574874Y-114203152D01*
X147574874Y-114203152D02*
X147670112Y-114203152D01*
X148432017Y-114203152D02*
X148432017Y-114869819D01*
X148003446Y-114203152D02*
X148003446Y-114726961D01*
X148003446Y-114726961D02*
X148051065Y-114822200D01*
X148051065Y-114822200D02*
X148146303Y-114869819D01*
X148146303Y-114869819D02*
X148289160Y-114869819D01*
X148289160Y-114869819D02*
X148384398Y-114822200D01*
X148384398Y-114822200D02*
X148432017Y-114774580D01*
X148908208Y-114203152D02*
X148908208Y-114869819D01*
X148908208Y-114298390D02*
X148955827Y-114250771D01*
X148955827Y-114250771D02*
X149051065Y-114203152D01*
X149051065Y-114203152D02*
X149193922Y-114203152D01*
X149193922Y-114203152D02*
X149289160Y-114250771D01*
X149289160Y-114250771D02*
X149336779Y-114346009D01*
X149336779Y-114346009D02*
X149336779Y-114869819D01*
X150241541Y-114203152D02*
X150241541Y-115012676D01*
X150241541Y-115012676D02*
X150193922Y-115107914D01*
X150193922Y-115107914D02*
X150146303Y-115155533D01*
X150146303Y-115155533D02*
X150051065Y-115203152D01*
X150051065Y-115203152D02*
X149908208Y-115203152D01*
X149908208Y-115203152D02*
X149812970Y-115155533D01*
X150241541Y-114822200D02*
X150146303Y-114869819D01*
X150146303Y-114869819D02*
X149955827Y-114869819D01*
X149955827Y-114869819D02*
X149860589Y-114822200D01*
X149860589Y-114822200D02*
X149812970Y-114774580D01*
X149812970Y-114774580D02*
X149765351Y-114679342D01*
X149765351Y-114679342D02*
X149765351Y-114393628D01*
X149765351Y-114393628D02*
X149812970Y-114298390D01*
X149812970Y-114298390D02*
X149860589Y-114250771D01*
X149860589Y-114250771D02*
X149955827Y-114203152D01*
X149955827Y-114203152D02*
X150146303Y-114203152D01*
X150146303Y-114203152D02*
X150241541Y-114250771D01*
X87836779Y-123345342D02*
X87836779Y-122145342D01*
X87836779Y-122145342D02*
X88170112Y-123002485D01*
X88170112Y-123002485D02*
X88503445Y-122145342D01*
X88503445Y-122145342D02*
X88503445Y-123345342D01*
X89122493Y-123345342D02*
X89027255Y-123288200D01*
X89027255Y-123288200D02*
X88979636Y-123231057D01*
X88979636Y-123231057D02*
X88932017Y-123116771D01*
X88932017Y-123116771D02*
X88932017Y-122773914D01*
X88932017Y-122773914D02*
X88979636Y-122659628D01*
X88979636Y-122659628D02*
X89027255Y-122602485D01*
X89027255Y-122602485D02*
X89122493Y-122545342D01*
X89122493Y-122545342D02*
X89265350Y-122545342D01*
X89265350Y-122545342D02*
X89360588Y-122602485D01*
X89360588Y-122602485D02*
X89408207Y-122659628D01*
X89408207Y-122659628D02*
X89455826Y-122773914D01*
X89455826Y-122773914D02*
X89455826Y-123116771D01*
X89455826Y-123116771D02*
X89408207Y-123231057D01*
X89408207Y-123231057D02*
X89360588Y-123288200D01*
X89360588Y-123288200D02*
X89265350Y-123345342D01*
X89265350Y-123345342D02*
X89122493Y-123345342D01*
X89741541Y-122545342D02*
X90122493Y-122545342D01*
X89884398Y-122145342D02*
X89884398Y-123173914D01*
X89884398Y-123173914D02*
X89932017Y-123288200D01*
X89932017Y-123288200D02*
X90027255Y-123345342D01*
X90027255Y-123345342D02*
X90122493Y-123345342D01*
X90598684Y-123345342D02*
X90503446Y-123288200D01*
X90503446Y-123288200D02*
X90455827Y-123231057D01*
X90455827Y-123231057D02*
X90408208Y-123116771D01*
X90408208Y-123116771D02*
X90408208Y-122773914D01*
X90408208Y-122773914D02*
X90455827Y-122659628D01*
X90455827Y-122659628D02*
X90503446Y-122602485D01*
X90503446Y-122602485D02*
X90598684Y-122545342D01*
X90598684Y-122545342D02*
X90741541Y-122545342D01*
X90741541Y-122545342D02*
X90836779Y-122602485D01*
X90836779Y-122602485D02*
X90884398Y-122659628D01*
X90884398Y-122659628D02*
X90932017Y-122773914D01*
X90932017Y-122773914D02*
X90932017Y-123116771D01*
X90932017Y-123116771D02*
X90884398Y-123231057D01*
X90884398Y-123231057D02*
X90836779Y-123288200D01*
X90836779Y-123288200D02*
X90741541Y-123345342D01*
X90741541Y-123345342D02*
X90598684Y-123345342D01*
X91360589Y-123345342D02*
X91360589Y-122545342D01*
X91360589Y-122773914D02*
X91408208Y-122659628D01*
X91408208Y-122659628D02*
X91455827Y-122602485D01*
X91455827Y-122602485D02*
X91551065Y-122545342D01*
X91551065Y-122545342D02*
X91646303Y-122545342D01*
X92693923Y-123002485D02*
X93170113Y-123002485D01*
X92598685Y-123345342D02*
X92932018Y-122145342D01*
X92932018Y-122145342D02*
X93265351Y-123345342D01*
X122122493Y-39645342D02*
X122122493Y-40502485D01*
X122122493Y-40502485D02*
X122074874Y-40673914D01*
X122074874Y-40673914D02*
X121979636Y-40788200D01*
X121979636Y-40788200D02*
X121836779Y-40845342D01*
X121836779Y-40845342D02*
X121741541Y-40845342D01*
X122741541Y-40845342D02*
X122646303Y-40788200D01*
X122646303Y-40788200D02*
X122598684Y-40731057D01*
X122598684Y-40731057D02*
X122551065Y-40616771D01*
X122551065Y-40616771D02*
X122551065Y-40273914D01*
X122551065Y-40273914D02*
X122598684Y-40159628D01*
X122598684Y-40159628D02*
X122646303Y-40102485D01*
X122646303Y-40102485D02*
X122741541Y-40045342D01*
X122741541Y-40045342D02*
X122884398Y-40045342D01*
X122884398Y-40045342D02*
X122979636Y-40102485D01*
X122979636Y-40102485D02*
X123027255Y-40159628D01*
X123027255Y-40159628D02*
X123074874Y-40273914D01*
X123074874Y-40273914D02*
X123074874Y-40616771D01*
X123074874Y-40616771D02*
X123027255Y-40731057D01*
X123027255Y-40731057D02*
X122979636Y-40788200D01*
X122979636Y-40788200D02*
X122884398Y-40845342D01*
X122884398Y-40845342D02*
X122741541Y-40845342D01*
X123408208Y-40045342D02*
X123646303Y-40845342D01*
X123884398Y-40045342D02*
X123646303Y-40845342D01*
X123646303Y-40845342D02*
X123551065Y-41131057D01*
X123551065Y-41131057D02*
X123503446Y-41188200D01*
X123503446Y-41188200D02*
X123408208Y-41245342D01*
X124217732Y-40788200D02*
X124312970Y-40845342D01*
X124312970Y-40845342D02*
X124503446Y-40845342D01*
X124503446Y-40845342D02*
X124598684Y-40788200D01*
X124598684Y-40788200D02*
X124646303Y-40673914D01*
X124646303Y-40673914D02*
X124646303Y-40616771D01*
X124646303Y-40616771D02*
X124598684Y-40502485D01*
X124598684Y-40502485D02*
X124503446Y-40445342D01*
X124503446Y-40445342D02*
X124360589Y-40445342D01*
X124360589Y-40445342D02*
X124265351Y-40388200D01*
X124265351Y-40388200D02*
X124217732Y-40273914D01*
X124217732Y-40273914D02*
X124217732Y-40216771D01*
X124217732Y-40216771D02*
X124265351Y-40102485D01*
X124265351Y-40102485D02*
X124360589Y-40045342D01*
X124360589Y-40045342D02*
X124503446Y-40045342D01*
X124503446Y-40045342D02*
X124598684Y-40102485D01*
X124932018Y-40045342D02*
X125312970Y-40045342D01*
X125074875Y-39645342D02*
X125074875Y-40673914D01*
X125074875Y-40673914D02*
X125122494Y-40788200D01*
X125122494Y-40788200D02*
X125217732Y-40845342D01*
X125217732Y-40845342D02*
X125312970Y-40845342D01*
X125646304Y-40845342D02*
X125646304Y-40045342D01*
X125646304Y-39645342D02*
X125598685Y-39702485D01*
X125598685Y-39702485D02*
X125646304Y-39759628D01*
X125646304Y-39759628D02*
X125693923Y-39702485D01*
X125693923Y-39702485D02*
X125646304Y-39645342D01*
X125646304Y-39645342D02*
X125646304Y-39759628D01*
X126551065Y-40788200D02*
X126455827Y-40845342D01*
X126455827Y-40845342D02*
X126265351Y-40845342D01*
X126265351Y-40845342D02*
X126170113Y-40788200D01*
X126170113Y-40788200D02*
X126122494Y-40731057D01*
X126122494Y-40731057D02*
X126074875Y-40616771D01*
X126074875Y-40616771D02*
X126074875Y-40273914D01*
X126074875Y-40273914D02*
X126122494Y-40159628D01*
X126122494Y-40159628D02*
X126170113Y-40102485D01*
X126170113Y-40102485D02*
X126265351Y-40045342D01*
X126265351Y-40045342D02*
X126455827Y-40045342D01*
X126455827Y-40045342D02*
X126551065Y-40102485D01*
X126979637Y-40845342D02*
X126979637Y-39645342D01*
X127074875Y-40388200D02*
X127360589Y-40845342D01*
X127360589Y-40045342D02*
X126979637Y-40502485D01*
X130289160Y-68788200D02*
X130432017Y-68845342D01*
X130432017Y-68845342D02*
X130670112Y-68845342D01*
X130670112Y-68845342D02*
X130765350Y-68788200D01*
X130765350Y-68788200D02*
X130812969Y-68731057D01*
X130812969Y-68731057D02*
X130860588Y-68616771D01*
X130860588Y-68616771D02*
X130860588Y-68502485D01*
X130860588Y-68502485D02*
X130812969Y-68388200D01*
X130812969Y-68388200D02*
X130765350Y-68331057D01*
X130765350Y-68331057D02*
X130670112Y-68273914D01*
X130670112Y-68273914D02*
X130479636Y-68216771D01*
X130479636Y-68216771D02*
X130384398Y-68159628D01*
X130384398Y-68159628D02*
X130336779Y-68102485D01*
X130336779Y-68102485D02*
X130289160Y-67988200D01*
X130289160Y-67988200D02*
X130289160Y-67873914D01*
X130289160Y-67873914D02*
X130336779Y-67759628D01*
X130336779Y-67759628D02*
X130384398Y-67702485D01*
X130384398Y-67702485D02*
X130479636Y-67645342D01*
X130479636Y-67645342D02*
X130717731Y-67645342D01*
X130717731Y-67645342D02*
X130860588Y-67702485D01*
X131146303Y-67645342D02*
X131717731Y-67645342D01*
X131432017Y-68845342D02*
X131432017Y-67645342D01*
X132051065Y-68845342D02*
X132051065Y-67645342D01*
X132051065Y-67645342D02*
X132384398Y-68502485D01*
X132384398Y-68502485D02*
X132717731Y-67645342D01*
X132717731Y-67645342D02*
X132717731Y-68845342D01*
X133098684Y-67645342D02*
X133717731Y-67645342D01*
X133717731Y-67645342D02*
X133384398Y-68102485D01*
X133384398Y-68102485D02*
X133527255Y-68102485D01*
X133527255Y-68102485D02*
X133622493Y-68159628D01*
X133622493Y-68159628D02*
X133670112Y-68216771D01*
X133670112Y-68216771D02*
X133717731Y-68331057D01*
X133717731Y-68331057D02*
X133717731Y-68616771D01*
X133717731Y-68616771D02*
X133670112Y-68731057D01*
X133670112Y-68731057D02*
X133622493Y-68788200D01*
X133622493Y-68788200D02*
X133527255Y-68845342D01*
X133527255Y-68845342D02*
X133241541Y-68845342D01*
X133241541Y-68845342D02*
X133146303Y-68788200D01*
X133146303Y-68788200D02*
X133098684Y-68731057D01*
X134098684Y-67759628D02*
X134146303Y-67702485D01*
X134146303Y-67702485D02*
X134241541Y-67645342D01*
X134241541Y-67645342D02*
X134479636Y-67645342D01*
X134479636Y-67645342D02*
X134574874Y-67702485D01*
X134574874Y-67702485D02*
X134622493Y-67759628D01*
X134622493Y-67759628D02*
X134670112Y-67873914D01*
X134670112Y-67873914D02*
X134670112Y-67988200D01*
X134670112Y-67988200D02*
X134622493Y-68159628D01*
X134622493Y-68159628D02*
X134051065Y-68845342D01*
X134051065Y-68845342D02*
X134670112Y-68845342D01*
X140336779Y-44345342D02*
X140336779Y-43145342D01*
X140336779Y-43145342D02*
X140574874Y-43145342D01*
X140574874Y-43145342D02*
X140717731Y-43202485D01*
X140717731Y-43202485D02*
X140812969Y-43316771D01*
X140812969Y-43316771D02*
X140860588Y-43431057D01*
X140860588Y-43431057D02*
X140908207Y-43659628D01*
X140908207Y-43659628D02*
X140908207Y-43831057D01*
X140908207Y-43831057D02*
X140860588Y-44059628D01*
X140860588Y-44059628D02*
X140812969Y-44173914D01*
X140812969Y-44173914D02*
X140717731Y-44288200D01*
X140717731Y-44288200D02*
X140574874Y-44345342D01*
X140574874Y-44345342D02*
X140336779Y-44345342D01*
X141336779Y-44345342D02*
X141336779Y-43545342D01*
X141336779Y-43145342D02*
X141289160Y-43202485D01*
X141289160Y-43202485D02*
X141336779Y-43259628D01*
X141336779Y-43259628D02*
X141384398Y-43202485D01*
X141384398Y-43202485D02*
X141336779Y-43145342D01*
X141336779Y-43145342D02*
X141336779Y-43259628D01*
X141765350Y-44288200D02*
X141860588Y-44345342D01*
X141860588Y-44345342D02*
X142051064Y-44345342D01*
X142051064Y-44345342D02*
X142146302Y-44288200D01*
X142146302Y-44288200D02*
X142193921Y-44173914D01*
X142193921Y-44173914D02*
X142193921Y-44116771D01*
X142193921Y-44116771D02*
X142146302Y-44002485D01*
X142146302Y-44002485D02*
X142051064Y-43945342D01*
X142051064Y-43945342D02*
X141908207Y-43945342D01*
X141908207Y-43945342D02*
X141812969Y-43888200D01*
X141812969Y-43888200D02*
X141765350Y-43773914D01*
X141765350Y-43773914D02*
X141765350Y-43716771D01*
X141765350Y-43716771D02*
X141812969Y-43602485D01*
X141812969Y-43602485D02*
X141908207Y-43545342D01*
X141908207Y-43545342D02*
X142051064Y-43545342D01*
X142051064Y-43545342D02*
X142146302Y-43602485D01*
X142622493Y-43545342D02*
X142622493Y-44745342D01*
X142622493Y-43602485D02*
X142717731Y-43545342D01*
X142717731Y-43545342D02*
X142908207Y-43545342D01*
X142908207Y-43545342D02*
X143003445Y-43602485D01*
X143003445Y-43602485D02*
X143051064Y-43659628D01*
X143051064Y-43659628D02*
X143098683Y-43773914D01*
X143098683Y-43773914D02*
X143098683Y-44116771D01*
X143098683Y-44116771D02*
X143051064Y-44231057D01*
X143051064Y-44231057D02*
X143003445Y-44288200D01*
X143003445Y-44288200D02*
X142908207Y-44345342D01*
X142908207Y-44345342D02*
X142717731Y-44345342D01*
X142717731Y-44345342D02*
X142622493Y-44288200D01*
X143670112Y-44345342D02*
X143574874Y-44288200D01*
X143574874Y-44288200D02*
X143527255Y-44173914D01*
X143527255Y-44173914D02*
X143527255Y-43145342D01*
X144479636Y-44345342D02*
X144479636Y-43716771D01*
X144479636Y-43716771D02*
X144432017Y-43602485D01*
X144432017Y-43602485D02*
X144336779Y-43545342D01*
X144336779Y-43545342D02*
X144146303Y-43545342D01*
X144146303Y-43545342D02*
X144051065Y-43602485D01*
X144479636Y-44288200D02*
X144384398Y-44345342D01*
X144384398Y-44345342D02*
X144146303Y-44345342D01*
X144146303Y-44345342D02*
X144051065Y-44288200D01*
X144051065Y-44288200D02*
X144003446Y-44173914D01*
X144003446Y-44173914D02*
X144003446Y-44059628D01*
X144003446Y-44059628D02*
X144051065Y-43945342D01*
X144051065Y-43945342D02*
X144146303Y-43888200D01*
X144146303Y-43888200D02*
X144384398Y-43888200D01*
X144384398Y-43888200D02*
X144479636Y-43831057D01*
X144860589Y-43545342D02*
X145098684Y-44345342D01*
X145336779Y-43545342D02*
X145098684Y-44345342D01*
X145098684Y-44345342D02*
X145003446Y-44631057D01*
X145003446Y-44631057D02*
X144955827Y-44688200D01*
X144955827Y-44688200D02*
X144860589Y-44745342D01*
X165289160Y-38788200D02*
X165432017Y-38845342D01*
X165432017Y-38845342D02*
X165670112Y-38845342D01*
X165670112Y-38845342D02*
X165765350Y-38788200D01*
X165765350Y-38788200D02*
X165812969Y-38731057D01*
X165812969Y-38731057D02*
X165860588Y-38616771D01*
X165860588Y-38616771D02*
X165860588Y-38502485D01*
X165860588Y-38502485D02*
X165812969Y-38388200D01*
X165812969Y-38388200D02*
X165765350Y-38331057D01*
X165765350Y-38331057D02*
X165670112Y-38273914D01*
X165670112Y-38273914D02*
X165479636Y-38216771D01*
X165479636Y-38216771D02*
X165384398Y-38159628D01*
X165384398Y-38159628D02*
X165336779Y-38102485D01*
X165336779Y-38102485D02*
X165289160Y-37988200D01*
X165289160Y-37988200D02*
X165289160Y-37873914D01*
X165289160Y-37873914D02*
X165336779Y-37759628D01*
X165336779Y-37759628D02*
X165384398Y-37702485D01*
X165384398Y-37702485D02*
X165479636Y-37645342D01*
X165479636Y-37645342D02*
X165717731Y-37645342D01*
X165717731Y-37645342D02*
X165860588Y-37702485D01*
X166193922Y-37645342D02*
X166432017Y-38845342D01*
X166432017Y-38845342D02*
X166622493Y-37988200D01*
X166622493Y-37988200D02*
X166812969Y-38845342D01*
X166812969Y-38845342D02*
X167051065Y-37645342D01*
X167432017Y-38845342D02*
X167432017Y-37645342D01*
X167432017Y-37645342D02*
X167670112Y-37645342D01*
X167670112Y-37645342D02*
X167812969Y-37702485D01*
X167812969Y-37702485D02*
X167908207Y-37816771D01*
X167908207Y-37816771D02*
X167955826Y-37931057D01*
X167955826Y-37931057D02*
X168003445Y-38159628D01*
X168003445Y-38159628D02*
X168003445Y-38331057D01*
X168003445Y-38331057D02*
X167955826Y-38559628D01*
X167955826Y-38559628D02*
X167908207Y-38673914D01*
X167908207Y-38673914D02*
X167812969Y-38788200D01*
X167812969Y-38788200D02*
X167670112Y-38845342D01*
X167670112Y-38845342D02*
X167432017Y-38845342D01*
X168432017Y-38388200D02*
X169193922Y-38388200D01*
X169622493Y-38788200D02*
X169765350Y-38845342D01*
X169765350Y-38845342D02*
X170003445Y-38845342D01*
X170003445Y-38845342D02*
X170098683Y-38788200D01*
X170098683Y-38788200D02*
X170146302Y-38731057D01*
X170146302Y-38731057D02*
X170193921Y-38616771D01*
X170193921Y-38616771D02*
X170193921Y-38502485D01*
X170193921Y-38502485D02*
X170146302Y-38388200D01*
X170146302Y-38388200D02*
X170098683Y-38331057D01*
X170098683Y-38331057D02*
X170003445Y-38273914D01*
X170003445Y-38273914D02*
X169812969Y-38216771D01*
X169812969Y-38216771D02*
X169717731Y-38159628D01*
X169717731Y-38159628D02*
X169670112Y-38102485D01*
X169670112Y-38102485D02*
X169622493Y-37988200D01*
X169622493Y-37988200D02*
X169622493Y-37873914D01*
X169622493Y-37873914D02*
X169670112Y-37759628D01*
X169670112Y-37759628D02*
X169717731Y-37702485D01*
X169717731Y-37702485D02*
X169812969Y-37645342D01*
X169812969Y-37645342D02*
X170051064Y-37645342D01*
X170051064Y-37645342D02*
X170193921Y-37702485D01*
X171051064Y-38788200D02*
X170955826Y-38845342D01*
X170955826Y-38845342D02*
X170765350Y-38845342D01*
X170765350Y-38845342D02*
X170670112Y-38788200D01*
X170670112Y-38788200D02*
X170622493Y-38731057D01*
X170622493Y-38731057D02*
X170574874Y-38616771D01*
X170574874Y-38616771D02*
X170574874Y-38273914D01*
X170574874Y-38273914D02*
X170622493Y-38159628D01*
X170622493Y-38159628D02*
X170670112Y-38102485D01*
X170670112Y-38102485D02*
X170765350Y-38045342D01*
X170765350Y-38045342D02*
X170955826Y-38045342D01*
X170955826Y-38045342D02*
X171051064Y-38102485D01*
X171479636Y-38845342D02*
X171479636Y-37645342D01*
X171908207Y-38845342D02*
X171908207Y-38216771D01*
X171908207Y-38216771D02*
X171860588Y-38102485D01*
X171860588Y-38102485D02*
X171765350Y-38045342D01*
X171765350Y-38045342D02*
X171622493Y-38045342D01*
X171622493Y-38045342D02*
X171527255Y-38102485D01*
X171527255Y-38102485D02*
X171479636Y-38159628D01*
X172384398Y-38045342D02*
X172384398Y-38845342D01*
X172384398Y-38159628D02*
X172432017Y-38102485D01*
X172432017Y-38102485D02*
X172527255Y-38045342D01*
X172527255Y-38045342D02*
X172670112Y-38045342D01*
X172670112Y-38045342D02*
X172765350Y-38102485D01*
X172765350Y-38102485D02*
X172812969Y-38216771D01*
X172812969Y-38216771D02*
X172812969Y-38845342D01*
X173289160Y-38845342D02*
X173289160Y-38045342D01*
X173289160Y-37645342D02*
X173241541Y-37702485D01*
X173241541Y-37702485D02*
X173289160Y-37759628D01*
X173289160Y-37759628D02*
X173336779Y-37702485D01*
X173336779Y-37702485D02*
X173289160Y-37645342D01*
X173289160Y-37645342D02*
X173289160Y-37759628D01*
X173622493Y-38045342D02*
X174003445Y-38045342D01*
X173765350Y-37645342D02*
X173765350Y-38673914D01*
X173765350Y-38673914D02*
X173812969Y-38788200D01*
X173812969Y-38788200D02*
X173908207Y-38845342D01*
X173908207Y-38845342D02*
X174003445Y-38845342D01*
X174193922Y-38045342D02*
X174574874Y-38045342D01*
X174336779Y-37645342D02*
X174336779Y-38673914D01*
X174336779Y-38673914D02*
X174384398Y-38788200D01*
X174384398Y-38788200D02*
X174479636Y-38845342D01*
X174479636Y-38845342D02*
X174574874Y-38845342D01*
X174860589Y-38788200D02*
X174955827Y-38845342D01*
X174955827Y-38845342D02*
X175146303Y-38845342D01*
X175146303Y-38845342D02*
X175241541Y-38788200D01*
X175241541Y-38788200D02*
X175289160Y-38673914D01*
X175289160Y-38673914D02*
X175289160Y-38616771D01*
X175289160Y-38616771D02*
X175241541Y-38502485D01*
X175241541Y-38502485D02*
X175146303Y-38445342D01*
X175146303Y-38445342D02*
X175003446Y-38445342D01*
X175003446Y-38445342D02*
X174908208Y-38388200D01*
X174908208Y-38388200D02*
X174860589Y-38273914D01*
X174860589Y-38273914D02*
X174860589Y-38216771D01*
X174860589Y-38216771D02*
X174908208Y-38102485D01*
X174908208Y-38102485D02*
X175003446Y-38045342D01*
X175003446Y-38045342D02*
X175146303Y-38045342D01*
X175146303Y-38045342D02*
X175241541Y-38102485D01*
X175574875Y-38045342D02*
X175955827Y-38045342D01*
X175717732Y-37645342D02*
X175717732Y-38673914D01*
X175717732Y-38673914D02*
X175765351Y-38788200D01*
X175765351Y-38788200D02*
X175860589Y-38845342D01*
X175860589Y-38845342D02*
X175955827Y-38845342D01*
X176670113Y-38788200D02*
X176574875Y-38845342D01*
X176574875Y-38845342D02*
X176384399Y-38845342D01*
X176384399Y-38845342D02*
X176289161Y-38788200D01*
X176289161Y-38788200D02*
X176241542Y-38673914D01*
X176241542Y-38673914D02*
X176241542Y-38216771D01*
X176241542Y-38216771D02*
X176289161Y-38102485D01*
X176289161Y-38102485D02*
X176384399Y-38045342D01*
X176384399Y-38045342D02*
X176574875Y-38045342D01*
X176574875Y-38045342D02*
X176670113Y-38102485D01*
X176670113Y-38102485D02*
X176717732Y-38216771D01*
X176717732Y-38216771D02*
X176717732Y-38331057D01*
X176717732Y-38331057D02*
X176241542Y-38445342D01*
X177289161Y-38845342D02*
X177193923Y-38788200D01*
X177193923Y-38788200D02*
X177146304Y-38673914D01*
X177146304Y-38673914D02*
X177146304Y-37645342D01*
X177812971Y-38845342D02*
X177717733Y-38788200D01*
X177717733Y-38788200D02*
X177670114Y-38673914D01*
X177670114Y-38673914D02*
X177670114Y-37645342D01*
X178574876Y-38788200D02*
X178479638Y-38845342D01*
X178479638Y-38845342D02*
X178289162Y-38845342D01*
X178289162Y-38845342D02*
X178193924Y-38788200D01*
X178193924Y-38788200D02*
X178146305Y-38673914D01*
X178146305Y-38673914D02*
X178146305Y-38216771D01*
X178146305Y-38216771D02*
X178193924Y-38102485D01*
X178193924Y-38102485D02*
X178289162Y-38045342D01*
X178289162Y-38045342D02*
X178479638Y-38045342D01*
X178479638Y-38045342D02*
X178574876Y-38102485D01*
X178574876Y-38102485D02*
X178622495Y-38216771D01*
X178622495Y-38216771D02*
X178622495Y-38331057D01*
X178622495Y-38331057D02*
X178146305Y-38445342D01*
X170336779Y-123345342D02*
X170336779Y-122145342D01*
X170336779Y-122145342D02*
X170670112Y-123002485D01*
X170670112Y-123002485D02*
X171003445Y-122145342D01*
X171003445Y-122145342D02*
X171003445Y-123345342D01*
X171622493Y-123345342D02*
X171527255Y-123288200D01*
X171527255Y-123288200D02*
X171479636Y-123231057D01*
X171479636Y-123231057D02*
X171432017Y-123116771D01*
X171432017Y-123116771D02*
X171432017Y-122773914D01*
X171432017Y-122773914D02*
X171479636Y-122659628D01*
X171479636Y-122659628D02*
X171527255Y-122602485D01*
X171527255Y-122602485D02*
X171622493Y-122545342D01*
X171622493Y-122545342D02*
X171765350Y-122545342D01*
X171765350Y-122545342D02*
X171860588Y-122602485D01*
X171860588Y-122602485D02*
X171908207Y-122659628D01*
X171908207Y-122659628D02*
X171955826Y-122773914D01*
X171955826Y-122773914D02*
X171955826Y-123116771D01*
X171955826Y-123116771D02*
X171908207Y-123231057D01*
X171908207Y-123231057D02*
X171860588Y-123288200D01*
X171860588Y-123288200D02*
X171765350Y-123345342D01*
X171765350Y-123345342D02*
X171622493Y-123345342D01*
X172241541Y-122545342D02*
X172622493Y-122545342D01*
X172384398Y-122145342D02*
X172384398Y-123173914D01*
X172384398Y-123173914D02*
X172432017Y-123288200D01*
X172432017Y-123288200D02*
X172527255Y-123345342D01*
X172527255Y-123345342D02*
X172622493Y-123345342D01*
X173098684Y-123345342D02*
X173003446Y-123288200D01*
X173003446Y-123288200D02*
X172955827Y-123231057D01*
X172955827Y-123231057D02*
X172908208Y-123116771D01*
X172908208Y-123116771D02*
X172908208Y-122773914D01*
X172908208Y-122773914D02*
X172955827Y-122659628D01*
X172955827Y-122659628D02*
X173003446Y-122602485D01*
X173003446Y-122602485D02*
X173098684Y-122545342D01*
X173098684Y-122545342D02*
X173241541Y-122545342D01*
X173241541Y-122545342D02*
X173336779Y-122602485D01*
X173336779Y-122602485D02*
X173384398Y-122659628D01*
X173384398Y-122659628D02*
X173432017Y-122773914D01*
X173432017Y-122773914D02*
X173432017Y-123116771D01*
X173432017Y-123116771D02*
X173384398Y-123231057D01*
X173384398Y-123231057D02*
X173336779Y-123288200D01*
X173336779Y-123288200D02*
X173241541Y-123345342D01*
X173241541Y-123345342D02*
X173098684Y-123345342D01*
X173860589Y-123345342D02*
X173860589Y-122545342D01*
X173860589Y-122773914D02*
X173908208Y-122659628D01*
X173908208Y-122659628D02*
X173955827Y-122602485D01*
X173955827Y-122602485D02*
X174051065Y-122545342D01*
X174051065Y-122545342D02*
X174146303Y-122545342D01*
X175574875Y-122716771D02*
X175717732Y-122773914D01*
X175717732Y-122773914D02*
X175765351Y-122831057D01*
X175765351Y-122831057D02*
X175812970Y-122945342D01*
X175812970Y-122945342D02*
X175812970Y-123116771D01*
X175812970Y-123116771D02*
X175765351Y-123231057D01*
X175765351Y-123231057D02*
X175717732Y-123288200D01*
X175717732Y-123288200D02*
X175622494Y-123345342D01*
X175622494Y-123345342D02*
X175241542Y-123345342D01*
X175241542Y-123345342D02*
X175241542Y-122145342D01*
X175241542Y-122145342D02*
X175574875Y-122145342D01*
X175574875Y-122145342D02*
X175670113Y-122202485D01*
X175670113Y-122202485D02*
X175717732Y-122259628D01*
X175717732Y-122259628D02*
X175765351Y-122373914D01*
X175765351Y-122373914D02*
X175765351Y-122488200D01*
X175765351Y-122488200D02*
X175717732Y-122602485D01*
X175717732Y-122602485D02*
X175670113Y-122659628D01*
X175670113Y-122659628D02*
X175574875Y-122716771D01*
X175574875Y-122716771D02*
X175241542Y-122716771D01*
D11*
X152402568Y-43544343D02*
X152402568Y-42344343D01*
X152973996Y-43544343D02*
X152545425Y-42858629D01*
X152973996Y-42344343D02*
X152402568Y-43030058D01*
X153545425Y-43544343D02*
X153450187Y-43487201D01*
X153450187Y-43487201D02*
X153402568Y-43430058D01*
X153402568Y-43430058D02*
X153354949Y-43315772D01*
X153354949Y-43315772D02*
X153354949Y-42972915D01*
X153354949Y-42972915D02*
X153402568Y-42858629D01*
X153402568Y-42858629D02*
X153450187Y-42801486D01*
X153450187Y-42801486D02*
X153545425Y-42744343D01*
X153545425Y-42744343D02*
X153688282Y-42744343D01*
X153688282Y-42744343D02*
X153783520Y-42801486D01*
X153783520Y-42801486D02*
X153831139Y-42858629D01*
X153831139Y-42858629D02*
X153878758Y-42972915D01*
X153878758Y-42972915D02*
X153878758Y-43315772D01*
X153878758Y-43315772D02*
X153831139Y-43430058D01*
X153831139Y-43430058D02*
X153783520Y-43487201D01*
X153783520Y-43487201D02*
X153688282Y-43544343D01*
X153688282Y-43544343D02*
X153545425Y-43544343D01*
X154307330Y-43544343D02*
X154307330Y-42744343D01*
X154307330Y-42858629D02*
X154354949Y-42801486D01*
X154354949Y-42801486D02*
X154450187Y-42744343D01*
X154450187Y-42744343D02*
X154593044Y-42744343D01*
X154593044Y-42744343D02*
X154688282Y-42801486D01*
X154688282Y-42801486D02*
X154735901Y-42915772D01*
X154735901Y-42915772D02*
X154735901Y-43544343D01*
X154735901Y-42915772D02*
X154783520Y-42801486D01*
X154783520Y-42801486D02*
X154878758Y-42744343D01*
X154878758Y-42744343D02*
X155021615Y-42744343D01*
X155021615Y-42744343D02*
X155116854Y-42801486D01*
X155116854Y-42801486D02*
X155164473Y-42915772D01*
X155164473Y-42915772D02*
X155164473Y-43544343D01*
X155640663Y-43544343D02*
X155640663Y-42744343D01*
X155640663Y-42858629D02*
X155688282Y-42801486D01*
X155688282Y-42801486D02*
X155783520Y-42744343D01*
X155783520Y-42744343D02*
X155926377Y-42744343D01*
X155926377Y-42744343D02*
X156021615Y-42801486D01*
X156021615Y-42801486D02*
X156069234Y-42915772D01*
X156069234Y-42915772D02*
X156069234Y-43544343D01*
X156069234Y-42915772D02*
X156116853Y-42801486D01*
X156116853Y-42801486D02*
X156212091Y-42744343D01*
X156212091Y-42744343D02*
X156354948Y-42744343D01*
X156354948Y-42744343D02*
X156450187Y-42801486D01*
X156450187Y-42801486D02*
X156497806Y-42915772D01*
X156497806Y-42915772D02*
X156497806Y-43544343D01*
X157402567Y-42744343D02*
X157402567Y-43544343D01*
X156973996Y-42744343D02*
X156973996Y-43372915D01*
X156973996Y-43372915D02*
X157021615Y-43487201D01*
X157021615Y-43487201D02*
X157116853Y-43544343D01*
X157116853Y-43544343D02*
X157259710Y-43544343D01*
X157259710Y-43544343D02*
X157354948Y-43487201D01*
X157354948Y-43487201D02*
X157402567Y-43430058D01*
X157878758Y-42744343D02*
X157878758Y-43544343D01*
X157878758Y-42858629D02*
X157926377Y-42801486D01*
X157926377Y-42801486D02*
X158021615Y-42744343D01*
X158021615Y-42744343D02*
X158164472Y-42744343D01*
X158164472Y-42744343D02*
X158259710Y-42801486D01*
X158259710Y-42801486D02*
X158307329Y-42915772D01*
X158307329Y-42915772D02*
X158307329Y-43544343D01*
X158783520Y-43544343D02*
X158783520Y-42744343D01*
X158783520Y-42344343D02*
X158735901Y-42401486D01*
X158735901Y-42401486D02*
X158783520Y-42458629D01*
X158783520Y-42458629D02*
X158831139Y-42401486D01*
X158831139Y-42401486D02*
X158783520Y-42344343D01*
X158783520Y-42344343D02*
X158783520Y-42458629D01*
X159259710Y-43544343D02*
X159259710Y-42344343D01*
X159354948Y-43087201D02*
X159640662Y-43544343D01*
X159640662Y-42744343D02*
X159259710Y-43201486D01*
X160497805Y-43544343D02*
X160497805Y-42915772D01*
X160497805Y-42915772D02*
X160450186Y-42801486D01*
X160450186Y-42801486D02*
X160354948Y-42744343D01*
X160354948Y-42744343D02*
X160164472Y-42744343D01*
X160164472Y-42744343D02*
X160069234Y-42801486D01*
X160497805Y-43487201D02*
X160402567Y-43544343D01*
X160402567Y-43544343D02*
X160164472Y-43544343D01*
X160164472Y-43544343D02*
X160069234Y-43487201D01*
X160069234Y-43487201D02*
X160021615Y-43372915D01*
X160021615Y-43372915D02*
X160021615Y-43258629D01*
X160021615Y-43258629D02*
X160069234Y-43144343D01*
X160069234Y-43144343D02*
X160164472Y-43087201D01*
X160164472Y-43087201D02*
X160402567Y-43087201D01*
X160402567Y-43087201D02*
X160497805Y-43030058D01*
X160831139Y-42744343D02*
X161212091Y-42744343D01*
X160973996Y-42344343D02*
X160973996Y-43372915D01*
X160973996Y-43372915D02*
X161021615Y-43487201D01*
X161021615Y-43487201D02*
X161116853Y-43544343D01*
X161116853Y-43544343D02*
X161212091Y-43544343D01*
X161545425Y-43544343D02*
X161545425Y-42744343D01*
X161545425Y-42344343D02*
X161497806Y-42401486D01*
X161497806Y-42401486D02*
X161545425Y-42458629D01*
X161545425Y-42458629D02*
X161593044Y-42401486D01*
X161593044Y-42401486D02*
X161545425Y-42344343D01*
X161545425Y-42344343D02*
X161545425Y-42458629D01*
X162164472Y-43544343D02*
X162069234Y-43487201D01*
X162069234Y-43487201D02*
X162021615Y-43430058D01*
X162021615Y-43430058D02*
X161973996Y-43315772D01*
X161973996Y-43315772D02*
X161973996Y-42972915D01*
X161973996Y-42972915D02*
X162021615Y-42858629D01*
X162021615Y-42858629D02*
X162069234Y-42801486D01*
X162069234Y-42801486D02*
X162164472Y-42744343D01*
X162164472Y-42744343D02*
X162307329Y-42744343D01*
X162307329Y-42744343D02*
X162402567Y-42801486D01*
X162402567Y-42801486D02*
X162450186Y-42858629D01*
X162450186Y-42858629D02*
X162497805Y-42972915D01*
X162497805Y-42972915D02*
X162497805Y-43315772D01*
X162497805Y-43315772D02*
X162450186Y-43430058D01*
X162450186Y-43430058D02*
X162402567Y-43487201D01*
X162402567Y-43487201D02*
X162307329Y-43544343D01*
X162307329Y-43544343D02*
X162164472Y-43544343D01*
X162926377Y-42744343D02*
X162926377Y-43544343D01*
X162926377Y-42858629D02*
X162973996Y-42801486D01*
X162973996Y-42801486D02*
X163069234Y-42744343D01*
X163069234Y-42744343D02*
X163212091Y-42744343D01*
X163212091Y-42744343D02*
X163307329Y-42801486D01*
X163307329Y-42801486D02*
X163354948Y-42915772D01*
X163354948Y-42915772D02*
X163354948Y-43544343D01*
X163783520Y-43487201D02*
X163878758Y-43544343D01*
X163878758Y-43544343D02*
X164069234Y-43544343D01*
X164069234Y-43544343D02*
X164164472Y-43487201D01*
X164164472Y-43487201D02*
X164212091Y-43372915D01*
X164212091Y-43372915D02*
X164212091Y-43315772D01*
X164212091Y-43315772D02*
X164164472Y-43201486D01*
X164164472Y-43201486D02*
X164069234Y-43144343D01*
X164069234Y-43144343D02*
X163926377Y-43144343D01*
X163926377Y-43144343D02*
X163831139Y-43087201D01*
X163831139Y-43087201D02*
X163783520Y-42972915D01*
X163783520Y-42972915D02*
X163783520Y-42915772D01*
X163783520Y-42915772D02*
X163831139Y-42801486D01*
X163831139Y-42801486D02*
X163926377Y-42744343D01*
X163926377Y-42744343D02*
X164069234Y-42744343D01*
X164069234Y-42744343D02*
X164164472Y-42801486D01*
X164640663Y-43544343D02*
X164640663Y-42744343D01*
X164640663Y-42858629D02*
X164688282Y-42801486D01*
X164688282Y-42801486D02*
X164783520Y-42744343D01*
X164783520Y-42744343D02*
X164926377Y-42744343D01*
X164926377Y-42744343D02*
X165021615Y-42801486D01*
X165021615Y-42801486D02*
X165069234Y-42915772D01*
X165069234Y-42915772D02*
X165069234Y-43544343D01*
X165069234Y-42915772D02*
X165116853Y-42801486D01*
X165116853Y-42801486D02*
X165212091Y-42744343D01*
X165212091Y-42744343D02*
X165354948Y-42744343D01*
X165354948Y-42744343D02*
X165450187Y-42801486D01*
X165450187Y-42801486D02*
X165497806Y-42915772D01*
X165497806Y-42915772D02*
X165497806Y-43544343D01*
X166116853Y-43544343D02*
X166021615Y-43487201D01*
X166021615Y-43487201D02*
X165973996Y-43430058D01*
X165973996Y-43430058D02*
X165926377Y-43315772D01*
X165926377Y-43315772D02*
X165926377Y-42972915D01*
X165926377Y-42972915D02*
X165973996Y-42858629D01*
X165973996Y-42858629D02*
X166021615Y-42801486D01*
X166021615Y-42801486D02*
X166116853Y-42744343D01*
X166116853Y-42744343D02*
X166259710Y-42744343D01*
X166259710Y-42744343D02*
X166354948Y-42801486D01*
X166354948Y-42801486D02*
X166402567Y-42858629D01*
X166402567Y-42858629D02*
X166450186Y-42972915D01*
X166450186Y-42972915D02*
X166450186Y-43315772D01*
X166450186Y-43315772D02*
X166402567Y-43430058D01*
X166402567Y-43430058D02*
X166354948Y-43487201D01*
X166354948Y-43487201D02*
X166259710Y-43544343D01*
X166259710Y-43544343D02*
X166116853Y-43544343D01*
X167307329Y-43544343D02*
X167307329Y-42344343D01*
X167307329Y-43487201D02*
X167212091Y-43544343D01*
X167212091Y-43544343D02*
X167021615Y-43544343D01*
X167021615Y-43544343D02*
X166926377Y-43487201D01*
X166926377Y-43487201D02*
X166878758Y-43430058D01*
X166878758Y-43430058D02*
X166831139Y-43315772D01*
X166831139Y-43315772D02*
X166831139Y-42972915D01*
X166831139Y-42972915D02*
X166878758Y-42858629D01*
X166878758Y-42858629D02*
X166926377Y-42801486D01*
X166926377Y-42801486D02*
X167021615Y-42744343D01*
X167021615Y-42744343D02*
X167212091Y-42744343D01*
X167212091Y-42744343D02*
X167307329Y-42801486D01*
X168212091Y-42744343D02*
X168212091Y-43544343D01*
X167783520Y-42744343D02*
X167783520Y-43372915D01*
X167783520Y-43372915D02*
X167831139Y-43487201D01*
X167831139Y-43487201D02*
X167926377Y-43544343D01*
X167926377Y-43544343D02*
X168069234Y-43544343D01*
X168069234Y-43544343D02*
X168164472Y-43487201D01*
X168164472Y-43487201D02*
X168212091Y-43430058D01*
X168831139Y-43544343D02*
X168735901Y-43487201D01*
X168735901Y-43487201D02*
X168688282Y-43372915D01*
X168688282Y-43372915D02*
X168688282Y-42344343D01*
X152259711Y-44276276D02*
X152831139Y-44276276D01*
X152545425Y-45476276D02*
X152545425Y-44276276D01*
X153164473Y-45476276D02*
X153164473Y-44676276D01*
X153164473Y-44904848D02*
X153212092Y-44790562D01*
X153212092Y-44790562D02*
X153259711Y-44733419D01*
X153259711Y-44733419D02*
X153354949Y-44676276D01*
X153354949Y-44676276D02*
X153450187Y-44676276D01*
X154212092Y-45476276D02*
X154212092Y-44847705D01*
X154212092Y-44847705D02*
X154164473Y-44733419D01*
X154164473Y-44733419D02*
X154069235Y-44676276D01*
X154069235Y-44676276D02*
X153878759Y-44676276D01*
X153878759Y-44676276D02*
X153783521Y-44733419D01*
X154212092Y-45419134D02*
X154116854Y-45476276D01*
X154116854Y-45476276D02*
X153878759Y-45476276D01*
X153878759Y-45476276D02*
X153783521Y-45419134D01*
X153783521Y-45419134D02*
X153735902Y-45304848D01*
X153735902Y-45304848D02*
X153735902Y-45190562D01*
X153735902Y-45190562D02*
X153783521Y-45076276D01*
X153783521Y-45076276D02*
X153878759Y-45019134D01*
X153878759Y-45019134D02*
X154116854Y-45019134D01*
X154116854Y-45019134D02*
X154212092Y-44961991D01*
X155116854Y-44676276D02*
X155116854Y-45647705D01*
X155116854Y-45647705D02*
X155069235Y-45761991D01*
X155069235Y-45761991D02*
X155021616Y-45819134D01*
X155021616Y-45819134D02*
X154926378Y-45876276D01*
X154926378Y-45876276D02*
X154783521Y-45876276D01*
X154783521Y-45876276D02*
X154688283Y-45819134D01*
X155116854Y-45419134D02*
X155021616Y-45476276D01*
X155021616Y-45476276D02*
X154831140Y-45476276D01*
X154831140Y-45476276D02*
X154735902Y-45419134D01*
X154735902Y-45419134D02*
X154688283Y-45361991D01*
X154688283Y-45361991D02*
X154640664Y-45247705D01*
X154640664Y-45247705D02*
X154640664Y-44904848D01*
X154640664Y-44904848D02*
X154688283Y-44790562D01*
X154688283Y-44790562D02*
X154735902Y-44733419D01*
X154735902Y-44733419D02*
X154831140Y-44676276D01*
X154831140Y-44676276D02*
X155021616Y-44676276D01*
X155021616Y-44676276D02*
X155116854Y-44733419D01*
X155450188Y-44676276D02*
X155831140Y-44676276D01*
X155593045Y-45476276D02*
X155593045Y-44447705D01*
X155593045Y-44447705D02*
X155640664Y-44333419D01*
X155640664Y-44333419D02*
X155735902Y-44276276D01*
X155735902Y-44276276D02*
X155831140Y-44276276D01*
X156307331Y-45476276D02*
X156212093Y-45419134D01*
X156212093Y-45419134D02*
X156164474Y-45304848D01*
X156164474Y-45304848D02*
X156164474Y-44276276D01*
X157116855Y-44676276D02*
X157116855Y-45476276D01*
X156688284Y-44676276D02*
X156688284Y-45304848D01*
X156688284Y-45304848D02*
X156735903Y-45419134D01*
X156735903Y-45419134D02*
X156831141Y-45476276D01*
X156831141Y-45476276D02*
X156973998Y-45476276D01*
X156973998Y-45476276D02*
X157069236Y-45419134D01*
X157069236Y-45419134D02*
X157116855Y-45361991D01*
X156735903Y-44276276D02*
X156783522Y-44333419D01*
X156783522Y-44333419D02*
X156735903Y-44390562D01*
X156735903Y-44390562D02*
X156688284Y-44333419D01*
X156688284Y-44333419D02*
X156735903Y-44276276D01*
X156735903Y-44276276D02*
X156735903Y-44390562D01*
X157116855Y-44276276D02*
X157164474Y-44333419D01*
X157164474Y-44333419D02*
X157116855Y-44390562D01*
X157116855Y-44390562D02*
X157069236Y-44333419D01*
X157069236Y-44333419D02*
X157116855Y-44276276D01*
X157116855Y-44276276D02*
X157116855Y-44390562D01*
X158021617Y-44676276D02*
X158021617Y-45647705D01*
X158021617Y-45647705D02*
X157973998Y-45761991D01*
X157973998Y-45761991D02*
X157926379Y-45819134D01*
X157926379Y-45819134D02*
X157831141Y-45876276D01*
X157831141Y-45876276D02*
X157688284Y-45876276D01*
X157688284Y-45876276D02*
X157593046Y-45819134D01*
X158021617Y-45419134D02*
X157926379Y-45476276D01*
X157926379Y-45476276D02*
X157735903Y-45476276D01*
X157735903Y-45476276D02*
X157640665Y-45419134D01*
X157640665Y-45419134D02*
X157593046Y-45361991D01*
X157593046Y-45361991D02*
X157545427Y-45247705D01*
X157545427Y-45247705D02*
X157545427Y-44904848D01*
X157545427Y-44904848D02*
X157593046Y-44790562D01*
X157593046Y-44790562D02*
X157640665Y-44733419D01*
X157640665Y-44733419D02*
X157735903Y-44676276D01*
X157735903Y-44676276D02*
X157926379Y-44676276D01*
X157926379Y-44676276D02*
X158021617Y-44733419D01*
X158878760Y-45419134D02*
X158783522Y-45476276D01*
X158783522Y-45476276D02*
X158593046Y-45476276D01*
X158593046Y-45476276D02*
X158497808Y-45419134D01*
X158497808Y-45419134D02*
X158450189Y-45304848D01*
X158450189Y-45304848D02*
X158450189Y-44847705D01*
X158450189Y-44847705D02*
X158497808Y-44733419D01*
X158497808Y-44733419D02*
X158593046Y-44676276D01*
X158593046Y-44676276D02*
X158783522Y-44676276D01*
X158783522Y-44676276D02*
X158878760Y-44733419D01*
X158878760Y-44733419D02*
X158926379Y-44847705D01*
X158926379Y-44847705D02*
X158926379Y-44961991D01*
X158926379Y-44961991D02*
X158450189Y-45076276D01*
X159497808Y-45476276D02*
X159402570Y-45419134D01*
X159402570Y-45419134D02*
X159354951Y-45304848D01*
X159354951Y-45304848D02*
X159354951Y-44276276D01*
X159878761Y-45476276D02*
X159878761Y-44276276D01*
X159878761Y-44733419D02*
X159973999Y-44676276D01*
X159973999Y-44676276D02*
X160164475Y-44676276D01*
X160164475Y-44676276D02*
X160259713Y-44733419D01*
X160259713Y-44733419D02*
X160307332Y-44790562D01*
X160307332Y-44790562D02*
X160354951Y-44904848D01*
X160354951Y-44904848D02*
X160354951Y-45247705D01*
X160354951Y-45247705D02*
X160307332Y-45361991D01*
X160307332Y-45361991D02*
X160259713Y-45419134D01*
X160259713Y-45419134D02*
X160164475Y-45476276D01*
X160164475Y-45476276D02*
X159973999Y-45476276D01*
X159973999Y-45476276D02*
X159878761Y-45419134D01*
X160926380Y-45476276D02*
X160831142Y-45419134D01*
X160831142Y-45419134D02*
X160783523Y-45361991D01*
X160783523Y-45361991D02*
X160735904Y-45247705D01*
X160735904Y-45247705D02*
X160735904Y-44904848D01*
X160735904Y-44904848D02*
X160783523Y-44790562D01*
X160783523Y-44790562D02*
X160831142Y-44733419D01*
X160831142Y-44733419D02*
X160926380Y-44676276D01*
X160926380Y-44676276D02*
X161069237Y-44676276D01*
X161069237Y-44676276D02*
X161164475Y-44733419D01*
X161164475Y-44733419D02*
X161212094Y-44790562D01*
X161212094Y-44790562D02*
X161259713Y-44904848D01*
X161259713Y-44904848D02*
X161259713Y-45247705D01*
X161259713Y-45247705D02*
X161212094Y-45361991D01*
X161212094Y-45361991D02*
X161164475Y-45419134D01*
X161164475Y-45419134D02*
X161069237Y-45476276D01*
X161069237Y-45476276D02*
X160926380Y-45476276D01*
X161831142Y-45476276D02*
X161735904Y-45419134D01*
X161735904Y-45419134D02*
X161688285Y-45361991D01*
X161688285Y-45361991D02*
X161640666Y-45247705D01*
X161640666Y-45247705D02*
X161640666Y-44904848D01*
X161640666Y-44904848D02*
X161688285Y-44790562D01*
X161688285Y-44790562D02*
X161735904Y-44733419D01*
X161735904Y-44733419D02*
X161831142Y-44676276D01*
X161831142Y-44676276D02*
X161973999Y-44676276D01*
X161973999Y-44676276D02*
X162069237Y-44733419D01*
X162069237Y-44733419D02*
X162116856Y-44790562D01*
X162116856Y-44790562D02*
X162164475Y-44904848D01*
X162164475Y-44904848D02*
X162164475Y-45247705D01*
X162164475Y-45247705D02*
X162116856Y-45361991D01*
X162116856Y-45361991D02*
X162069237Y-45419134D01*
X162069237Y-45419134D02*
X161973999Y-45476276D01*
X161973999Y-45476276D02*
X161831142Y-45476276D01*
X162450190Y-44676276D02*
X162831142Y-44676276D01*
X162593047Y-44276276D02*
X162593047Y-45304848D01*
X162593047Y-45304848D02*
X162640666Y-45419134D01*
X162640666Y-45419134D02*
X162735904Y-45476276D01*
X162735904Y-45476276D02*
X162831142Y-45476276D01*
X152402568Y-47408209D02*
X152402568Y-46208209D01*
X152402568Y-46208209D02*
X152735901Y-47065352D01*
X152735901Y-47065352D02*
X153069234Y-46208209D01*
X153069234Y-46208209D02*
X153069234Y-47408209D01*
X153973996Y-47408209D02*
X153973996Y-46779638D01*
X153973996Y-46779638D02*
X153926377Y-46665352D01*
X153926377Y-46665352D02*
X153831139Y-46608209D01*
X153831139Y-46608209D02*
X153640663Y-46608209D01*
X153640663Y-46608209D02*
X153545425Y-46665352D01*
X153973996Y-47351067D02*
X153878758Y-47408209D01*
X153878758Y-47408209D02*
X153640663Y-47408209D01*
X153640663Y-47408209D02*
X153545425Y-47351067D01*
X153545425Y-47351067D02*
X153497806Y-47236781D01*
X153497806Y-47236781D02*
X153497806Y-47122495D01*
X153497806Y-47122495D02*
X153545425Y-47008209D01*
X153545425Y-47008209D02*
X153640663Y-46951067D01*
X153640663Y-46951067D02*
X153878758Y-46951067D01*
X153878758Y-46951067D02*
X153973996Y-46893924D01*
X154354949Y-47408209D02*
X154878758Y-46608209D01*
X154354949Y-46608209D02*
X154878758Y-47408209D01*
X155259711Y-47408209D02*
X155259711Y-46608209D01*
X155259711Y-46208209D02*
X155212092Y-46265352D01*
X155212092Y-46265352D02*
X155259711Y-46322495D01*
X155259711Y-46322495D02*
X155307330Y-46265352D01*
X155307330Y-46265352D02*
X155259711Y-46208209D01*
X155259711Y-46208209D02*
X155259711Y-46322495D01*
X155735901Y-47408209D02*
X155735901Y-46608209D01*
X155735901Y-46722495D02*
X155783520Y-46665352D01*
X155783520Y-46665352D02*
X155878758Y-46608209D01*
X155878758Y-46608209D02*
X156021615Y-46608209D01*
X156021615Y-46608209D02*
X156116853Y-46665352D01*
X156116853Y-46665352D02*
X156164472Y-46779638D01*
X156164472Y-46779638D02*
X156164472Y-47408209D01*
X156164472Y-46779638D02*
X156212091Y-46665352D01*
X156212091Y-46665352D02*
X156307329Y-46608209D01*
X156307329Y-46608209D02*
X156450186Y-46608209D01*
X156450186Y-46608209D02*
X156545425Y-46665352D01*
X156545425Y-46665352D02*
X156593044Y-46779638D01*
X156593044Y-46779638D02*
X156593044Y-47408209D01*
X158402567Y-47293924D02*
X158354948Y-47351067D01*
X158354948Y-47351067D02*
X158212091Y-47408209D01*
X158212091Y-47408209D02*
X158116853Y-47408209D01*
X158116853Y-47408209D02*
X157973996Y-47351067D01*
X157973996Y-47351067D02*
X157878758Y-47236781D01*
X157878758Y-47236781D02*
X157831139Y-47122495D01*
X157831139Y-47122495D02*
X157783520Y-46893924D01*
X157783520Y-46893924D02*
X157783520Y-46722495D01*
X157783520Y-46722495D02*
X157831139Y-46493924D01*
X157831139Y-46493924D02*
X157878758Y-46379638D01*
X157878758Y-46379638D02*
X157973996Y-46265352D01*
X157973996Y-46265352D02*
X158116853Y-46208209D01*
X158116853Y-46208209D02*
X158212091Y-46208209D01*
X158212091Y-46208209D02*
X158354948Y-46265352D01*
X158354948Y-46265352D02*
X158402567Y-46322495D01*
X159259710Y-47408209D02*
X159259710Y-46779638D01*
X159259710Y-46779638D02*
X159212091Y-46665352D01*
X159212091Y-46665352D02*
X159116853Y-46608209D01*
X159116853Y-46608209D02*
X158926377Y-46608209D01*
X158926377Y-46608209D02*
X158831139Y-46665352D01*
X159259710Y-47351067D02*
X159164472Y-47408209D01*
X159164472Y-47408209D02*
X158926377Y-47408209D01*
X158926377Y-47408209D02*
X158831139Y-47351067D01*
X158831139Y-47351067D02*
X158783520Y-47236781D01*
X158783520Y-47236781D02*
X158783520Y-47122495D01*
X158783520Y-47122495D02*
X158831139Y-47008209D01*
X158831139Y-47008209D02*
X158926377Y-46951067D01*
X158926377Y-46951067D02*
X159164472Y-46951067D01*
X159164472Y-46951067D02*
X159259710Y-46893924D01*
X159688282Y-47351067D02*
X159783520Y-47408209D01*
X159783520Y-47408209D02*
X159973996Y-47408209D01*
X159973996Y-47408209D02*
X160069234Y-47351067D01*
X160069234Y-47351067D02*
X160116853Y-47236781D01*
X160116853Y-47236781D02*
X160116853Y-47179638D01*
X160116853Y-47179638D02*
X160069234Y-47065352D01*
X160069234Y-47065352D02*
X159973996Y-47008209D01*
X159973996Y-47008209D02*
X159831139Y-47008209D01*
X159831139Y-47008209D02*
X159735901Y-46951067D01*
X159735901Y-46951067D02*
X159688282Y-46836781D01*
X159688282Y-46836781D02*
X159688282Y-46779638D01*
X159688282Y-46779638D02*
X159735901Y-46665352D01*
X159735901Y-46665352D02*
X159831139Y-46608209D01*
X159831139Y-46608209D02*
X159973996Y-46608209D01*
X159973996Y-46608209D02*
X160069234Y-46665352D01*
X160402568Y-46608209D02*
X160783520Y-46608209D01*
X160545425Y-46208209D02*
X160545425Y-47236781D01*
X160545425Y-47236781D02*
X160593044Y-47351067D01*
X160593044Y-47351067D02*
X160688282Y-47408209D01*
X160688282Y-47408209D02*
X160783520Y-47408209D01*
X161259711Y-47408209D02*
X161164473Y-47351067D01*
X161164473Y-47351067D02*
X161116854Y-47293924D01*
X161116854Y-47293924D02*
X161069235Y-47179638D01*
X161069235Y-47179638D02*
X161069235Y-46836781D01*
X161069235Y-46836781D02*
X161116854Y-46722495D01*
X161116854Y-46722495D02*
X161164473Y-46665352D01*
X161164473Y-46665352D02*
X161259711Y-46608209D01*
X161259711Y-46608209D02*
X161402568Y-46608209D01*
X161402568Y-46608209D02*
X161497806Y-46665352D01*
X161497806Y-46665352D02*
X161545425Y-46722495D01*
X161545425Y-46722495D02*
X161593044Y-46836781D01*
X161593044Y-46836781D02*
X161593044Y-47179638D01*
X161593044Y-47179638D02*
X161545425Y-47293924D01*
X161545425Y-47293924D02*
X161497806Y-47351067D01*
X161497806Y-47351067D02*
X161402568Y-47408209D01*
X161402568Y-47408209D02*
X161259711Y-47408209D01*
X162021616Y-47408209D02*
X162021616Y-46608209D01*
X162021616Y-46836781D02*
X162069235Y-46722495D01*
X162069235Y-46722495D02*
X162116854Y-46665352D01*
X162116854Y-46665352D02*
X162212092Y-46608209D01*
X162212092Y-46608209D02*
X162307330Y-46608209D01*
X152688282Y-48140142D02*
X152688282Y-48997285D01*
X152688282Y-48997285D02*
X152640663Y-49168714D01*
X152640663Y-49168714D02*
X152545425Y-49283000D01*
X152545425Y-49283000D02*
X152402568Y-49340142D01*
X152402568Y-49340142D02*
X152307330Y-49340142D01*
X153307330Y-49340142D02*
X153212092Y-49283000D01*
X153212092Y-49283000D02*
X153164473Y-49225857D01*
X153164473Y-49225857D02*
X153116854Y-49111571D01*
X153116854Y-49111571D02*
X153116854Y-48768714D01*
X153116854Y-48768714D02*
X153164473Y-48654428D01*
X153164473Y-48654428D02*
X153212092Y-48597285D01*
X153212092Y-48597285D02*
X153307330Y-48540142D01*
X153307330Y-48540142D02*
X153450187Y-48540142D01*
X153450187Y-48540142D02*
X153545425Y-48597285D01*
X153545425Y-48597285D02*
X153593044Y-48654428D01*
X153593044Y-48654428D02*
X153640663Y-48768714D01*
X153640663Y-48768714D02*
X153640663Y-49111571D01*
X153640663Y-49111571D02*
X153593044Y-49225857D01*
X153593044Y-49225857D02*
X153545425Y-49283000D01*
X153545425Y-49283000D02*
X153450187Y-49340142D01*
X153450187Y-49340142D02*
X153307330Y-49340142D01*
X154069235Y-48540142D02*
X154069235Y-49340142D01*
X154069235Y-48654428D02*
X154116854Y-48597285D01*
X154116854Y-48597285D02*
X154212092Y-48540142D01*
X154212092Y-48540142D02*
X154354949Y-48540142D01*
X154354949Y-48540142D02*
X154450187Y-48597285D01*
X154450187Y-48597285D02*
X154497806Y-48711571D01*
X154497806Y-48711571D02*
X154497806Y-49340142D01*
X155402568Y-49340142D02*
X155402568Y-48711571D01*
X155402568Y-48711571D02*
X155354949Y-48597285D01*
X155354949Y-48597285D02*
X155259711Y-48540142D01*
X155259711Y-48540142D02*
X155069235Y-48540142D01*
X155069235Y-48540142D02*
X154973997Y-48597285D01*
X155402568Y-49283000D02*
X155307330Y-49340142D01*
X155307330Y-49340142D02*
X155069235Y-49340142D01*
X155069235Y-49340142D02*
X154973997Y-49283000D01*
X154973997Y-49283000D02*
X154926378Y-49168714D01*
X154926378Y-49168714D02*
X154926378Y-49054428D01*
X154926378Y-49054428D02*
X154973997Y-48940142D01*
X154973997Y-48940142D02*
X155069235Y-48883000D01*
X155069235Y-48883000D02*
X155307330Y-48883000D01*
X155307330Y-48883000D02*
X155402568Y-48825857D01*
X155735902Y-48540142D02*
X156116854Y-48540142D01*
X155878759Y-48140142D02*
X155878759Y-49168714D01*
X155878759Y-49168714D02*
X155926378Y-49283000D01*
X155926378Y-49283000D02*
X156021616Y-49340142D01*
X156021616Y-49340142D02*
X156116854Y-49340142D01*
X156450188Y-49340142D02*
X156450188Y-48140142D01*
X156878759Y-49340142D02*
X156878759Y-48711571D01*
X156878759Y-48711571D02*
X156831140Y-48597285D01*
X156831140Y-48597285D02*
X156735902Y-48540142D01*
X156735902Y-48540142D02*
X156593045Y-48540142D01*
X156593045Y-48540142D02*
X156497807Y-48597285D01*
X156497807Y-48597285D02*
X156450188Y-48654428D01*
X157783521Y-49340142D02*
X157783521Y-48711571D01*
X157783521Y-48711571D02*
X157735902Y-48597285D01*
X157735902Y-48597285D02*
X157640664Y-48540142D01*
X157640664Y-48540142D02*
X157450188Y-48540142D01*
X157450188Y-48540142D02*
X157354950Y-48597285D01*
X157783521Y-49283000D02*
X157688283Y-49340142D01*
X157688283Y-49340142D02*
X157450188Y-49340142D01*
X157450188Y-49340142D02*
X157354950Y-49283000D01*
X157354950Y-49283000D02*
X157307331Y-49168714D01*
X157307331Y-49168714D02*
X157307331Y-49054428D01*
X157307331Y-49054428D02*
X157354950Y-48940142D01*
X157354950Y-48940142D02*
X157450188Y-48883000D01*
X157450188Y-48883000D02*
X157688283Y-48883000D01*
X157688283Y-48883000D02*
X157783521Y-48825857D01*
X158259712Y-48540142D02*
X158259712Y-49340142D01*
X158259712Y-48654428D02*
X158307331Y-48597285D01*
X158307331Y-48597285D02*
X158402569Y-48540142D01*
X158402569Y-48540142D02*
X158545426Y-48540142D01*
X158545426Y-48540142D02*
X158640664Y-48597285D01*
X158640664Y-48597285D02*
X158688283Y-48711571D01*
X158688283Y-48711571D02*
X158688283Y-49340142D01*
X159878760Y-49283000D02*
X160021617Y-49340142D01*
X160021617Y-49340142D02*
X160259712Y-49340142D01*
X160259712Y-49340142D02*
X160354950Y-49283000D01*
X160354950Y-49283000D02*
X160402569Y-49225857D01*
X160402569Y-49225857D02*
X160450188Y-49111571D01*
X160450188Y-49111571D02*
X160450188Y-48997285D01*
X160450188Y-48997285D02*
X160402569Y-48883000D01*
X160402569Y-48883000D02*
X160354950Y-48825857D01*
X160354950Y-48825857D02*
X160259712Y-48768714D01*
X160259712Y-48768714D02*
X160069236Y-48711571D01*
X160069236Y-48711571D02*
X159973998Y-48654428D01*
X159973998Y-48654428D02*
X159926379Y-48597285D01*
X159926379Y-48597285D02*
X159878760Y-48483000D01*
X159878760Y-48483000D02*
X159878760Y-48368714D01*
X159878760Y-48368714D02*
X159926379Y-48254428D01*
X159926379Y-48254428D02*
X159973998Y-48197285D01*
X159973998Y-48197285D02*
X160069236Y-48140142D01*
X160069236Y-48140142D02*
X160307331Y-48140142D01*
X160307331Y-48140142D02*
X160450188Y-48197285D01*
X160735903Y-48540142D02*
X161116855Y-48540142D01*
X160878760Y-48140142D02*
X160878760Y-49168714D01*
X160878760Y-49168714D02*
X160926379Y-49283000D01*
X160926379Y-49283000D02*
X161021617Y-49340142D01*
X161021617Y-49340142D02*
X161116855Y-49340142D01*
X161593046Y-49340142D02*
X161497808Y-49283000D01*
X161497808Y-49283000D02*
X161450189Y-49225857D01*
X161450189Y-49225857D02*
X161402570Y-49111571D01*
X161402570Y-49111571D02*
X161402570Y-48768714D01*
X161402570Y-48768714D02*
X161450189Y-48654428D01*
X161450189Y-48654428D02*
X161497808Y-48597285D01*
X161497808Y-48597285D02*
X161593046Y-48540142D01*
X161593046Y-48540142D02*
X161735903Y-48540142D01*
X161735903Y-48540142D02*
X161831141Y-48597285D01*
X161831141Y-48597285D02*
X161878760Y-48654428D01*
X161878760Y-48654428D02*
X161926379Y-48768714D01*
X161926379Y-48768714D02*
X161926379Y-49111571D01*
X161926379Y-49111571D02*
X161878760Y-49225857D01*
X161878760Y-49225857D02*
X161831141Y-49283000D01*
X161831141Y-49283000D02*
X161735903Y-49340142D01*
X161735903Y-49340142D02*
X161593046Y-49340142D01*
X162497808Y-49340142D02*
X162402570Y-49283000D01*
X162402570Y-49283000D02*
X162354951Y-49168714D01*
X162354951Y-49168714D02*
X162354951Y-48140142D01*
X163021618Y-49340142D02*
X162926380Y-49283000D01*
X162926380Y-49283000D02*
X162878761Y-49168714D01*
X162878761Y-49168714D02*
X162878761Y-48140142D01*
D10*
X130349314Y-64454819D02*
X130015981Y-63978628D01*
X129777886Y-64454819D02*
X129777886Y-63454819D01*
X129777886Y-63454819D02*
X130158838Y-63454819D01*
X130158838Y-63454819D02*
X130254076Y-63502438D01*
X130254076Y-63502438D02*
X130301695Y-63550057D01*
X130301695Y-63550057D02*
X130349314Y-63645295D01*
X130349314Y-63645295D02*
X130349314Y-63788152D01*
X130349314Y-63788152D02*
X130301695Y-63883390D01*
X130301695Y-63883390D02*
X130254076Y-63931009D01*
X130254076Y-63931009D02*
X130158838Y-63978628D01*
X130158838Y-63978628D02*
X129777886Y-63978628D01*
X131301695Y-64454819D02*
X130730267Y-64454819D01*
X131015981Y-64454819D02*
X131015981Y-63454819D01*
X131015981Y-63454819D02*
X130920743Y-63597676D01*
X130920743Y-63597676D02*
X130825505Y-63692914D01*
X130825505Y-63692914D02*
X130730267Y-63740533D01*
X131635029Y-63454819D02*
X132254076Y-63454819D01*
X132254076Y-63454819D02*
X131920743Y-63835771D01*
X131920743Y-63835771D02*
X132063600Y-63835771D01*
X132063600Y-63835771D02*
X132158838Y-63883390D01*
X132158838Y-63883390D02*
X132206457Y-63931009D01*
X132206457Y-63931009D02*
X132254076Y-64026247D01*
X132254076Y-64026247D02*
X132254076Y-64264342D01*
X132254076Y-64264342D02*
X132206457Y-64359580D01*
X132206457Y-64359580D02*
X132158838Y-64407200D01*
X132158838Y-64407200D02*
X132063600Y-64454819D01*
X132063600Y-64454819D02*
X131777886Y-64454819D01*
X131777886Y-64454819D02*
X131682648Y-64407200D01*
X131682648Y-64407200D02*
X131635029Y-64359580D01*
X99833333Y-123454819D02*
X99500000Y-122978628D01*
X99261905Y-123454819D02*
X99261905Y-122454819D01*
X99261905Y-122454819D02*
X99642857Y-122454819D01*
X99642857Y-122454819D02*
X99738095Y-122502438D01*
X99738095Y-122502438D02*
X99785714Y-122550057D01*
X99785714Y-122550057D02*
X99833333Y-122645295D01*
X99833333Y-122645295D02*
X99833333Y-122788152D01*
X99833333Y-122788152D02*
X99785714Y-122883390D01*
X99785714Y-122883390D02*
X99738095Y-122931009D01*
X99738095Y-122931009D02*
X99642857Y-122978628D01*
X99642857Y-122978628D02*
X99261905Y-122978628D01*
X100214286Y-122550057D02*
X100261905Y-122502438D01*
X100261905Y-122502438D02*
X100357143Y-122454819D01*
X100357143Y-122454819D02*
X100595238Y-122454819D01*
X100595238Y-122454819D02*
X100690476Y-122502438D01*
X100690476Y-122502438D02*
X100738095Y-122550057D01*
X100738095Y-122550057D02*
X100785714Y-122645295D01*
X100785714Y-122645295D02*
X100785714Y-122740533D01*
X100785714Y-122740533D02*
X100738095Y-122883390D01*
X100738095Y-122883390D02*
X100166667Y-123454819D01*
X100166667Y-123454819D02*
X100785714Y-123454819D01*
X143857142Y-90359580D02*
X143809523Y-90407200D01*
X143809523Y-90407200D02*
X143666666Y-90454819D01*
X143666666Y-90454819D02*
X143571428Y-90454819D01*
X143571428Y-90454819D02*
X143428571Y-90407200D01*
X143428571Y-90407200D02*
X143333333Y-90311961D01*
X143333333Y-90311961D02*
X143285714Y-90216723D01*
X143285714Y-90216723D02*
X143238095Y-90026247D01*
X143238095Y-90026247D02*
X143238095Y-89883390D01*
X143238095Y-89883390D02*
X143285714Y-89692914D01*
X143285714Y-89692914D02*
X143333333Y-89597676D01*
X143333333Y-89597676D02*
X143428571Y-89502438D01*
X143428571Y-89502438D02*
X143571428Y-89454819D01*
X143571428Y-89454819D02*
X143666666Y-89454819D01*
X143666666Y-89454819D02*
X143809523Y-89502438D01*
X143809523Y-89502438D02*
X143857142Y-89550057D01*
X144809523Y-90454819D02*
X144238095Y-90454819D01*
X144523809Y-90454819D02*
X144523809Y-89454819D01*
X144523809Y-89454819D02*
X144428571Y-89597676D01*
X144428571Y-89597676D02*
X144333333Y-89692914D01*
X144333333Y-89692914D02*
X144238095Y-89740533D01*
X145666666Y-89788152D02*
X145666666Y-90454819D01*
X145428571Y-89407200D02*
X145190476Y-90121485D01*
X145190476Y-90121485D02*
X145809523Y-90121485D01*
X123357142Y-82859580D02*
X123309523Y-82907200D01*
X123309523Y-82907200D02*
X123166666Y-82954819D01*
X123166666Y-82954819D02*
X123071428Y-82954819D01*
X123071428Y-82954819D02*
X122928571Y-82907200D01*
X122928571Y-82907200D02*
X122833333Y-82811961D01*
X122833333Y-82811961D02*
X122785714Y-82716723D01*
X122785714Y-82716723D02*
X122738095Y-82526247D01*
X122738095Y-82526247D02*
X122738095Y-82383390D01*
X122738095Y-82383390D02*
X122785714Y-82192914D01*
X122785714Y-82192914D02*
X122833333Y-82097676D01*
X122833333Y-82097676D02*
X122928571Y-82002438D01*
X122928571Y-82002438D02*
X123071428Y-81954819D01*
X123071428Y-81954819D02*
X123166666Y-81954819D01*
X123166666Y-81954819D02*
X123309523Y-82002438D01*
X123309523Y-82002438D02*
X123357142Y-82050057D01*
X124309523Y-82954819D02*
X123738095Y-82954819D01*
X124023809Y-82954819D02*
X124023809Y-81954819D01*
X124023809Y-81954819D02*
X123928571Y-82097676D01*
X123928571Y-82097676D02*
X123833333Y-82192914D01*
X123833333Y-82192914D02*
X123738095Y-82240533D01*
X125166666Y-81954819D02*
X124976190Y-81954819D01*
X124976190Y-81954819D02*
X124880952Y-82002438D01*
X124880952Y-82002438D02*
X124833333Y-82050057D01*
X124833333Y-82050057D02*
X124738095Y-82192914D01*
X124738095Y-82192914D02*
X124690476Y-82383390D01*
X124690476Y-82383390D02*
X124690476Y-82764342D01*
X124690476Y-82764342D02*
X124738095Y-82859580D01*
X124738095Y-82859580D02*
X124785714Y-82907200D01*
X124785714Y-82907200D02*
X124880952Y-82954819D01*
X124880952Y-82954819D02*
X125071428Y-82954819D01*
X125071428Y-82954819D02*
X125166666Y-82907200D01*
X125166666Y-82907200D02*
X125214285Y-82859580D01*
X125214285Y-82859580D02*
X125261904Y-82764342D01*
X125261904Y-82764342D02*
X125261904Y-82526247D01*
X125261904Y-82526247D02*
X125214285Y-82431009D01*
X125214285Y-82431009D02*
X125166666Y-82383390D01*
X125166666Y-82383390D02*
X125071428Y-82335771D01*
X125071428Y-82335771D02*
X124880952Y-82335771D01*
X124880952Y-82335771D02*
X124785714Y-82383390D01*
X124785714Y-82383390D02*
X124738095Y-82431009D01*
X124738095Y-82431009D02*
X124690476Y-82526247D01*
X172071428Y-82004819D02*
X172642856Y-82004819D01*
X172357142Y-83004819D02*
X172357142Y-82004819D01*
X172976190Y-83004819D02*
X172976190Y-82004819D01*
X172976190Y-82004819D02*
X173357142Y-82004819D01*
X173357142Y-82004819D02*
X173452380Y-82052438D01*
X173452380Y-82052438D02*
X173499999Y-82100057D01*
X173499999Y-82100057D02*
X173547618Y-82195295D01*
X173547618Y-82195295D02*
X173547618Y-82338152D01*
X173547618Y-82338152D02*
X173499999Y-82433390D01*
X173499999Y-82433390D02*
X173452380Y-82481009D01*
X173452380Y-82481009D02*
X173357142Y-82528628D01*
X173357142Y-82528628D02*
X172976190Y-82528628D01*
X173738095Y-83100057D02*
X174499999Y-83100057D01*
X174642857Y-82004819D02*
X175261904Y-82004819D01*
X175261904Y-82004819D02*
X174928571Y-82385771D01*
X174928571Y-82385771D02*
X175071428Y-82385771D01*
X175071428Y-82385771D02*
X175166666Y-82433390D01*
X175166666Y-82433390D02*
X175214285Y-82481009D01*
X175214285Y-82481009D02*
X175261904Y-82576247D01*
X175261904Y-82576247D02*
X175261904Y-82814342D01*
X175261904Y-82814342D02*
X175214285Y-82909580D01*
X175214285Y-82909580D02*
X175166666Y-82957200D01*
X175166666Y-82957200D02*
X175071428Y-83004819D01*
X175071428Y-83004819D02*
X174785714Y-83004819D01*
X174785714Y-83004819D02*
X174690476Y-82957200D01*
X174690476Y-82957200D02*
X174642857Y-82909580D01*
X175452381Y-83100057D02*
X176214285Y-83100057D01*
X176357143Y-82004819D02*
X176976190Y-82004819D01*
X176976190Y-82004819D02*
X176642857Y-82385771D01*
X176642857Y-82385771D02*
X176785714Y-82385771D01*
X176785714Y-82385771D02*
X176880952Y-82433390D01*
X176880952Y-82433390D02*
X176928571Y-82481009D01*
X176928571Y-82481009D02*
X176976190Y-82576247D01*
X176976190Y-82576247D02*
X176976190Y-82814342D01*
X176976190Y-82814342D02*
X176928571Y-82909580D01*
X176928571Y-82909580D02*
X176880952Y-82957200D01*
X176880952Y-82957200D02*
X176785714Y-83004819D01*
X176785714Y-83004819D02*
X176500000Y-83004819D01*
X176500000Y-83004819D02*
X176404762Y-82957200D01*
X176404762Y-82957200D02*
X176357143Y-82909580D01*
X177261905Y-82004819D02*
X177595238Y-83004819D01*
X177595238Y-83004819D02*
X177928571Y-82004819D01*
X172500000Y-108004819D02*
X173071428Y-108004819D01*
X172785714Y-109004819D02*
X172785714Y-108004819D01*
X173404762Y-109004819D02*
X173404762Y-108004819D01*
X173404762Y-108004819D02*
X173785714Y-108004819D01*
X173785714Y-108004819D02*
X173880952Y-108052438D01*
X173880952Y-108052438D02*
X173928571Y-108100057D01*
X173928571Y-108100057D02*
X173976190Y-108195295D01*
X173976190Y-108195295D02*
X173976190Y-108338152D01*
X173976190Y-108338152D02*
X173928571Y-108433390D01*
X173928571Y-108433390D02*
X173880952Y-108481009D01*
X173880952Y-108481009D02*
X173785714Y-108528628D01*
X173785714Y-108528628D02*
X173404762Y-108528628D01*
X174166667Y-109100057D02*
X174928571Y-109100057D01*
X175166667Y-109004819D02*
X175166667Y-108004819D01*
X175166667Y-108004819D02*
X175404762Y-108004819D01*
X175404762Y-108004819D02*
X175547619Y-108052438D01*
X175547619Y-108052438D02*
X175642857Y-108147676D01*
X175642857Y-108147676D02*
X175690476Y-108242914D01*
X175690476Y-108242914D02*
X175738095Y-108433390D01*
X175738095Y-108433390D02*
X175738095Y-108576247D01*
X175738095Y-108576247D02*
X175690476Y-108766723D01*
X175690476Y-108766723D02*
X175642857Y-108861961D01*
X175642857Y-108861961D02*
X175547619Y-108957200D01*
X175547619Y-108957200D02*
X175404762Y-109004819D01*
X175404762Y-109004819D02*
X175166667Y-109004819D01*
X176166667Y-108481009D02*
X176500000Y-108481009D01*
X176642857Y-109004819D02*
X176166667Y-109004819D01*
X176166667Y-109004819D02*
X176166667Y-108004819D01*
X176166667Y-108004819D02*
X176642857Y-108004819D01*
X176833334Y-109100057D02*
X177595238Y-109100057D01*
X178166667Y-108481009D02*
X178309524Y-108528628D01*
X178309524Y-108528628D02*
X178357143Y-108576247D01*
X178357143Y-108576247D02*
X178404762Y-108671485D01*
X178404762Y-108671485D02*
X178404762Y-108814342D01*
X178404762Y-108814342D02*
X178357143Y-108909580D01*
X178357143Y-108909580D02*
X178309524Y-108957200D01*
X178309524Y-108957200D02*
X178214286Y-109004819D01*
X178214286Y-109004819D02*
X177833334Y-109004819D01*
X177833334Y-109004819D02*
X177833334Y-108004819D01*
X177833334Y-108004819D02*
X178166667Y-108004819D01*
X178166667Y-108004819D02*
X178261905Y-108052438D01*
X178261905Y-108052438D02*
X178309524Y-108100057D01*
X178309524Y-108100057D02*
X178357143Y-108195295D01*
X178357143Y-108195295D02*
X178357143Y-108290533D01*
X178357143Y-108290533D02*
X178309524Y-108385771D01*
X178309524Y-108385771D02*
X178261905Y-108433390D01*
X178261905Y-108433390D02*
X178166667Y-108481009D01*
X178166667Y-108481009D02*
X177833334Y-108481009D01*
X146857142Y-79859580D02*
X146809523Y-79907200D01*
X146809523Y-79907200D02*
X146666666Y-79954819D01*
X146666666Y-79954819D02*
X146571428Y-79954819D01*
X146571428Y-79954819D02*
X146428571Y-79907200D01*
X146428571Y-79907200D02*
X146333333Y-79811961D01*
X146333333Y-79811961D02*
X146285714Y-79716723D01*
X146285714Y-79716723D02*
X146238095Y-79526247D01*
X146238095Y-79526247D02*
X146238095Y-79383390D01*
X146238095Y-79383390D02*
X146285714Y-79192914D01*
X146285714Y-79192914D02*
X146333333Y-79097676D01*
X146333333Y-79097676D02*
X146428571Y-79002438D01*
X146428571Y-79002438D02*
X146571428Y-78954819D01*
X146571428Y-78954819D02*
X146666666Y-78954819D01*
X146666666Y-78954819D02*
X146809523Y-79002438D01*
X146809523Y-79002438D02*
X146857142Y-79050057D01*
X147809523Y-79954819D02*
X147238095Y-79954819D01*
X147523809Y-79954819D02*
X147523809Y-78954819D01*
X147523809Y-78954819D02*
X147428571Y-79097676D01*
X147428571Y-79097676D02*
X147333333Y-79192914D01*
X147333333Y-79192914D02*
X147238095Y-79240533D01*
X148285714Y-79954819D02*
X148476190Y-79954819D01*
X148476190Y-79954819D02*
X148571428Y-79907200D01*
X148571428Y-79907200D02*
X148619047Y-79859580D01*
X148619047Y-79859580D02*
X148714285Y-79716723D01*
X148714285Y-79716723D02*
X148761904Y-79526247D01*
X148761904Y-79526247D02*
X148761904Y-79145295D01*
X148761904Y-79145295D02*
X148714285Y-79050057D01*
X148714285Y-79050057D02*
X148666666Y-79002438D01*
X148666666Y-79002438D02*
X148571428Y-78954819D01*
X148571428Y-78954819D02*
X148380952Y-78954819D01*
X148380952Y-78954819D02*
X148285714Y-79002438D01*
X148285714Y-79002438D02*
X148238095Y-79050057D01*
X148238095Y-79050057D02*
X148190476Y-79145295D01*
X148190476Y-79145295D02*
X148190476Y-79383390D01*
X148190476Y-79383390D02*
X148238095Y-79478628D01*
X148238095Y-79478628D02*
X148285714Y-79526247D01*
X148285714Y-79526247D02*
X148380952Y-79573866D01*
X148380952Y-79573866D02*
X148571428Y-79573866D01*
X148571428Y-79573866D02*
X148666666Y-79526247D01*
X148666666Y-79526247D02*
X148714285Y-79478628D01*
X148714285Y-79478628D02*
X148761904Y-79383390D01*
X171952381Y-89504819D02*
X172523809Y-89504819D01*
X172238095Y-90504819D02*
X172238095Y-89504819D01*
X172857143Y-90504819D02*
X172857143Y-89504819D01*
X172857143Y-89504819D02*
X173238095Y-89504819D01*
X173238095Y-89504819D02*
X173333333Y-89552438D01*
X173333333Y-89552438D02*
X173380952Y-89600057D01*
X173380952Y-89600057D02*
X173428571Y-89695295D01*
X173428571Y-89695295D02*
X173428571Y-89838152D01*
X173428571Y-89838152D02*
X173380952Y-89933390D01*
X173380952Y-89933390D02*
X173333333Y-89981009D01*
X173333333Y-89981009D02*
X173238095Y-90028628D01*
X173238095Y-90028628D02*
X172857143Y-90028628D01*
X173619048Y-90600057D02*
X174380952Y-90600057D01*
X175142857Y-89552438D02*
X175047619Y-89504819D01*
X175047619Y-89504819D02*
X174904762Y-89504819D01*
X174904762Y-89504819D02*
X174761905Y-89552438D01*
X174761905Y-89552438D02*
X174666667Y-89647676D01*
X174666667Y-89647676D02*
X174619048Y-89742914D01*
X174619048Y-89742914D02*
X174571429Y-89933390D01*
X174571429Y-89933390D02*
X174571429Y-90076247D01*
X174571429Y-90076247D02*
X174619048Y-90266723D01*
X174619048Y-90266723D02*
X174666667Y-90361961D01*
X174666667Y-90361961D02*
X174761905Y-90457200D01*
X174761905Y-90457200D02*
X174904762Y-90504819D01*
X174904762Y-90504819D02*
X175000000Y-90504819D01*
X175000000Y-90504819D02*
X175142857Y-90457200D01*
X175142857Y-90457200D02*
X175190476Y-90409580D01*
X175190476Y-90409580D02*
X175190476Y-90076247D01*
X175190476Y-90076247D02*
X175000000Y-90076247D01*
X175619048Y-90504819D02*
X175619048Y-89504819D01*
X175619048Y-89504819D02*
X176190476Y-90504819D01*
X176190476Y-90504819D02*
X176190476Y-89504819D01*
X176666667Y-90504819D02*
X176666667Y-89504819D01*
X176666667Y-89504819D02*
X176904762Y-89504819D01*
X176904762Y-89504819D02*
X177047619Y-89552438D01*
X177047619Y-89552438D02*
X177142857Y-89647676D01*
X177142857Y-89647676D02*
X177190476Y-89742914D01*
X177190476Y-89742914D02*
X177238095Y-89933390D01*
X177238095Y-89933390D02*
X177238095Y-90076247D01*
X177238095Y-90076247D02*
X177190476Y-90266723D01*
X177190476Y-90266723D02*
X177142857Y-90361961D01*
X177142857Y-90361961D02*
X177047619Y-90457200D01*
X177047619Y-90457200D02*
X176904762Y-90504819D01*
X176904762Y-90504819D02*
X176666667Y-90504819D01*
X177428572Y-90600057D02*
X178190476Y-90600057D01*
X178380953Y-89600057D02*
X178428572Y-89552438D01*
X178428572Y-89552438D02*
X178523810Y-89504819D01*
X178523810Y-89504819D02*
X178761905Y-89504819D01*
X178761905Y-89504819D02*
X178857143Y-89552438D01*
X178857143Y-89552438D02*
X178904762Y-89600057D01*
X178904762Y-89600057D02*
X178952381Y-89695295D01*
X178952381Y-89695295D02*
X178952381Y-89790533D01*
X178952381Y-89790533D02*
X178904762Y-89933390D01*
X178904762Y-89933390D02*
X178333334Y-90504819D01*
X178333334Y-90504819D02*
X178952381Y-90504819D01*
X141333333Y-70859580D02*
X141285714Y-70907200D01*
X141285714Y-70907200D02*
X141142857Y-70954819D01*
X141142857Y-70954819D02*
X141047619Y-70954819D01*
X141047619Y-70954819D02*
X140904762Y-70907200D01*
X140904762Y-70907200D02*
X140809524Y-70811961D01*
X140809524Y-70811961D02*
X140761905Y-70716723D01*
X140761905Y-70716723D02*
X140714286Y-70526247D01*
X140714286Y-70526247D02*
X140714286Y-70383390D01*
X140714286Y-70383390D02*
X140761905Y-70192914D01*
X140761905Y-70192914D02*
X140809524Y-70097676D01*
X140809524Y-70097676D02*
X140904762Y-70002438D01*
X140904762Y-70002438D02*
X141047619Y-69954819D01*
X141047619Y-69954819D02*
X141142857Y-69954819D01*
X141142857Y-69954819D02*
X141285714Y-70002438D01*
X141285714Y-70002438D02*
X141333333Y-70050057D01*
X141809524Y-70954819D02*
X142000000Y-70954819D01*
X142000000Y-70954819D02*
X142095238Y-70907200D01*
X142095238Y-70907200D02*
X142142857Y-70859580D01*
X142142857Y-70859580D02*
X142238095Y-70716723D01*
X142238095Y-70716723D02*
X142285714Y-70526247D01*
X142285714Y-70526247D02*
X142285714Y-70145295D01*
X142285714Y-70145295D02*
X142238095Y-70050057D01*
X142238095Y-70050057D02*
X142190476Y-70002438D01*
X142190476Y-70002438D02*
X142095238Y-69954819D01*
X142095238Y-69954819D02*
X141904762Y-69954819D01*
X141904762Y-69954819D02*
X141809524Y-70002438D01*
X141809524Y-70002438D02*
X141761905Y-70050057D01*
X141761905Y-70050057D02*
X141714286Y-70145295D01*
X141714286Y-70145295D02*
X141714286Y-70383390D01*
X141714286Y-70383390D02*
X141761905Y-70478628D01*
X141761905Y-70478628D02*
X141809524Y-70526247D01*
X141809524Y-70526247D02*
X141904762Y-70573866D01*
X141904762Y-70573866D02*
X142095238Y-70573866D01*
X142095238Y-70573866D02*
X142190476Y-70526247D01*
X142190476Y-70526247D02*
X142238095Y-70478628D01*
X142238095Y-70478628D02*
X142285714Y-70383390D01*
X92738095Y-83954819D02*
X92738095Y-82954819D01*
X92738095Y-83431009D02*
X93309523Y-83431009D01*
X93309523Y-83954819D02*
X93309523Y-82954819D01*
X93690476Y-82954819D02*
X94309523Y-82954819D01*
X94309523Y-82954819D02*
X93976190Y-83335771D01*
X93976190Y-83335771D02*
X94119047Y-83335771D01*
X94119047Y-83335771D02*
X94214285Y-83383390D01*
X94214285Y-83383390D02*
X94261904Y-83431009D01*
X94261904Y-83431009D02*
X94309523Y-83526247D01*
X94309523Y-83526247D02*
X94309523Y-83764342D01*
X94309523Y-83764342D02*
X94261904Y-83859580D01*
X94261904Y-83859580D02*
X94214285Y-83907200D01*
X94214285Y-83907200D02*
X94119047Y-83954819D01*
X94119047Y-83954819D02*
X93833333Y-83954819D01*
X93833333Y-83954819D02*
X93738095Y-83907200D01*
X93738095Y-83907200D02*
X93690476Y-83859580D01*
X81071428Y-106954819D02*
X81642856Y-106954819D01*
X81357142Y-107954819D02*
X81357142Y-106954819D01*
X81976190Y-107954819D02*
X81976190Y-106954819D01*
X81976190Y-106954819D02*
X82357142Y-106954819D01*
X82357142Y-106954819D02*
X82452380Y-107002438D01*
X82452380Y-107002438D02*
X82499999Y-107050057D01*
X82499999Y-107050057D02*
X82547618Y-107145295D01*
X82547618Y-107145295D02*
X82547618Y-107288152D01*
X82547618Y-107288152D02*
X82499999Y-107383390D01*
X82499999Y-107383390D02*
X82452380Y-107431009D01*
X82452380Y-107431009D02*
X82357142Y-107478628D01*
X82357142Y-107478628D02*
X81976190Y-107478628D01*
X82738095Y-108050057D02*
X83499999Y-108050057D01*
X83738095Y-107954819D02*
X83738095Y-106954819D01*
X83738095Y-106954819D02*
X83976190Y-106954819D01*
X83976190Y-106954819D02*
X84119047Y-107002438D01*
X84119047Y-107002438D02*
X84214285Y-107097676D01*
X84214285Y-107097676D02*
X84261904Y-107192914D01*
X84261904Y-107192914D02*
X84309523Y-107383390D01*
X84309523Y-107383390D02*
X84309523Y-107526247D01*
X84309523Y-107526247D02*
X84261904Y-107716723D01*
X84261904Y-107716723D02*
X84214285Y-107811961D01*
X84214285Y-107811961D02*
X84119047Y-107907200D01*
X84119047Y-107907200D02*
X83976190Y-107954819D01*
X83976190Y-107954819D02*
X83738095Y-107954819D01*
X84738095Y-107431009D02*
X85071428Y-107431009D01*
X85214285Y-107954819D02*
X84738095Y-107954819D01*
X84738095Y-107954819D02*
X84738095Y-106954819D01*
X84738095Y-106954819D02*
X85214285Y-106954819D01*
X85404762Y-108050057D02*
X86166666Y-108050057D01*
X86357143Y-107669104D02*
X86833333Y-107669104D01*
X86261905Y-107954819D02*
X86595238Y-106954819D01*
X86595238Y-106954819D02*
X86928571Y-107954819D01*
X157166666Y-36954819D02*
X157166666Y-37669104D01*
X157166666Y-37669104D02*
X157119047Y-37811961D01*
X157119047Y-37811961D02*
X157023809Y-37907200D01*
X157023809Y-37907200D02*
X156880952Y-37954819D01*
X156880952Y-37954819D02*
X156785714Y-37954819D01*
X158166666Y-37954819D02*
X157595238Y-37954819D01*
X157880952Y-37954819D02*
X157880952Y-36954819D01*
X157880952Y-36954819D02*
X157785714Y-37097676D01*
X157785714Y-37097676D02*
X157690476Y-37192914D01*
X157690476Y-37192914D02*
X157595238Y-37240533D01*
X102357142Y-87359580D02*
X102309523Y-87407200D01*
X102309523Y-87407200D02*
X102166666Y-87454819D01*
X102166666Y-87454819D02*
X102071428Y-87454819D01*
X102071428Y-87454819D02*
X101928571Y-87407200D01*
X101928571Y-87407200D02*
X101833333Y-87311961D01*
X101833333Y-87311961D02*
X101785714Y-87216723D01*
X101785714Y-87216723D02*
X101738095Y-87026247D01*
X101738095Y-87026247D02*
X101738095Y-86883390D01*
X101738095Y-86883390D02*
X101785714Y-86692914D01*
X101785714Y-86692914D02*
X101833333Y-86597676D01*
X101833333Y-86597676D02*
X101928571Y-86502438D01*
X101928571Y-86502438D02*
X102071428Y-86454819D01*
X102071428Y-86454819D02*
X102166666Y-86454819D01*
X102166666Y-86454819D02*
X102309523Y-86502438D01*
X102309523Y-86502438D02*
X102357142Y-86550057D01*
X103309523Y-87454819D02*
X102738095Y-87454819D01*
X103023809Y-87454819D02*
X103023809Y-86454819D01*
X103023809Y-86454819D02*
X102928571Y-86597676D01*
X102928571Y-86597676D02*
X102833333Y-86692914D01*
X102833333Y-86692914D02*
X102738095Y-86740533D01*
X103690476Y-86550057D02*
X103738095Y-86502438D01*
X103738095Y-86502438D02*
X103833333Y-86454819D01*
X103833333Y-86454819D02*
X104071428Y-86454819D01*
X104071428Y-86454819D02*
X104166666Y-86502438D01*
X104166666Y-86502438D02*
X104214285Y-86550057D01*
X104214285Y-86550057D02*
X104261904Y-86645295D01*
X104261904Y-86645295D02*
X104261904Y-86740533D01*
X104261904Y-86740533D02*
X104214285Y-86883390D01*
X104214285Y-86883390D02*
X103642857Y-87454819D01*
X103642857Y-87454819D02*
X104261904Y-87454819D01*
X81166666Y-100954819D02*
X81738094Y-100954819D01*
X81452380Y-101954819D02*
X81452380Y-100954819D01*
X82071428Y-101954819D02*
X82071428Y-100954819D01*
X82071428Y-100954819D02*
X82452380Y-100954819D01*
X82452380Y-100954819D02*
X82547618Y-101002438D01*
X82547618Y-101002438D02*
X82595237Y-101050057D01*
X82595237Y-101050057D02*
X82642856Y-101145295D01*
X82642856Y-101145295D02*
X82642856Y-101288152D01*
X82642856Y-101288152D02*
X82595237Y-101383390D01*
X82595237Y-101383390D02*
X82547618Y-101431009D01*
X82547618Y-101431009D02*
X82452380Y-101478628D01*
X82452380Y-101478628D02*
X82071428Y-101478628D01*
X82833333Y-102050057D02*
X83595237Y-102050057D01*
X83690476Y-100954819D02*
X84261904Y-100954819D01*
X83976190Y-101954819D02*
X83976190Y-100954819D01*
X84500000Y-100954819D02*
X85166666Y-101954819D01*
X85166666Y-100954819D02*
X84500000Y-101954819D01*
X85309524Y-102050057D02*
X86071428Y-102050057D01*
X86261905Y-101669104D02*
X86738095Y-101669104D01*
X86166667Y-101954819D02*
X86500000Y-100954819D01*
X86500000Y-100954819D02*
X86833333Y-101954819D01*
X119357142Y-58954819D02*
X119023809Y-58478628D01*
X118785714Y-58954819D02*
X118785714Y-57954819D01*
X118785714Y-57954819D02*
X119166666Y-57954819D01*
X119166666Y-57954819D02*
X119261904Y-58002438D01*
X119261904Y-58002438D02*
X119309523Y-58050057D01*
X119309523Y-58050057D02*
X119357142Y-58145295D01*
X119357142Y-58145295D02*
X119357142Y-58288152D01*
X119357142Y-58288152D02*
X119309523Y-58383390D01*
X119309523Y-58383390D02*
X119261904Y-58431009D01*
X119261904Y-58431009D02*
X119166666Y-58478628D01*
X119166666Y-58478628D02*
X118785714Y-58478628D01*
X120309523Y-58954819D02*
X119738095Y-58954819D01*
X120023809Y-58954819D02*
X120023809Y-57954819D01*
X120023809Y-57954819D02*
X119928571Y-58097676D01*
X119928571Y-58097676D02*
X119833333Y-58192914D01*
X119833333Y-58192914D02*
X119738095Y-58240533D01*
X120690476Y-58050057D02*
X120738095Y-58002438D01*
X120738095Y-58002438D02*
X120833333Y-57954819D01*
X120833333Y-57954819D02*
X121071428Y-57954819D01*
X121071428Y-57954819D02*
X121166666Y-58002438D01*
X121166666Y-58002438D02*
X121214285Y-58050057D01*
X121214285Y-58050057D02*
X121261904Y-58145295D01*
X121261904Y-58145295D02*
X121261904Y-58240533D01*
X121261904Y-58240533D02*
X121214285Y-58383390D01*
X121214285Y-58383390D02*
X120642857Y-58954819D01*
X120642857Y-58954819D02*
X121261904Y-58954819D01*
X172476190Y-97004819D02*
X173047618Y-97004819D01*
X172761904Y-98004819D02*
X172761904Y-97004819D01*
X173380952Y-98004819D02*
X173380952Y-97004819D01*
X173380952Y-97004819D02*
X173761904Y-97004819D01*
X173761904Y-97004819D02*
X173857142Y-97052438D01*
X173857142Y-97052438D02*
X173904761Y-97100057D01*
X173904761Y-97100057D02*
X173952380Y-97195295D01*
X173952380Y-97195295D02*
X173952380Y-97338152D01*
X173952380Y-97338152D02*
X173904761Y-97433390D01*
X173904761Y-97433390D02*
X173857142Y-97481009D01*
X173857142Y-97481009D02*
X173761904Y-97528628D01*
X173761904Y-97528628D02*
X173380952Y-97528628D01*
X174142857Y-98100057D02*
X174904761Y-98100057D01*
X175714285Y-98004819D02*
X175380952Y-97528628D01*
X175142857Y-98004819D02*
X175142857Y-97004819D01*
X175142857Y-97004819D02*
X175523809Y-97004819D01*
X175523809Y-97004819D02*
X175619047Y-97052438D01*
X175619047Y-97052438D02*
X175666666Y-97100057D01*
X175666666Y-97100057D02*
X175714285Y-97195295D01*
X175714285Y-97195295D02*
X175714285Y-97338152D01*
X175714285Y-97338152D02*
X175666666Y-97433390D01*
X175666666Y-97433390D02*
X175619047Y-97481009D01*
X175619047Y-97481009D02*
X175523809Y-97528628D01*
X175523809Y-97528628D02*
X175142857Y-97528628D01*
X176047619Y-97004819D02*
X176714285Y-98004819D01*
X176714285Y-97004819D02*
X176047619Y-98004819D01*
X176857143Y-98100057D02*
X177619047Y-98100057D01*
X178190476Y-97481009D02*
X178333333Y-97528628D01*
X178333333Y-97528628D02*
X178380952Y-97576247D01*
X178380952Y-97576247D02*
X178428571Y-97671485D01*
X178428571Y-97671485D02*
X178428571Y-97814342D01*
X178428571Y-97814342D02*
X178380952Y-97909580D01*
X178380952Y-97909580D02*
X178333333Y-97957200D01*
X178333333Y-97957200D02*
X178238095Y-98004819D01*
X178238095Y-98004819D02*
X177857143Y-98004819D01*
X177857143Y-98004819D02*
X177857143Y-97004819D01*
X177857143Y-97004819D02*
X178190476Y-97004819D01*
X178190476Y-97004819D02*
X178285714Y-97052438D01*
X178285714Y-97052438D02*
X178333333Y-97100057D01*
X178333333Y-97100057D02*
X178380952Y-97195295D01*
X178380952Y-97195295D02*
X178380952Y-97290533D01*
X178380952Y-97290533D02*
X178333333Y-97385771D01*
X178333333Y-97385771D02*
X178285714Y-97433390D01*
X178285714Y-97433390D02*
X178190476Y-97481009D01*
X178190476Y-97481009D02*
X177857143Y-97481009D01*
X81047619Y-112454819D02*
X81619047Y-112454819D01*
X81333333Y-113454819D02*
X81333333Y-112454819D01*
X81952381Y-113454819D02*
X81952381Y-112454819D01*
X81952381Y-112454819D02*
X82333333Y-112454819D01*
X82333333Y-112454819D02*
X82428571Y-112502438D01*
X82428571Y-112502438D02*
X82476190Y-112550057D01*
X82476190Y-112550057D02*
X82523809Y-112645295D01*
X82523809Y-112645295D02*
X82523809Y-112788152D01*
X82523809Y-112788152D02*
X82476190Y-112883390D01*
X82476190Y-112883390D02*
X82428571Y-112931009D01*
X82428571Y-112931009D02*
X82333333Y-112978628D01*
X82333333Y-112978628D02*
X81952381Y-112978628D01*
X82714286Y-113550057D02*
X83476190Y-113550057D01*
X83714286Y-113454819D02*
X83714286Y-112454819D01*
X83714286Y-112454819D02*
X84285714Y-113454819D01*
X84285714Y-113454819D02*
X84285714Y-112454819D01*
X85333333Y-113454819D02*
X85000000Y-112978628D01*
X84761905Y-113454819D02*
X84761905Y-112454819D01*
X84761905Y-112454819D02*
X85142857Y-112454819D01*
X85142857Y-112454819D02*
X85238095Y-112502438D01*
X85238095Y-112502438D02*
X85285714Y-112550057D01*
X85285714Y-112550057D02*
X85333333Y-112645295D01*
X85333333Y-112645295D02*
X85333333Y-112788152D01*
X85333333Y-112788152D02*
X85285714Y-112883390D01*
X85285714Y-112883390D02*
X85238095Y-112931009D01*
X85238095Y-112931009D02*
X85142857Y-112978628D01*
X85142857Y-112978628D02*
X84761905Y-112978628D01*
X85761905Y-112931009D02*
X86095238Y-112931009D01*
X86238095Y-113454819D02*
X85761905Y-113454819D01*
X85761905Y-113454819D02*
X85761905Y-112454819D01*
X85761905Y-112454819D02*
X86238095Y-112454819D01*
X86428572Y-113550057D02*
X87190476Y-113550057D01*
X87380953Y-113169104D02*
X87857143Y-113169104D01*
X87285715Y-113454819D02*
X87619048Y-112454819D01*
X87619048Y-112454819D02*
X87952381Y-113454819D01*
X156333333Y-120454819D02*
X156000000Y-119978628D01*
X155761905Y-120454819D02*
X155761905Y-119454819D01*
X155761905Y-119454819D02*
X156142857Y-119454819D01*
X156142857Y-119454819D02*
X156238095Y-119502438D01*
X156238095Y-119502438D02*
X156285714Y-119550057D01*
X156285714Y-119550057D02*
X156333333Y-119645295D01*
X156333333Y-119645295D02*
X156333333Y-119788152D01*
X156333333Y-119788152D02*
X156285714Y-119883390D01*
X156285714Y-119883390D02*
X156238095Y-119931009D01*
X156238095Y-119931009D02*
X156142857Y-119978628D01*
X156142857Y-119978628D02*
X155761905Y-119978628D01*
X157238095Y-119454819D02*
X156761905Y-119454819D01*
X156761905Y-119454819D02*
X156714286Y-119931009D01*
X156714286Y-119931009D02*
X156761905Y-119883390D01*
X156761905Y-119883390D02*
X156857143Y-119835771D01*
X156857143Y-119835771D02*
X157095238Y-119835771D01*
X157095238Y-119835771D02*
X157190476Y-119883390D01*
X157190476Y-119883390D02*
X157238095Y-119931009D01*
X157238095Y-119931009D02*
X157285714Y-120026247D01*
X157285714Y-120026247D02*
X157285714Y-120264342D01*
X157285714Y-120264342D02*
X157238095Y-120359580D01*
X157238095Y-120359580D02*
X157190476Y-120407200D01*
X157190476Y-120407200D02*
X157095238Y-120454819D01*
X157095238Y-120454819D02*
X156857143Y-120454819D01*
X156857143Y-120454819D02*
X156761905Y-120407200D01*
X156761905Y-120407200D02*
X156714286Y-120359580D01*
X101783333Y-62909580D02*
X101735714Y-62957200D01*
X101735714Y-62957200D02*
X101592857Y-63004819D01*
X101592857Y-63004819D02*
X101497619Y-63004819D01*
X101497619Y-63004819D02*
X101354762Y-62957200D01*
X101354762Y-62957200D02*
X101259524Y-62861961D01*
X101259524Y-62861961D02*
X101211905Y-62766723D01*
X101211905Y-62766723D02*
X101164286Y-62576247D01*
X101164286Y-62576247D02*
X101164286Y-62433390D01*
X101164286Y-62433390D02*
X101211905Y-62242914D01*
X101211905Y-62242914D02*
X101259524Y-62147676D01*
X101259524Y-62147676D02*
X101354762Y-62052438D01*
X101354762Y-62052438D02*
X101497619Y-62004819D01*
X101497619Y-62004819D02*
X101592857Y-62004819D01*
X101592857Y-62004819D02*
X101735714Y-62052438D01*
X101735714Y-62052438D02*
X101783333Y-62100057D01*
X102164286Y-62100057D02*
X102211905Y-62052438D01*
X102211905Y-62052438D02*
X102307143Y-62004819D01*
X102307143Y-62004819D02*
X102545238Y-62004819D01*
X102545238Y-62004819D02*
X102640476Y-62052438D01*
X102640476Y-62052438D02*
X102688095Y-62100057D01*
X102688095Y-62100057D02*
X102735714Y-62195295D01*
X102735714Y-62195295D02*
X102735714Y-62290533D01*
X102735714Y-62290533D02*
X102688095Y-62433390D01*
X102688095Y-62433390D02*
X102116667Y-63004819D01*
X102116667Y-63004819D02*
X102735714Y-63004819D01*
X124357142Y-87859580D02*
X124309523Y-87907200D01*
X124309523Y-87907200D02*
X124166666Y-87954819D01*
X124166666Y-87954819D02*
X124071428Y-87954819D01*
X124071428Y-87954819D02*
X123928571Y-87907200D01*
X123928571Y-87907200D02*
X123833333Y-87811961D01*
X123833333Y-87811961D02*
X123785714Y-87716723D01*
X123785714Y-87716723D02*
X123738095Y-87526247D01*
X123738095Y-87526247D02*
X123738095Y-87383390D01*
X123738095Y-87383390D02*
X123785714Y-87192914D01*
X123785714Y-87192914D02*
X123833333Y-87097676D01*
X123833333Y-87097676D02*
X123928571Y-87002438D01*
X123928571Y-87002438D02*
X124071428Y-86954819D01*
X124071428Y-86954819D02*
X124166666Y-86954819D01*
X124166666Y-86954819D02*
X124309523Y-87002438D01*
X124309523Y-87002438D02*
X124357142Y-87050057D01*
X125309523Y-87954819D02*
X124738095Y-87954819D01*
X125023809Y-87954819D02*
X125023809Y-86954819D01*
X125023809Y-86954819D02*
X124928571Y-87097676D01*
X124928571Y-87097676D02*
X124833333Y-87192914D01*
X124833333Y-87192914D02*
X124738095Y-87240533D01*
X125642857Y-86954819D02*
X126261904Y-86954819D01*
X126261904Y-86954819D02*
X125928571Y-87335771D01*
X125928571Y-87335771D02*
X126071428Y-87335771D01*
X126071428Y-87335771D02*
X126166666Y-87383390D01*
X126166666Y-87383390D02*
X126214285Y-87431009D01*
X126214285Y-87431009D02*
X126261904Y-87526247D01*
X126261904Y-87526247D02*
X126261904Y-87764342D01*
X126261904Y-87764342D02*
X126214285Y-87859580D01*
X126214285Y-87859580D02*
X126166666Y-87907200D01*
X126166666Y-87907200D02*
X126071428Y-87954819D01*
X126071428Y-87954819D02*
X125785714Y-87954819D01*
X125785714Y-87954819D02*
X125690476Y-87907200D01*
X125690476Y-87907200D02*
X125642857Y-87859580D01*
X85333333Y-64454819D02*
X85000000Y-63978628D01*
X84761905Y-64454819D02*
X84761905Y-63454819D01*
X84761905Y-63454819D02*
X85142857Y-63454819D01*
X85142857Y-63454819D02*
X85238095Y-63502438D01*
X85238095Y-63502438D02*
X85285714Y-63550057D01*
X85285714Y-63550057D02*
X85333333Y-63645295D01*
X85333333Y-63645295D02*
X85333333Y-63788152D01*
X85333333Y-63788152D02*
X85285714Y-63883390D01*
X85285714Y-63883390D02*
X85238095Y-63931009D01*
X85238095Y-63931009D02*
X85142857Y-63978628D01*
X85142857Y-63978628D02*
X84761905Y-63978628D01*
X85666667Y-63454819D02*
X86285714Y-63454819D01*
X86285714Y-63454819D02*
X85952381Y-63835771D01*
X85952381Y-63835771D02*
X86095238Y-63835771D01*
X86095238Y-63835771D02*
X86190476Y-63883390D01*
X86190476Y-63883390D02*
X86238095Y-63931009D01*
X86238095Y-63931009D02*
X86285714Y-64026247D01*
X86285714Y-64026247D02*
X86285714Y-64264342D01*
X86285714Y-64264342D02*
X86238095Y-64359580D01*
X86238095Y-64359580D02*
X86190476Y-64407200D01*
X86190476Y-64407200D02*
X86095238Y-64454819D01*
X86095238Y-64454819D02*
X85809524Y-64454819D01*
X85809524Y-64454819D02*
X85714286Y-64407200D01*
X85714286Y-64407200D02*
X85666667Y-64359580D01*
X102833333Y-51954819D02*
X102500000Y-51478628D01*
X102261905Y-51954819D02*
X102261905Y-50954819D01*
X102261905Y-50954819D02*
X102642857Y-50954819D01*
X102642857Y-50954819D02*
X102738095Y-51002438D01*
X102738095Y-51002438D02*
X102785714Y-51050057D01*
X102785714Y-51050057D02*
X102833333Y-51145295D01*
X102833333Y-51145295D02*
X102833333Y-51288152D01*
X102833333Y-51288152D02*
X102785714Y-51383390D01*
X102785714Y-51383390D02*
X102738095Y-51431009D01*
X102738095Y-51431009D02*
X102642857Y-51478628D01*
X102642857Y-51478628D02*
X102261905Y-51478628D01*
X103690476Y-51288152D02*
X103690476Y-51954819D01*
X103452381Y-50907200D02*
X103214286Y-51621485D01*
X103214286Y-51621485D02*
X103833333Y-51621485D01*
X107333333Y-117359580D02*
X107285714Y-117407200D01*
X107285714Y-117407200D02*
X107142857Y-117454819D01*
X107142857Y-117454819D02*
X107047619Y-117454819D01*
X107047619Y-117454819D02*
X106904762Y-117407200D01*
X106904762Y-117407200D02*
X106809524Y-117311961D01*
X106809524Y-117311961D02*
X106761905Y-117216723D01*
X106761905Y-117216723D02*
X106714286Y-117026247D01*
X106714286Y-117026247D02*
X106714286Y-116883390D01*
X106714286Y-116883390D02*
X106761905Y-116692914D01*
X106761905Y-116692914D02*
X106809524Y-116597676D01*
X106809524Y-116597676D02*
X106904762Y-116502438D01*
X106904762Y-116502438D02*
X107047619Y-116454819D01*
X107047619Y-116454819D02*
X107142857Y-116454819D01*
X107142857Y-116454819D02*
X107285714Y-116502438D01*
X107285714Y-116502438D02*
X107333333Y-116550057D01*
X108190476Y-116788152D02*
X108190476Y-117454819D01*
X107952381Y-116407200D02*
X107714286Y-117121485D01*
X107714286Y-117121485D02*
X108333333Y-117121485D01*
X172666666Y-120454819D02*
X172666666Y-121169104D01*
X172666666Y-121169104D02*
X172619047Y-121311961D01*
X172619047Y-121311961D02*
X172523809Y-121407200D01*
X172523809Y-121407200D02*
X172380952Y-121454819D01*
X172380952Y-121454819D02*
X172285714Y-121454819D01*
X173571428Y-120788152D02*
X173571428Y-121454819D01*
X173333333Y-120407200D02*
X173095238Y-121121485D01*
X173095238Y-121121485D02*
X173714285Y-121121485D01*
X81047619Y-83004819D02*
X81619047Y-83004819D01*
X81333333Y-84004819D02*
X81333333Y-83004819D01*
X81952381Y-84004819D02*
X81952381Y-83004819D01*
X81952381Y-83004819D02*
X82333333Y-83004819D01*
X82333333Y-83004819D02*
X82428571Y-83052438D01*
X82428571Y-83052438D02*
X82476190Y-83100057D01*
X82476190Y-83100057D02*
X82523809Y-83195295D01*
X82523809Y-83195295D02*
X82523809Y-83338152D01*
X82523809Y-83338152D02*
X82476190Y-83433390D01*
X82476190Y-83433390D02*
X82428571Y-83481009D01*
X82428571Y-83481009D02*
X82333333Y-83528628D01*
X82333333Y-83528628D02*
X81952381Y-83528628D01*
X82714286Y-84100057D02*
X83476190Y-84100057D01*
X83904762Y-83528628D02*
X83904762Y-84004819D01*
X83571429Y-83004819D02*
X83904762Y-83528628D01*
X83904762Y-83528628D02*
X84238095Y-83004819D01*
X84333334Y-84100057D02*
X85095238Y-84100057D01*
X85285715Y-83719104D02*
X85761905Y-83719104D01*
X85190477Y-84004819D02*
X85523810Y-83004819D01*
X85523810Y-83004819D02*
X85857143Y-84004819D01*
X86095239Y-84004819D02*
X86619048Y-83338152D01*
X86095239Y-83338152D02*
X86619048Y-84004819D01*
X87000001Y-84004819D02*
X87000001Y-83338152D01*
X87000001Y-83004819D02*
X86952382Y-83052438D01*
X86952382Y-83052438D02*
X87000001Y-83100057D01*
X87000001Y-83100057D02*
X87047620Y-83052438D01*
X87047620Y-83052438D02*
X87000001Y-83004819D01*
X87000001Y-83004819D02*
X87000001Y-83100057D01*
X87428572Y-83957200D02*
X87523810Y-84004819D01*
X87523810Y-84004819D02*
X87714286Y-84004819D01*
X87714286Y-84004819D02*
X87809524Y-83957200D01*
X87809524Y-83957200D02*
X87857143Y-83861961D01*
X87857143Y-83861961D02*
X87857143Y-83814342D01*
X87857143Y-83814342D02*
X87809524Y-83719104D01*
X87809524Y-83719104D02*
X87714286Y-83671485D01*
X87714286Y-83671485D02*
X87571429Y-83671485D01*
X87571429Y-83671485D02*
X87476191Y-83623866D01*
X87476191Y-83623866D02*
X87428572Y-83528628D01*
X87428572Y-83528628D02*
X87428572Y-83481009D01*
X87428572Y-83481009D02*
X87476191Y-83385771D01*
X87476191Y-83385771D02*
X87571429Y-83338152D01*
X87571429Y-83338152D02*
X87714286Y-83338152D01*
X87714286Y-83338152D02*
X87809524Y-83385771D01*
X107761905Y-125184819D02*
X107761905Y-124184819D01*
X107761905Y-124184819D02*
X108000000Y-124184819D01*
X108000000Y-124184819D02*
X108142857Y-124232438D01*
X108142857Y-124232438D02*
X108238095Y-124327676D01*
X108238095Y-124327676D02*
X108285714Y-124422914D01*
X108285714Y-124422914D02*
X108333333Y-124613390D01*
X108333333Y-124613390D02*
X108333333Y-124756247D01*
X108333333Y-124756247D02*
X108285714Y-124946723D01*
X108285714Y-124946723D02*
X108238095Y-125041961D01*
X108238095Y-125041961D02*
X108142857Y-125137200D01*
X108142857Y-125137200D02*
X108000000Y-125184819D01*
X108000000Y-125184819D02*
X107761905Y-125184819D01*
X109238095Y-124184819D02*
X108761905Y-124184819D01*
X108761905Y-124184819D02*
X108714286Y-124661009D01*
X108714286Y-124661009D02*
X108761905Y-124613390D01*
X108761905Y-124613390D02*
X108857143Y-124565771D01*
X108857143Y-124565771D02*
X109095238Y-124565771D01*
X109095238Y-124565771D02*
X109190476Y-124613390D01*
X109190476Y-124613390D02*
X109238095Y-124661009D01*
X109238095Y-124661009D02*
X109285714Y-124756247D01*
X109285714Y-124756247D02*
X109285714Y-124994342D01*
X109285714Y-124994342D02*
X109238095Y-125089580D01*
X109238095Y-125089580D02*
X109190476Y-125137200D01*
X109190476Y-125137200D02*
X109095238Y-125184819D01*
X109095238Y-125184819D02*
X108857143Y-125184819D01*
X108857143Y-125184819D02*
X108761905Y-125137200D01*
X108761905Y-125137200D02*
X108714286Y-125089580D01*
X159238095Y-83454819D02*
X159238095Y-82454819D01*
X159238095Y-82931009D02*
X159809523Y-82931009D01*
X159809523Y-83454819D02*
X159809523Y-82454819D01*
X160238095Y-82550057D02*
X160285714Y-82502438D01*
X160285714Y-82502438D02*
X160380952Y-82454819D01*
X160380952Y-82454819D02*
X160619047Y-82454819D01*
X160619047Y-82454819D02*
X160714285Y-82502438D01*
X160714285Y-82502438D02*
X160761904Y-82550057D01*
X160761904Y-82550057D02*
X160809523Y-82645295D01*
X160809523Y-82645295D02*
X160809523Y-82740533D01*
X160809523Y-82740533D02*
X160761904Y-82883390D01*
X160761904Y-82883390D02*
X160190476Y-83454819D01*
X160190476Y-83454819D02*
X160809523Y-83454819D01*
X118523809Y-67978628D02*
X118523809Y-68454819D01*
X118190476Y-67454819D02*
X118523809Y-67978628D01*
X118523809Y-67978628D02*
X118857142Y-67454819D01*
X119714285Y-68454819D02*
X119142857Y-68454819D01*
X119428571Y-68454819D02*
X119428571Y-67454819D01*
X119428571Y-67454819D02*
X119333333Y-67597676D01*
X119333333Y-67597676D02*
X119238095Y-67692914D01*
X119238095Y-67692914D02*
X119142857Y-67740533D01*
X173896666Y-74804819D02*
X173896666Y-75519104D01*
X173896666Y-75519104D02*
X173849047Y-75661961D01*
X173849047Y-75661961D02*
X173753809Y-75757200D01*
X173753809Y-75757200D02*
X173610952Y-75804819D01*
X173610952Y-75804819D02*
X173515714Y-75804819D01*
X174849047Y-74804819D02*
X174372857Y-74804819D01*
X174372857Y-74804819D02*
X174325238Y-75281009D01*
X174325238Y-75281009D02*
X174372857Y-75233390D01*
X174372857Y-75233390D02*
X174468095Y-75185771D01*
X174468095Y-75185771D02*
X174706190Y-75185771D01*
X174706190Y-75185771D02*
X174801428Y-75233390D01*
X174801428Y-75233390D02*
X174849047Y-75281009D01*
X174849047Y-75281009D02*
X174896666Y-75376247D01*
X174896666Y-75376247D02*
X174896666Y-75614342D01*
X174896666Y-75614342D02*
X174849047Y-75709580D01*
X174849047Y-75709580D02*
X174801428Y-75757200D01*
X174801428Y-75757200D02*
X174706190Y-75804819D01*
X174706190Y-75804819D02*
X174468095Y-75804819D01*
X174468095Y-75804819D02*
X174372857Y-75757200D01*
X174372857Y-75757200D02*
X174325238Y-75709580D01*
X110333333Y-131954819D02*
X110000000Y-131478628D01*
X109761905Y-131954819D02*
X109761905Y-130954819D01*
X109761905Y-130954819D02*
X110142857Y-130954819D01*
X110142857Y-130954819D02*
X110238095Y-131002438D01*
X110238095Y-131002438D02*
X110285714Y-131050057D01*
X110285714Y-131050057D02*
X110333333Y-131145295D01*
X110333333Y-131145295D02*
X110333333Y-131288152D01*
X110333333Y-131288152D02*
X110285714Y-131383390D01*
X110285714Y-131383390D02*
X110238095Y-131431009D01*
X110238095Y-131431009D02*
X110142857Y-131478628D01*
X110142857Y-131478628D02*
X109761905Y-131478628D01*
X111190476Y-130954819D02*
X111000000Y-130954819D01*
X111000000Y-130954819D02*
X110904762Y-131002438D01*
X110904762Y-131002438D02*
X110857143Y-131050057D01*
X110857143Y-131050057D02*
X110761905Y-131192914D01*
X110761905Y-131192914D02*
X110714286Y-131383390D01*
X110714286Y-131383390D02*
X110714286Y-131764342D01*
X110714286Y-131764342D02*
X110761905Y-131859580D01*
X110761905Y-131859580D02*
X110809524Y-131907200D01*
X110809524Y-131907200D02*
X110904762Y-131954819D01*
X110904762Y-131954819D02*
X111095238Y-131954819D01*
X111095238Y-131954819D02*
X111190476Y-131907200D01*
X111190476Y-131907200D02*
X111238095Y-131859580D01*
X111238095Y-131859580D02*
X111285714Y-131764342D01*
X111285714Y-131764342D02*
X111285714Y-131526247D01*
X111285714Y-131526247D02*
X111238095Y-131431009D01*
X111238095Y-131431009D02*
X111190476Y-131383390D01*
X111190476Y-131383390D02*
X111095238Y-131335771D01*
X111095238Y-131335771D02*
X110904762Y-131335771D01*
X110904762Y-131335771D02*
X110809524Y-131383390D01*
X110809524Y-131383390D02*
X110761905Y-131431009D01*
X110761905Y-131431009D02*
X110714286Y-131526247D01*
X131738095Y-46954819D02*
X131738095Y-45954819D01*
X131738095Y-46431009D02*
X132309523Y-46431009D01*
X132309523Y-46954819D02*
X132309523Y-45954819D01*
X133309523Y-46954819D02*
X132738095Y-46954819D01*
X133023809Y-46954819D02*
X133023809Y-45954819D01*
X133023809Y-45954819D02*
X132928571Y-46097676D01*
X132928571Y-46097676D02*
X132833333Y-46192914D01*
X132833333Y-46192914D02*
X132738095Y-46240533D01*
X129166666Y-107954819D02*
X129166666Y-108669104D01*
X129166666Y-108669104D02*
X129119047Y-108811961D01*
X129119047Y-108811961D02*
X129023809Y-108907200D01*
X129023809Y-108907200D02*
X128880952Y-108954819D01*
X128880952Y-108954819D02*
X128785714Y-108954819D01*
X130071428Y-107954819D02*
X129880952Y-107954819D01*
X129880952Y-107954819D02*
X129785714Y-108002438D01*
X129785714Y-108002438D02*
X129738095Y-108050057D01*
X129738095Y-108050057D02*
X129642857Y-108192914D01*
X129642857Y-108192914D02*
X129595238Y-108383390D01*
X129595238Y-108383390D02*
X129595238Y-108764342D01*
X129595238Y-108764342D02*
X129642857Y-108859580D01*
X129642857Y-108859580D02*
X129690476Y-108907200D01*
X129690476Y-108907200D02*
X129785714Y-108954819D01*
X129785714Y-108954819D02*
X129976190Y-108954819D01*
X129976190Y-108954819D02*
X130071428Y-108907200D01*
X130071428Y-108907200D02*
X130119047Y-108859580D01*
X130119047Y-108859580D02*
X130166666Y-108764342D01*
X130166666Y-108764342D02*
X130166666Y-108526247D01*
X130166666Y-108526247D02*
X130119047Y-108431009D01*
X130119047Y-108431009D02*
X130071428Y-108383390D01*
X130071428Y-108383390D02*
X129976190Y-108335771D01*
X129976190Y-108335771D02*
X129785714Y-108335771D01*
X129785714Y-108335771D02*
X129690476Y-108383390D01*
X129690476Y-108383390D02*
X129642857Y-108431009D01*
X129642857Y-108431009D02*
X129595238Y-108526247D01*
X81000000Y-77004819D02*
X81571428Y-77004819D01*
X81285714Y-78004819D02*
X81285714Y-77004819D01*
X81904762Y-78004819D02*
X81904762Y-77004819D01*
X81904762Y-77004819D02*
X82285714Y-77004819D01*
X82285714Y-77004819D02*
X82380952Y-77052438D01*
X82380952Y-77052438D02*
X82428571Y-77100057D01*
X82428571Y-77100057D02*
X82476190Y-77195295D01*
X82476190Y-77195295D02*
X82476190Y-77338152D01*
X82476190Y-77338152D02*
X82428571Y-77433390D01*
X82428571Y-77433390D02*
X82380952Y-77481009D01*
X82380952Y-77481009D02*
X82285714Y-77528628D01*
X82285714Y-77528628D02*
X81904762Y-77528628D01*
X82666667Y-78100057D02*
X83428571Y-78100057D01*
X83571429Y-77004819D02*
X84238095Y-78004819D01*
X84238095Y-77004819D02*
X83571429Y-78004819D01*
X84380953Y-78100057D02*
X85142857Y-78100057D01*
X85333334Y-77719104D02*
X85809524Y-77719104D01*
X85238096Y-78004819D02*
X85571429Y-77004819D01*
X85571429Y-77004819D02*
X85904762Y-78004819D01*
X86142858Y-78004819D02*
X86666667Y-77338152D01*
X86142858Y-77338152D02*
X86666667Y-78004819D01*
X87047620Y-78004819D02*
X87047620Y-77338152D01*
X87047620Y-77004819D02*
X87000001Y-77052438D01*
X87000001Y-77052438D02*
X87047620Y-77100057D01*
X87047620Y-77100057D02*
X87095239Y-77052438D01*
X87095239Y-77052438D02*
X87047620Y-77004819D01*
X87047620Y-77004819D02*
X87047620Y-77100057D01*
X87476191Y-77957200D02*
X87571429Y-78004819D01*
X87571429Y-78004819D02*
X87761905Y-78004819D01*
X87761905Y-78004819D02*
X87857143Y-77957200D01*
X87857143Y-77957200D02*
X87904762Y-77861961D01*
X87904762Y-77861961D02*
X87904762Y-77814342D01*
X87904762Y-77814342D02*
X87857143Y-77719104D01*
X87857143Y-77719104D02*
X87761905Y-77671485D01*
X87761905Y-77671485D02*
X87619048Y-77671485D01*
X87619048Y-77671485D02*
X87523810Y-77623866D01*
X87523810Y-77623866D02*
X87476191Y-77528628D01*
X87476191Y-77528628D02*
X87476191Y-77481009D01*
X87476191Y-77481009D02*
X87523810Y-77385771D01*
X87523810Y-77385771D02*
X87619048Y-77338152D01*
X87619048Y-77338152D02*
X87761905Y-77338152D01*
X87761905Y-77338152D02*
X87857143Y-77385771D01*
X129666667Y-122907200D02*
X129809524Y-122954819D01*
X129809524Y-122954819D02*
X130047619Y-122954819D01*
X130047619Y-122954819D02*
X130142857Y-122907200D01*
X130142857Y-122907200D02*
X130190476Y-122859580D01*
X130190476Y-122859580D02*
X130238095Y-122764342D01*
X130238095Y-122764342D02*
X130238095Y-122669104D01*
X130238095Y-122669104D02*
X130190476Y-122573866D01*
X130190476Y-122573866D02*
X130142857Y-122526247D01*
X130142857Y-122526247D02*
X130047619Y-122478628D01*
X130047619Y-122478628D02*
X129857143Y-122431009D01*
X129857143Y-122431009D02*
X129761905Y-122383390D01*
X129761905Y-122383390D02*
X129714286Y-122335771D01*
X129714286Y-122335771D02*
X129666667Y-122240533D01*
X129666667Y-122240533D02*
X129666667Y-122145295D01*
X129666667Y-122145295D02*
X129714286Y-122050057D01*
X129714286Y-122050057D02*
X129761905Y-122002438D01*
X129761905Y-122002438D02*
X129857143Y-121954819D01*
X129857143Y-121954819D02*
X130095238Y-121954819D01*
X130095238Y-121954819D02*
X130238095Y-122002438D01*
X130571429Y-121954819D02*
X130809524Y-122954819D01*
X130809524Y-122954819D02*
X131000000Y-122240533D01*
X131000000Y-122240533D02*
X131190476Y-122954819D01*
X131190476Y-122954819D02*
X131428572Y-121954819D01*
X131714286Y-121954819D02*
X132333333Y-121954819D01*
X132333333Y-121954819D02*
X132000000Y-122335771D01*
X132000000Y-122335771D02*
X132142857Y-122335771D01*
X132142857Y-122335771D02*
X132238095Y-122383390D01*
X132238095Y-122383390D02*
X132285714Y-122431009D01*
X132285714Y-122431009D02*
X132333333Y-122526247D01*
X132333333Y-122526247D02*
X132333333Y-122764342D01*
X132333333Y-122764342D02*
X132285714Y-122859580D01*
X132285714Y-122859580D02*
X132238095Y-122907200D01*
X132238095Y-122907200D02*
X132142857Y-122954819D01*
X132142857Y-122954819D02*
X131857143Y-122954819D01*
X131857143Y-122954819D02*
X131761905Y-122907200D01*
X131761905Y-122907200D02*
X131714286Y-122859580D01*
X80952381Y-96504819D02*
X81523809Y-96504819D01*
X81238095Y-97504819D02*
X81238095Y-96504819D01*
X81857143Y-97504819D02*
X81857143Y-96504819D01*
X81857143Y-96504819D02*
X82238095Y-96504819D01*
X82238095Y-96504819D02*
X82333333Y-96552438D01*
X82333333Y-96552438D02*
X82380952Y-96600057D01*
X82380952Y-96600057D02*
X82428571Y-96695295D01*
X82428571Y-96695295D02*
X82428571Y-96838152D01*
X82428571Y-96838152D02*
X82380952Y-96933390D01*
X82380952Y-96933390D02*
X82333333Y-96981009D01*
X82333333Y-96981009D02*
X82238095Y-97028628D01*
X82238095Y-97028628D02*
X81857143Y-97028628D01*
X82619048Y-97600057D02*
X83380952Y-97600057D01*
X84142857Y-96552438D02*
X84047619Y-96504819D01*
X84047619Y-96504819D02*
X83904762Y-96504819D01*
X83904762Y-96504819D02*
X83761905Y-96552438D01*
X83761905Y-96552438D02*
X83666667Y-96647676D01*
X83666667Y-96647676D02*
X83619048Y-96742914D01*
X83619048Y-96742914D02*
X83571429Y-96933390D01*
X83571429Y-96933390D02*
X83571429Y-97076247D01*
X83571429Y-97076247D02*
X83619048Y-97266723D01*
X83619048Y-97266723D02*
X83666667Y-97361961D01*
X83666667Y-97361961D02*
X83761905Y-97457200D01*
X83761905Y-97457200D02*
X83904762Y-97504819D01*
X83904762Y-97504819D02*
X84000000Y-97504819D01*
X84000000Y-97504819D02*
X84142857Y-97457200D01*
X84142857Y-97457200D02*
X84190476Y-97409580D01*
X84190476Y-97409580D02*
X84190476Y-97076247D01*
X84190476Y-97076247D02*
X84000000Y-97076247D01*
X84619048Y-97504819D02*
X84619048Y-96504819D01*
X84619048Y-96504819D02*
X85190476Y-97504819D01*
X85190476Y-97504819D02*
X85190476Y-96504819D01*
X85666667Y-97504819D02*
X85666667Y-96504819D01*
X85666667Y-96504819D02*
X85904762Y-96504819D01*
X85904762Y-96504819D02*
X86047619Y-96552438D01*
X86047619Y-96552438D02*
X86142857Y-96647676D01*
X86142857Y-96647676D02*
X86190476Y-96742914D01*
X86190476Y-96742914D02*
X86238095Y-96933390D01*
X86238095Y-96933390D02*
X86238095Y-97076247D01*
X86238095Y-97076247D02*
X86190476Y-97266723D01*
X86190476Y-97266723D02*
X86142857Y-97361961D01*
X86142857Y-97361961D02*
X86047619Y-97457200D01*
X86047619Y-97457200D02*
X85904762Y-97504819D01*
X85904762Y-97504819D02*
X85666667Y-97504819D01*
X86428572Y-97600057D02*
X87190476Y-97600057D01*
X87952381Y-97504819D02*
X87380953Y-97504819D01*
X87666667Y-97504819D02*
X87666667Y-96504819D01*
X87666667Y-96504819D02*
X87571429Y-96647676D01*
X87571429Y-96647676D02*
X87476191Y-96742914D01*
X87476191Y-96742914D02*
X87380953Y-96790533D01*
X81047619Y-118004819D02*
X81619047Y-118004819D01*
X81333333Y-119004819D02*
X81333333Y-118004819D01*
X81952381Y-119004819D02*
X81952381Y-118004819D01*
X81952381Y-118004819D02*
X82333333Y-118004819D01*
X82333333Y-118004819D02*
X82428571Y-118052438D01*
X82428571Y-118052438D02*
X82476190Y-118100057D01*
X82476190Y-118100057D02*
X82523809Y-118195295D01*
X82523809Y-118195295D02*
X82523809Y-118338152D01*
X82523809Y-118338152D02*
X82476190Y-118433390D01*
X82476190Y-118433390D02*
X82428571Y-118481009D01*
X82428571Y-118481009D02*
X82333333Y-118528628D01*
X82333333Y-118528628D02*
X81952381Y-118528628D01*
X82714286Y-119100057D02*
X83476190Y-119100057D01*
X84285714Y-119004819D02*
X83952381Y-118528628D01*
X83714286Y-119004819D02*
X83714286Y-118004819D01*
X83714286Y-118004819D02*
X84095238Y-118004819D01*
X84095238Y-118004819D02*
X84190476Y-118052438D01*
X84190476Y-118052438D02*
X84238095Y-118100057D01*
X84238095Y-118100057D02*
X84285714Y-118195295D01*
X84285714Y-118195295D02*
X84285714Y-118338152D01*
X84285714Y-118338152D02*
X84238095Y-118433390D01*
X84238095Y-118433390D02*
X84190476Y-118481009D01*
X84190476Y-118481009D02*
X84095238Y-118528628D01*
X84095238Y-118528628D02*
X83714286Y-118528628D01*
X84619048Y-118004819D02*
X85285714Y-119004819D01*
X85285714Y-118004819D02*
X84619048Y-119004819D01*
X85428572Y-119100057D02*
X86190476Y-119100057D01*
X86380953Y-118719104D02*
X86857143Y-118719104D01*
X86285715Y-119004819D02*
X86619048Y-118004819D01*
X86619048Y-118004819D02*
X86952381Y-119004819D01*
X141783333Y-99359580D02*
X141735714Y-99407200D01*
X141735714Y-99407200D02*
X141592857Y-99454819D01*
X141592857Y-99454819D02*
X141497619Y-99454819D01*
X141497619Y-99454819D02*
X141354762Y-99407200D01*
X141354762Y-99407200D02*
X141259524Y-99311961D01*
X141259524Y-99311961D02*
X141211905Y-99216723D01*
X141211905Y-99216723D02*
X141164286Y-99026247D01*
X141164286Y-99026247D02*
X141164286Y-98883390D01*
X141164286Y-98883390D02*
X141211905Y-98692914D01*
X141211905Y-98692914D02*
X141259524Y-98597676D01*
X141259524Y-98597676D02*
X141354762Y-98502438D01*
X141354762Y-98502438D02*
X141497619Y-98454819D01*
X141497619Y-98454819D02*
X141592857Y-98454819D01*
X141592857Y-98454819D02*
X141735714Y-98502438D01*
X141735714Y-98502438D02*
X141783333Y-98550057D01*
X142640476Y-98454819D02*
X142450000Y-98454819D01*
X142450000Y-98454819D02*
X142354762Y-98502438D01*
X142354762Y-98502438D02*
X142307143Y-98550057D01*
X142307143Y-98550057D02*
X142211905Y-98692914D01*
X142211905Y-98692914D02*
X142164286Y-98883390D01*
X142164286Y-98883390D02*
X142164286Y-99264342D01*
X142164286Y-99264342D02*
X142211905Y-99359580D01*
X142211905Y-99359580D02*
X142259524Y-99407200D01*
X142259524Y-99407200D02*
X142354762Y-99454819D01*
X142354762Y-99454819D02*
X142545238Y-99454819D01*
X142545238Y-99454819D02*
X142640476Y-99407200D01*
X142640476Y-99407200D02*
X142688095Y-99359580D01*
X142688095Y-99359580D02*
X142735714Y-99264342D01*
X142735714Y-99264342D02*
X142735714Y-99026247D01*
X142735714Y-99026247D02*
X142688095Y-98931009D01*
X142688095Y-98931009D02*
X142640476Y-98883390D01*
X142640476Y-98883390D02*
X142545238Y-98835771D01*
X142545238Y-98835771D02*
X142354762Y-98835771D01*
X142354762Y-98835771D02*
X142259524Y-98883390D01*
X142259524Y-98883390D02*
X142211905Y-98931009D01*
X142211905Y-98931009D02*
X142164286Y-99026247D01*
X112357142Y-75859580D02*
X112309523Y-75907200D01*
X112309523Y-75907200D02*
X112166666Y-75954819D01*
X112166666Y-75954819D02*
X112071428Y-75954819D01*
X112071428Y-75954819D02*
X111928571Y-75907200D01*
X111928571Y-75907200D02*
X111833333Y-75811961D01*
X111833333Y-75811961D02*
X111785714Y-75716723D01*
X111785714Y-75716723D02*
X111738095Y-75526247D01*
X111738095Y-75526247D02*
X111738095Y-75383390D01*
X111738095Y-75383390D02*
X111785714Y-75192914D01*
X111785714Y-75192914D02*
X111833333Y-75097676D01*
X111833333Y-75097676D02*
X111928571Y-75002438D01*
X111928571Y-75002438D02*
X112071428Y-74954819D01*
X112071428Y-74954819D02*
X112166666Y-74954819D01*
X112166666Y-74954819D02*
X112309523Y-75002438D01*
X112309523Y-75002438D02*
X112357142Y-75050057D01*
X113309523Y-75954819D02*
X112738095Y-75954819D01*
X113023809Y-75954819D02*
X113023809Y-74954819D01*
X113023809Y-74954819D02*
X112928571Y-75097676D01*
X112928571Y-75097676D02*
X112833333Y-75192914D01*
X112833333Y-75192914D02*
X112738095Y-75240533D01*
X113880952Y-75383390D02*
X113785714Y-75335771D01*
X113785714Y-75335771D02*
X113738095Y-75288152D01*
X113738095Y-75288152D02*
X113690476Y-75192914D01*
X113690476Y-75192914D02*
X113690476Y-75145295D01*
X113690476Y-75145295D02*
X113738095Y-75050057D01*
X113738095Y-75050057D02*
X113785714Y-75002438D01*
X113785714Y-75002438D02*
X113880952Y-74954819D01*
X113880952Y-74954819D02*
X114071428Y-74954819D01*
X114071428Y-74954819D02*
X114166666Y-75002438D01*
X114166666Y-75002438D02*
X114214285Y-75050057D01*
X114214285Y-75050057D02*
X114261904Y-75145295D01*
X114261904Y-75145295D02*
X114261904Y-75192914D01*
X114261904Y-75192914D02*
X114214285Y-75288152D01*
X114214285Y-75288152D02*
X114166666Y-75335771D01*
X114166666Y-75335771D02*
X114071428Y-75383390D01*
X114071428Y-75383390D02*
X113880952Y-75383390D01*
X113880952Y-75383390D02*
X113785714Y-75431009D01*
X113785714Y-75431009D02*
X113738095Y-75478628D01*
X113738095Y-75478628D02*
X113690476Y-75573866D01*
X113690476Y-75573866D02*
X113690476Y-75764342D01*
X113690476Y-75764342D02*
X113738095Y-75859580D01*
X113738095Y-75859580D02*
X113785714Y-75907200D01*
X113785714Y-75907200D02*
X113880952Y-75954819D01*
X113880952Y-75954819D02*
X114071428Y-75954819D01*
X114071428Y-75954819D02*
X114166666Y-75907200D01*
X114166666Y-75907200D02*
X114214285Y-75859580D01*
X114214285Y-75859580D02*
X114261904Y-75764342D01*
X114261904Y-75764342D02*
X114261904Y-75573866D01*
X114261904Y-75573866D02*
X114214285Y-75478628D01*
X114214285Y-75478628D02*
X114166666Y-75431009D01*
X114166666Y-75431009D02*
X114071428Y-75383390D01*
X130738095Y-95700819D02*
X130738095Y-96510342D01*
X130738095Y-96510342D02*
X130785714Y-96605580D01*
X130785714Y-96605580D02*
X130833333Y-96653200D01*
X130833333Y-96653200D02*
X130928571Y-96700819D01*
X130928571Y-96700819D02*
X131119047Y-96700819D01*
X131119047Y-96700819D02*
X131214285Y-96653200D01*
X131214285Y-96653200D02*
X131261904Y-96605580D01*
X131261904Y-96605580D02*
X131309523Y-96510342D01*
X131309523Y-96510342D02*
X131309523Y-95700819D01*
X132214285Y-96034152D02*
X132214285Y-96700819D01*
X131976190Y-95653200D02*
X131738095Y-96367485D01*
X131738095Y-96367485D02*
X132357142Y-96367485D01*
X93357142Y-60954819D02*
X93023809Y-60478628D01*
X92785714Y-60954819D02*
X92785714Y-59954819D01*
X92785714Y-59954819D02*
X93166666Y-59954819D01*
X93166666Y-59954819D02*
X93261904Y-60002438D01*
X93261904Y-60002438D02*
X93309523Y-60050057D01*
X93309523Y-60050057D02*
X93357142Y-60145295D01*
X93357142Y-60145295D02*
X93357142Y-60288152D01*
X93357142Y-60288152D02*
X93309523Y-60383390D01*
X93309523Y-60383390D02*
X93261904Y-60431009D01*
X93261904Y-60431009D02*
X93166666Y-60478628D01*
X93166666Y-60478628D02*
X92785714Y-60478628D01*
X94309523Y-60954819D02*
X93738095Y-60954819D01*
X94023809Y-60954819D02*
X94023809Y-59954819D01*
X94023809Y-59954819D02*
X93928571Y-60097676D01*
X93928571Y-60097676D02*
X93833333Y-60192914D01*
X93833333Y-60192914D02*
X93738095Y-60240533D01*
X94928571Y-59954819D02*
X95023809Y-59954819D01*
X95023809Y-59954819D02*
X95119047Y-60002438D01*
X95119047Y-60002438D02*
X95166666Y-60050057D01*
X95166666Y-60050057D02*
X95214285Y-60145295D01*
X95214285Y-60145295D02*
X95261904Y-60335771D01*
X95261904Y-60335771D02*
X95261904Y-60573866D01*
X95261904Y-60573866D02*
X95214285Y-60764342D01*
X95214285Y-60764342D02*
X95166666Y-60859580D01*
X95166666Y-60859580D02*
X95119047Y-60907200D01*
X95119047Y-60907200D02*
X95023809Y-60954819D01*
X95023809Y-60954819D02*
X94928571Y-60954819D01*
X94928571Y-60954819D02*
X94833333Y-60907200D01*
X94833333Y-60907200D02*
X94785714Y-60859580D01*
X94785714Y-60859580D02*
X94738095Y-60764342D01*
X94738095Y-60764342D02*
X94690476Y-60573866D01*
X94690476Y-60573866D02*
X94690476Y-60335771D01*
X94690476Y-60335771D02*
X94738095Y-60145295D01*
X94738095Y-60145295D02*
X94785714Y-60050057D01*
X94785714Y-60050057D02*
X94833333Y-60002438D01*
X94833333Y-60002438D02*
X94928571Y-59954819D01*
X113857142Y-58954819D02*
X113523809Y-58478628D01*
X113285714Y-58954819D02*
X113285714Y-57954819D01*
X113285714Y-57954819D02*
X113666666Y-57954819D01*
X113666666Y-57954819D02*
X113761904Y-58002438D01*
X113761904Y-58002438D02*
X113809523Y-58050057D01*
X113809523Y-58050057D02*
X113857142Y-58145295D01*
X113857142Y-58145295D02*
X113857142Y-58288152D01*
X113857142Y-58288152D02*
X113809523Y-58383390D01*
X113809523Y-58383390D02*
X113761904Y-58431009D01*
X113761904Y-58431009D02*
X113666666Y-58478628D01*
X113666666Y-58478628D02*
X113285714Y-58478628D01*
X114809523Y-58954819D02*
X114238095Y-58954819D01*
X114523809Y-58954819D02*
X114523809Y-57954819D01*
X114523809Y-57954819D02*
X114428571Y-58097676D01*
X114428571Y-58097676D02*
X114333333Y-58192914D01*
X114333333Y-58192914D02*
X114238095Y-58240533D01*
X115761904Y-58954819D02*
X115190476Y-58954819D01*
X115476190Y-58954819D02*
X115476190Y-57954819D01*
X115476190Y-57954819D02*
X115380952Y-58097676D01*
X115380952Y-58097676D02*
X115285714Y-58192914D01*
X115285714Y-58192914D02*
X115190476Y-58240533D01*
X134928571Y-40004819D02*
X135499999Y-40004819D01*
X135214285Y-41004819D02*
X135214285Y-40004819D01*
X135833333Y-41004819D02*
X135833333Y-40004819D01*
X135833333Y-40004819D02*
X136214285Y-40004819D01*
X136214285Y-40004819D02*
X136309523Y-40052438D01*
X136309523Y-40052438D02*
X136357142Y-40100057D01*
X136357142Y-40100057D02*
X136404761Y-40195295D01*
X136404761Y-40195295D02*
X136404761Y-40338152D01*
X136404761Y-40338152D02*
X136357142Y-40433390D01*
X136357142Y-40433390D02*
X136309523Y-40481009D01*
X136309523Y-40481009D02*
X136214285Y-40528628D01*
X136214285Y-40528628D02*
X135833333Y-40528628D01*
X136595238Y-41100057D02*
X137357142Y-41100057D01*
X138071428Y-40004819D02*
X137595238Y-40004819D01*
X137595238Y-40004819D02*
X137547619Y-40481009D01*
X137547619Y-40481009D02*
X137595238Y-40433390D01*
X137595238Y-40433390D02*
X137690476Y-40385771D01*
X137690476Y-40385771D02*
X137928571Y-40385771D01*
X137928571Y-40385771D02*
X138023809Y-40433390D01*
X138023809Y-40433390D02*
X138071428Y-40481009D01*
X138071428Y-40481009D02*
X138119047Y-40576247D01*
X138119047Y-40576247D02*
X138119047Y-40814342D01*
X138119047Y-40814342D02*
X138071428Y-40909580D01*
X138071428Y-40909580D02*
X138023809Y-40957200D01*
X138023809Y-40957200D02*
X137928571Y-41004819D01*
X137928571Y-41004819D02*
X137690476Y-41004819D01*
X137690476Y-41004819D02*
X137595238Y-40957200D01*
X137595238Y-40957200D02*
X137547619Y-40909580D01*
X138404762Y-40004819D02*
X138738095Y-41004819D01*
X138738095Y-41004819D02*
X139071428Y-40004819D01*
X89666666Y-120454819D02*
X89666666Y-121169104D01*
X89666666Y-121169104D02*
X89619047Y-121311961D01*
X89619047Y-121311961D02*
X89523809Y-121407200D01*
X89523809Y-121407200D02*
X89380952Y-121454819D01*
X89380952Y-121454819D02*
X89285714Y-121454819D01*
X90047619Y-120454819D02*
X90666666Y-120454819D01*
X90666666Y-120454819D02*
X90333333Y-120835771D01*
X90333333Y-120835771D02*
X90476190Y-120835771D01*
X90476190Y-120835771D02*
X90571428Y-120883390D01*
X90571428Y-120883390D02*
X90619047Y-120931009D01*
X90619047Y-120931009D02*
X90666666Y-121026247D01*
X90666666Y-121026247D02*
X90666666Y-121264342D01*
X90666666Y-121264342D02*
X90619047Y-121359580D01*
X90619047Y-121359580D02*
X90571428Y-121407200D01*
X90571428Y-121407200D02*
X90476190Y-121454819D01*
X90476190Y-121454819D02*
X90190476Y-121454819D01*
X90190476Y-121454819D02*
X90095238Y-121407200D01*
X90095238Y-121407200D02*
X90047619Y-121359580D01*
X159166667Y-67907200D02*
X159309524Y-67954819D01*
X159309524Y-67954819D02*
X159547619Y-67954819D01*
X159547619Y-67954819D02*
X159642857Y-67907200D01*
X159642857Y-67907200D02*
X159690476Y-67859580D01*
X159690476Y-67859580D02*
X159738095Y-67764342D01*
X159738095Y-67764342D02*
X159738095Y-67669104D01*
X159738095Y-67669104D02*
X159690476Y-67573866D01*
X159690476Y-67573866D02*
X159642857Y-67526247D01*
X159642857Y-67526247D02*
X159547619Y-67478628D01*
X159547619Y-67478628D02*
X159357143Y-67431009D01*
X159357143Y-67431009D02*
X159261905Y-67383390D01*
X159261905Y-67383390D02*
X159214286Y-67335771D01*
X159214286Y-67335771D02*
X159166667Y-67240533D01*
X159166667Y-67240533D02*
X159166667Y-67145295D01*
X159166667Y-67145295D02*
X159214286Y-67050057D01*
X159214286Y-67050057D02*
X159261905Y-67002438D01*
X159261905Y-67002438D02*
X159357143Y-66954819D01*
X159357143Y-66954819D02*
X159595238Y-66954819D01*
X159595238Y-66954819D02*
X159738095Y-67002438D01*
X160071429Y-66954819D02*
X160309524Y-67954819D01*
X160309524Y-67954819D02*
X160500000Y-67240533D01*
X160500000Y-67240533D02*
X160690476Y-67954819D01*
X160690476Y-67954819D02*
X160928572Y-66954819D01*
X161833333Y-67954819D02*
X161261905Y-67954819D01*
X161547619Y-67954819D02*
X161547619Y-66954819D01*
X161547619Y-66954819D02*
X161452381Y-67097676D01*
X161452381Y-67097676D02*
X161357143Y-67192914D01*
X161357143Y-67192914D02*
X161261905Y-67240533D01*
X85283333Y-71359580D02*
X85235714Y-71407200D01*
X85235714Y-71407200D02*
X85092857Y-71454819D01*
X85092857Y-71454819D02*
X84997619Y-71454819D01*
X84997619Y-71454819D02*
X84854762Y-71407200D01*
X84854762Y-71407200D02*
X84759524Y-71311961D01*
X84759524Y-71311961D02*
X84711905Y-71216723D01*
X84711905Y-71216723D02*
X84664286Y-71026247D01*
X84664286Y-71026247D02*
X84664286Y-70883390D01*
X84664286Y-70883390D02*
X84711905Y-70692914D01*
X84711905Y-70692914D02*
X84759524Y-70597676D01*
X84759524Y-70597676D02*
X84854762Y-70502438D01*
X84854762Y-70502438D02*
X84997619Y-70454819D01*
X84997619Y-70454819D02*
X85092857Y-70454819D01*
X85092857Y-70454819D02*
X85235714Y-70502438D01*
X85235714Y-70502438D02*
X85283333Y-70550057D01*
X86235714Y-71454819D02*
X85664286Y-71454819D01*
X85950000Y-71454819D02*
X85950000Y-70454819D01*
X85950000Y-70454819D02*
X85854762Y-70597676D01*
X85854762Y-70597676D02*
X85759524Y-70692914D01*
X85759524Y-70692914D02*
X85664286Y-70740533D01*
X101683333Y-55954819D02*
X101350000Y-55478628D01*
X101111905Y-55954819D02*
X101111905Y-54954819D01*
X101111905Y-54954819D02*
X101492857Y-54954819D01*
X101492857Y-54954819D02*
X101588095Y-55002438D01*
X101588095Y-55002438D02*
X101635714Y-55050057D01*
X101635714Y-55050057D02*
X101683333Y-55145295D01*
X101683333Y-55145295D02*
X101683333Y-55288152D01*
X101683333Y-55288152D02*
X101635714Y-55383390D01*
X101635714Y-55383390D02*
X101588095Y-55431009D01*
X101588095Y-55431009D02*
X101492857Y-55478628D01*
X101492857Y-55478628D02*
X101111905Y-55478628D01*
X102254762Y-55383390D02*
X102159524Y-55335771D01*
X102159524Y-55335771D02*
X102111905Y-55288152D01*
X102111905Y-55288152D02*
X102064286Y-55192914D01*
X102064286Y-55192914D02*
X102064286Y-55145295D01*
X102064286Y-55145295D02*
X102111905Y-55050057D01*
X102111905Y-55050057D02*
X102159524Y-55002438D01*
X102159524Y-55002438D02*
X102254762Y-54954819D01*
X102254762Y-54954819D02*
X102445238Y-54954819D01*
X102445238Y-54954819D02*
X102540476Y-55002438D01*
X102540476Y-55002438D02*
X102588095Y-55050057D01*
X102588095Y-55050057D02*
X102635714Y-55145295D01*
X102635714Y-55145295D02*
X102635714Y-55192914D01*
X102635714Y-55192914D02*
X102588095Y-55288152D01*
X102588095Y-55288152D02*
X102540476Y-55335771D01*
X102540476Y-55335771D02*
X102445238Y-55383390D01*
X102445238Y-55383390D02*
X102254762Y-55383390D01*
X102254762Y-55383390D02*
X102159524Y-55431009D01*
X102159524Y-55431009D02*
X102111905Y-55478628D01*
X102111905Y-55478628D02*
X102064286Y-55573866D01*
X102064286Y-55573866D02*
X102064286Y-55764342D01*
X102064286Y-55764342D02*
X102111905Y-55859580D01*
X102111905Y-55859580D02*
X102159524Y-55907200D01*
X102159524Y-55907200D02*
X102254762Y-55954819D01*
X102254762Y-55954819D02*
X102445238Y-55954819D01*
X102445238Y-55954819D02*
X102540476Y-55907200D01*
X102540476Y-55907200D02*
X102588095Y-55859580D01*
X102588095Y-55859580D02*
X102635714Y-55764342D01*
X102635714Y-55764342D02*
X102635714Y-55573866D01*
X102635714Y-55573866D02*
X102588095Y-55478628D01*
X102588095Y-55478628D02*
X102540476Y-55431009D01*
X102540476Y-55431009D02*
X102445238Y-55383390D01*
X139357142Y-84359580D02*
X139309523Y-84407200D01*
X139309523Y-84407200D02*
X139166666Y-84454819D01*
X139166666Y-84454819D02*
X139071428Y-84454819D01*
X139071428Y-84454819D02*
X138928571Y-84407200D01*
X138928571Y-84407200D02*
X138833333Y-84311961D01*
X138833333Y-84311961D02*
X138785714Y-84216723D01*
X138785714Y-84216723D02*
X138738095Y-84026247D01*
X138738095Y-84026247D02*
X138738095Y-83883390D01*
X138738095Y-83883390D02*
X138785714Y-83692914D01*
X138785714Y-83692914D02*
X138833333Y-83597676D01*
X138833333Y-83597676D02*
X138928571Y-83502438D01*
X138928571Y-83502438D02*
X139071428Y-83454819D01*
X139071428Y-83454819D02*
X139166666Y-83454819D01*
X139166666Y-83454819D02*
X139309523Y-83502438D01*
X139309523Y-83502438D02*
X139357142Y-83550057D01*
X140309523Y-84454819D02*
X139738095Y-84454819D01*
X140023809Y-84454819D02*
X140023809Y-83454819D01*
X140023809Y-83454819D02*
X139928571Y-83597676D01*
X139928571Y-83597676D02*
X139833333Y-83692914D01*
X139833333Y-83692914D02*
X139738095Y-83740533D01*
X140928571Y-83454819D02*
X141023809Y-83454819D01*
X141023809Y-83454819D02*
X141119047Y-83502438D01*
X141119047Y-83502438D02*
X141166666Y-83550057D01*
X141166666Y-83550057D02*
X141214285Y-83645295D01*
X141214285Y-83645295D02*
X141261904Y-83835771D01*
X141261904Y-83835771D02*
X141261904Y-84073866D01*
X141261904Y-84073866D02*
X141214285Y-84264342D01*
X141214285Y-84264342D02*
X141166666Y-84359580D01*
X141166666Y-84359580D02*
X141119047Y-84407200D01*
X141119047Y-84407200D02*
X141023809Y-84454819D01*
X141023809Y-84454819D02*
X140928571Y-84454819D01*
X140928571Y-84454819D02*
X140833333Y-84407200D01*
X140833333Y-84407200D02*
X140785714Y-84359580D01*
X140785714Y-84359580D02*
X140738095Y-84264342D01*
X140738095Y-84264342D02*
X140690476Y-84073866D01*
X140690476Y-84073866D02*
X140690476Y-83835771D01*
X140690476Y-83835771D02*
X140738095Y-83645295D01*
X140738095Y-83645295D02*
X140785714Y-83550057D01*
X140785714Y-83550057D02*
X140833333Y-83502438D01*
X140833333Y-83502438D02*
X140928571Y-83454819D01*
X172595238Y-114004819D02*
X173166666Y-114004819D01*
X172880952Y-115004819D02*
X172880952Y-114004819D01*
X173500000Y-115004819D02*
X173500000Y-114004819D01*
X173500000Y-114004819D02*
X173880952Y-114004819D01*
X173880952Y-114004819D02*
X173976190Y-114052438D01*
X173976190Y-114052438D02*
X174023809Y-114100057D01*
X174023809Y-114100057D02*
X174071428Y-114195295D01*
X174071428Y-114195295D02*
X174071428Y-114338152D01*
X174071428Y-114338152D02*
X174023809Y-114433390D01*
X174023809Y-114433390D02*
X173976190Y-114481009D01*
X173976190Y-114481009D02*
X173880952Y-114528628D01*
X173880952Y-114528628D02*
X173500000Y-114528628D01*
X174261905Y-115100057D02*
X175023809Y-115100057D01*
X175119048Y-114004819D02*
X175690476Y-114004819D01*
X175404762Y-115004819D02*
X175404762Y-114004819D01*
X175928572Y-114004819D02*
X176595238Y-115004819D01*
X176595238Y-114004819D02*
X175928572Y-115004819D01*
X176738096Y-115100057D02*
X177500000Y-115100057D01*
X178071429Y-114481009D02*
X178214286Y-114528628D01*
X178214286Y-114528628D02*
X178261905Y-114576247D01*
X178261905Y-114576247D02*
X178309524Y-114671485D01*
X178309524Y-114671485D02*
X178309524Y-114814342D01*
X178309524Y-114814342D02*
X178261905Y-114909580D01*
X178261905Y-114909580D02*
X178214286Y-114957200D01*
X178214286Y-114957200D02*
X178119048Y-115004819D01*
X178119048Y-115004819D02*
X177738096Y-115004819D01*
X177738096Y-115004819D02*
X177738096Y-114004819D01*
X177738096Y-114004819D02*
X178071429Y-114004819D01*
X178071429Y-114004819D02*
X178166667Y-114052438D01*
X178166667Y-114052438D02*
X178214286Y-114100057D01*
X178214286Y-114100057D02*
X178261905Y-114195295D01*
X178261905Y-114195295D02*
X178261905Y-114290533D01*
X178261905Y-114290533D02*
X178214286Y-114385771D01*
X178214286Y-114385771D02*
X178166667Y-114433390D01*
X178166667Y-114433390D02*
X178071429Y-114481009D01*
X178071429Y-114481009D02*
X177738096Y-114481009D01*
X112357142Y-70859580D02*
X112309523Y-70907200D01*
X112309523Y-70907200D02*
X112166666Y-70954819D01*
X112166666Y-70954819D02*
X112071428Y-70954819D01*
X112071428Y-70954819D02*
X111928571Y-70907200D01*
X111928571Y-70907200D02*
X111833333Y-70811961D01*
X111833333Y-70811961D02*
X111785714Y-70716723D01*
X111785714Y-70716723D02*
X111738095Y-70526247D01*
X111738095Y-70526247D02*
X111738095Y-70383390D01*
X111738095Y-70383390D02*
X111785714Y-70192914D01*
X111785714Y-70192914D02*
X111833333Y-70097676D01*
X111833333Y-70097676D02*
X111928571Y-70002438D01*
X111928571Y-70002438D02*
X112071428Y-69954819D01*
X112071428Y-69954819D02*
X112166666Y-69954819D01*
X112166666Y-69954819D02*
X112309523Y-70002438D01*
X112309523Y-70002438D02*
X112357142Y-70050057D01*
X113309523Y-70954819D02*
X112738095Y-70954819D01*
X113023809Y-70954819D02*
X113023809Y-69954819D01*
X113023809Y-69954819D02*
X112928571Y-70097676D01*
X112928571Y-70097676D02*
X112833333Y-70192914D01*
X112833333Y-70192914D02*
X112738095Y-70240533D01*
X113642857Y-69954819D02*
X114309523Y-69954819D01*
X114309523Y-69954819D02*
X113880952Y-70954819D01*
X122833333Y-64359580D02*
X122785714Y-64407200D01*
X122785714Y-64407200D02*
X122642857Y-64454819D01*
X122642857Y-64454819D02*
X122547619Y-64454819D01*
X122547619Y-64454819D02*
X122404762Y-64407200D01*
X122404762Y-64407200D02*
X122309524Y-64311961D01*
X122309524Y-64311961D02*
X122261905Y-64216723D01*
X122261905Y-64216723D02*
X122214286Y-64026247D01*
X122214286Y-64026247D02*
X122214286Y-63883390D01*
X122214286Y-63883390D02*
X122261905Y-63692914D01*
X122261905Y-63692914D02*
X122309524Y-63597676D01*
X122309524Y-63597676D02*
X122404762Y-63502438D01*
X122404762Y-63502438D02*
X122547619Y-63454819D01*
X122547619Y-63454819D02*
X122642857Y-63454819D01*
X122642857Y-63454819D02*
X122785714Y-63502438D01*
X122785714Y-63502438D02*
X122833333Y-63550057D01*
X123404762Y-63883390D02*
X123309524Y-63835771D01*
X123309524Y-63835771D02*
X123261905Y-63788152D01*
X123261905Y-63788152D02*
X123214286Y-63692914D01*
X123214286Y-63692914D02*
X123214286Y-63645295D01*
X123214286Y-63645295D02*
X123261905Y-63550057D01*
X123261905Y-63550057D02*
X123309524Y-63502438D01*
X123309524Y-63502438D02*
X123404762Y-63454819D01*
X123404762Y-63454819D02*
X123595238Y-63454819D01*
X123595238Y-63454819D02*
X123690476Y-63502438D01*
X123690476Y-63502438D02*
X123738095Y-63550057D01*
X123738095Y-63550057D02*
X123785714Y-63645295D01*
X123785714Y-63645295D02*
X123785714Y-63692914D01*
X123785714Y-63692914D02*
X123738095Y-63788152D01*
X123738095Y-63788152D02*
X123690476Y-63835771D01*
X123690476Y-63835771D02*
X123595238Y-63883390D01*
X123595238Y-63883390D02*
X123404762Y-63883390D01*
X123404762Y-63883390D02*
X123309524Y-63931009D01*
X123309524Y-63931009D02*
X123261905Y-63978628D01*
X123261905Y-63978628D02*
X123214286Y-64073866D01*
X123214286Y-64073866D02*
X123214286Y-64264342D01*
X123214286Y-64264342D02*
X123261905Y-64359580D01*
X123261905Y-64359580D02*
X123309524Y-64407200D01*
X123309524Y-64407200D02*
X123404762Y-64454819D01*
X123404762Y-64454819D02*
X123595238Y-64454819D01*
X123595238Y-64454819D02*
X123690476Y-64407200D01*
X123690476Y-64407200D02*
X123738095Y-64359580D01*
X123738095Y-64359580D02*
X123785714Y-64264342D01*
X123785714Y-64264342D02*
X123785714Y-64073866D01*
X123785714Y-64073866D02*
X123738095Y-63978628D01*
X123738095Y-63978628D02*
X123690476Y-63931009D01*
X123690476Y-63931009D02*
X123595238Y-63883390D01*
X167333333Y-116359580D02*
X167285714Y-116407200D01*
X167285714Y-116407200D02*
X167142857Y-116454819D01*
X167142857Y-116454819D02*
X167047619Y-116454819D01*
X167047619Y-116454819D02*
X166904762Y-116407200D01*
X166904762Y-116407200D02*
X166809524Y-116311961D01*
X166809524Y-116311961D02*
X166761905Y-116216723D01*
X166761905Y-116216723D02*
X166714286Y-116026247D01*
X166714286Y-116026247D02*
X166714286Y-115883390D01*
X166714286Y-115883390D02*
X166761905Y-115692914D01*
X166761905Y-115692914D02*
X166809524Y-115597676D01*
X166809524Y-115597676D02*
X166904762Y-115502438D01*
X166904762Y-115502438D02*
X167047619Y-115454819D01*
X167047619Y-115454819D02*
X167142857Y-115454819D01*
X167142857Y-115454819D02*
X167285714Y-115502438D01*
X167285714Y-115502438D02*
X167333333Y-115550057D01*
X168238095Y-115454819D02*
X167761905Y-115454819D01*
X167761905Y-115454819D02*
X167714286Y-115931009D01*
X167714286Y-115931009D02*
X167761905Y-115883390D01*
X167761905Y-115883390D02*
X167857143Y-115835771D01*
X167857143Y-115835771D02*
X168095238Y-115835771D01*
X168095238Y-115835771D02*
X168190476Y-115883390D01*
X168190476Y-115883390D02*
X168238095Y-115931009D01*
X168238095Y-115931009D02*
X168285714Y-116026247D01*
X168285714Y-116026247D02*
X168285714Y-116264342D01*
X168285714Y-116264342D02*
X168238095Y-116359580D01*
X168238095Y-116359580D02*
X168190476Y-116407200D01*
X168190476Y-116407200D02*
X168095238Y-116454819D01*
X168095238Y-116454819D02*
X167857143Y-116454819D01*
X167857143Y-116454819D02*
X167761905Y-116407200D01*
X167761905Y-116407200D02*
X167714286Y-116359580D01*
X94333333Y-57454819D02*
X94000000Y-56978628D01*
X93761905Y-57454819D02*
X93761905Y-56454819D01*
X93761905Y-56454819D02*
X94142857Y-56454819D01*
X94142857Y-56454819D02*
X94238095Y-56502438D01*
X94238095Y-56502438D02*
X94285714Y-56550057D01*
X94285714Y-56550057D02*
X94333333Y-56645295D01*
X94333333Y-56645295D02*
X94333333Y-56788152D01*
X94333333Y-56788152D02*
X94285714Y-56883390D01*
X94285714Y-56883390D02*
X94238095Y-56931009D01*
X94238095Y-56931009D02*
X94142857Y-56978628D01*
X94142857Y-56978628D02*
X93761905Y-56978628D01*
X94809524Y-57454819D02*
X95000000Y-57454819D01*
X95000000Y-57454819D02*
X95095238Y-57407200D01*
X95095238Y-57407200D02*
X95142857Y-57359580D01*
X95142857Y-57359580D02*
X95238095Y-57216723D01*
X95238095Y-57216723D02*
X95285714Y-57026247D01*
X95285714Y-57026247D02*
X95285714Y-56645295D01*
X95285714Y-56645295D02*
X95238095Y-56550057D01*
X95238095Y-56550057D02*
X95190476Y-56502438D01*
X95190476Y-56502438D02*
X95095238Y-56454819D01*
X95095238Y-56454819D02*
X94904762Y-56454819D01*
X94904762Y-56454819D02*
X94809524Y-56502438D01*
X94809524Y-56502438D02*
X94761905Y-56550057D01*
X94761905Y-56550057D02*
X94714286Y-56645295D01*
X94714286Y-56645295D02*
X94714286Y-56883390D01*
X94714286Y-56883390D02*
X94761905Y-56978628D01*
X94761905Y-56978628D02*
X94809524Y-57026247D01*
X94809524Y-57026247D02*
X94904762Y-57073866D01*
X94904762Y-57073866D02*
X95095238Y-57073866D01*
X95095238Y-57073866D02*
X95190476Y-57026247D01*
X95190476Y-57026247D02*
X95238095Y-56978628D01*
X95238095Y-56978628D02*
X95285714Y-56883390D01*
X81000000Y-89004819D02*
X81571428Y-89004819D01*
X81285714Y-90004819D02*
X81285714Y-89004819D01*
X81904762Y-90004819D02*
X81904762Y-89004819D01*
X81904762Y-89004819D02*
X82285714Y-89004819D01*
X82285714Y-89004819D02*
X82380952Y-89052438D01*
X82380952Y-89052438D02*
X82428571Y-89100057D01*
X82428571Y-89100057D02*
X82476190Y-89195295D01*
X82476190Y-89195295D02*
X82476190Y-89338152D01*
X82476190Y-89338152D02*
X82428571Y-89433390D01*
X82428571Y-89433390D02*
X82380952Y-89481009D01*
X82380952Y-89481009D02*
X82285714Y-89528628D01*
X82285714Y-89528628D02*
X81904762Y-89528628D01*
X82666667Y-90100057D02*
X83428571Y-90100057D01*
X83571429Y-89004819D02*
X84238095Y-89004819D01*
X84238095Y-89004819D02*
X83571429Y-90004819D01*
X83571429Y-90004819D02*
X84238095Y-90004819D01*
X84380953Y-90100057D02*
X85142857Y-90100057D01*
X85333334Y-89719104D02*
X85809524Y-89719104D01*
X85238096Y-90004819D02*
X85571429Y-89004819D01*
X85571429Y-89004819D02*
X85904762Y-90004819D01*
X86142858Y-90004819D02*
X86666667Y-89338152D01*
X86142858Y-89338152D02*
X86666667Y-90004819D01*
X87047620Y-90004819D02*
X87047620Y-89338152D01*
X87047620Y-89004819D02*
X87000001Y-89052438D01*
X87000001Y-89052438D02*
X87047620Y-89100057D01*
X87047620Y-89100057D02*
X87095239Y-89052438D01*
X87095239Y-89052438D02*
X87047620Y-89004819D01*
X87047620Y-89004819D02*
X87047620Y-89100057D01*
X87476191Y-89957200D02*
X87571429Y-90004819D01*
X87571429Y-90004819D02*
X87761905Y-90004819D01*
X87761905Y-90004819D02*
X87857143Y-89957200D01*
X87857143Y-89957200D02*
X87904762Y-89861961D01*
X87904762Y-89861961D02*
X87904762Y-89814342D01*
X87904762Y-89814342D02*
X87857143Y-89719104D01*
X87857143Y-89719104D02*
X87761905Y-89671485D01*
X87761905Y-89671485D02*
X87619048Y-89671485D01*
X87619048Y-89671485D02*
X87523810Y-89623866D01*
X87523810Y-89623866D02*
X87476191Y-89528628D01*
X87476191Y-89528628D02*
X87476191Y-89481009D01*
X87476191Y-89481009D02*
X87523810Y-89385771D01*
X87523810Y-89385771D02*
X87619048Y-89338152D01*
X87619048Y-89338152D02*
X87761905Y-89338152D01*
X87761905Y-89338152D02*
X87857143Y-89385771D01*
X89833333Y-113407200D02*
X89976190Y-113454819D01*
X89976190Y-113454819D02*
X90214285Y-113454819D01*
X90214285Y-113454819D02*
X90309523Y-113407200D01*
X90309523Y-113407200D02*
X90357142Y-113359580D01*
X90357142Y-113359580D02*
X90404761Y-113264342D01*
X90404761Y-113264342D02*
X90404761Y-113169104D01*
X90404761Y-113169104D02*
X90357142Y-113073866D01*
X90357142Y-113073866D02*
X90309523Y-113026247D01*
X90309523Y-113026247D02*
X90214285Y-112978628D01*
X90214285Y-112978628D02*
X90023809Y-112931009D01*
X90023809Y-112931009D02*
X89928571Y-112883390D01*
X89928571Y-112883390D02*
X89880952Y-112835771D01*
X89880952Y-112835771D02*
X89833333Y-112740533D01*
X89833333Y-112740533D02*
X89833333Y-112645295D01*
X89833333Y-112645295D02*
X89880952Y-112550057D01*
X89880952Y-112550057D02*
X89928571Y-112502438D01*
X89928571Y-112502438D02*
X90023809Y-112454819D01*
X90023809Y-112454819D02*
X90261904Y-112454819D01*
X90261904Y-112454819D02*
X90404761Y-112502438D01*
X90833333Y-113454819D02*
X90833333Y-112454819D01*
X90833333Y-112454819D02*
X91214285Y-112454819D01*
X91214285Y-112454819D02*
X91309523Y-112502438D01*
X91309523Y-112502438D02*
X91357142Y-112550057D01*
X91357142Y-112550057D02*
X91404761Y-112645295D01*
X91404761Y-112645295D02*
X91404761Y-112788152D01*
X91404761Y-112788152D02*
X91357142Y-112883390D01*
X91357142Y-112883390D02*
X91309523Y-112931009D01*
X91309523Y-112931009D02*
X91214285Y-112978628D01*
X91214285Y-112978628D02*
X90833333Y-112978628D01*
X91738095Y-112454819D02*
X92357142Y-112454819D01*
X92357142Y-112454819D02*
X92023809Y-112835771D01*
X92023809Y-112835771D02*
X92166666Y-112835771D01*
X92166666Y-112835771D02*
X92261904Y-112883390D01*
X92261904Y-112883390D02*
X92309523Y-112931009D01*
X92309523Y-112931009D02*
X92357142Y-113026247D01*
X92357142Y-113026247D02*
X92357142Y-113264342D01*
X92357142Y-113264342D02*
X92309523Y-113359580D01*
X92309523Y-113359580D02*
X92261904Y-113407200D01*
X92261904Y-113407200D02*
X92166666Y-113454819D01*
X92166666Y-113454819D02*
X91880952Y-113454819D01*
X91880952Y-113454819D02*
X91785714Y-113407200D01*
X91785714Y-113407200D02*
X91738095Y-113359580D01*
X93214285Y-112788152D02*
X93214285Y-113454819D01*
X92976190Y-112407200D02*
X92738095Y-113121485D01*
X92738095Y-113121485D02*
X93357142Y-113121485D01*
X93880952Y-112883390D02*
X93785714Y-112835771D01*
X93785714Y-112835771D02*
X93738095Y-112788152D01*
X93738095Y-112788152D02*
X93690476Y-112692914D01*
X93690476Y-112692914D02*
X93690476Y-112645295D01*
X93690476Y-112645295D02*
X93738095Y-112550057D01*
X93738095Y-112550057D02*
X93785714Y-112502438D01*
X93785714Y-112502438D02*
X93880952Y-112454819D01*
X93880952Y-112454819D02*
X94071428Y-112454819D01*
X94071428Y-112454819D02*
X94166666Y-112502438D01*
X94166666Y-112502438D02*
X94214285Y-112550057D01*
X94214285Y-112550057D02*
X94261904Y-112645295D01*
X94261904Y-112645295D02*
X94261904Y-112692914D01*
X94261904Y-112692914D02*
X94214285Y-112788152D01*
X94214285Y-112788152D02*
X94166666Y-112835771D01*
X94166666Y-112835771D02*
X94071428Y-112883390D01*
X94071428Y-112883390D02*
X93880952Y-112883390D01*
X93880952Y-112883390D02*
X93785714Y-112931009D01*
X93785714Y-112931009D02*
X93738095Y-112978628D01*
X93738095Y-112978628D02*
X93690476Y-113073866D01*
X93690476Y-113073866D02*
X93690476Y-113264342D01*
X93690476Y-113264342D02*
X93738095Y-113359580D01*
X93738095Y-113359580D02*
X93785714Y-113407200D01*
X93785714Y-113407200D02*
X93880952Y-113454819D01*
X93880952Y-113454819D02*
X94071428Y-113454819D01*
X94071428Y-113454819D02*
X94166666Y-113407200D01*
X94166666Y-113407200D02*
X94214285Y-113359580D01*
X94214285Y-113359580D02*
X94261904Y-113264342D01*
X94261904Y-113264342D02*
X94261904Y-113073866D01*
X94261904Y-113073866D02*
X94214285Y-112978628D01*
X94214285Y-112978628D02*
X94166666Y-112931009D01*
X94166666Y-112931009D02*
X94071428Y-112883390D01*
X95166666Y-112454819D02*
X94690476Y-112454819D01*
X94690476Y-112454819D02*
X94642857Y-112931009D01*
X94642857Y-112931009D02*
X94690476Y-112883390D01*
X94690476Y-112883390D02*
X94785714Y-112835771D01*
X94785714Y-112835771D02*
X95023809Y-112835771D01*
X95023809Y-112835771D02*
X95119047Y-112883390D01*
X95119047Y-112883390D02*
X95166666Y-112931009D01*
X95166666Y-112931009D02*
X95214285Y-113026247D01*
X95214285Y-113026247D02*
X95214285Y-113264342D01*
X95214285Y-113264342D02*
X95166666Y-113359580D01*
X95166666Y-113359580D02*
X95119047Y-113407200D01*
X95119047Y-113407200D02*
X95023809Y-113454819D01*
X95023809Y-113454819D02*
X94785714Y-113454819D01*
X94785714Y-113454819D02*
X94690476Y-113407200D01*
X94690476Y-113407200D02*
X94642857Y-113359580D01*
X95642857Y-112931009D02*
X95976190Y-112931009D01*
X96119047Y-113454819D02*
X95642857Y-113454819D01*
X95642857Y-113454819D02*
X95642857Y-112454819D01*
X95642857Y-112454819D02*
X96119047Y-112454819D01*
X96547619Y-113454819D02*
X96547619Y-112454819D01*
X96547619Y-112454819D02*
X97119047Y-113454819D01*
X97119047Y-113454819D02*
X97119047Y-112454819D01*
X118857142Y-87859580D02*
X118809523Y-87907200D01*
X118809523Y-87907200D02*
X118666666Y-87954819D01*
X118666666Y-87954819D02*
X118571428Y-87954819D01*
X118571428Y-87954819D02*
X118428571Y-87907200D01*
X118428571Y-87907200D02*
X118333333Y-87811961D01*
X118333333Y-87811961D02*
X118285714Y-87716723D01*
X118285714Y-87716723D02*
X118238095Y-87526247D01*
X118238095Y-87526247D02*
X118238095Y-87383390D01*
X118238095Y-87383390D02*
X118285714Y-87192914D01*
X118285714Y-87192914D02*
X118333333Y-87097676D01*
X118333333Y-87097676D02*
X118428571Y-87002438D01*
X118428571Y-87002438D02*
X118571428Y-86954819D01*
X118571428Y-86954819D02*
X118666666Y-86954819D01*
X118666666Y-86954819D02*
X118809523Y-87002438D01*
X118809523Y-87002438D02*
X118857142Y-87050057D01*
X119809523Y-87954819D02*
X119238095Y-87954819D01*
X119523809Y-87954819D02*
X119523809Y-86954819D01*
X119523809Y-86954819D02*
X119428571Y-87097676D01*
X119428571Y-87097676D02*
X119333333Y-87192914D01*
X119333333Y-87192914D02*
X119238095Y-87240533D01*
X120714285Y-86954819D02*
X120238095Y-86954819D01*
X120238095Y-86954819D02*
X120190476Y-87431009D01*
X120190476Y-87431009D02*
X120238095Y-87383390D01*
X120238095Y-87383390D02*
X120333333Y-87335771D01*
X120333333Y-87335771D02*
X120571428Y-87335771D01*
X120571428Y-87335771D02*
X120666666Y-87383390D01*
X120666666Y-87383390D02*
X120714285Y-87431009D01*
X120714285Y-87431009D02*
X120761904Y-87526247D01*
X120761904Y-87526247D02*
X120761904Y-87764342D01*
X120761904Y-87764342D02*
X120714285Y-87859580D01*
X120714285Y-87859580D02*
X120666666Y-87907200D01*
X120666666Y-87907200D02*
X120571428Y-87954819D01*
X120571428Y-87954819D02*
X120333333Y-87954819D01*
X120333333Y-87954819D02*
X120238095Y-87907200D01*
X120238095Y-87907200D02*
X120190476Y-87859580D01*
X102357142Y-77859580D02*
X102309523Y-77907200D01*
X102309523Y-77907200D02*
X102166666Y-77954819D01*
X102166666Y-77954819D02*
X102071428Y-77954819D01*
X102071428Y-77954819D02*
X101928571Y-77907200D01*
X101928571Y-77907200D02*
X101833333Y-77811961D01*
X101833333Y-77811961D02*
X101785714Y-77716723D01*
X101785714Y-77716723D02*
X101738095Y-77526247D01*
X101738095Y-77526247D02*
X101738095Y-77383390D01*
X101738095Y-77383390D02*
X101785714Y-77192914D01*
X101785714Y-77192914D02*
X101833333Y-77097676D01*
X101833333Y-77097676D02*
X101928571Y-77002438D01*
X101928571Y-77002438D02*
X102071428Y-76954819D01*
X102071428Y-76954819D02*
X102166666Y-76954819D01*
X102166666Y-76954819D02*
X102309523Y-77002438D01*
X102309523Y-77002438D02*
X102357142Y-77050057D01*
X103309523Y-77954819D02*
X102738095Y-77954819D01*
X103023809Y-77954819D02*
X103023809Y-76954819D01*
X103023809Y-76954819D02*
X102928571Y-77097676D01*
X102928571Y-77097676D02*
X102833333Y-77192914D01*
X102833333Y-77192914D02*
X102738095Y-77240533D01*
X104261904Y-77954819D02*
X103690476Y-77954819D01*
X103976190Y-77954819D02*
X103976190Y-76954819D01*
X103976190Y-76954819D02*
X103880952Y-77097676D01*
X103880952Y-77097676D02*
X103785714Y-77192914D01*
X103785714Y-77192914D02*
X103690476Y-77240533D01*
X127833333Y-98859580D02*
X127785714Y-98907200D01*
X127785714Y-98907200D02*
X127642857Y-98954819D01*
X127642857Y-98954819D02*
X127547619Y-98954819D01*
X127547619Y-98954819D02*
X127404762Y-98907200D01*
X127404762Y-98907200D02*
X127309524Y-98811961D01*
X127309524Y-98811961D02*
X127261905Y-98716723D01*
X127261905Y-98716723D02*
X127214286Y-98526247D01*
X127214286Y-98526247D02*
X127214286Y-98383390D01*
X127214286Y-98383390D02*
X127261905Y-98192914D01*
X127261905Y-98192914D02*
X127309524Y-98097676D01*
X127309524Y-98097676D02*
X127404762Y-98002438D01*
X127404762Y-98002438D02*
X127547619Y-97954819D01*
X127547619Y-97954819D02*
X127642857Y-97954819D01*
X127642857Y-97954819D02*
X127785714Y-98002438D01*
X127785714Y-98002438D02*
X127833333Y-98050057D01*
X128166667Y-97954819D02*
X128833333Y-97954819D01*
X128833333Y-97954819D02*
X128404762Y-98954819D01*
X144833333Y-131904819D02*
X144500000Y-131428628D01*
X144261905Y-131904819D02*
X144261905Y-130904819D01*
X144261905Y-130904819D02*
X144642857Y-130904819D01*
X144642857Y-130904819D02*
X144738095Y-130952438D01*
X144738095Y-130952438D02*
X144785714Y-131000057D01*
X144785714Y-131000057D02*
X144833333Y-131095295D01*
X144833333Y-131095295D02*
X144833333Y-131238152D01*
X144833333Y-131238152D02*
X144785714Y-131333390D01*
X144785714Y-131333390D02*
X144738095Y-131381009D01*
X144738095Y-131381009D02*
X144642857Y-131428628D01*
X144642857Y-131428628D02*
X144261905Y-131428628D01*
X145166667Y-130904819D02*
X145833333Y-130904819D01*
X145833333Y-130904819D02*
X145404762Y-131904819D01*
X93208075Y-67859580D02*
X93160456Y-67907200D01*
X93160456Y-67907200D02*
X93017599Y-67954819D01*
X93017599Y-67954819D02*
X92922361Y-67954819D01*
X92922361Y-67954819D02*
X92779504Y-67907200D01*
X92779504Y-67907200D02*
X92684266Y-67811961D01*
X92684266Y-67811961D02*
X92636647Y-67716723D01*
X92636647Y-67716723D02*
X92589028Y-67526247D01*
X92589028Y-67526247D02*
X92589028Y-67383390D01*
X92589028Y-67383390D02*
X92636647Y-67192914D01*
X92636647Y-67192914D02*
X92684266Y-67097676D01*
X92684266Y-67097676D02*
X92779504Y-67002438D01*
X92779504Y-67002438D02*
X92922361Y-66954819D01*
X92922361Y-66954819D02*
X93017599Y-66954819D01*
X93017599Y-66954819D02*
X93160456Y-67002438D01*
X93160456Y-67002438D02*
X93208075Y-67050057D01*
X93541409Y-66954819D02*
X94160456Y-66954819D01*
X94160456Y-66954819D02*
X93827123Y-67335771D01*
X93827123Y-67335771D02*
X93969980Y-67335771D01*
X93969980Y-67335771D02*
X94065218Y-67383390D01*
X94065218Y-67383390D02*
X94112837Y-67431009D01*
X94112837Y-67431009D02*
X94160456Y-67526247D01*
X94160456Y-67526247D02*
X94160456Y-67764342D01*
X94160456Y-67764342D02*
X94112837Y-67859580D01*
X94112837Y-67859580D02*
X94065218Y-67907200D01*
X94065218Y-67907200D02*
X93969980Y-67954819D01*
X93969980Y-67954819D02*
X93684266Y-67954819D01*
X93684266Y-67954819D02*
X93589028Y-67907200D01*
X93589028Y-67907200D02*
X93541409Y-67859580D01*
X163333333Y-111407200D02*
X163476190Y-111454819D01*
X163476190Y-111454819D02*
X163714285Y-111454819D01*
X163714285Y-111454819D02*
X163809523Y-111407200D01*
X163809523Y-111407200D02*
X163857142Y-111359580D01*
X163857142Y-111359580D02*
X163904761Y-111264342D01*
X163904761Y-111264342D02*
X163904761Y-111169104D01*
X163904761Y-111169104D02*
X163857142Y-111073866D01*
X163857142Y-111073866D02*
X163809523Y-111026247D01*
X163809523Y-111026247D02*
X163714285Y-110978628D01*
X163714285Y-110978628D02*
X163523809Y-110931009D01*
X163523809Y-110931009D02*
X163428571Y-110883390D01*
X163428571Y-110883390D02*
X163380952Y-110835771D01*
X163380952Y-110835771D02*
X163333333Y-110740533D01*
X163333333Y-110740533D02*
X163333333Y-110645295D01*
X163333333Y-110645295D02*
X163380952Y-110550057D01*
X163380952Y-110550057D02*
X163428571Y-110502438D01*
X163428571Y-110502438D02*
X163523809Y-110454819D01*
X163523809Y-110454819D02*
X163761904Y-110454819D01*
X163761904Y-110454819D02*
X163904761Y-110502438D01*
X164333333Y-111454819D02*
X164333333Y-110454819D01*
X164333333Y-110454819D02*
X164714285Y-110454819D01*
X164714285Y-110454819D02*
X164809523Y-110502438D01*
X164809523Y-110502438D02*
X164857142Y-110550057D01*
X164857142Y-110550057D02*
X164904761Y-110645295D01*
X164904761Y-110645295D02*
X164904761Y-110788152D01*
X164904761Y-110788152D02*
X164857142Y-110883390D01*
X164857142Y-110883390D02*
X164809523Y-110931009D01*
X164809523Y-110931009D02*
X164714285Y-110978628D01*
X164714285Y-110978628D02*
X164333333Y-110978628D01*
X165238095Y-110454819D02*
X165857142Y-110454819D01*
X165857142Y-110454819D02*
X165523809Y-110835771D01*
X165523809Y-110835771D02*
X165666666Y-110835771D01*
X165666666Y-110835771D02*
X165761904Y-110883390D01*
X165761904Y-110883390D02*
X165809523Y-110931009D01*
X165809523Y-110931009D02*
X165857142Y-111026247D01*
X165857142Y-111026247D02*
X165857142Y-111264342D01*
X165857142Y-111264342D02*
X165809523Y-111359580D01*
X165809523Y-111359580D02*
X165761904Y-111407200D01*
X165761904Y-111407200D02*
X165666666Y-111454819D01*
X165666666Y-111454819D02*
X165380952Y-111454819D01*
X165380952Y-111454819D02*
X165285714Y-111407200D01*
X165285714Y-111407200D02*
X165238095Y-111359580D01*
X166714285Y-110788152D02*
X166714285Y-111454819D01*
X166476190Y-110407200D02*
X166238095Y-111121485D01*
X166238095Y-111121485D02*
X166857142Y-111121485D01*
X167380952Y-110883390D02*
X167285714Y-110835771D01*
X167285714Y-110835771D02*
X167238095Y-110788152D01*
X167238095Y-110788152D02*
X167190476Y-110692914D01*
X167190476Y-110692914D02*
X167190476Y-110645295D01*
X167190476Y-110645295D02*
X167238095Y-110550057D01*
X167238095Y-110550057D02*
X167285714Y-110502438D01*
X167285714Y-110502438D02*
X167380952Y-110454819D01*
X167380952Y-110454819D02*
X167571428Y-110454819D01*
X167571428Y-110454819D02*
X167666666Y-110502438D01*
X167666666Y-110502438D02*
X167714285Y-110550057D01*
X167714285Y-110550057D02*
X167761904Y-110645295D01*
X167761904Y-110645295D02*
X167761904Y-110692914D01*
X167761904Y-110692914D02*
X167714285Y-110788152D01*
X167714285Y-110788152D02*
X167666666Y-110835771D01*
X167666666Y-110835771D02*
X167571428Y-110883390D01*
X167571428Y-110883390D02*
X167380952Y-110883390D01*
X167380952Y-110883390D02*
X167285714Y-110931009D01*
X167285714Y-110931009D02*
X167238095Y-110978628D01*
X167238095Y-110978628D02*
X167190476Y-111073866D01*
X167190476Y-111073866D02*
X167190476Y-111264342D01*
X167190476Y-111264342D02*
X167238095Y-111359580D01*
X167238095Y-111359580D02*
X167285714Y-111407200D01*
X167285714Y-111407200D02*
X167380952Y-111454819D01*
X167380952Y-111454819D02*
X167571428Y-111454819D01*
X167571428Y-111454819D02*
X167666666Y-111407200D01*
X167666666Y-111407200D02*
X167714285Y-111359580D01*
X167714285Y-111359580D02*
X167761904Y-111264342D01*
X167761904Y-111264342D02*
X167761904Y-111073866D01*
X167761904Y-111073866D02*
X167714285Y-110978628D01*
X167714285Y-110978628D02*
X167666666Y-110931009D01*
X167666666Y-110931009D02*
X167571428Y-110883390D01*
X168666666Y-110454819D02*
X168190476Y-110454819D01*
X168190476Y-110454819D02*
X168142857Y-110931009D01*
X168142857Y-110931009D02*
X168190476Y-110883390D01*
X168190476Y-110883390D02*
X168285714Y-110835771D01*
X168285714Y-110835771D02*
X168523809Y-110835771D01*
X168523809Y-110835771D02*
X168619047Y-110883390D01*
X168619047Y-110883390D02*
X168666666Y-110931009D01*
X168666666Y-110931009D02*
X168714285Y-111026247D01*
X168714285Y-111026247D02*
X168714285Y-111264342D01*
X168714285Y-111264342D02*
X168666666Y-111359580D01*
X168666666Y-111359580D02*
X168619047Y-111407200D01*
X168619047Y-111407200D02*
X168523809Y-111454819D01*
X168523809Y-111454819D02*
X168285714Y-111454819D01*
X168285714Y-111454819D02*
X168190476Y-111407200D01*
X168190476Y-111407200D02*
X168142857Y-111359580D01*
X169142857Y-110931009D02*
X169476190Y-110931009D01*
X169619047Y-111454819D02*
X169142857Y-111454819D01*
X169142857Y-111454819D02*
X169142857Y-110454819D01*
X169142857Y-110454819D02*
X169619047Y-110454819D01*
X170047619Y-111454819D02*
X170047619Y-110454819D01*
X170047619Y-110454819D02*
X170619047Y-111454819D01*
X170619047Y-111454819D02*
X170619047Y-110454819D01*
X146761905Y-120954819D02*
X146761905Y-119954819D01*
X146761905Y-119954819D02*
X147000000Y-119954819D01*
X147000000Y-119954819D02*
X147142857Y-120002438D01*
X147142857Y-120002438D02*
X147238095Y-120097676D01*
X147238095Y-120097676D02*
X147285714Y-120192914D01*
X147285714Y-120192914D02*
X147333333Y-120383390D01*
X147333333Y-120383390D02*
X147333333Y-120526247D01*
X147333333Y-120526247D02*
X147285714Y-120716723D01*
X147285714Y-120716723D02*
X147238095Y-120811961D01*
X147238095Y-120811961D02*
X147142857Y-120907200D01*
X147142857Y-120907200D02*
X147000000Y-120954819D01*
X147000000Y-120954819D02*
X146761905Y-120954819D01*
X148190476Y-119954819D02*
X148000000Y-119954819D01*
X148000000Y-119954819D02*
X147904762Y-120002438D01*
X147904762Y-120002438D02*
X147857143Y-120050057D01*
X147857143Y-120050057D02*
X147761905Y-120192914D01*
X147761905Y-120192914D02*
X147714286Y-120383390D01*
X147714286Y-120383390D02*
X147714286Y-120764342D01*
X147714286Y-120764342D02*
X147761905Y-120859580D01*
X147761905Y-120859580D02*
X147809524Y-120907200D01*
X147809524Y-120907200D02*
X147904762Y-120954819D01*
X147904762Y-120954819D02*
X148095238Y-120954819D01*
X148095238Y-120954819D02*
X148190476Y-120907200D01*
X148190476Y-120907200D02*
X148238095Y-120859580D01*
X148238095Y-120859580D02*
X148285714Y-120764342D01*
X148285714Y-120764342D02*
X148285714Y-120526247D01*
X148285714Y-120526247D02*
X148238095Y-120431009D01*
X148238095Y-120431009D02*
X148190476Y-120383390D01*
X148190476Y-120383390D02*
X148095238Y-120335771D01*
X148095238Y-120335771D02*
X147904762Y-120335771D01*
X147904762Y-120335771D02*
X147809524Y-120383390D01*
X147809524Y-120383390D02*
X147761905Y-120431009D01*
X147761905Y-120431009D02*
X147714286Y-120526247D01*
X171976190Y-103004819D02*
X172547618Y-103004819D01*
X172261904Y-104004819D02*
X172261904Y-103004819D01*
X172880952Y-104004819D02*
X172880952Y-103004819D01*
X172880952Y-103004819D02*
X173261904Y-103004819D01*
X173261904Y-103004819D02*
X173357142Y-103052438D01*
X173357142Y-103052438D02*
X173404761Y-103100057D01*
X173404761Y-103100057D02*
X173452380Y-103195295D01*
X173452380Y-103195295D02*
X173452380Y-103338152D01*
X173452380Y-103338152D02*
X173404761Y-103433390D01*
X173404761Y-103433390D02*
X173357142Y-103481009D01*
X173357142Y-103481009D02*
X173261904Y-103528628D01*
X173261904Y-103528628D02*
X172880952Y-103528628D01*
X173642857Y-104100057D02*
X174404761Y-104100057D01*
X174642857Y-104004819D02*
X174642857Y-103004819D01*
X174642857Y-103004819D02*
X175214285Y-104004819D01*
X175214285Y-104004819D02*
X175214285Y-103004819D01*
X176261904Y-104004819D02*
X175928571Y-103528628D01*
X175690476Y-104004819D02*
X175690476Y-103004819D01*
X175690476Y-103004819D02*
X176071428Y-103004819D01*
X176071428Y-103004819D02*
X176166666Y-103052438D01*
X176166666Y-103052438D02*
X176214285Y-103100057D01*
X176214285Y-103100057D02*
X176261904Y-103195295D01*
X176261904Y-103195295D02*
X176261904Y-103338152D01*
X176261904Y-103338152D02*
X176214285Y-103433390D01*
X176214285Y-103433390D02*
X176166666Y-103481009D01*
X176166666Y-103481009D02*
X176071428Y-103528628D01*
X176071428Y-103528628D02*
X175690476Y-103528628D01*
X176690476Y-103481009D02*
X177023809Y-103481009D01*
X177166666Y-104004819D02*
X176690476Y-104004819D01*
X176690476Y-104004819D02*
X176690476Y-103004819D01*
X176690476Y-103004819D02*
X177166666Y-103004819D01*
X177357143Y-104100057D02*
X178119047Y-104100057D01*
X178690476Y-103481009D02*
X178833333Y-103528628D01*
X178833333Y-103528628D02*
X178880952Y-103576247D01*
X178880952Y-103576247D02*
X178928571Y-103671485D01*
X178928571Y-103671485D02*
X178928571Y-103814342D01*
X178928571Y-103814342D02*
X178880952Y-103909580D01*
X178880952Y-103909580D02*
X178833333Y-103957200D01*
X178833333Y-103957200D02*
X178738095Y-104004819D01*
X178738095Y-104004819D02*
X178357143Y-104004819D01*
X178357143Y-104004819D02*
X178357143Y-103004819D01*
X178357143Y-103004819D02*
X178690476Y-103004819D01*
X178690476Y-103004819D02*
X178785714Y-103052438D01*
X178785714Y-103052438D02*
X178833333Y-103100057D01*
X178833333Y-103100057D02*
X178880952Y-103195295D01*
X178880952Y-103195295D02*
X178880952Y-103290533D01*
X178880952Y-103290533D02*
X178833333Y-103385771D01*
X178833333Y-103385771D02*
X178785714Y-103433390D01*
X178785714Y-103433390D02*
X178690476Y-103481009D01*
X178690476Y-103481009D02*
X178357143Y-103481009D01*
X122666666Y-37454819D02*
X122666666Y-38169104D01*
X122666666Y-38169104D02*
X122619047Y-38311961D01*
X122619047Y-38311961D02*
X122523809Y-38407200D01*
X122523809Y-38407200D02*
X122380952Y-38454819D01*
X122380952Y-38454819D02*
X122285714Y-38454819D01*
X123095238Y-37550057D02*
X123142857Y-37502438D01*
X123142857Y-37502438D02*
X123238095Y-37454819D01*
X123238095Y-37454819D02*
X123476190Y-37454819D01*
X123476190Y-37454819D02*
X123571428Y-37502438D01*
X123571428Y-37502438D02*
X123619047Y-37550057D01*
X123619047Y-37550057D02*
X123666666Y-37645295D01*
X123666666Y-37645295D02*
X123666666Y-37740533D01*
X123666666Y-37740533D02*
X123619047Y-37883390D01*
X123619047Y-37883390D02*
X123047619Y-38454819D01*
X123047619Y-38454819D02*
X123666666Y-38454819D01*
X85933333Y-59454819D02*
X85600000Y-58978628D01*
X85361905Y-59454819D02*
X85361905Y-58454819D01*
X85361905Y-58454819D02*
X85742857Y-58454819D01*
X85742857Y-58454819D02*
X85838095Y-58502438D01*
X85838095Y-58502438D02*
X85885714Y-58550057D01*
X85885714Y-58550057D02*
X85933333Y-58645295D01*
X85933333Y-58645295D02*
X85933333Y-58788152D01*
X85933333Y-58788152D02*
X85885714Y-58883390D01*
X85885714Y-58883390D02*
X85838095Y-58931009D01*
X85838095Y-58931009D02*
X85742857Y-58978628D01*
X85742857Y-58978628D02*
X85361905Y-58978628D01*
X86885714Y-59454819D02*
X86314286Y-59454819D01*
X86600000Y-59454819D02*
X86600000Y-58454819D01*
X86600000Y-58454819D02*
X86504762Y-58597676D01*
X86504762Y-58597676D02*
X86409524Y-58692914D01*
X86409524Y-58692914D02*
X86314286Y-58740533D01*
%TO.C,R13*%
D12*
X127190000Y-68107828D02*
X127190000Y-65007828D01*
X129310000Y-68107828D02*
X129310000Y-65007828D01*
%TO.C,R2*%
X101550000Y-118840000D02*
X98450000Y-118840000D01*
X101550000Y-122160000D02*
X98450000Y-122160000D01*
%TO.C,C14*%
X145100000Y-86940000D02*
X141900000Y-86940000D01*
X145100000Y-89060000D02*
X141900000Y-89060000D01*
%TO.C,C16*%
X118400000Y-81440000D02*
X121600000Y-81440000D01*
X118400000Y-83560000D02*
X121600000Y-83560000D01*
%TO.C,TP11*%
X176200000Y-80500000D02*
G75*
G02*
X173800000Y-80500000I-1200000J0D01*
G01*
X173800000Y-80500000D02*
G75*
G02*
X176200000Y-80500000I1200000J0D01*
G01*
%TO.C,TP7*%
X176700000Y-106500000D02*
G75*
G02*
X174300000Y-106500000I-1200000J0D01*
G01*
X174300000Y-106500000D02*
G75*
G02*
X176700000Y-106500000I1200000J0D01*
G01*
%TO.C,C19*%
X147940000Y-81450000D02*
X147940000Y-84650000D01*
X150060000Y-81450000D02*
X150060000Y-84650000D01*
%TO.C,TP13*%
X176700000Y-88000000D02*
G75*
G02*
X174300000Y-88000000I-1200000J0D01*
G01*
X174300000Y-88000000D02*
G75*
G02*
X176700000Y-88000000I1200000J0D01*
G01*
%TO.C,C9*%
X137940000Y-72600000D02*
X137940000Y-69400000D01*
X140060000Y-72600000D02*
X140060000Y-69400000D01*
%TO.C,TP3*%
X84700000Y-105500000D02*
G75*
G02*
X82300000Y-105500000I-1200000J0D01*
G01*
X82300000Y-105500000D02*
G75*
G02*
X84700000Y-105500000I1200000J0D01*
G01*
%TO.C,J1*%
X142025000Y-38250000D02*
X142025000Y-39750000D01*
X142650000Y-36390000D02*
X152730000Y-36390000D01*
X142650000Y-40435564D02*
X142650000Y-36390000D01*
X142650000Y-40435564D02*
X143824436Y-41610000D01*
X152730000Y-36390000D02*
X152730000Y-41610000D01*
X152730000Y-41610000D02*
X143824436Y-41610000D01*
%TO.C,C12*%
X102400000Y-87940000D02*
X105600000Y-87940000D01*
X102400000Y-90060000D02*
X105600000Y-90060000D01*
%TO.C,TP1*%
X84700000Y-99500000D02*
G75*
G02*
X82300000Y-99500000I-1200000J0D01*
G01*
X82300000Y-99500000D02*
G75*
G02*
X84700000Y-99500000I1200000J0D01*
G01*
%TO.C,R12*%
X122100000Y-55440000D02*
X119000000Y-55440000D01*
X122100000Y-57560000D02*
X119000000Y-57560000D01*
%TO.C,TP6*%
X176700000Y-95500000D02*
G75*
G02*
X174300000Y-95500000I-1200000J0D01*
G01*
X174300000Y-95500000D02*
G75*
G02*
X176700000Y-95500000I1200000J0D01*
G01*
%TO.C,TP4*%
X84700000Y-111000000D02*
G75*
G02*
X82300000Y-111000000I-1200000J0D01*
G01*
X82300000Y-111000000D02*
G75*
G02*
X84700000Y-111000000I1200000J0D01*
G01*
%TO.C,R5*%
X158450000Y-118340000D02*
X161550000Y-118340000D01*
X158450000Y-121660000D02*
X161550000Y-121660000D01*
%TO.C,C2*%
X103550000Y-59440000D02*
X100350000Y-59440000D01*
X103550000Y-61560000D02*
X100350000Y-61560000D01*
%TO.C,C13*%
X124100000Y-84425736D02*
X127300000Y-84425736D01*
X124100000Y-86545736D02*
X127300000Y-86545736D01*
%TO.C,R3*%
X83950000Y-64940000D02*
X87050000Y-64940000D01*
X83950000Y-67060000D02*
X87050000Y-67060000D01*
%TO.C,R4*%
X99340000Y-50500000D02*
X99340000Y-53600000D01*
X101460000Y-50500000D02*
X101460000Y-53600000D01*
%TO.C,C4*%
X104590000Y-118000000D02*
X104590000Y-116000000D01*
X106410000Y-118000000D02*
X106410000Y-116000000D01*
%TO.C,J4*%
D13*
X155240000Y-124300000D02*
X175760000Y-124300000D01*
X155240000Y-134300000D02*
X155240000Y-124300000D01*
X175760000Y-124300000D02*
X175760000Y-134300000D01*
X175760000Y-134300000D02*
X155240000Y-134300000D01*
D14*
X174500000Y-131100000D02*
G75*
G02*
X174300000Y-131100000I-100000J0D01*
G01*
X174300000Y-131100000D02*
G75*
G02*
X174500000Y-131100000I100000J0D01*
G01*
%TO.C,TP15*%
D12*
X85200000Y-81500000D02*
G75*
G02*
X82800000Y-81500000I-1200000J0D01*
G01*
X82800000Y-81500000D02*
G75*
G02*
X85200000Y-81500000I1200000J0D01*
G01*
%TO.C,D5*%
X111620000Y-122130000D02*
X114380000Y-122130000D01*
X112850000Y-128263000D02*
X113150000Y-128263000D01*
X113000000Y-128413000D02*
X113000000Y-128113000D01*
X114380000Y-122130000D02*
G75*
G02*
X111620000Y-122130000I-1380000J-2646671D01*
G01*
%TO.C,Y1*%
D15*
X116465000Y-78420000D02*
X116465000Y-71700000D01*
X121535000Y-71700000D02*
X121535000Y-78420000D01*
D12*
X116465000Y-71700000D02*
G75*
G02*
X121535000Y-71700000I2535000J-110680D01*
G01*
X121535000Y-78420000D02*
G75*
G02*
X116465000Y-78420000I-2535000J110680D01*
G01*
%TO.C,J5*%
X179215000Y-69750000D02*
X179215000Y-68250000D01*
X177505000Y-55320000D02*
X178705000Y-55320000D01*
X178705000Y-59820000D01*
X177505000Y-59820000D01*
X177505000Y-55320000D01*
G36*
X177505000Y-55320000D02*
G01*
X178705000Y-55320000D01*
X178705000Y-59820000D01*
X177505000Y-59820000D01*
X177505000Y-55320000D01*
G37*
X169720000Y-40960000D02*
X178740000Y-40960000D01*
X178740000Y-74180000D01*
X169720000Y-74180000D01*
X169720000Y-40960000D01*
%TO.C,R6*%
X111940000Y-133000000D02*
X111940000Y-129900000D01*
X114060000Y-133000000D02*
X114060000Y-129900000D01*
%TO.C,J6*%
X117700000Y-109700000D02*
X142300000Y-109700000D01*
X117700000Y-119300000D02*
X117700000Y-109700000D01*
X142300000Y-109700000D02*
X142300000Y-119300000D01*
X142300000Y-119300000D02*
X117700000Y-119300000D01*
%TO.C,TP14*%
X85200000Y-75500000D02*
G75*
G02*
X82800000Y-75500000I-1200000J0D01*
G01*
X82800000Y-75500000D02*
G75*
G02*
X85200000Y-75500000I1200000J0D01*
G01*
%TO.C,SW3*%
X136625000Y-129875000D02*
X136625000Y-127125000D01*
X123480000Y-125090000D02*
X136400000Y-125090000D01*
X136400000Y-131910000D01*
X123480000Y-131910000D01*
X123480000Y-125090000D01*
%TO.C,TP9*%
X84700000Y-95000000D02*
G75*
G02*
X82300000Y-95000000I-1200000J0D01*
G01*
X82300000Y-95000000D02*
G75*
G02*
X84700000Y-95000000I1200000J0D01*
G01*
%TO.C,TP2*%
X84700000Y-116500000D02*
G75*
G02*
X82300000Y-116500000I-1200000J0D01*
G01*
X82300000Y-116500000D02*
G75*
G02*
X84700000Y-116500000I1200000J0D01*
G01*
%TO.C,C6*%
X140900000Y-99940000D02*
X144100000Y-99940000D01*
X140900000Y-102060000D02*
X144100000Y-102060000D01*
%TO.C,C18*%
X114600000Y-76440000D02*
X111400000Y-76440000D01*
X114600000Y-78560000D02*
X111400000Y-78560000D01*
%TO.C,U4*%
D16*
X132350000Y-97750000D02*
X135850000Y-97750000D01*
X132350000Y-104250000D02*
X135850000Y-104250000D01*
X135850000Y-97750000D02*
X135850000Y-98990000D01*
X135850000Y-104250000D02*
X135850000Y-103010000D01*
D13*
X129600000Y-98700000D02*
G75*
G02*
X129400000Y-98700000I-100000J0D01*
G01*
X129400000Y-98700000D02*
G75*
G02*
X129600000Y-98700000I100000J0D01*
G01*
%TO.C,R10*%
D12*
X91806384Y-61440000D02*
X94906384Y-61440000D01*
X91806384Y-63560000D02*
X94906384Y-63560000D01*
%TO.C,R11*%
X115600000Y-55440000D02*
X112500000Y-55440000D01*
X115600000Y-57560000D02*
X112500000Y-57560000D01*
%TO.C,TP12*%
X135200000Y-38500000D02*
G75*
G02*
X132800000Y-38500000I-1200000J0D01*
G01*
X132800000Y-38500000D02*
G75*
G02*
X135200000Y-38500000I1200000J0D01*
G01*
%TO.C,J3*%
D13*
X84740000Y-124300000D02*
X105260000Y-124300000D01*
X84740000Y-134300000D02*
X84740000Y-124300000D01*
X105260000Y-124300000D02*
X105260000Y-134300000D01*
X105260000Y-134300000D02*
X84740000Y-134300000D01*
D14*
X104000000Y-131100000D02*
G75*
G02*
X103800000Y-131100000I-100000J0D01*
G01*
X103800000Y-131100000D02*
G75*
G02*
X104000000Y-131100000I100000J0D01*
G01*
%TO.C,SW1*%
D12*
X157390000Y-76940000D02*
X157390000Y-71060000D01*
X157600000Y-79085000D02*
X158900000Y-79085000D01*
X159160000Y-70890000D02*
X161840000Y-70890000D01*
X161840000Y-77110000D02*
X159160000Y-77110000D01*
X163610000Y-76940000D02*
X163610000Y-71060000D01*
%TO.C,C1*%
X83900000Y-67940000D02*
X87100000Y-67940000D01*
X83900000Y-70060000D02*
X87100000Y-70060000D01*
%TO.C,R8*%
X100300000Y-56440000D02*
X103400000Y-56440000D01*
X100300000Y-58560000D02*
X103400000Y-58560000D01*
%TO.C,C10*%
X135940000Y-85600000D02*
X135940000Y-82400000D01*
X138060000Y-85600000D02*
X138060000Y-82400000D01*
%TO.C,TP5*%
X176700000Y-112500000D02*
G75*
G02*
X174300000Y-112500000I-1200000J0D01*
G01*
X174300000Y-112500000D02*
G75*
G02*
X176700000Y-112500000I1200000J0D01*
G01*
%TO.C,C17*%
X114600000Y-71560000D02*
X111400000Y-71560000D01*
X114600000Y-73680000D02*
X111400000Y-73680000D01*
%TO.C,C8*%
X124440000Y-64850000D02*
X124440000Y-68050000D01*
X126560000Y-64850000D02*
X126560000Y-68050000D01*
%TO.C,C5*%
X164090000Y-118000000D02*
X164090000Y-116000000D01*
X165910000Y-118000000D02*
X165910000Y-116000000D01*
%TO.C,U1*%
X124890000Y-71390000D02*
X125840000Y-71390000D01*
X124890000Y-72340000D02*
X124890000Y-71390000D01*
X124890000Y-81610000D02*
X124890000Y-80660000D01*
X125840000Y-81610000D02*
X124890000Y-81610000D01*
X134160000Y-71390000D02*
X135110000Y-71390000D01*
X135110000Y-71390000D02*
X135110000Y-72340000D01*
X135110000Y-80660000D02*
X135110000Y-81610000D01*
X135110000Y-81610000D02*
X134160000Y-81610000D01*
X124250000Y-72340000D02*
X123910000Y-71870000D01*
X124590000Y-71870000D01*
X124250000Y-72340000D01*
G36*
X124250000Y-72340000D02*
G01*
X123910000Y-71870000D01*
X124590000Y-71870000D01*
X124250000Y-72340000D01*
G37*
%TO.C,R9*%
X90846384Y-55450000D02*
X90846384Y-58550000D01*
X92966384Y-55450000D02*
X92966384Y-58550000D01*
%TO.C,TP16*%
X85200000Y-87500000D02*
G75*
G02*
X82800000Y-87500000I-1200000J0D01*
G01*
X82800000Y-87500000D02*
G75*
G02*
X85200000Y-87500000I1200000J0D01*
G01*
%TO.C,U2*%
X97440000Y-110940000D02*
X97535000Y-110940000D01*
X97440000Y-115060000D02*
X97440000Y-110940000D01*
X97535000Y-115060000D02*
X97440000Y-115060000D01*
X102465000Y-110940000D02*
X102560000Y-110940000D01*
X102560000Y-110940000D02*
X102560000Y-115060000D01*
X102560000Y-115060000D02*
X102465000Y-115060000D01*
X102470000Y-110400000D02*
X102800000Y-110160000D01*
X102800000Y-110640000D01*
X102470000Y-110400000D01*
G36*
X102800000Y-110640000D02*
G01*
X102470000Y-110400000D01*
X102800000Y-110160000D01*
X102800000Y-110640000D01*
G37*
%TO.C,C15*%
X121600000Y-83940000D02*
X118400000Y-83940000D01*
X121600000Y-86060000D02*
X118400000Y-86060000D01*
%TO.C,C11*%
X107197056Y-84330940D02*
X107197056Y-84830940D01*
X107447056Y-84580940D02*
X106947056Y-84580940D01*
X107510000Y-82000000D02*
G75*
G02*
X100990000Y-82000000I-3260000J0D01*
G01*
X100990000Y-82000000D02*
G75*
G02*
X107510000Y-82000000I3260000J0D01*
G01*
%TO.C,C7*%
X126940000Y-103314312D02*
X126940000Y-100114312D01*
X129060000Y-103314312D02*
X129060000Y-100114312D01*
%TO.C,R7*%
X146440000Y-133000000D02*
X146440000Y-129900000D01*
X148560000Y-133000000D02*
X148560000Y-129900000D01*
%TO.C,C3*%
X91850000Y-64440000D02*
X95050000Y-64440000D01*
X91850000Y-66560000D02*
X95050000Y-66560000D01*
%TO.C,U3*%
X157440000Y-110940000D02*
X157535000Y-110940000D01*
X157440000Y-115060000D02*
X157440000Y-110940000D01*
X157535000Y-115060000D02*
X157440000Y-115060000D01*
X162465000Y-110940000D02*
X162560000Y-110940000D01*
X162560000Y-110940000D02*
X162560000Y-115060000D01*
X162560000Y-115060000D02*
X162465000Y-115060000D01*
X162470000Y-110400000D02*
X162800000Y-110160000D01*
X162800000Y-110640000D01*
X162470000Y-110400000D01*
G36*
X162800000Y-110640000D02*
G01*
X162470000Y-110400000D01*
X162800000Y-110160000D01*
X162800000Y-110640000D01*
G37*
%TO.C,D6*%
X146120000Y-122130000D02*
X148880000Y-122130000D01*
X147350000Y-128263000D02*
X147650000Y-128263000D01*
X147500000Y-128413000D02*
X147500000Y-128113000D01*
X148880000Y-122130000D02*
G75*
G02*
X146120000Y-122130000I-1380000J-2646671D01*
G01*
%TO.C,TP8*%
X176700000Y-101500000D02*
G75*
G02*
X174300000Y-101500000I-1200000J0D01*
G01*
X174300000Y-101500000D02*
G75*
G02*
X176700000Y-101500000I1200000J0D01*
G01*
%TO.C,J2*%
X90111038Y-48565000D02*
X91761038Y-48565000D01*
X80921038Y-35550000D02*
X120341038Y-35550000D01*
X120341038Y-48090000D01*
X80921038Y-48090000D01*
X80921038Y-35550000D01*
%TO.C,R1*%
X82940000Y-57450000D02*
X82940000Y-60550000D01*
X85060000Y-57450000D02*
X85060000Y-60550000D01*
%TD*%
M02*
